<?xml version="1.0" encoding="UTF-8"?>
<svg id="Layer_2" data-name="Layer 2" xmlns="http://www.w3.org/2000/svg" viewBox="0 0 135.97 167.71">
  <defs>
    <style>
      .cls-1 {
        fill: #72a88f;
      }

      .cls-1, .cls-2, .cls-3, .cls-4, .cls-5, .cls-6, .cls-7, .cls-8, .cls-9, .cls-10, .cls-11, .cls-12, .cls-13 {
        stroke-width: 0px;
      }

      .cls-14 {
        fill: #72a890;
        font-family: HiraKakuStd-W8-83pv-RKSJ-H, 'Hiragino Kaku Gothic Std';
        font-size: 29px;
        letter-spacing: .1em;
      }

      .cls-2 {
        fill: #73a891;
      }

      .cls-3 {
        fill: #fbb040;
      }

      .cls-4 {
        fill: #44c1c6;
      }

      .cls-5 {
        fill: #f05f7f;
      }

      .cls-6 {
        fill: #f0607f;
      }

      .cls-7 {
        fill: #ed79af;
      }

      .cls-8 {
        fill: #ec78af;
      }

      .cls-9 {
        fill: #e5c085;
      }

      .cls-15 {
        fill: none;
        stroke: #6d6e71;
        stroke-miterlimit: 10;
        stroke-width: .25px;
      }

      .cls-10 {
        fill: #41c1c6;
      }

      .cls-11 {
        fill: #fbf7c0;
      }

      .cls-12 {
        fill: #fcf7bf;
      }

      .cls-13 {
        fill: #fbd307;
      }
    </style>
  </defs>
  <g id="Layer_1-2" data-name="Layer 1">
    <path class="cls-9" d="M9.05,160.63c20.9,4.53,74.64,13.67,117.94-.59,4.95-1.63,8.27-6.3,8.27-11.51v-39.91s-.02-.04-.04-.04H.19s-.04.02-.04.04v40.96c0,5.31,3.7,9.92,8.89,11.05Z"/>
    <path class="cls-10" d="M135.95,118.83c-.01-2.78.15-5.15-.28-7.6.04-1.29-.32-2.48-1.07-3.56,0,0,0,0,0,0-.19-.43-.42-.79-.67-1.11-4.32-7.57-32.48-13.42-66.59-13.42C30.24,93.14.16,100.05.16,108.58c0,.4.08.8.21,1.19-.06.35-.08.72-.06,1.12.22,5.37.12,10.72-.29,16.08-.21,2.8,2.46,4.86,4.97,5,3.54.2,7.02-1.33,8.93-4.45.75-1.23.95-4.51,1.34-4.93-.14.15-.13-1.1.05.3.15,1.19.17,2.4.23,3.6.22,4.2-.33,9.52,2.13,13.16,2.09,3.1,6.23,4.58,9.78,3.33,3.55-1.25,5.44-4.38,5.9-7.98.26-2.05.18-4.13.34-6.19.02-.27.19-.92.11-1.33,0,0,0,0,0,0,.4.67.87,2.14,1.05,2.47,1.97,3.44,5.52,5.35,9.5,4.49,1.38-.3,2.57-.86,3.63-1.58.05,5.59,3.04,10.6,9.52,10.03,6.78-.6,7.87-5.93,9.96-11.17.32-.81.43-1.25.45-1.49.16-.03.42-.14.85-.39,1.18-.71,4.42-.15,5.92-.17.21,0,.42,0,.63,0,.88,1.22,1.64,2.53,2.84,3.5,2.12,1.73,4.84,2.38,7.53,1.94,2.81-.46,5.09-2.04,6.88-4.22.74-.9,1.18-1.95,1.82-2.9.51-.54.41-.84-.29-.93.76,0,1.52.03,2.28.08.61.03,3.92.03,3.98.09.19.17.18,2.04.17,3.1,0,2.23-.3,4.72.49,6.85,1.87,5.09,8.33,5.43,12.31,2.59,2.44-1.74,2.83-4.26,2.85-7.05,0-1.39-.15-2.71.06-4.1.17-1.18,1.19-2.85,1.54-4.1.27.15.55.29.81.45,1.25.79,1.87,1.37,2.44,2.7,1.11,2.56.54,5.24,2.87,7.35,4.6,4.16,10.12-.23,10.93-5.24.03-.2.05-.4.07-.6.63-2.09.9-4.02,1-6.01,0-.03,0-.07,0-.1,0-.02,0-.04,0-.06.04-.87.05-1.75.05-2.66,0-.02,0-.03,0-.05,0-.48,0-.97,0-1.48Z"/>
    <path class="cls-9" d="M25.28,108.13c15.11,3.28,53.98,9.88,85.29-.42,3.58-1.18,5.98-4.56,5.98-8.33v-28.86s-.01-.03-.03-.03H18.88s-.03.01-.03.03v29.62c0,3.84,2.67,7.18,6.43,7.99Z"/>
    <path class="cls-10" d="M116.53,70.76c0-.09.03-.18.03-.28,0-6.17-21.87-11.17-48.85-11.17s-48.85,5-48.85,11.17c0,.39.09.78.27,1.17-.24.55-.39,1.16-.42,1.86-.25,5.17-2.78,15.04,3.71,17.4,2.47.9,5.1.15,6.95-1.68,1.09-1.09,1.21-2.9,2.19-3.86,1.16-1.14,1.76-.7,3.34-.58.16.81.38,1.61.65,2.39.48,1.45,1.08,3.17,1.9,4.49,1.68,2.73,4.06,3.51,7.16,3.36,5.86-.27,9.22-4.01,10.84-9.01.06.13.1.27.16.39.54,1.14,1.21,2.24,2.17,3.07,2.11,1.82,4.94,1.91,7.3.49,1-.61,2.61-3.01,3.79-3-1.09,0-.05,2.16.14,3.33.58,3.71,1.11,6.97,2.66,10.45,1.23,2.75,5.97,3.38,7.85,1.01,1.75-2.21,2.83-4.22,3.22-7.04.23-1.64.24-3.21.13-4.86-.11-1.69-.38-1.78.7-2.78,1.7-1.57,5.89-1.07,7.89-.49,2.89.83,4.65,3.1,7.34,4.21,5.3,2.18,10.52-1.72,11.89-6.92.28-1.06.31-1.96.19-2.74,2.05-.62,3.85-1.44,5.21-3.44,1.82-2.68,1.68-5.09.46-6.92Z"/>
    <path class="cls-9" d="M36.32,66.7c11.18,2.42,39.94,7.31,63.11-.31,2.65-.87,4.43-3.37,4.43-6.16v-21.36s0-.02-.02-.02H31.58s-.02,0-.02.02v21.92c0,2.84,1.98,5.31,4.76,5.91Z"/>
    <path class="cls-10" d="M103.95,40.32c0-.43-.04-.84-.13-1.21.01-.09.03-.17.03-.26,0-4.56-16.18-8.27-36.15-8.27s-36.15,3.7-36.15,8.27c0,.04.01.08.01.12-.13.44-.2.92-.21,1.45-.02,1.97-.03,3.94-.05,5.92-.02,2.99,3.26,6.01,6.33,4.82.77-.3,2.65-1.09,4.06-1.98.37,1.42.89,2.71,1.51,4.06,1.21,2.64,4.58,2.8,6.84,1.79,1.5-.67,2.74-1.6,3.94-2.72.82-.76,2.02-2.81,3.25-2.87.43-.02.83-.09,1.2-.19,1.98,2.73,4.32,5.18,8.19,3.98,2.01-.62,3.85-2.48,4.99-4.21.02-.02.03-.05.05-.07.9.78,2.83,3.31,1.48,1.84,2.62,2.85,5.7,4.91,9.75,3.26,2-.81,3.34-2.33,4.29-4.22.54-1.08.45-1.45,1.32-1.67.35-.09,1.11.19,1.8.51,1.66,3.64,3.94,6.98,8.9,5.64,6.02-1.64,4.69-9.26,4.72-13.99Z"/>
    <path class="cls-4" d="M117.82,78.58c-.11-3.74.23-7.98-2.69-10.73-4.68-4.41-11.77,2.65-7.07,7.07-.83-.78-.27,2.59-.26,2.88.06,1.57.08,3.14.07,4.71-.02,3.14-.21,6.28-.48,9.41-.57,6.41,9.44,6.37,10,0,.39-4.44.57-8.88.44-13.34Z"/>
    <path class="cls-12" d="M106.32,115.23c-.65.53-1.44,1.33-2.47,1.44-1.03.11-2.38-.48-3.15-.93-1.21-.71-2.81-.86-3.99,0-.99.72-1.2,2.26,0,2.96,2.09,1.22,4.51,2.21,7.26,2.15,2.62-.06,4.67-1.29,6.35-2.66,2.44-1.99-1.54-4.96-3.99-2.96Z"/>
    <ellipse class="cls-5" cx="103.48" cy="114.57" rx="4.32" ry="4.16"/>
    <g>
      <path class="cls-12" d="M126.94,105.84c-.65.53-1.44,1.33-2.47,1.44-1.03.11-2.38-.48-3.15-.93-1.21-.71-2.81-.86-3.99,0-.99.72-1.2,2.26,0,2.96,2.09,1.22,4.51,2.21,7.26,2.15,2.62-.06,4.67-1.29,6.35-2.66,2.44-1.99-1.54-4.96-3.99-2.96Z"/>
      <ellipse class="cls-5" cx="124.1" cy="105.18" rx="4.32" ry="4.16"/>
    </g>
    <g>
      <path class="cls-12" d="M71.49,118.34c-.65.53-1.44,1.33-2.47,1.44-1.03.11-2.38-.48-3.15-.93-1.21-.71-2.81-.86-3.99,0-.99.72-1.2,2.26,0,2.96,2.09,1.22,4.51,2.21,7.26,2.15,2.62-.06,4.67-1.29,6.35-2.66,2.44-1.99-1.54-4.96-3.99-2.96Z"/>
      <ellipse class="cls-5" cx="68.65" cy="117.67" rx="4.32" ry="4.16"/>
    </g>
    <g>
      <path class="cls-12" d="M39.93,116.29c-.65.53-1.44,1.33-2.47,1.44-1.03.11-2.38-.48-3.15-.93-1.21-.71-2.81-.86-3.99,0-.99.72-1.2,2.26,0,2.96,2.09,1.22,4.51,2.21,7.26,2.15,2.62-.06,4.67-1.29,6.35-2.66,2.44-1.99-1.54-4.96-3.99-2.96Z"/>
      <ellipse class="cls-5" cx="37.09" cy="115.63" rx="4.32" ry="4.16"/>
    </g>
    <g>
      <path class="cls-12" d="M13.25,105.84c-.65.53-1.44,1.33-2.47,1.44-1.03.11-2.38-.48-3.15-.93-1.21-.71-2.81-.86-3.99,0-.99.72-1.2,2.26,0,2.96,2.09,1.22,4.51,2.21,7.26,2.15,2.62-.06,4.67-1.29,6.35-2.66,2.44-1.99-1.54-4.96-3.99-2.96Z"/>
      <ellipse class="cls-5" cx="10.41" cy="105.18" rx="4.32" ry="4.16"/>
    </g>
    <g>
      <path class="cls-15" d="M94.2,26.67s1.15-1.43.27-3.51"/>
      <rect class="cls-2" x="93.05" y="25.09" width="3.42" height="14.63" rx=".76" ry=".76"/>
      <path class="cls-3" d="M95.66,19.18s2.59,3.82.39,4.73-3.33-.91-3.33-.91c0,0-.6-1.58.67-3.47s2.1-2.49,2.1-2.49c0,0-.36,1.23.18,2.14Z"/>
      <path class="cls-13" d="M95.21,20.5s1.3,1.91.19,2.37-1.67-.46-1.67-.46c0,0-.3-.79.33-1.74s1.05-1.24,1.05-1.24c0,0-.18.62.09,1.07Z"/>
    </g>
    <path class="cls-15" d="M52.9,30.88s1.15-1.43.27-3.51"/>
    <rect class="cls-7" x="51.76" y="29.3" width="3.42" height="14.63" rx=".76" ry=".76"/>
    <path class="cls-3" d="M54.37,23.39s2.59,3.82.39,4.73-3.33-.91-3.33-.91c0,0-.6-1.58.67-3.47s2.1-2.49,2.1-2.49c0,0-.36,1.23.18,2.14Z"/>
    <path class="cls-13" d="M53.92,24.71s1.3,1.91.19,2.37-1.67-.46-1.67-.46c0,0-.3-.79.33-1.74s1.05-1.24,1.05-1.24c0,0-.18.62.09,1.07Z"/>
    <g>
      <path class="cls-15" d="M40.62,26.86s1.15-1.43.27-3.51"/>
      <rect class="cls-2" x="39.47" y="25.28" width="3.42" height="14.63" rx=".76" ry=".76"/>
      <path class="cls-3" d="M42.08,19.37s2.59,3.82.39,4.73-3.33-.91-3.33-.91c0,0-.6-1.58.67-3.47s2.1-2.49,2.1-2.49c0,0-.36,1.23.18,2.14Z"/>
      <path class="cls-13" d="M41.63,20.69s1.3,1.91.19,2.37-1.67-.46-1.67-.46c0,0-.3-.79.33-1.74s1.05-1.24,1.05-1.24c0,0-.18.62.09,1.07Z"/>
    </g>
    <g>
      <path class="cls-15" d="M83.23,28.87s1.15-1.43.27-3.51"/>
      <rect class="cls-7" x="82.09" y="27.29" width="3.42" height="14.63" rx=".76" ry=".76"/>
      <path class="cls-3" d="M84.7,21.38s2.59,3.82.39,4.73-3.33-.91-3.33-.91c0,0-.6-1.58.67-3.47s2.1-2.49,2.1-2.49c0,0-.36,1.23.18,2.14Z"/>
      <path class="cls-13" d="M84.25,22.7s1.3,1.91.19,2.37-1.67-.46-1.67-.46c0,0-.3-.79.33-1.74s1.05-1.24,1.05-1.24c0,0-.18.62.09,1.07Z"/>
    </g>
    <text class="cls-14" transform="translate(58 32.75) scale(.94 1)"><tspan x="0" y="0">5</tspan></text>
    <path class="cls-15" d="M67.17,9.63s1.15-1.43.27-3.51"/>
    <path class="cls-3" d="M68.63,2.14s2.59,3.82.39,4.73-3.33-.91-3.33-.91c0,0-.6-1.58.67-3.47s2.1-2.49,2.1-2.49c0,0-.36,1.23.18,2.14Z"/>
    <path class="cls-13" d="M68.18,3.46s1.3,1.91.19,2.37-1.67-.46-1.67-.46c0,0-.3-.79.33-1.74s1.05-1.24,1.05-1.24c0,0-.18.62.09,1.07Z"/>
    <rect class="cls-11" x="28.78" y="72.01" width="7.98" height="1.58" rx=".79" ry=".79"/>
    <rect class="cls-6" x="23.3" y="66.71" width="7.98" height="1.58" rx=".79" ry=".79" transform="translate(-25.83 17.71) rotate(-24.85)"/>
    <rect class="cls-3" x="19.44" y="77.05" width="7.98" height="1.58" rx=".79" ry=".79" transform="translate(-51.26 45.75) rotate(-50)"/>
    <rect class="cls-8" x="38.21" y="72.8" width="7.98" height="1.58" rx=".79" ry=".79" transform="translate(-15.93 135.37) rotate(-106.92)"/>
    <rect class="cls-1" x="30.89" y="79.89" width="7.98" height="1.58" rx=".79" ry=".79" transform="translate(-35.67 28.25) rotate(-30)"/>
    <rect class="cls-6" x="48.8" y="74.7" width="7.98" height="1.58" rx=".79" ry=".79"/>
    <rect class="cls-8" x="72.26" y="79.34" width="7.98" height="1.58" rx=".79" ry=".79" transform="translate(21.76 176.4) rotate(-106.92)"/>
    <rect class="cls-3" x="42.26" y="84.46" width="7.98" height="1.58" rx=".79" ry=".79" transform="translate(-39 131.5) rotate(-90)"/>
    <rect class="cls-1" x="63.74" y="77.05" width="7.98" height="1.58" rx=".79" ry=".79" transform="translate(-10.11 145.56) rotate(-90)"/>
    <rect class="cls-11" x="80.04" y="73.59" width="8.11" height="1.58" rx=".79" ry=".79" transform="translate(-20.37 33.25) rotate(-20)"/>
    <rect class="cls-8" x="55.87" y="82.61" width="7.98" height="1.58" rx=".79" ry=".79" transform="translate(149.22 133.92) rotate(155.15)"/>
    <rect class="cls-3" x="70.72" y="92.92" width="7.98" height="1.58" rx=".79" ry=".79" transform="translate(-19 168.42) rotate(-90)"/>
    <rect class="cls-6" x="86.3" y="81.04" width="7.98" height="1.58" rx=".79" ry=".79"/>
    <rect class="cls-8" x="96.43" y="71" width="7.98" height="1.58" rx=".79" ry=".79" transform="translate(30.61 -30.02) rotate(20)"/>
    <rect class="cls-1" x="108.2" y="71.58" width="7.98" height="1.58" rx=".79" ry=".79" transform="translate(-17.99 42.73) rotate(-20)"/>
    <rect class="cls-3" x="98.71" y="81.04" width="7.98" height="1.58" rx=".79" ry=".79" transform="translate(20.87 184.52) rotate(-90)"/>
    <rect class="cls-11" x="108.72" y="85.81" width="8.11" height="1.58" rx=".79" ry=".79" transform="translate(108.33 228.72) rotate(-125.73)"/>
  </g>
</svg>