<?xml version="1.0" encoding="UTF-8"?>
<svg id="Layer_2" data-name="Layer 2" xmlns="http://www.w3.org/2000/svg" viewBox="0 0 132.74 60.22">
  <defs>
    <style>
      .cls-1 {
        fill: #221f20;
      }

      .cls-1, .cls-2, .cls-3 {
        stroke-width: 0px;
      }

      .cls-2 {
        fill: #c0b59e;
      }

      .cls-4 {
        fill: none;
      }

      .cls-4, .cls-5 {
        stroke: #221f20;
        stroke-miterlimit: 10;
      }

      .cls-3 {
        fill: #2d388b;
      }

      .cls-5 {
        fill: #3974b7;
      }
    </style>
  </defs>
  <g id="Layer_1-2" data-name="Layer 1">
    <g>
      <path class="cls-5" d="M124.97,46.96c4.65-10.1,16.75-40.8-6.74-42.74-2.69-.22-5.37-.5-8.02-.98-11.85-2.11-44.32-6.48-67.2,3.86C21.71,16.73,8.46,32.45,3.13,39.76c-2.75,3.77-3.48,8.75-1.55,13,2.73,6.04,10.87,11.27,34.25,1.6,0,0,62.23,4.92,82.33-1.39,3.02-.95,5.49-3.14,6.81-6.01Z"/>
      <path class="cls-1" d="M122.93,49.57s2.08,1.68.58,4.67-58.08,9.22-93.83,2.39l7.8-4.3s69.36,5.38,85.45-2.76Z"/>
      <path class="cls-2" d="M117.32,43.48l-7.75,7.75-7.75-7.75c-5.43-5.43,2.55-14.39,7.86-6.49,5.6-7.9,13.42.7,7.63,6.49Z"/>
      <path class="cls-3" d="M114.19,43.09l-4.57,4.57-4.57-4.57c-3.2-3.2,1.5-8.49,4.64-3.83,3.3-4.66,7.92.41,4.5,3.83Z"/>
      <path class="cls-4" d="M35.78,53.87s10.24-5.86,12.37-13.03"/>
    </g>
  </g>
</svg>