<?xml version="1.0" encoding="UTF-8"?>
<svg id="Layer_2" data-name="Layer 2" xmlns="http://www.w3.org/2000/svg" viewBox="0 0 309.71 191.24">
  <defs>
    <style>
      .cls-1 {
        fill: #949598;
      }

      .cls-1, .cls-2, .cls-3, .cls-4, .cls-5, .cls-6 {
        stroke-width: 0px;
      }

      .cls-2 {
        fill: #cac0b5;
      }

      .cls-7 {
        letter-spacing: 0em;
      }

      .cls-3 {
        fill: #b95a36;
      }

      .cls-8 {
        letter-spacing: -.02em;
      }

      .cls-9 {
        letter-spacing: -.04em;
      }

      .cls-4 {
        fill: #b6dff6;
      }

      .cls-10 {
        fill: #b95b36;
        font-family: ArialRoundedMTBold, 'Arial Rounded MT Bold';
        font-size: 33px;
      }

      .cls-5 {
        fill: #7ea691;
      }

      .cls-6 {
        fill: #3a8384;
      }
    </style>
  </defs>
  <g id="Layer_1-2" data-name="Layer 1">
    <path class="cls-1" d="M85.64,49.16h178.47c6.62,0,12,5.38,12,12v118.64H73.64V61.16c0-6.62,5.38-12,12-12Z"/>
    <rect class="cls-4" x="86.26" y="62.85" width="177.23" height="107.81"/>
    <path class="cls-2" d="M49.91,176.81h249.93v3.86c0,5.83-4.73,10.57-10.57,10.57H60.48c-5.83,0-10.57-4.73-10.57-10.57v-3.86h0Z"/>
    <rect class="cls-1" x="149.34" y="175" width="51.07" height="9.61"/>
    <text class="cls-10" transform="translate(104.18 132.07)"><tspan x="0" y="0">EN</tspan><tspan class="cls-9" x="47.08" y="0">G</tspan><tspan class="cls-8" x="71.96" y="0">A</tspan><tspan class="cls-7" x="94.88" y="0">GE</tspan></text>
    <g>
      <circle class="cls-3" cx="274.06" cy="21.27" r="15.03"/>
      <rect class="cls-3" x="247.93" y="17.8" width="16.8" height="1.48" rx=".74" ry=".74" transform="translate(8.39 -49.1) rotate(11.12)"/>
      <rect class="cls-3" x="277.09" y="17.8" width="16.8" height="1.48" rx=".74" ry=".74" transform="translate(8.94 -54.73) rotate(11.12)"/>
      <rect class="cls-3" x="255.2" y="9.41" width="16.8" height="1.48" rx=".74" ry=".74" transform="translate(93.58 -191.55) rotate(47.66)"/>
      <rect class="cls-3" x="280.69" y="27.73" width="16.8" height="1.48" rx=".74" ry=".74" transform="translate(77.19 -170.24) rotate(37.54)"/>
      <rect class="cls-3" x="250.63" y="30.33" width="16.8" height="1.48" rx=".74" ry=".74" transform="translate(464.17 -130.13) rotate(135)"/>
      <rect class="cls-3" x="280.69" y="8.39" width="16.8" height="1.48" rx=".74" ry=".74" transform="translate(499.97 -188.83) rotate(135)"/>
      <rect class="cls-3" x="266.94" y="8.39" width="16.8" height="1.48" rx=".74" ry=".74" transform="translate(303.92 -264.88) rotate(94.05)"/>
      <rect class="cls-3" x="273.65" y="35.28" width="16.8" height="1.48" rx=".74" ry=".74" transform="translate(190.76 -233.27) rotate(63.99)"/>
      <rect class="cls-3" x="261.77" y="33.23" width="16.8" height="1.48" rx=".74" ry=".74" transform="translate(355.63 -224.57) rotate(101.12)"/>
      <ellipse class="cls-3" cx="249.34" cy="16.87" rx="5" ry="1.35" transform="translate(161.62 250.88) rotate(-73.32)"/>
      <ellipse class="cls-3" cx="258.04" cy="4.05" rx="4.07" ry="1.35" transform="translate(87.03 197.33) rotate(-49.4)"/>
      <ellipse class="cls-3" cx="294.18" cy="4.05" rx="1.35" ry="4.07" transform="translate(83.3 209.2) rotate(-45)"/>
      <ellipse class="cls-3" cx="293.56" cy="20.03" rx="3.18" ry="1" transform="translate(217.28 304.21) rotate(-78.88)"/>
      <ellipse class="cls-3" cx="294.71" cy="32.91" rx="4.01" ry="1.5" transform="translate(98.23 255.03) rotate(-54.88)"/>
      <ellipse class="cls-3" cx="253.67" cy="36.44" rx="1.35" ry="4.07" transform="translate(24.35 150.83) rotate(-34.69)"/>
      <ellipse class="cls-3" cx="275.92" cy="1.02" rx="1" ry="3.18" transform="translate(255.4 276.18) rotate(-85.95)"/>
      <ellipse class="cls-3" cx="268.69" cy="41.53" rx="1" ry="3.18" transform="translate(208.27 306.61) rotate(-85.95)"/>
      <ellipse class="cls-3" cx="285.49" cy="43.06" rx="4.07" ry="1.35" transform="translate(6.24 116.39) rotate(-23.29)"/>
    </g>
    <g>
      <circle class="cls-3" cx="26.65" cy="160.8" r="15.03"/>
      <rect class="cls-3" x=".52" y="157.32" width="16.8" height="1.48" rx=".74" ry=".74" transform="translate(30.66 1.25) rotate(11.12)"/>
      <rect class="cls-3" x="29.68" y="157.32" width="16.8" height="1.48" rx=".74" ry=".74" transform="translate(31.21 -4.38) rotate(11.12)"/>
      <rect class="cls-3" x="7.79" y="148.93" width="16.8" height="1.48" rx=".74" ry=".74" transform="translate(115.93 36.9) rotate(47.66)"/>
      <rect class="cls-3" x="33.28" y="167.25" width="16.8" height="1.48" rx=".74" ry=".74" transform="translate(110.98 9.38) rotate(37.54)"/>
      <rect class="cls-3" x="3.22" y="169.85" width="16.8" height="1.48" rx=".74" ry=".74" transform="translate(140.47 283) rotate(135)"/>
      <rect class="cls-3" x="33.28" y="147.91" width="16.8" height="1.48" rx=".74" ry=".74" transform="translate(176.27 224.29) rotate(135)"/>
      <rect class="cls-3" x="19.53" y="147.91" width="16.8" height="1.48" rx=".74" ry=".74" transform="translate(178.19 131.29) rotate(94.05)"/>
      <rect class="cls-3" x="26.24" y="174.8" width="16.8" height="1.48" rx=".74" ry=".74" transform="translate(177.22 67.44) rotate(63.99)"/>
      <rect class="cls-3" x="14.36" y="172.76" width="16.8" height="1.48" rx=".74" ry=".74" transform="translate(197.39 184.63) rotate(101.12)"/>
      <ellipse class="cls-3" cx="1.93" cy="156.39" rx="5" ry="1.35" transform="translate(-148.43 113.35) rotate(-73.32)"/>
      <ellipse class="cls-3" cx="10.63" cy="143.57" rx="4.07" ry="1.35" transform="translate(-105.29 58.21) rotate(-49.4)"/>
      <ellipse class="cls-3" cx="46.76" cy="143.57" rx="1.35" ry="4.07" transform="translate(-87.82 75.12) rotate(-45)"/>
      <ellipse class="cls-3" cx="46.15" cy="159.55" rx="3.18" ry="1" transform="translate(-119.3 174.05) rotate(-78.88)"/>
      <ellipse class="cls-3" cx="47.3" cy="172.44" rx="4.01" ry="1.5" transform="translate(-120.95 111.92) rotate(-54.88)"/>
      <ellipse class="cls-3" cx="6.25" cy="175.96" rx="1.35" ry="4.07" transform="translate(-99.02 34.83) rotate(-34.69)"/>
      <ellipse class="cls-3" cx="28.51" cy="140.54" rx="1" ry="3.18" transform="translate(-113.69 159.04) rotate(-85.95)"/>
      <ellipse class="cls-3" cx="21.28" cy="181.05" rx="1" ry="3.18" transform="translate(-160.83 189.48) rotate(-85.95)"/>
      <ellipse class="cls-3" cx="38.08" cy="182.58" rx="4.07" ry="1.35" transform="translate(-69.09 29.93) rotate(-23.29)"/>
    </g>
    <path class="cls-6" d="M289.1,88.87c1.04.11-3.5-17.33-3.65-18.01,0-.01,0-.02-.01-.04-.08-.19-.83-2.08,1.23-3.34,2.17-1.33,15.88-8.99,15.88-8.99,0,0,2.25-1.34,2.64.58l4.4,21.71c.45,2.22-.3,4.56-2.07,5.96-1.29,1.02-3.02,1.53-5.13.13-1.76-1.17-2.42-3.51-1.35-5.33.73-1.25,2.26-2.28,5.36-2.01.17.01.31-.13.28-.3l-2.29-11.64c-.03-.17-.22-.26-.38-.17l-14.93,8.54c-.09.05-.14.16-.12.27l3,15.11c.32,1.6-.1,3.3-1.21,4.49-.56.6-1.29,1.08-2.23,1.2-1.35.17-2.71-.28-3.76-.79-1.61-.78-2.56-2.57-2.14-4.31,0,0,.84-3.63,6.49-3.06Z"/>
    <path class="cls-5" d="M63.91,35.73l5.24,9.87s.05.03.07.02c.26-.18.48-.32.68-.44.16-.15.32-.3.47-.46,0,0,.19-.22.26-.3.05-.06.1-.13.11-.14.19-.24.37-.49.54-.73.15-.21.33-.39.52-.55.07-.27.15-.58.27-.96,0-.03-.01-.06-.05-.06-5.4-.01-5.7-10.77-7.42-10.68-2.81.14-3.09,2.49-3.11,2.73,0,.02,0,.03,0,.04-.23.78-5.27,21.11-6.28,20.42-5.44-3.71-8.31-.49-8.32-.48,0,0,0,0,0,0-1.4,1.54-1.42,3.89-.21,5.59.79,1.1,1.93,2.31,3.4,2.89,1.07.42,2.13.31,3.06-.02,1.76-.62,3.08-2.11,3.63-3.9l5.33-17.08c.04-.11,1.43-5.06,1.72-5.76.02-.04.07-.04.09,0Z"/>
    <path class="cls-6" d="M42.32,119.54c1.06.33.01-18.66,0-19.4,0-.01,0-.03,0-.04-.04-.21-.42-2.33,1.97-3.2,2.53-.92,18.31-5.98,18.31-5.98,0,0,2.61-.92,2.61,1.15v23.38c0,2.39-1.26,4.65-3.39,5.74-1.54.79-3.45.95-5.33-.94-1.57-1.58-1.77-4.14-.28-5.8,1.02-1.14,2.82-1.88,5.97-.95.17.05.35-.07.35-.25l.07-12.52c0-.18-.18-.31-.35-.26l-17.24,5.71c-.11.04-.18.14-.18.25l-.07,16.26c0,1.73-.79,3.39-2.2,4.39-.7.5-1.56.85-2.56.77-1.44-.11-2.75-.86-3.72-1.61-1.5-1.15-2.11-3.19-1.31-4.9,0,0,1.63-3.58,7.35-1.81Z"/>
    <path class="cls-5" d="M288.62,126.1l10.56,4.83s.06,0,.07-.03c.1-.31.2-.56.28-.8.04-.22.07-.45.1-.68,0,0,.02-.3.03-.41,0-.08,0-.17,0-.19,0-.32,0-.63-.01-.95,0-.27.03-.53.09-.78-.11-.26-.24-.57-.39-.97-.01-.03-.05-.04-.08-.02-4.47,3.41-11.51-5.28-12.87-4.13-2.23,1.89-.98,4.01-.84,4.22,0,.01.01.03.02.04.31.79,8.99,20.75,7.73,20.82-6.83.37-7.17,4.84-7.17,4.87,0,0,0,0,0,0-.18,2.16,1.29,4.11,3.36,4.74,1.34.41,3.05.69,4.64.24,1.14-.33,1.95-1.09,2.51-1.95,1.06-1.63,1.2-3.69.53-5.51l-6.4-17.46c-.04-.12-2.02-5.08-2.22-5.84-.01-.04.03-.08.07-.06Z"/>
    <path class="cls-6" d="M104.92,38.02c.68.21,0-12,0-12.47,0,0,0-.02,0-.02-.03-.14-.27-1.5,1.27-2.06,1.63-.59,11.77-3.84,11.77-3.84,0,0,1.67-.59,1.67.74v15.03c0,1.54-.81,2.99-2.18,3.69-.99.51-2.22.61-3.43-.61-1.01-1.02-1.14-2.66-.18-3.73.66-.73,1.81-1.21,3.84-.61.11.03.22-.05.22-.16l.05-8.05c0-.12-.11-.2-.23-.16l-11.08,3.67c-.07.02-.12.09-.12.16l-.04,10.46c0,1.11-.51,2.18-1.41,2.82-.45.32-1.01.55-1.65.5-.92-.07-1.77-.55-2.39-1.03-.97-.74-1.36-2.05-.84-3.15,0,0,1.05-2.3,4.73-1.16Z"/>
    <path class="cls-5" d="M231.17,18.95l3.56,11.06s.04.04.07.03c.3-.13.55-.24.78-.33.19-.12.38-.25.56-.38,0,0,.23-.19.32-.26.06-.05.13-.11.14-.13.24-.21.46-.43.69-.65.2-.19.41-.34.63-.46.12-.26.26-.57.45-.94.02-.03,0-.07-.04-.07-5.53-1-3.87-12.06-5.64-12.28-2.9-.37-3.62,1.98-3.69,2.22,0,.02,0,.03-.02.04-.38.76-9.25,20.64-10.16,19.75-4.88-4.79-8.41-2.02-8.43-2.01,0,0,0,0,0,0-1.71,1.32-2.16,3.72-1.24,5.68.6,1.27,1.55,2.72,2.95,3.58,1.01.62,2.12.7,3.13.54,1.92-.31,3.53-1.6,4.43-3.33l8.57-16.5c.06-.11,2.38-4.92,2.81-5.58.02-.04.08-.03.09.01Z"/>
  </g>
</svg>