<?xml version="1.0" encoding="UTF-8"?>
<svg id="Layer_2" data-name="Layer 2" xmlns="http://www.w3.org/2000/svg" viewBox="0 0 294.86 114.35">
  <defs>
    <style>
      .cls-1 {
        fill: #8b5e3c;
      }

      .cls-1, .cls-2 {
        stroke-width: 0px;
      }

      .cls-3 {
        fill: #72a890;
        font-family: ArialRoundedMTBold, 'Arial Rounded MT Bold';
        font-size: 53px;
      }

      .cls-4 {
        letter-spacing: -.04em;
      }

      .cls-2 {
        fill: #c49a6c;
      }
    </style>
  </defs>
  <g id="Layer_1-2" data-name="Layer 1">
    <text class="cls-3" transform="translate(65.31 60.8)"><tspan x="0" y="0">E</tspan></text>
    <path class="cls-2" d="M23.56,51.05S3.27,49.45,0,42.63C0,42.63,8.53,5.53,44.2,3.02c0,0,13.14-2.13,20.85,1.1,0,0,9.22.66,13.29-1.25,0,0,2.67-.74,1.08,1.43s-8.04,2.07-8.04,2.07l11.63,1.08s4.04.62.02,2.31-7.44.19-7.44.19l11.03,4.27s2.08.75-1.42,1.56-14.43-3.12-14.43-3.12l11.29,11.65s1.79,3.58-2.26,1.59-16.82-10.98-16.82-10.98c0,0-9.38-1.82-5.39,6.16l10.74,7.54s2.74,3.14-1.69,2.19-25.1-5.02-25.1-5.02c0,0-10.61-.76-12.92,7.27-2.31,8.03-5.05,17.98-5.05,17.98Z"/>
    <text class="cls-3" transform="translate(93.19 103.17)"><tspan x="0" y="0">N</tspan><tspan class="cls-4" x="40.27" y="0">G</tspan><tspan x="80.23" y="0">A</tspan></text>
    <text class="cls-3" transform="translate(246.37 103.17)"><tspan x="0" y="0">E</tspan></text>
    <text class="cls-3" transform="translate(206.86 81.4)"><tspan x="0" y="0">G</tspan></text>
    <path class="cls-1" d="M281.44,32.99s14.94-13.82,13.29-21.2c0,0-29.67-23.85-59.24-3.73,0,0-11.64,6.46-15.69,13.78,0,0-6.82,6.23-11.21,7.25,0,0-2.55,1.07.04,1.79s7.59-3.35,7.59-3.35l-8.46,8.05s-2.79,2.99,1.42,1.83,5.96-4.46,5.96-4.46l-6.01,10.18s-1.17,1.88,2.08.35,9.4-11.38,9.4-11.38l-1.65,16.14s.81,3.92,2.76-.15,6.4-19.03,6.4-19.03c0,0,6.24-7.24,8.04,1.5l-3.76,12.57s-.21,4.17,2.69.67,16.6-19.48,16.6-19.48c0,0,7.86-7.16,14.65-2.29s15.1,10.99,15.1,10.99Z"/>
  </g>
</svg>