<?xml version="1.0" encoding="UTF-8"?>
<svg id="Layer_2" data-name="Layer 2" xmlns="http://www.w3.org/2000/svg" viewBox="0 0 54.18 54.18">
  <defs>
    <style>
      .cls-1 {
        fill: none;
      }

      .cls-1, .cls-2 {
        stroke-width: 6.18px;
      }

      .cls-1, .cls-2, .cls-3 {
        stroke: #fef7da;
        stroke-linecap: round;
        stroke-linejoin: round;
      }

      .cls-2, .cls-3 {
        fill: #000;
      }

      .cls-3 {
        stroke-width: 6.18px;
      }
    </style>
  </defs>
  <g id="Layer_1-2" data-name="Layer 1">
    <path class="cls-2" d="M45.09,51.09c1.99,0,3.6-1.61,3.6-3.6s-1.61-3.6-3.6-3.6-3.6,1.61-3.6,3.6,1.61,3.6,3.6,3.6Z"/>
    <path class="cls-3" d="M21.09,51.09c1.99,0,3.6-1.61,3.6-3.6s-1.61-3.6-3.6-3.6-3.6,1.61-3.6,3.6,1.61,3.6,3.6,3.6Z"/>
    <path class="cls-1" d="M10.29,7.89h40.8l-4.8,26.4H15.09L10.29,7.89ZM10.29,7.89c-.4-1.6-2.4-4.8-7.2-4.8"/>
    <path class="cls-1" d="M46.29,34.29H10.84c-4.28,0-6.55,1.87-6.55,4.8s2.27,4.8,6.55,4.8h34.25"/>
  </g>
</svg>