<svg width="529" height="363" viewBox="0 0 529 363" fill="none" xmlns="http://www.w3.org/2000/svg">
<path fill-rule="evenodd" clip-rule="evenodd" d="M438.589 75.3278C438.318 74.9342 438.096 74.4794 437.925 73.9632C437.753 73.447 437.629 72.8888 437.553 72.2886C437.478 71.6756 437.432 71.0192 437.415 70.3195C437.41 69.6335 437.433 68.9107 437.485 68.151C437.536 67.4041 437.595 66.6255 437.663 65.8152C437.743 65.0186 437.831 64.2031 437.926 63.3687C438.021 62.5344 438.11 61.6996 438.193 60.8644C438.289 60.0171 438.366 59.175 438.423 58.3381C438.492 57.5148 438.534 56.6963 438.551 55.8825C438.567 55.0686 438.556 54.2788 438.518 53.5129C438.479 52.7471 438.413 51.9988 438.321 51.2681C438.241 50.5383 438.141 49.8264 438.019 49.1326C437.898 48.4388 437.763 47.7698 437.612 47.1258C437.476 46.4697 437.338 45.8265 437.2 45.1962C437.061 44.5788 436.921 43.9742 436.78 43.3825C436.652 42.7917 436.535 42.2211 436.431 41.6706C436.326 41.1073 436.241 40.5582 436.174 40.0233C436.119 39.4892 436.09 38.9698 436.085 38.465C436.082 37.9473 436.109 37.4447 436.168 36.9571C436.24 36.4704 436.35 35.9992 436.497 35.5435C436.646 35.075 436.832 34.6155 437.057 34.165C437.28 33.7275 437.542 33.3054 437.841 32.8988C438.141 32.4794 438.473 32.075 438.835 31.6857C439.197 31.3092 439.585 30.941 439.997 30.5809C440.409 30.2337 440.839 29.9007 441.287 29.5819C441.748 29.2769 442.227 28.986 442.724 28.7093C443.209 28.4317 443.711 28.1812 444.231 27.9578C444.75 27.7344 445.282 27.5311 445.824 27.3481C446.367 27.165 446.915 27.0082 447.467 26.8775C448.019 26.7468 448.569 26.6419 449.118 26.5627C449.68 26.4844 450.24 26.4255 450.799 26.3858C451.358 26.3461 451.922 26.3262 452.491 26.3261C453.061 26.313 453.637 26.3133 454.218 26.3269C454.798 26.3534 455.386 26.3738 455.98 26.3883C456.573 26.4157 457.172 26.4434 457.778 26.4717C458.385 26.487 459.005 26.5032 459.638 26.5203C460.272 26.5245 460.912 26.5163 461.561 26.4956C462.221 26.4887 462.889 26.4565 463.566 26.3989C464.242 26.3414 464.933 26.2654 465.638 26.171C466.343 26.0766 467.063 25.9508 467.798 25.7937C468.533 25.6367 469.282 25.4612 470.046 25.2672C470.796 25.0853 471.56 24.8849 472.338 24.6661C473.103 24.4464 473.868 24.2267 474.633 24.007C475.412 23.7753 476.184 23.5561 476.948 23.3492C477.712 23.1424 478.469 22.948 479.219 22.7661C479.969 22.5842 480.704 22.4271 481.424 22.2949C482.145 22.1627 482.85 22.0619 483.541 21.9923C484.23 21.9356 484.898 21.9163 485.543 21.9343C486.177 21.9385 486.793 21.9998 487.393 22.1181C487.981 22.2356 488.538 22.4093 489.066 22.6391C489.58 22.8681 490.072 23.1538 490.54 23.496C490.997 23.8245 491.418 24.1959 491.804 24.6102C492.188 25.0374 492.539 25.4945 492.855 25.9817C493.158 26.4809 493.426 27.0036 493.661 27.5499C493.895 28.0962 494.089 28.6656 494.243 29.2582C494.397 29.8507 494.505 30.4596 494.566 31.0846C494.627 31.6968 494.65 32.3193 494.633 32.952C494.603 33.5838 494.528 34.2126 494.408 34.8383C494.288 35.464 494.123 36.0802 493.913 36.6869C493.705 37.2807 493.439 37.8706 493.114 38.4566C492.804 39.0305 492.455 39.589 492.069 40.132C491.67 40.6741 491.246 41.208 490.796 41.7337C490.346 42.2594 489.871 42.7769 489.371 43.2863C488.871 43.7956 488.364 44.3045 487.851 44.813C487.338 45.3214 486.825 45.8235 486.313 46.319C485.787 46.8266 485.274 47.3351 484.773 47.8444C484.286 48.3546 483.811 48.8722 483.348 49.397C482.886 49.9219 482.455 50.4553 482.056 50.9974C481.657 51.5395 481.296 52.0906 480.974 52.6509C480.65 53.2239 480.371 53.813 480.136 54.4179C479.902 55.01 479.711 55.618 479.566 56.242C479.407 56.8651 479.287 57.4908 479.205 58.1191C479.111 58.7466 479.042 59.3758 479 60.0067C478.944 60.6368 478.908 61.2617 478.892 61.8816C478.863 62.5005 478.841 63.107 478.826 63.7011C478.812 64.2952 478.786 64.8691 478.748 65.4227C478.723 65.9773 478.681 66.5113 478.62 67.0246C478.559 67.5379 478.469 68.0168 478.348 68.4614C478.239 68.9197 478.094 69.3367 477.914 69.7126C477.733 70.0884 477.509 70.4289 477.243 70.7342C476.976 71.0395 476.667 71.3096 476.314 71.5444C475.976 71.7672 475.594 71.9676 475.168 72.1456C474.742 72.3237 474.279 72.4733 473.779 72.5946C473.291 72.7297 472.766 72.8428 472.204 72.934C471.64 73.038 471.046 73.127 470.42 73.2009C469.807 73.2757 469.161 73.3483 468.484 73.4187C467.806 73.4891 467.103 73.5578 466.374 73.6248C465.645 73.6917 464.896 73.7702 464.127 73.8602C463.357 73.9503 462.574 74.0588 461.776 74.1857C460.967 74.2989 460.142 74.437 459.303 74.5999C458.465 74.75 457.619 74.9189 456.766 75.1067C455.9 75.2808 455.041 75.4617 454.187 75.6496C453.333 75.8374 452.487 76.0192 451.647 76.195C450.808 76.358 449.989 76.5158 449.189 76.6685C448.378 76.8074 447.593 76.9288 446.836 77.0326C446.079 77.1364 445.35 77.2033 444.649 77.2334C443.961 77.2643 443.308 77.2588 442.69 77.2168C442.072 77.1748 441.51 77.0784 441.002 76.9276C440.482 76.7758 440.018 76.5696 439.609 76.309C439.212 76.0492 438.872 75.7222 438.589 75.3278Z" fill="#FDF7DA"/>
<path fill-rule="evenodd" clip-rule="evenodd" d="M513.575 105.677C513.564 106.182 513.472 106.679 513.299 107.169C513.126 107.659 512.885 108.131 512.576 108.583C512.258 109.043 511.888 109.503 511.466 109.964C511.043 110.405 510.572 110.842 510.053 111.276C509.543 111.703 509.005 112.142 508.441 112.592C507.874 113.023 507.289 113.458 506.686 113.899C506.082 114.339 505.484 114.785 504.892 115.238C504.279 115.685 503.687 116.148 503.116 116.626C502.542 117.084 501.995 117.564 501.472 118.066C500.95 118.567 500.467 119.08 500.022 119.602C499.578 120.125 499.168 120.662 498.792 121.214C498.406 121.753 498.048 122.3 497.72 122.855C497.392 123.409 497.092 123.962 496.821 124.513C496.53 125.059 496.247 125.597 495.974 126.127C495.709 126.651 495.453 127.167 495.206 127.676C494.949 128.172 494.693 128.644 494.441 129.093C494.179 129.548 493.911 129.978 493.635 130.381C493.349 130.772 493.05 131.129 492.739 131.454C492.419 131.787 492.082 132.08 491.726 132.334C491.36 132.575 490.971 132.771 490.559 132.922C490.138 133.08 489.69 133.196 489.214 133.271C488.747 133.338 488.257 133.36 487.744 133.336C487.222 133.319 486.682 133.264 486.125 133.169C485.576 133.068 485.011 132.937 484.428 132.777C483.855 132.609 483.274 132.415 482.687 132.195C482.097 131.955 481.5 131.689 480.896 131.396C480.303 131.115 479.712 130.801 479.122 130.453C478.532 130.106 477.945 129.734 477.36 129.339C476.775 128.944 476.203 128.527 475.642 128.09C475.082 127.653 474.54 127.201 474.015 126.734C473.479 126.254 472.957 125.764 472.447 125.262C471.938 124.761 471.437 124.242 470.943 123.705C470.441 123.177 469.942 122.634 469.447 122.078C468.96 121.514 468.464 120.947 467.958 120.378C467.461 119.802 466.959 119.219 466.451 118.63C465.934 118.048 465.407 117.454 464.87 116.847C464.323 116.247 463.762 115.648 463.188 115.051C462.611 114.433 462.011 113.824 461.389 113.223C460.767 112.621 460.121 112.019 459.451 111.414C458.781 110.81 458.078 110.211 457.343 109.618C456.608 109.026 455.849 108.431 455.066 107.835C454.302 107.244 453.515 106.651 452.704 106.057C451.904 105.475 451.103 104.894 450.303 104.312C449.483 103.725 448.678 103.137 447.886 102.549C447.094 101.96 446.317 101.37 445.553 100.779C444.79 100.188 444.055 99.595 443.348 99C442.641 98.405 441.967 97.8043 441.325 97.198C440.692 96.5842 440.101 95.9675 439.553 95.3477C439.006 94.7479 438.51 94.1278 438.064 93.4872C437.628 92.8593 437.253 92.2237 436.939 91.5803C436.636 90.9497 436.388 90.305 436.196 89.6462C436.005 89.0075 435.872 88.3747 435.796 87.7479C435.729 87.1138 435.71 86.493 435.74 85.8855C435.79 85.2834 435.883 84.6983 436.021 84.1302C436.158 83.5621 436.346 83.0173 436.582 82.4959C436.819 81.9745 437.105 81.4865 437.443 81.0319C437.771 80.5846 438.14 80.1681 438.55 79.7822C438.97 79.4091 439.427 79.0803 439.922 78.796C440.417 78.5117 440.944 78.2754 441.504 78.0873C442.055 77.9065 442.654 77.7829 443.301 77.7163C443.929 77.6444 444.579 77.6179 445.253 77.6369C445.937 77.6685 446.638 77.7292 447.356 77.819C448.074 77.9087 448.808 78.0276 449.56 78.1754C450.311 78.3233 451.068 78.4775 451.83 78.6381C452.592 78.7987 453.35 78.9629 454.104 79.1308C454.876 79.3041 455.638 79.4647 456.39 79.6126C457.131 79.7477 457.865 79.8666 458.594 79.969C459.322 80.0715 460.029 80.1385 460.713 80.1702C461.397 80.2018 462.054 80.1917 462.683 80.1398C463.321 80.0806 463.931 79.9697 464.512 79.8069C465.085 79.6515 465.629 79.4443 466.145 79.1854C466.671 78.9391 467.166 78.6548 467.629 78.3324C468.102 78.0227 468.554 77.6876 468.985 77.3272C469.426 76.9794 469.848 76.6163 470.249 76.2378C470.66 75.872 471.057 75.5072 471.441 75.1434C471.824 74.7796 472.205 74.4396 472.583 74.1233C472.95 73.7942 473.321 73.4953 473.694 73.2264C474.067 72.9575 474.444 72.7388 474.826 72.5701C475.206 72.3815 475.592 72.2529 475.983 72.1845C476.375 72.1161 476.781 72.1105 477.203 72.1677C477.624 72.2249 478.061 72.3449 478.513 72.5277C478.945 72.7052 479.402 72.9381 479.882 73.2265C480.362 73.5149 480.857 73.8561 481.366 74.25C481.873 74.6239 482.399 75.0469 482.943 75.5191C483.497 75.9838 484.068 76.4877 484.656 77.0306C485.234 77.5608 485.839 78.1228 486.47 78.7165C487.101 79.3101 487.754 79.9292 488.427 80.5736C489.101 81.2181 489.799 81.8742 490.522 82.542C491.245 83.2098 491.992 83.8793 492.763 84.5504C493.535 85.2415 494.336 85.9307 495.165 86.6178C495.985 87.3123 496.824 88.0021 497.681 88.6871C498.54 89.3923 499.398 90.0874 500.255 90.7725C501.112 91.4576 501.96 92.14 502.797 92.8198C503.626 93.5069 504.435 94.1787 505.223 94.835C506.013 95.5115 506.769 96.1736 507.49 96.8214C508.211 97.4691 508.885 98.1136 509.511 98.7547C510.126 99.3831 510.689 100.002 511.198 100.611C511.708 101.22 512.135 101.812 512.481 102.385C512.837 102.972 513.111 103.541 513.303 104.092C513.485 104.631 513.575 105.159 513.575 105.677Z" fill="#038585"/>
<path fill-rule="evenodd" clip-rule="evenodd" d="M322.775 59.114C322.551 58.6608 322.403 58.177 322.331 57.6625C322.258 57.148 322.254 56.6186 322.319 56.0745C322.389 55.5198 322.504 54.9407 322.666 54.3373C322.838 53.7509 323.054 53.1454 323.314 52.5208C323.569 51.9068 323.843 51.2696 324.136 50.6091C324.44 49.9655 324.757 49.3092 325.09 48.6402C325.422 47.9712 325.746 47.299 326.063 46.6236C326.399 45.9441 326.711 45.2602 326.997 44.5722C327.294 43.901 327.558 43.2225 327.79 42.5366C328.022 41.8506 328.214 41.1731 328.367 40.5041C328.52 39.835 328.636 39.1692 328.714 38.5065C328.808 37.8501 328.872 37.2001 328.907 36.5565C328.942 35.9128 328.953 35.284 328.939 34.6699C328.946 34.0517 328.948 33.444 328.945 32.8469C328.938 32.2604 328.927 31.6845 328.911 31.1192C328.911 30.5602 328.919 30.0235 328.936 29.509C328.957 28.9839 328.997 28.479 329.056 27.9941C329.129 27.5156 329.229 27.0604 329.355 26.6285C329.485 26.186 329.649 25.77 329.847 25.3805C330.061 24.9973 330.315 24.6437 330.611 24.3198C330.912 23.9854 331.256 23.6753 331.643 23.3895C332.027 23.1143 332.451 22.8688 332.917 22.653C333.388 22.4265 333.892 22.2265 334.43 22.053C334.964 21.8901 335.526 21.7452 336.116 21.6183C336.702 21.502 337.307 21.4058 337.93 21.3297C338.564 21.2705 339.216 21.2315 339.887 21.2126C340.543 21.1873 341.212 21.1927 341.896 21.2289C342.58 21.265 343.273 21.3234 343.974 21.404C344.675 21.4846 345.375 21.5896 346.074 21.7189C346.773 21.8482 347.463 21.9987 348.144 22.1703C348.84 22.3483 349.53 22.5422 350.214 22.752C350.897 22.9617 351.581 23.1905 352.266 23.4384C352.956 23.6757 353.649 23.9267 354.345 24.1916C355.037 24.4669 355.739 24.7402 356.45 25.0114C357.157 25.2932 357.872 25.5781 358.595 25.8662C359.321 26.1437 360.063 26.4276 360.821 26.7178C361.582 26.9975 362.356 27.2697 363.142 27.5345C363.939 27.8163 364.752 28.0801 365.581 28.3259C366.411 28.5717 367.262 28.8079 368.136 29.0347C369.009 29.2614 369.909 29.468 370.835 29.6546C371.761 29.8411 372.708 30.0181 373.678 30.1856C374.628 30.3573 375.6 30.5194 376.594 30.6721C377.572 30.8184 378.551 30.9647 379.529 31.111C380.527 31.2531 381.513 31.4026 382.487 31.5595C383.461 31.7164 384.423 31.8807 385.373 32.0524C386.323 32.2241 387.249 32.4106 388.151 32.6119C389.053 32.8133 389.929 33.0347 390.778 33.2763C391.623 33.5284 392.431 33.8028 393.204 34.0994C393.966 34.379 394.692 34.6999 395.384 35.0621C396.06 35.418 396.686 35.8088 397.262 36.2345C397.822 36.6538 398.339 37.1113 398.814 37.6068C399.278 38.0854 399.688 38.5852 400.045 39.1061C400.397 39.6377 400.7 40.1798 400.954 40.7324C401.189 41.2893 401.376 41.8515 401.516 42.419C401.656 42.9864 401.742 43.556 401.773 44.1277C401.804 44.6994 401.775 45.2647 401.685 45.8236C401.601 46.372 401.466 46.9119 401.28 47.4433C401.08 47.9683 400.826 48.4712 400.518 48.9517C400.211 49.4323 399.852 49.8853 399.442 50.3108C399.037 50.7257 398.562 51.112 398.019 51.4697C397.496 51.8232 396.931 52.147 396.325 52.4412C395.704 52.729 395.054 52.9988 394.375 53.2506C393.697 53.5025 392.991 53.7363 392.256 53.9521C391.521 54.1679 390.778 54.3805 390.028 54.59C389.278 54.7994 388.53 55.0036 387.784 55.2024C387.019 55.4055 386.269 55.615 385.534 55.8308C384.814 56.053 384.108 56.2868 383.414 56.5322C382.721 56.7777 382.063 57.0443 381.442 57.3322C380.82 57.62 380.242 57.9322 379.708 58.2687C379.17 58.6158 378.68 58.9958 378.239 59.4085C377.803 59.8107 377.416 60.2458 377.078 60.7136C376.725 61.1751 376.417 61.6557 376.156 62.1553C375.879 62.6486 375.633 63.1546 375.417 63.6733C375.186 64.1856 374.98 64.7022 374.799 65.223C374.603 65.7375 374.419 66.2445 374.247 66.7442C374.075 67.2438 373.894 67.7212 373.705 68.1764C373.531 68.6379 373.34 69.0741 373.133 69.4848C372.927 69.8955 372.693 70.2638 372.432 70.5899C372.182 70.9328 371.899 71.2249 371.583 71.4662C371.268 71.7075 370.91 71.9001 370.51 72.044C370.109 72.1879 369.667 72.2831 369.181 72.3296C368.716 72.3718 368.203 72.376 367.644 72.342C367.085 72.308 366.488 72.2337 365.855 72.1193C365.233 72.0217 364.571 71.8893 363.87 71.7218C363.165 71.565 362.426 71.3817 361.653 71.1719C360.895 70.9685 360.099 70.7492 359.265 70.514C358.432 70.2788 357.567 70.0309 356.672 69.7703C355.777 69.5096 354.854 69.2501 353.905 68.9916C352.955 68.733 351.983 68.484 350.99 68.2446C349.986 67.9882 348.957 67.7466 347.905 67.5198C346.857 67.2824 345.794 67.0578 344.718 66.8458C343.63 66.6169 342.548 66.3965 341.471 66.1845C340.395 65.9725 339.328 65.7585 338.271 65.5423C337.219 65.3155 336.191 65.093 335.189 64.8747C334.176 64.6394 333.2 64.401 332.261 64.1594C331.322 63.9179 330.427 63.6573 329.576 63.3776C328.74 63.1043 327.955 62.8151 327.222 62.51C326.489 62.205 325.836 61.8777 325.265 61.5283C324.678 61.1724 324.172 60.7944 323.748 60.3941C323.338 60.0002 323.014 59.5735 322.775 59.114Z" fill="#038585"/>
<path fill-rule="evenodd" clip-rule="evenodd" d="M449.242 178.531C448.971 178.137 448.75 177.682 448.578 177.166C448.406 176.65 448.282 176.092 448.206 175.492C448.132 174.879 448.086 174.222 448.069 173.523C448.063 172.837 448.087 172.114 448.138 171.354C448.189 170.607 448.248 169.829 448.316 169.018C448.396 168.222 448.484 167.406 448.579 166.572C448.675 165.738 448.764 164.903 448.846 164.067C448.943 163.22 449.019 162.378 449.076 161.541C449.145 160.718 449.188 159.899 449.204 159.086C449.221 158.272 449.209 157.482 449.171 156.716C449.132 155.95 449.067 155.202 448.974 154.471C448.894 153.741 448.794 153.03 448.673 152.336C448.552 151.642 448.416 150.973 448.266 150.329C448.129 149.673 447.992 149.03 447.853 148.399C447.714 147.782 447.574 147.177 447.433 146.586C447.305 145.995 447.189 145.424 447.084 144.874C446.98 144.31 446.894 143.761 446.827 143.226C446.773 142.692 446.743 142.173 446.739 141.668C446.735 141.15 446.763 140.648 446.822 140.16C446.894 139.674 447.003 139.202 447.151 138.747C447.299 138.278 447.485 137.819 447.71 137.368C447.934 136.931 448.195 136.509 448.494 136.102C448.795 135.683 449.126 135.278 449.489 134.889C449.851 134.512 450.238 134.144 450.65 133.784C451.062 133.437 451.492 133.104 451.941 132.785C452.401 132.48 452.88 132.189 453.378 131.912C453.862 131.635 454.364 131.384 454.884 131.161C455.404 130.938 455.935 130.734 456.478 130.551C457.02 130.368 457.568 130.211 458.12 130.081C458.672 129.95 459.223 129.845 459.771 129.766C460.333 129.688 460.893 129.629 461.452 129.589C462.011 129.549 462.575 129.529 463.144 129.529C463.714 129.516 464.29 129.516 464.871 129.53C465.452 129.557 466.039 129.577 466.633 129.591C467.226 129.619 467.826 129.647 468.432 129.675C469.039 129.69 469.659 129.706 470.291 129.723C470.925 129.728 471.566 129.719 472.214 129.699C472.874 129.692 473.543 129.66 474.219 129.602C474.896 129.545 475.586 129.469 476.291 129.374C476.996 129.28 477.716 129.154 478.451 128.997C479.187 128.84 479.936 128.664 480.699 128.47C481.449 128.288 482.213 128.088 482.991 127.869C483.756 127.65 484.521 127.43 485.287 127.21C486.065 126.978 486.837 126.759 487.601 126.552C488.366 126.346 489.123 126.151 489.873 125.969C490.622 125.787 491.357 125.63 492.078 125.498C492.798 125.366 493.504 125.265 494.194 125.195C494.883 125.139 495.551 125.119 496.196 125.137C496.83 125.142 497.447 125.203 498.047 125.321C498.634 125.439 499.191 125.612 499.719 125.842C500.234 126.071 500.725 126.357 501.194 126.699C501.65 127.028 502.071 127.399 502.457 127.813C502.842 128.24 503.192 128.698 503.509 129.185C503.811 129.684 504.079 130.207 504.314 130.753C504.549 131.299 504.743 131.869 504.897 132.461C505.05 133.054 505.158 133.663 505.219 134.288C505.281 134.9 505.303 135.522 505.286 136.155C505.256 136.787 505.181 137.416 505.061 138.041C504.941 138.667 504.776 139.283 504.567 139.89C504.358 140.484 504.092 141.074 503.768 141.66C503.457 142.234 503.108 142.792 502.722 143.335C502.323 143.877 501.899 144.411 501.449 144.937C501 145.463 500.525 145.98 500.024 146.489C499.524 146.999 499.017 147.508 498.504 148.016C497.991 148.525 497.478 149.027 496.966 149.522C496.44 150.03 495.927 150.538 495.427 151.048C494.939 151.558 494.464 152.075 494.002 152.6C493.539 153.125 493.108 153.658 492.709 154.201C492.31 154.743 491.95 155.294 491.627 155.854C491.304 156.427 491.024 157.016 490.789 157.621C490.555 158.213 490.365 158.821 490.219 159.445C490.06 160.068 489.94 160.694 489.859 161.322C489.764 161.95 489.696 162.579 489.653 163.21C489.597 163.84 489.561 164.465 489.545 165.085C489.516 165.704 489.494 166.31 489.48 166.904C489.465 167.498 489.439 168.072 489.401 168.626C489.377 169.18 489.334 169.714 489.273 170.228C489.213 170.741 489.122 171.22 489.001 171.665C488.892 172.123 488.748 172.54 488.567 172.916C488.386 173.291 488.163 173.632 487.896 173.937C487.629 174.243 487.32 174.513 486.968 174.747C486.629 174.97 486.247 175.171 485.821 175.349C485.395 175.527 484.932 175.676 484.432 175.798C483.944 175.933 483.419 176.046 482.857 176.137C482.294 176.241 481.699 176.33 481.073 176.404C480.46 176.479 479.815 176.551 479.137 176.622C478.46 176.692 477.757 176.761 477.028 176.828C476.299 176.895 475.549 176.973 474.78 177.063C474.011 177.153 473.227 177.262 472.43 177.389C471.62 177.502 470.795 177.64 469.957 177.803C469.118 177.953 468.273 178.122 467.419 178.31C466.553 178.484 465.694 178.665 464.84 178.853C463.987 179.041 463.14 179.222 462.3 179.398C461.461 179.561 460.642 179.719 459.842 179.872C459.031 180.011 458.247 180.132 457.489 180.236C456.732 180.34 456.003 180.406 455.302 180.436C454.615 180.467 453.962 180.462 453.344 180.42C452.726 180.378 452.163 180.282 451.656 180.131C451.136 179.979 450.671 179.773 450.262 179.512C449.866 179.252 449.526 178.925 449.242 178.531Z" fill="#FDF7DA"/>
<path fill-rule="evenodd" clip-rule="evenodd" d="M416.898 26.0806C417.302 26.3047 417.681 26.6888 418.033 27.233C418.405 27.7832 418.755 28.4423 419.084 29.2102C419.431 29.9842 419.779 30.8317 420.126 31.7526C420.473 32.6735 420.83 33.6294 421.198 34.6203C421.579 35.6046 421.971 36.5823 422.377 37.5535C422.782 38.5246 423.223 39.4442 423.7 40.3122C424.177 41.1802 424.689 41.9647 425.235 42.6657C425.794 43.3601 426.394 43.9518 427.034 44.4407C427.667 44.917 428.334 45.3098 429.037 45.619C429.721 45.9222 430.424 46.158 431.147 46.3266C431.864 46.5143 432.58 46.6542 433.293 46.7462C434.007 46.8382 434.702 46.9082 435.376 46.9561C436.045 47.0232 436.689 47.0875 437.307 47.1489C437.914 47.2169 438.476 47.3079 438.996 47.4218C439.503 47.5423 439.95 47.7116 440.335 47.9296C440.732 48.141 441.062 48.4045 441.325 48.7201C441.594 49.0483 441.815 49.4187 441.986 49.8312C442.177 50.25 442.335 50.7106 442.459 51.2133C442.584 51.716 442.7 52.2475 442.808 52.8078C442.916 53.3682 443.021 53.9541 443.124 54.5656C443.247 55.1832 443.385 55.8166 443.54 56.4657C443.683 57.1213 443.873 57.7922 444.111 58.4785C444.342 59.152 444.624 59.8312 444.956 60.5161C445.269 61.1948 445.627 61.8825 446.028 62.5792C446.424 63.2632 446.838 63.9533 447.271 64.6495C447.685 65.3396 448.096 66.0233 448.503 66.7008C448.918 67.3909 449.297 68.0751 449.642 68.7534C449.998 69.4251 450.305 70.0912 450.561 70.7516C450.804 71.4186 450.984 72.0705 451.101 72.7074C451.212 73.3635 451.231 73.9953 451.158 74.603C451.092 75.2233 450.919 75.8355 450.638 76.4397C450.363 77.0246 449.996 77.5854 449.537 78.1218C449.078 78.6583 448.545 79.1608 447.939 79.6291C447.32 80.104 446.644 80.5286 445.908 80.903C445.173 81.2774 444.386 81.5983 443.546 81.8656C442.707 82.133 441.833 82.3369 440.926 82.4775C440.013 82.6054 439.084 82.6601 438.14 82.6416C437.183 82.6297 436.221 82.5316 435.252 82.3474C434.29 82.1759 433.325 81.9246 432.358 81.5936C431.403 81.256 430.443 80.8801 429.479 80.466C428.52 80.0327 427.574 79.5928 426.64 79.1463C425.706 78.6998 424.785 78.2628 423.877 77.8351C422.957 77.414 422.06 77.0372 421.187 76.7048C420.307 76.3598 419.445 76.0943 418.602 75.9083C417.772 75.7158 416.961 75.6347 416.169 75.6651C415.384 75.6763 414.628 75.8179 413.901 76.09C413.156 76.356 412.449 76.7396 411.782 77.2407C411.095 77.7357 410.432 78.307 409.795 78.9546C409.157 79.6022 408.54 80.3037 407.944 81.0593C407.329 81.8087 406.734 82.5802 406.158 83.3737C405.582 84.1673 405.015 84.9479 404.457 85.7157C403.899 86.4834 403.343 87.2096 402.789 87.8944C402.241 88.5917 401.696 89.206 401.155 89.7373C400.602 90.2751 400.049 90.7236 399.495 91.0826C398.942 91.4417 398.401 91.7048 397.872 91.8719C397.338 92.0583 396.813 92.1583 396.298 92.172C395.802 92.1918 395.322 92.138 394.858 92.0105C394.401 91.8957 393.977 91.7069 393.584 91.4444C393.198 91.1944 392.847 90.8929 392.533 90.5398C392.231 90.1802 391.972 89.7816 391.755 89.3441C391.544 88.8873 391.395 88.3978 391.307 87.8755C391.208 87.3597 391.163 86.8144 391.174 86.2396C391.191 85.6455 391.242 85.0414 391.328 84.4272C391.413 83.813 391.514 83.1827 391.629 82.5361C391.752 81.9023 391.867 81.2557 391.976 80.5965C392.092 79.95 392.192 79.3036 392.276 78.6576C392.354 78.0307 392.395 77.4076 392.399 76.7882C392.402 76.1688 392.347 75.5725 392.232 74.9995C392.118 74.4265 391.932 73.8832 391.675 73.3696C391.418 72.8561 391.086 72.3659 390.68 71.8992C390.286 71.4259 389.83 70.9695 389.311 70.5299C388.805 70.0837 388.252 69.6383 387.651 69.1935C387.051 68.7486 386.425 68.301 385.774 67.8505C385.116 67.3874 384.442 66.9085 383.752 66.4138C383.061 65.9192 382.36 65.3896 381.649 64.8251C380.956 64.2667 380.269 63.673 379.586 63.0442C378.897 62.4027 378.238 61.7129 377.608 60.9748C376.973 60.2559 376.374 59.5014 375.812 58.7112C375.249 57.9211 374.74 57.111 374.283 56.2811C373.82 55.4704 373.43 54.6618 373.113 53.8554C372.795 53.049 372.563 52.2701 372.417 51.5187C372.252 50.7612 372.196 50.0437 372.247 49.3662C372.287 48.6952 372.444 48.0831 372.721 47.5301C372.978 46.9709 373.373 46.4928 373.906 46.0958C374.427 45.7053 375.079 45.3831 375.862 45.1294C376.64 44.8948 377.52 44.7035 378.503 44.5555C379.479 44.4267 380.538 44.3191 381.68 44.2326C382.802 44.14 383.981 44.0499 385.217 43.9621C386.441 43.8808 387.698 43.7736 388.989 43.6403C390.26 43.5009 391.533 43.3041 392.807 43.0497C394.069 42.8019 395.312 42.4746 396.537 42.0677C397.749 41.6674 398.904 41.1593 400.002 40.5435C401.112 39.9211 402.156 39.2199 403.135 38.4398C404.126 37.6531 405.059 36.8162 405.934 35.929C406.815 35.0545 407.636 34.1712 408.397 33.2793C409.17 32.3808 409.895 31.5244 410.571 30.7103C411.259 29.8896 411.899 29.143 412.492 28.4706C413.085 27.7981 413.64 27.2347 414.159 26.7804C414.684 26.3387 415.174 26.054 415.629 25.9262C416.077 25.7858 416.5 25.8372 416.898 26.0806Z" fill="#74A892"/>
<path fill-rule="evenodd" clip-rule="evenodd" d="M26.4526 116.745C26.3877 116.272 26.3946 115.766 26.4732 115.228C26.5518 114.69 26.6923 114.135 26.8947 113.565C27.1037 112.984 27.3578 112.377 27.6572 111.745C27.9611 111.13 28.307 110.494 28.6947 109.839C29.076 109.195 29.4792 108.526 29.9043 107.833C30.334 107.157 30.7792 106.469 31.2397 105.766C31.7002 105.064 32.1552 104.359 32.6047 103.65C33.0718 102.936 33.5189 102.219 33.9462 101.497C34.3779 100.792 34.7842 100.081 35.1649 99.3611C35.5457 98.6416 35.8911 97.9312 36.2011 97.2298C36.5111 96.5285 36.7891 95.8307 37.035 95.1364C37.2919 94.4486 37.5224 93.7677 37.7264 93.0936C37.9303 92.4194 38.11 91.761 38.2655 91.1181C38.4386 90.4707 38.6051 89.8345 38.7651 89.2093C38.9185 88.5952 39.0654 87.9923 39.2056 87.4004C39.357 86.8152 39.5096 86.2531 39.6635 85.7143C39.8239 85.1644 39.9945 84.6355 40.1751 84.1275C40.3668 83.6261 40.5742 83.1489 40.7972 82.696C41.0268 82.232 41.2775 81.7955 41.5495 81.3866C41.8326 80.9842 42.1424 80.6127 42.479 80.272C42.8221 79.9202 43.1953 79.5936 43.5986 79.2924C43.9952 79.0022 44.4186 78.7429 44.8688 78.5143C45.3255 78.2747 45.8034 78.0626 46.3025 77.8781C46.795 77.7046 47.3065 77.5499 47.8369 77.4139C48.3607 77.2889 48.8946 77.185 49.4386 77.102C49.9872 77.0366 50.5458 76.9923 51.1145 76.9689C51.6721 76.9389 52.2332 76.941 52.7979 76.9752C53.3625 77.0094 53.9284 77.0668 54.4955 77.1475C55.0627 77.2281 55.6222 77.3343 56.1742 77.4659C56.7261 77.5976 57.2649 77.7515 57.7906 77.9275C58.3273 78.1102 58.8542 78.3095 59.3713 78.5255C59.8883 78.7415 60.4011 78.9774 60.9095 79.2333C61.4245 79.478 61.9385 79.7372 62.4515 80.0107C62.9579 80.2954 63.4731 80.5778 63.9972 80.8579C64.5147 81.1491 65.0378 81.4436 65.5664 81.7415C66.1016 82.0282 66.6479 82.3214 67.2053 82.6213C67.7693 82.91 68.3454 83.1909 68.9336 83.464C69.5264 83.7548 70.1378 84.0266 70.768 84.2795C71.3981 84.5324 72.0493 84.7753 72.7214 85.008C73.3934 85.2407 74.0931 85.4523 74.8203 85.6426C75.5474 85.833 76.2956 86.0132 77.0647 86.1834C77.8161 86.3581 78.5885 86.5227 79.3818 86.6773C80.1641 86.8252 80.9463 86.9732 81.7286 87.1211C82.5285 87.2646 83.3163 87.4158 84.092 87.5749C84.8676 87.7339 85.6312 87.9008 86.3826 88.0755C87.134 88.2502 87.8612 88.4406 88.5641 88.6466C89.267 88.8525 89.9424 89.0797 90.5903 89.3281C91.2315 89.5876 91.8364 89.8706 92.4049 90.177C92.9689 90.4657 93.4922 90.7978 93.9748 91.1734C94.4463 91.5424 94.866 91.9482 95.2339 92.3909C95.5907 92.8269 95.9013 93.3032 96.1656 93.8195C96.4254 94.3181 96.6345 94.8392 96.7927 95.3828C96.9444 95.9374 97.0519 96.5034 97.1152 97.0807C97.1608 97.6626 97.1655 98.2502 97.1293 98.8437C97.093 99.4371 97.0103 100.033 96.8812 100.631C96.752 101.23 96.5741 101.822 96.3475 102.408C96.1275 102.982 95.8675 103.548 95.5677 104.106C95.2567 104.657 94.9069 105.184 94.5182 105.689C94.1295 106.194 93.7052 106.67 93.2453 107.118C92.792 107.555 92.2887 107.962 91.7355 108.339C91.1999 108.712 90.6375 109.054 90.0484 109.365C89.4482 109.67 88.8291 109.956 88.1911 110.223C87.553 110.491 86.896 110.739 86.2201 110.969C85.5442 111.199 84.8627 111.426 84.1757 111.649C83.4887 111.872 82.805 112.09 82.1245 112.302C81.4264 112.519 80.7394 112.742 80.0635 112.972C79.3987 113.209 78.7417 113.457 78.0925 113.718C77.4434 113.979 76.8187 114.261 76.2185 114.566C75.6183 114.871 75.0481 115.201 74.508 115.556C73.9613 115.922 73.4469 116.323 72.9648 116.757C72.4893 117.181 72.0461 117.638 71.6352 118.13C71.2131 118.615 70.8244 119.12 70.4691 119.644C70.1026 120.162 69.7583 120.693 69.4363 121.238C69.1031 121.775 68.7899 122.317 68.4966 122.864C68.1922 123.403 67.9 123.935 67.6199 124.459C67.3397 124.983 67.0584 125.484 66.7757 125.962C66.5042 126.446 66.2259 126.904 65.9408 127.335C65.6557 127.766 65.3592 128.153 65.0514 128.496C64.7482 128.856 64.4313 129.164 64.1008 129.418C63.7704 129.672 63.4175 129.876 63.0421 130.029C62.6668 130.181 62.269 130.284 61.8487 130.335C61.4462 130.381 61.0146 130.389 60.554 130.356C60.0934 130.323 59.6126 130.249 59.1117 130.132C58.6153 130.034 58.0954 129.898 57.552 129.727C57.0021 129.566 56.431 129.378 55.8387 129.163C55.2575 128.954 54.6486 128.729 54.0118 128.487C53.3751 128.245 52.7162 127.99 52.035 127.722C51.3538 127.454 50.6494 127.187 49.9218 126.921C49.1942 126.656 48.4456 126.4 47.676 126.155C46.9019 125.892 46.1036 125.644 45.281 125.412C44.4649 125.169 43.6335 124.94 42.7867 124.724C41.9353 124.49 41.0862 124.265 40.2393 124.049C39.3924 123.833 38.5544 123.614 37.7253 123.393C36.9027 123.162 36.1 122.934 35.3173 122.711C34.5301 122.47 33.7749 122.226 33.0518 121.978C32.3287 121.73 31.6475 121.462 31.0083 121.173C30.3802 120.892 29.7996 120.593 29.2664 120.278C28.7333 119.962 28.2741 119.623 27.889 119.26C27.4927 118.891 27.1705 118.497 26.9222 118.081C26.6851 117.67 26.5286 117.225 26.4526 116.745Z" fill="#FDF7DA"/>
<path fill-rule="evenodd" clip-rule="evenodd" d="M90.2644 195.936C90.6332 196.214 90.9541 196.647 91.2272 197.235C91.5182 197.832 91.773 198.534 91.9914 199.34C92.2279 200.155 92.4535 201.043 92.6684 202.003C92.8832 202.963 93.1037 203.96 93.3299 204.992C93.5693 206.02 93.8217 207.043 94.0874 208.061C94.353 209.079 94.6614 210.052 95.0126 210.978C95.3637 211.904 95.761 212.752 96.2044 213.522C96.661 214.288 97.1719 214.958 97.7371 215.531C98.2975 216.091 98.904 216.573 99.5566 216.978C100.191 217.373 100.855 217.705 101.547 217.973C102.231 218.259 102.92 218.497 103.614 218.688C104.308 218.879 104.986 219.045 105.647 219.187C106.3 219.346 106.928 219.5 107.532 219.647C108.123 219.799 108.668 219.968 109.166 220.153C109.652 220.343 110.07 220.573 110.421 220.843C110.785 221.108 111.075 221.415 111.291 221.764C111.512 222.126 111.678 222.524 111.791 222.957C111.921 223.398 112.013 223.876 112.066 224.391C112.12 224.906 112.16 225.449 112.189 226.019C112.217 226.589 112.24 227.183 112.257 227.803C112.292 228.432 112.341 229.079 112.403 229.743C112.453 230.412 112.548 231.103 112.687 231.816C112.822 232.515 113.006 233.227 113.24 233.951C113.455 234.667 113.713 235.398 114.014 236.144C114.309 236.876 114.623 237.618 114.955 238.367C115.269 239.109 115.58 239.843 115.889 240.571C116.203 241.312 116.483 242.042 116.729 242.762C116.989 243.477 117.199 244.179 117.361 244.869C117.509 245.564 117.596 246.234 117.623 246.881C117.641 247.546 117.572 248.175 117.415 248.766C117.262 249.371 117.005 249.953 116.643 250.512C116.289 251.053 115.847 251.557 115.318 252.024C114.788 252.491 114.191 252.914 113.525 253.294C112.846 253.677 112.117 254.003 111.337 254.272C110.556 254.54 109.732 254.747 108.863 254.895C107.994 255.042 107.101 255.122 106.183 255.135C105.261 255.134 104.333 255.059 103.401 254.909C102.456 254.763 101.517 254.532 100.583 254.214C99.6545 253.91 98.7342 253.526 97.8224 253.064C96.9237 252.596 96.0258 252.09 95.1289 251.545C94.2402 250.982 93.3647 250.414 92.5023 249.842C91.6399 249.269 90.7889 248.708 89.9495 248.158C89.0969 247.612 88.2614 247.114 87.4431 246.663C86.6199 246.198 85.8039 245.815 84.9952 245.513C84.1996 245.207 83.4078 245.013 82.62 244.933C81.8404 244.834 81.0721 244.869 80.3149 245.037C79.5398 245.196 78.7865 245.478 78.0552 245.881C77.3059 246.275 76.5703 246.748 75.8486 247.3C75.1269 247.853 74.4181 248.461 73.7224 249.126C73.0087 249.782 72.3113 250.463 71.6303 251.168C70.9493 251.874 70.279 252.568 69.6194 253.25C68.9598 253.932 68.3076 254.574 67.663 255.174C67.0232 255.788 66.3983 256.321 65.7884 256.771C65.1653 257.227 64.5548 257.593 63.9567 257.872C63.3586 258.15 62.7861 258.335 62.2393 258.427C61.6842 258.536 61.1506 258.562 60.6385 258.504C60.1445 258.454 59.6768 258.334 59.2356 258.143C58.7993 257.965 58.4049 257.719 58.0526 257.404C57.7051 257.103 57.4005 256.756 57.1386 256.362C56.8898 255.964 56.6887 255.533 56.5353 255.069C56.3901 254.588 56.3106 254.082 56.2969 253.553C56.27 253.028 56.3022 252.482 56.3936 251.914C56.4932 251.328 56.6282 250.737 56.7984 250.141C56.9687 249.545 57.1562 248.935 57.3609 248.311C57.5706 247.7 57.7754 247.076 57.9752 246.438C58.18 245.814 58.3692 245.188 58.5427 244.56C58.7081 243.951 58.8357 243.339 58.9255 242.726C59.0153 242.114 59.0436 241.515 59.0102 240.932C58.9769 240.349 58.8688 239.785 58.686 239.24C58.5032 238.696 58.2432 238.164 57.906 237.645C57.5819 237.122 57.1939 236.606 56.7418 236.098C56.3028 235.586 55.817 235.067 55.2845 234.543C54.752 234.019 54.1949 233.488 53.6131 232.951C53.0265 232.401 52.4259 231.833 51.8114 231.246C51.1969 230.66 50.5768 230.038 49.9509 229.38C49.3431 228.73 48.7452 228.046 48.1573 227.328C47.5644 226.597 47.0077 225.822 46.4873 225.003C45.9586 224.202 45.471 223.372 45.0245 222.511C44.5779 221.65 44.1865 220.777 43.85 219.891C43.5053 219.024 43.2319 218.168 43.03 217.326C42.8281 216.483 42.7073 215.679 42.6677 214.915C42.6101 214.142 42.6542 213.423 42.7999 212.76C42.9325 212.101 43.1742 211.517 43.5248 211.008C43.8574 210.49 44.3154 210.071 44.8988 209.753C45.4691 209.439 46.1598 209.211 46.9711 209.069C47.7741 208.945 48.6722 208.879 49.6654 208.869C50.6504 208.878 51.7141 208.919 52.8565 208.993C53.9809 209.058 55.1611 209.134 56.3971 209.219C57.62 209.309 58.8798 209.379 60.1766 209.427C61.4554 209.467 62.7433 209.449 64.0403 209.375C65.3242 209.306 66.6009 209.156 67.8703 208.924C69.1266 208.696 70.3413 208.355 71.5143 207.898C72.7004 207.437 73.8326 206.888 74.9107 206.253C76.002 205.612 77.0425 204.913 78.0322 204.157C79.0269 203.414 79.9632 202.654 80.8414 201.877C81.7327 201.095 82.5697 200.349 83.3525 199.637C84.1484 198.92 84.8868 198.27 85.5675 197.687C86.2483 197.104 86.8772 196.624 87.4541 196.246C88.0359 195.882 88.5609 195.669 89.0289 195.606C89.4919 195.529 89.9038 195.639 90.2644 195.936Z" fill="#FDF7DA"/>
<path fill-rule="evenodd" clip-rule="evenodd" d="M7.7134 287.773C7.50098 287.205 7.38379 286.617 7.3618 286.01C7.33982 285.402 7.40303 284.792 7.55142 284.178C7.7065 283.553 7.92028 282.91 8.19276 282.248C8.47622 281.608 8.81504 280.955 9.20923 280.289C9.59673 279.634 10.0098 278.956 10.4483 278.255C10.8979 277.576 11.3663 276.885 11.8535 276.183C12.3408 275.48 12.8192 274.772 13.2888 274.059C13.7827 273.345 14.2468 272.622 14.6811 271.888C15.1264 271.175 15.5329 270.448 15.9009 269.705C16.2688 268.963 16.5881 268.222 16.8586 267.482C17.1292 266.743 17.3544 266 17.5343 265.253C17.7319 264.516 17.8929 263.78 18.0174 263.046C18.142 262.312 18.2355 261.59 18.298 260.88C18.3848 260.169 18.4649 259.469 18.5384 258.781C18.6052 258.104 18.6653 257.439 18.7187 256.784C18.7898 256.14 18.8685 255.524 18.9548 254.935C19.0479 254.334 19.1607 253.761 19.2934 253.214C19.4437 252.678 19.6226 252.174 19.8302 251.702C20.0445 251.219 20.2962 250.774 20.5854 250.366C20.8923 249.968 21.2454 249.613 21.6449 249.301C22.051 248.977 22.5068 248.69 23.0122 248.44C23.5109 248.202 24.0559 248.006 24.6473 247.853C25.2453 247.689 25.8808 247.562 26.5537 247.472C27.2199 247.394 27.9182 247.342 28.6484 247.317C29.3719 247.303 30.1153 247.316 30.8784 247.356C31.6525 247.417 32.4465 247.506 33.2602 247.622C34.0563 247.727 34.8655 247.87 35.6878 248.052C36.5102 248.234 37.3402 248.443 38.1778 248.68C39.0154 248.916 39.8485 249.18 40.677 249.472C41.5056 249.765 42.3207 250.079 43.1226 250.416C43.942 250.764 44.7515 251.129 45.5509 251.51C46.3504 251.892 47.1486 252.296 47.9457 252.722C48.7494 253.136 49.5553 253.567 50.3633 254.015C51.1647 254.474 51.9782 254.933 52.8039 255.391C53.6229 255.86 54.4507 256.335 55.2874 256.815C56.1308 257.283 56.9918 257.762 57.8704 258.252C58.7558 258.73 59.6567 259.202 60.573 259.668C61.5004 260.156 62.4499 260.626 63.4217 261.079C64.3934 261.532 65.3928 261.979 66.4199 262.419C67.447 262.859 68.5085 263.281 69.6043 263.686C70.7001 264.09 71.8236 264.488 72.9748 264.88C74.1016 265.272 75.2562 265.658 76.4384 266.038C77.6029 266.407 78.7675 266.775 79.932 267.144C81.1209 267.513 82.2943 267.887 83.4521 268.267C84.61 268.647 85.7523 269.034 86.8792 269.426C88.006 269.818 89.1018 270.223 90.1666 270.64C91.2314 271.056 92.2619 271.491 93.258 271.943C94.2473 272.406 95.1902 272.888 96.0865 273.388C96.9719 273.866 97.8095 274.385 98.5994 274.944C99.3717 275.492 100.079 276.07 100.72 276.679C101.344 277.276 101.911 277.909 102.422 278.577C102.922 279.224 103.354 279.883 103.718 280.557C104.076 281.241 104.373 281.927 104.61 282.616C104.822 283.306 104.976 283.991 105.073 284.674C105.17 285.356 105.201 286.03 105.165 286.695C105.129 287.359 105.021 288.005 104.842 288.63C104.669 289.244 104.437 289.839 104.145 290.413C103.835 290.976 103.464 291.504 103.03 291.994C102.597 292.485 102.105 292.933 101.555 293.339C101.011 293.734 100.388 294.082 99.6857 294.382C99.0076 294.682 98.2831 294.94 97.5123 295.154C96.7239 295.359 95.9035 295.536 95.0511 295.687C94.1987 295.838 93.3143 295.963 92.398 296.061C91.4817 296.159 90.5565 296.252 89.6225 296.339C88.6885 296.427 87.7578 296.509 86.8305 296.585C85.8788 296.662 84.9448 296.75 84.0285 296.848C83.1298 296.956 82.2454 297.081 81.3754 297.222C80.5053 297.362 79.6761 297.535 78.8877 297.739C78.0992 297.943 77.3605 298.184 76.6713 298.463C75.9755 298.752 75.3348 299.089 74.7492 299.475C74.1703 299.848 73.6465 300.27 73.1778 300.74C72.6915 301.199 72.2582 301.69 71.8779 302.212C71.4798 302.723 71.1171 303.255 70.7898 303.809C70.4447 304.351 70.1295 304.904 69.8442 305.467C69.5411 306.019 69.2536 306.566 68.9816 307.106C68.7096 307.646 68.4299 308.159 68.1426 308.645C67.873 309.141 67.5869 309.604 67.2844 310.035C66.9818 310.465 66.6518 310.842 66.2943 311.164C65.9479 311.508 65.5684 311.786 65.1561 312C64.7437 312.213 64.2863 312.361 63.7837 312.445C63.2812 312.529 62.7335 312.548 62.1408 312.502C61.5723 312.455 60.9521 312.355 60.2801 312.201C59.6081 312.047 58.8965 311.84 58.1453 311.578C57.405 311.338 56.6218 311.05 55.7957 310.714C54.9628 310.389 54.0925 310.026 53.1847 309.626C52.2946 309.237 51.3604 308.821 50.3819 308.379C49.4035 307.937 48.3898 307.475 47.3407 306.991C46.2917 306.508 45.2095 306.02 44.0941 305.527C42.9787 305.035 41.8356 304.549 40.6648 304.07C39.4831 303.569 38.2704 303.08 37.0266 302.603C35.7895 302.115 34.5335 301.638 33.2587 301.174C31.973 300.687 30.6927 300.212 29.4179 299.747C28.1431 299.282 26.8805 298.817 25.63 298.352C24.3862 297.875 23.1723 297.408 21.9882 296.951C20.7931 296.473 19.6433 295.998 18.5389 295.527C17.4345 295.057 16.3854 294.573 15.3917 294.077C14.4157 293.591 13.5039 293.097 12.6562 292.595C11.8086 292.094 11.0616 291.583 10.4154 291.064C9.75147 290.533 9.18827 289.994 8.72577 289.446C8.28093 288.909 7.94347 288.351 7.7134 287.773Z" fill="#74A892"/>
<path fill-rule="evenodd" clip-rule="evenodd" d="M35.9606 191.731C35.8663 191.417 35.823 191.089 35.8309 190.746C35.8387 190.404 35.8918 190.057 35.9901 189.705C36.0923 189.348 36.2261 188.977 36.3917 188.594C36.5624 188.224 36.7629 187.844 36.9931 187.455C37.2194 187.072 37.4599 186.676 37.7147 186.266C37.9747 185.868 38.245 185.463 38.5256 185.05C38.8063 184.637 39.0825 184.222 39.3541 183.804C39.6387 183.385 39.9077 182.961 40.1613 182.533C40.4201 182.116 40.6588 181.692 40.8775 181.261C41.0963 180.829 41.2892 180.4 41.4562 179.974C41.6233 179.548 41.7664 179.12 41.8857 178.693C42.014 178.27 42.1229 177.849 42.2124 177.43C42.3019 177.011 42.3746 176.601 42.4305 176.197C42.4993 175.793 42.5642 175.395 42.6252 175.004C42.6822 174.619 42.7354 174.241 42.7847 173.87C42.843 173.504 42.9045 173.153 42.9691 172.817C43.0377 172.475 43.1159 172.147 43.2037 171.834C43.3005 171.527 43.4114 171.236 43.5365 170.963C43.6655 170.683 43.8132 170.424 43.9795 170.184C44.1548 169.949 44.3533 169.737 44.5749 169.548C44.8005 169.352 45.0511 169.175 45.3269 169.018C45.5987 168.867 45.8938 168.739 46.2119 168.634C46.534 168.522 46.8748 168.429 47.2341 168.357C47.5896 168.292 47.9612 168.24 48.3488 168.202C48.7326 168.171 49.126 168.155 49.529 168.153C49.9371 168.163 50.3549 168.188 50.7823 168.227C51.2006 168.261 51.6247 168.316 52.0546 168.392C52.4844 168.468 52.9174 168.56 53.3535 168.667C53.7897 168.774 54.2226 168.896 54.6521 169.035C55.0817 169.173 55.5035 169.325 55.9175 169.49C56.3404 169.66 56.7576 169.84 57.1689 170.03C57.5801 170.22 57.9901 170.422 58.3987 170.637C58.8112 170.846 59.2243 171.064 59.638 171.291C60.0478 171.524 60.4641 171.757 60.8869 171.989C61.3057 172.228 61.729 172.47 62.1569 172.714C62.5887 172.952 63.0294 173.195 63.4792 173.443C63.9329 173.685 64.395 173.923 64.8656 174.157C65.3412 174.403 65.8292 174.638 66.3294 174.863C66.8297 175.088 67.3448 175.308 67.8749 175.524C68.4049 175.739 68.9537 175.944 69.5212 176.137C70.0888 176.331 70.6712 176.52 71.2685 176.704C71.8529 176.889 72.4522 177.07 73.0663 177.247C73.6714 177.418 74.2765 177.589 74.8817 177.76C75.4997 177.93 76.1093 178.104 76.7105 178.282C77.3117 178.459 77.9045 178.641 78.4889 178.827C79.0733 179.012 79.6409 179.206 80.1916 179.407C80.7424 179.608 81.2743 179.82 81.7875 180.044C82.2968 180.274 82.7809 180.516 83.2397 180.77C83.6934 181.012 84.1205 181.278 84.521 181.568C84.9126 181.853 85.2685 182.157 85.5888 182.48C85.9001 182.798 86.1804 183.137 86.4295 183.499C86.6735 183.848 86.8813 184.207 87.0529 184.575C87.2206 184.95 87.356 185.329 87.4591 185.71C87.5493 186.093 87.6091 186.476 87.6386 186.858C87.668 187.24 87.6626 187.62 87.6224 187.997C87.5821 188.374 87.5044 188.741 87.3893 189.101C87.2781 189.453 87.1359 189.796 86.9628 190.13C86.7806 190.459 86.5669 190.768 86.3216 191.059C86.0763 191.35 85.8014 191.62 85.4968 191.867C85.1962 192.107 84.855 192.324 84.4731 192.516C84.1042 192.707 83.7122 192.876 83.297 193.022C82.8727 193.163 82.4324 193.289 81.976 193.402C81.5196 193.515 81.0471 193.613 80.5585 193.698C80.0699 193.783 79.5768 193.865 79.0791 193.944C78.5815 194.024 78.0858 194.1 77.5921 194.173C77.0855 194.247 76.5879 194.326 76.0993 194.411C75.6197 194.501 75.1472 194.6 74.6818 194.707C74.2163 194.815 73.7715 194.939 73.3472 195.079C72.923 195.22 72.5239 195.38 72.1499 195.559C71.7719 195.745 71.4217 195.956 71.0991 196.193C70.7804 196.423 70.4894 196.678 70.2261 196.958C69.9537 197.233 69.7084 197.524 69.4902 197.831C69.2629 198.133 69.0537 198.445 68.8625 198.768C68.6623 199.086 68.4776 199.409 68.3084 199.736C68.1301 200.058 67.9603 200.376 67.7989 200.689C67.6374 201.003 67.4728 201.302 67.3051 201.586C67.1463 201.875 66.9799 202.146 66.8058 202.399C66.6317 202.652 66.4448 202.875 66.2451 203.068C66.0505 203.274 65.8406 203.443 65.6153 203.577C65.39 203.711 65.1429 203.809 64.8739 203.873C64.605 203.936 64.3143 203.964 64.0017 203.957C63.7021 203.949 63.3767 203.913 63.0256 203.847C62.6746 203.782 62.3042 203.687 61.9146 203.564C61.5302 203.452 61.1245 203.314 60.6976 203.151C60.2668 202.994 59.8174 202.817 59.3493 202.62C58.8902 202.428 58.4086 202.223 57.9044 202.005C57.4002 201.787 56.878 201.558 56.3378 201.319C55.7975 201.079 55.2398 200.838 54.6647 200.596C54.0896 200.353 53.4996 200.115 52.8948 199.882C52.2848 199.637 51.658 199.4 51.0143 199.17C50.3746 198.934 49.7245 198.705 49.0641 198.483C48.3985 198.25 47.7355 198.022 47.075 197.8C46.4146 197.579 45.7606 197.356 45.1131 197.134C44.4694 196.904 43.8413 196.679 43.2286 196.459C42.6109 196.227 42.017 195.996 41.447 195.765C40.877 195.535 40.3367 195.295 39.8262 195.047C39.3247 194.803 38.8575 194.554 38.4245 194.297C37.9915 194.041 37.6122 193.777 37.2865 193.504C36.9518 193.226 36.6707 192.939 36.4433 192.644C36.2248 192.355 36.0639 192.05 35.9606 191.731Z" fill="#74A892"/>
<path fill-rule="evenodd" clip-rule="evenodd" d="M162.87 335.556C163.259 335.8 163.797 335.991 164.483 336.13C165.183 336.281 165.983 336.394 166.882 336.468C167.795 336.555 168.781 336.626 169.839 336.68C170.898 336.735 171.996 336.79 173.133 336.846C174.268 336.911 175.402 336.987 176.535 337.073C177.668 337.16 178.764 337.283 179.823 337.442C180.883 337.602 181.874 337.805 182.796 338.051C183.716 338.306 184.551 338.613 185.3 338.971C186.034 339.326 186.7 339.724 187.296 340.166C187.879 340.594 188.402 341.051 188.867 341.537C189.349 342.014 189.782 342.5 190.167 342.996C190.552 343.491 190.907 343.977 191.232 344.453C191.573 344.921 191.902 345.372 192.217 345.805C192.534 346.227 192.856 346.614 193.183 346.965C193.511 347.305 193.863 347.591 194.238 347.822C194.612 348.064 195.009 348.246 195.431 348.368C195.868 348.493 196.328 348.573 196.809 348.61C197.304 348.659 197.827 348.675 198.378 348.658C198.929 348.641 199.506 348.612 200.107 348.571C200.709 348.53 201.335 348.481 201.986 348.426C202.651 348.383 203.338 348.349 204.047 348.323C204.758 348.287 205.504 348.282 206.284 348.308C207.049 348.332 207.841 348.391 208.658 348.485C209.462 348.567 210.293 348.679 211.152 348.821C211.994 348.961 212.851 349.113 213.722 349.278C214.578 349.43 215.428 349.581 216.269 349.731C217.126 349.884 217.962 350.012 218.779 350.117C219.594 350.232 220.382 350.311 221.144 350.356C221.908 350.39 222.63 350.382 223.312 350.331C224.01 350.272 224.647 350.151 225.221 349.97C225.811 349.79 226.349 349.536 226.834 349.205C227.303 348.883 227.71 348.499 228.055 348.054C228.4 347.609 228.681 347.119 228.898 346.582C229.116 346.036 229.26 345.457 229.331 344.848C229.401 344.238 229.396 343.602 229.317 342.94C229.238 342.278 229.082 341.605 228.849 340.921C228.601 340.235 228.274 339.554 227.867 338.877C227.462 338.19 226.969 337.517 226.388 336.857C225.822 336.2 225.175 335.558 224.448 334.93C223.72 334.313 222.951 333.701 222.143 333.093C221.318 332.494 220.492 331.905 219.664 331.326C218.836 330.748 218.022 330.176 217.224 329.612C216.426 329.038 215.683 328.471 214.994 327.912C214.289 327.35 213.67 326.785 213.139 326.217C212.606 325.659 212.192 325.091 211.897 324.514C211.585 323.945 211.415 323.37 211.388 322.789C211.346 322.195 211.437 321.604 211.661 321.016C211.871 320.416 212.167 319.817 212.549 319.22C212.932 318.623 213.376 318.029 213.883 317.439C214.375 316.837 214.898 316.244 215.451 315.66C216.003 315.076 216.547 314.502 217.081 313.937C217.616 313.372 218.11 312.817 218.563 312.272C219.032 311.729 219.419 311.206 219.725 310.703C220.033 310.19 220.251 309.696 220.381 309.221C220.511 308.745 220.55 308.3 220.499 307.883C220.465 307.458 220.349 307.058 220.151 306.684C219.966 306.322 219.716 305.987 219.398 305.68C219.096 305.375 218.734 305.109 218.311 304.881C217.904 304.656 217.46 304.467 216.98 304.315C216.498 304.174 215.995 304.072 215.47 304.008C214.929 303.953 214.381 303.949 213.825 303.997C213.271 304.034 212.711 304.118 212.143 304.248C211.559 304.386 210.979 304.551 210.403 304.743C209.827 304.935 209.242 305.141 208.646 305.361C208.066 305.584 207.47 305.804 206.859 306.023C206.263 306.243 205.662 306.452 205.053 306.65C204.462 306.84 203.859 307.001 203.244 307.135C202.63 307.269 202.014 307.355 201.396 307.394C200.779 307.433 200.163 307.415 199.546 307.338C198.93 307.262 198.306 307.127 197.674 306.933C197.042 306.749 196.4 306.517 195.75 306.236C195.098 305.966 194.427 305.661 193.738 305.322C193.048 304.984 192.346 304.627 191.63 304.254C190.899 303.877 190.146 303.493 189.37 303.1C188.594 302.707 187.779 302.314 186.925 301.921C186.085 301.54 185.212 301.17 184.306 300.811C183.384 300.45 182.427 300.121 181.434 299.824C180.458 299.518 179.461 299.246 178.444 299.008C177.427 298.77 176.412 298.575 175.398 298.421C174.402 298.26 173.437 298.15 172.504 298.092C171.571 298.034 170.701 298.032 169.894 298.086C169.073 298.128 168.335 298.239 167.683 298.42C167.031 298.591 166.487 298.834 166.051 299.151C165.6 299.455 165.287 299.841 165.111 300.31C164.937 300.768 164.884 301.307 164.954 301.926C165.04 302.536 165.212 303.211 165.468 303.951C165.741 304.682 166.069 305.469 166.453 306.31C166.822 307.139 167.217 308.009 167.637 308.919C168.059 309.818 168.469 310.747 168.867 311.707C169.251 312.653 169.579 313.613 169.849 314.585C170.121 315.548 170.307 316.514 170.405 317.483C170.505 318.442 170.475 319.383 170.313 320.305C170.15 321.237 169.882 322.139 169.508 323.011C169.133 323.892 168.684 324.742 168.161 325.561C167.653 326.382 167.112 327.161 166.537 327.899C165.961 328.647 165.407 329.352 164.875 330.012C164.342 330.682 163.862 331.302 163.437 331.872C163.011 332.442 162.679 332.962 162.44 333.432C162.217 333.905 162.135 334.319 162.195 334.673C162.239 335.026 162.464 335.32 162.87 335.556Z" fill="#74A892"/>
<path fill-rule="evenodd" clip-rule="evenodd" d="M454.588 238.927C454.523 238.454 454.53 237.948 454.609 237.41C454.688 236.871 454.828 236.317 455.03 235.747C455.239 235.166 455.494 234.559 455.793 233.926C456.097 233.311 456.443 232.676 456.83 232.021C457.212 231.377 457.615 230.708 458.04 230.015C458.47 229.339 458.915 228.65 459.375 227.948C459.836 227.246 460.291 226.54 460.74 225.831C461.208 225.118 461.655 224.4 462.082 223.678C462.514 222.974 462.92 222.262 463.301 221.543C463.681 220.823 464.027 220.113 464.337 219.411C464.647 218.71 464.925 218.012 465.171 217.318C465.428 216.63 465.658 215.949 465.862 215.275C466.066 214.601 466.246 213.943 466.401 213.3C466.574 212.652 466.741 212.016 466.901 211.391C467.054 210.777 467.201 210.174 467.341 209.582C467.493 208.997 467.645 208.435 467.799 207.896C467.96 207.346 468.13 206.817 468.311 206.309C468.503 205.808 468.71 205.331 468.933 204.878C469.163 204.414 469.413 203.977 469.685 203.568C469.968 203.166 470.278 202.794 470.615 202.454C470.958 202.102 471.331 201.775 471.734 201.474C472.131 201.184 472.554 200.924 473.004 200.696C473.461 200.456 473.939 200.244 474.438 200.06C474.931 199.886 475.442 199.732 475.973 199.596C476.496 199.471 477.03 199.367 477.574 199.284C478.123 199.218 478.682 199.174 479.25 199.151C479.808 199.121 480.369 199.123 480.934 199.157C481.498 199.191 482.064 199.248 482.631 199.329C483.198 199.41 483.758 199.516 484.31 199.648C484.862 199.779 485.401 199.933 485.926 200.109C486.463 200.292 486.99 200.491 487.507 200.707C488.024 200.923 488.537 201.159 489.045 201.415C489.56 201.66 490.074 201.919 490.587 202.192C491.094 202.477 491.609 202.759 492.133 203.04C492.65 203.331 493.174 203.625 493.702 203.923C494.237 204.21 494.784 204.503 495.341 204.803C495.905 205.092 496.481 205.373 497.069 205.646C497.662 205.936 498.274 206.208 498.904 206.461C499.534 206.714 500.185 206.957 500.857 207.19C501.529 207.422 502.229 207.634 502.956 207.824C503.683 208.015 504.431 208.195 505.2 208.365C505.952 208.54 506.724 208.704 507.518 208.859C508.3 209.007 509.082 209.155 509.864 209.303C510.664 209.446 511.452 209.597 512.228 209.757C513.003 209.916 513.767 210.082 514.518 210.257C515.27 210.432 515.997 210.622 516.7 210.828C517.403 211.034 518.078 211.261 518.726 211.51C519.367 211.769 519.972 212.052 520.541 212.359C521.105 212.647 521.628 212.979 522.111 213.355C522.582 213.724 523.002 214.13 523.37 214.573C523.726 215.009 524.037 215.485 524.301 216.001C524.561 216.5 524.77 217.021 524.928 217.564C525.08 218.119 525.188 218.685 525.251 219.262C525.297 219.844 525.301 220.432 525.265 221.025C525.229 221.619 525.146 222.215 525.017 222.813C524.888 223.411 524.71 224.004 524.483 224.589C524.263 225.164 524.003 225.73 523.703 226.287C523.392 226.838 523.043 227.366 522.654 227.871C522.265 228.376 521.841 228.852 521.381 229.3C520.928 229.736 520.424 230.143 519.871 230.521C519.336 230.894 518.773 231.236 518.184 231.547C517.584 231.852 516.965 232.138 516.327 232.405C515.689 232.672 515.032 232.921 514.356 233.151C513.68 233.381 512.998 233.607 512.311 233.83C511.624 234.054 510.941 234.272 510.26 234.484C509.562 234.701 508.875 234.924 508.199 235.154C507.534 235.39 506.877 235.639 506.228 235.9C505.579 236.16 504.954 236.443 504.354 236.748C503.754 237.052 503.184 237.382 502.644 237.738C502.097 238.104 501.583 238.504 501.101 238.939C500.625 239.362 500.182 239.82 499.771 240.312C499.349 240.797 498.96 241.301 498.605 241.826C498.238 242.344 497.894 242.875 497.572 243.419C497.239 243.957 496.926 244.499 496.632 245.045C496.328 245.585 496.036 246.117 495.756 246.641C495.475 247.165 495.194 247.666 494.911 248.144C494.64 248.628 494.362 249.085 494.077 249.517C493.791 249.948 493.495 250.335 493.187 250.677C492.884 251.038 492.567 251.345 492.237 251.6C491.906 251.854 491.553 252.058 491.178 252.21C490.803 252.363 490.405 252.465 489.984 252.516C489.582 252.563 489.15 252.57 488.69 252.538C488.229 252.505 487.748 252.43 487.247 252.314C486.751 252.215 486.231 252.08 485.688 251.908C485.138 251.748 484.567 251.56 483.974 251.345C483.393 251.136 482.784 250.91 482.148 250.668C481.511 250.427 480.852 250.172 480.171 249.904C479.49 249.635 478.785 249.369 478.058 249.103C477.33 248.837 476.581 248.582 475.812 248.336C475.038 248.073 474.239 247.826 473.417 247.594C472.601 247.351 471.769 247.122 470.922 246.905C470.071 246.672 469.222 246.447 468.375 246.23C467.528 246.014 466.69 245.796 465.861 245.575C465.038 245.343 464.236 245.116 463.453 244.892C462.666 244.652 461.911 244.407 461.188 244.159C460.464 243.911 459.783 243.643 459.144 243.355C458.516 243.073 457.935 242.775 457.402 242.459C456.869 242.144 456.41 241.805 456.025 241.442C455.628 241.072 455.306 240.679 455.058 240.262C454.821 239.852 454.664 239.407 454.588 238.927Z" fill="#74A892"/>
<path fill-rule="evenodd" clip-rule="evenodd" d="M45.7622 63.1478C45.6973 62.6745 45.7042 62.1687 45.7828 61.6303C45.8614 61.092 46.0019 60.5378 46.2043 59.9677C46.4132 59.3865 46.6674 58.7796 46.9668 58.1469C47.2707 57.5319 47.6165 56.8968 48.0043 56.2415C48.3855 55.5972 48.7887 54.9285 49.2139 54.2353C49.6436 53.5598 50.0887 52.871 50.5493 52.1687C51.0098 51.4664 51.4648 50.7609 51.9142 50.0521C52.3813 49.3387 52.8285 48.621 53.2557 47.8991C53.6875 47.1948 54.0937 46.4829 54.4745 45.7634C54.8552 45.0439 55.2006 44.3335 55.5107 43.6322C55.8207 42.9308 56.0986 42.233 56.3445 41.5387C56.6015 40.851 56.832 40.17 57.0359 39.4959C57.2399 38.8218 57.4196 38.1633 57.575 37.5205C57.7482 36.8731 57.9147 36.2368 58.0747 35.6116C58.2281 34.9976 58.3749 34.3946 58.5152 33.8028C58.6666 33.2175 58.8192 32.6555 58.9731 32.1167C59.1335 31.5667 59.304 31.0378 59.4847 30.5298C59.6764 30.0284 59.8837 29.5513 60.1068 29.0984C60.3363 28.6343 60.5871 28.1979 60.8591 27.7889C61.1422 27.3866 61.452 27.0151 61.7886 26.6743C62.1317 26.3225 62.5049 25.996 62.9081 25.6947C63.3048 25.4045 63.7282 25.1452 64.1783 24.9167C64.635 24.6771 65.113 24.465 65.6121 24.2804C66.1046 24.107 66.6161 23.9522 67.1465 23.8162C67.6703 23.6913 68.2042 23.5873 68.7482 23.5043C69.2967 23.439 69.8554 23.3946 70.4241 23.3712C70.9817 23.3413 71.5428 23.3434 72.1074 23.3776C72.6721 23.4117 73.238 23.4692 73.8051 23.5498C74.3722 23.6305 74.9318 23.7366 75.4837 23.8683C76.0357 23.9999 76.5745 24.1538 77.1001 24.3299C77.6369 24.5125 78.1638 24.7119 78.6809 24.9278C79.1979 25.1438 79.7107 25.3797 80.2191 25.6356C80.7341 25.8804 81.2481 26.1395 81.7611 26.4131C82.2675 26.6977 82.7827 26.9801 83.3068 27.2602C83.8243 27.5515 84.3474 27.846 84.876 28.1438C85.4112 28.4305 85.9575 28.7238 86.5149 29.0236C87.0788 29.3123 87.6549 29.5933 88.2432 29.8663C88.8359 30.1571 89.4474 30.429 90.0775 30.6819C90.7077 30.9348 91.3588 31.1776 92.0309 31.4104C92.703 31.6431 93.4027 31.8546 94.1298 32.045C94.857 32.2353 95.6051 32.4156 96.3742 32.5858C97.1256 32.7605 97.898 32.9251 98.6914 33.0796C99.4736 33.2276 100.256 33.3755 101.038 33.5235C101.838 33.6669 102.626 33.8181 103.402 33.9772C104.177 34.1363 104.941 34.3032 105.692 34.4779C106.444 34.6526 107.171 34.8429 107.874 35.0489C108.577 35.2549 109.252 35.4821 109.9 35.7305C110.541 35.9899 111.146 36.2729 111.714 36.5793C112.278 36.868 112.802 37.2002 113.284 37.5757C113.756 37.9447 114.176 38.3505 114.543 38.7932C114.9 39.2293 115.211 39.7055 115.475 40.2218C115.735 40.7205 115.944 41.2416 116.102 41.7851C116.254 42.3398 116.361 42.9058 116.425 43.4831C116.47 44.0649 116.475 44.6526 116.439 45.246C116.403 45.8394 116.32 46.4353 116.191 47.0338C116.062 47.6322 115.884 48.2242 115.657 48.81C115.437 49.3846 115.177 49.9506 114.877 50.508C114.566 51.0588 114.216 51.5867 113.828 52.0915C113.439 52.5963 113.015 53.0726 112.555 53.5203C112.102 53.9569 111.598 54.3639 111.045 54.7414C110.509 55.1143 109.947 55.4564 109.358 55.7676C108.758 56.0723 108.139 56.3583 107.501 56.6256C106.863 56.8929 106.206 57.1415 105.53 57.3714C104.854 57.6013 104.172 57.8279 103.485 58.0512C102.798 58.2745 102.115 58.4923 101.434 58.7045C100.736 58.9212 100.049 59.1446 99.373 59.3745C98.7082 59.6109 98.0513 59.8595 97.4021 60.1202C96.7529 60.381 96.1283 60.6637 95.5281 60.9683C94.9279 61.273 94.3577 61.603 93.8176 61.9582C93.2709 62.3246 92.7565 62.725 92.2744 63.1596C91.7989 63.583 91.3556 64.0406 90.9447 64.5323C90.5227 65.0174 90.134 65.5222 89.7786 66.0467C89.4121 66.5647 89.0679 67.0958 88.7458 67.6401C88.4127 68.1778 88.0994 68.7198 87.8062 69.266C87.5018 69.8058 87.2095 70.3377 86.9294 70.8618C86.6493 71.3858 86.3679 71.8867 86.0853 72.3643C85.8138 72.8485 85.5355 73.3061 85.2504 73.7373C84.9652 74.1684 84.6688 74.5554 84.361 74.8981C84.0577 75.2586 83.7409 75.5659 83.4104 75.8203C83.08 76.0746 82.727 76.2782 82.3517 76.431C81.9763 76.5838 81.5785 76.6859 81.1583 76.7371C80.7557 76.7838 80.3242 76.7909 79.8636 76.7583C79.403 76.7257 78.9222 76.6511 78.4213 76.5347C77.9248 76.4359 77.405 76.3007 76.8616 76.1292C76.3117 75.9687 75.7406 75.7808 75.1483 75.5652C74.5671 75.3563 73.9581 75.1309 73.3214 74.8891C72.6847 74.6473 72.0257 74.3923 71.3446 74.1243C70.6634 73.8561 69.959 73.5893 69.2314 73.3237C68.5037 73.0581 67.7552 72.8026 66.9856 72.5572C66.2115 72.2941 65.4131 72.0466 64.5905 71.8148C63.7745 71.5718 62.9431 71.3423 62.0962 71.1261C61.2448 70.8923 60.3957 70.6672 59.5489 70.4511C58.702 70.2349 57.864 70.0164 57.0348 69.7957C56.2122 69.5639 55.4096 69.3364 54.6269 69.1132C53.8396 68.8723 53.0845 68.6279 52.3614 68.38C51.6383 68.132 50.9571 67.8639 50.3179 67.5757C49.6898 67.294 49.1091 66.9954 48.576 66.6799C48.0428 66.3644 47.5837 66.0252 47.1985 65.6624C46.8023 65.2929 46.4801 64.8998 46.2318 64.483C45.9947 64.0727 45.8381 63.6276 45.7622 63.1478Z" fill="#E5C185"/>
<path fill-rule="evenodd" clip-rule="evenodd" d="M139.424 261.046C139.034 260.794 138.514 260.64 137.864 260.584C137.2 260.514 136.449 260.514 135.611 260.584C134.759 260.64 133.841 260.731 132.859 260.857C131.877 260.983 130.859 261.116 129.804 261.256C128.75 261.382 127.695 261.494 126.641 261.592C125.586 261.69 124.561 261.732 123.564 261.718C122.567 261.704 121.629 261.62 120.747 261.466C119.866 261.298 119.057 261.046 118.321 260.71C117.599 260.374 116.934 259.968 116.327 259.492C115.735 259.03 115.194 258.519 114.702 257.959C114.197 257.413 113.735 256.846 113.316 256.258C112.897 255.67 112.507 255.089 112.146 254.515C111.77 253.955 111.409 253.416 111.062 252.898C110.716 252.394 110.369 251.939 110.022 251.533C109.676 251.141 109.315 250.826 108.939 250.588C108.563 250.336 108.173 250.168 107.769 250.084C107.35 250 106.917 249.979 106.469 250.021C106.007 250.049 105.523 250.126 105.017 250.252C104.512 250.378 103.985 250.525 103.436 250.693C102.887 250.861 102.316 251.043 101.724 251.239C101.117 251.421 100.489 251.596 99.839 251.764C99.189 251.946 98.5028 252.093 97.7806 252.205C97.0728 252.317 96.3362 252.387 95.5706 252.415C94.8195 252.457 94.0395 252.464 93.2306 252.436C92.4361 252.408 91.6273 252.366 90.8039 252.31C89.995 252.268 89.1933 252.226 88.3989 252.184C87.59 252.142 86.8028 252.128 86.0372 252.142C85.2717 252.142 84.535 252.184 83.8272 252.268C83.1194 252.366 82.455 252.513 81.8339 252.709C81.1983 252.919 80.6277 253.199 80.1222 253.549C79.6022 253.899 79.14 254.34 78.7355 254.872C78.3455 255.39 78.0205 255.978 77.7605 256.636C77.5005 257.294 77.3055 258.001 77.1755 258.757C77.0455 259.527 76.9877 260.325 77.0022 261.151C77.0166 261.977 77.1033 262.823 77.2622 263.691C77.4211 264.559 77.6522 265.427 77.9555 266.295C78.2733 267.163 78.6633 268.01 79.1255 268.836C79.5877 269.676 80.1294 270.481 80.7505 271.251C81.3572 272.021 82.0361 272.756 82.7872 273.456C83.5383 274.142 84.3255 274.814 85.1489 275.472C85.9867 276.116 86.8244 276.746 87.6622 277.362C88.5 277.978 89.3234 278.587 90.1322 279.189C90.9411 279.805 91.6995 280.421 92.4073 281.037C93.1295 281.653 93.7723 282.29 94.3356 282.948C94.8989 283.592 95.3539 284.271 95.7006 284.985C96.0617 285.685 96.2928 286.419 96.3939 287.189C96.5095 287.973 96.5023 288.778 96.3723 289.604C96.2567 290.444 96.0617 291.298 95.7873 292.166C95.5128 293.034 95.1806 293.909 94.7906 294.791C94.415 295.687 94.0106 296.576 93.5773 297.458C93.1439 298.34 92.7178 299.208 92.2989 300.062C91.88 300.916 91.4973 301.749 91.1506 302.561C90.7895 303.373 90.5006 304.143 90.2839 304.871C90.0672 305.613 89.93 306.313 89.8722 306.971C89.8145 307.629 89.8361 308.231 89.9372 308.777C90.0239 309.337 90.1828 309.848 90.4139 310.309C90.6306 310.757 90.905 311.156 91.2373 311.506C91.555 311.856 91.9234 312.143 92.3423 312.367C92.7467 312.591 93.18 312.759 93.6423 312.871C94.1045 312.969 94.5812 313.011 95.0723 312.997C95.5778 312.969 96.0834 312.871 96.589 312.703C97.0945 312.549 97.6001 312.332 98.1056 312.052C98.6256 311.758 99.1384 311.429 99.644 311.065C100.15 310.701 100.662 310.316 101.182 309.911C101.688 309.505 102.208 309.099 102.742 308.693C103.262 308.287 103.79 307.895 104.324 307.517C104.844 307.153 105.378 306.824 105.927 306.53C106.476 306.236 107.032 306.005 107.596 305.837C108.159 305.669 108.73 305.578 109.307 305.564C109.885 305.55 110.477 305.613 111.084 305.753C111.691 305.879 112.312 306.068 112.947 306.32C113.583 306.558 114.24 306.838 114.919 307.16C115.598 307.482 116.291 307.825 116.999 308.189C117.721 308.553 118.465 308.924 119.231 309.302C119.996 309.68 120.798 310.05 121.636 310.414C122.459 310.764 123.311 311.093 124.192 311.401C125.088 311.709 126.012 311.968 126.966 312.178C127.905 312.402 128.858 312.577 129.826 312.703C130.794 312.829 131.754 312.899 132.707 312.913C133.646 312.941 134.549 312.906 135.416 312.808C136.283 312.71 137.084 312.549 137.821 312.325C138.572 312.115 139.236 311.828 139.814 311.464C140.392 311.114 140.861 310.687 141.223 310.183C141.598 309.694 141.836 309.12 141.938 308.462C142.039 307.818 142.017 307.09 141.873 306.278C141.714 305.48 141.468 304.612 141.136 303.674C140.789 302.75 140.385 301.763 139.923 300.713C139.475 299.677 138.998 298.592 138.493 297.458C137.987 296.338 137.489 295.176 136.998 293.972C136.521 292.782 136.095 291.564 135.719 290.318C135.344 289.086 135.048 287.833 134.831 286.559C134.614 285.3 134.52 284.04 134.549 282.78C134.578 281.506 134.708 280.253 134.939 279.021C135.17 277.775 135.474 276.557 135.849 275.367C136.21 274.177 136.608 273.036 137.041 271.944C137.474 270.838 137.893 269.795 138.298 268.815C138.702 267.821 139.063 266.904 139.381 266.064C139.699 265.224 139.937 264.468 140.096 263.796C140.24 263.124 140.262 262.557 140.161 262.095C140.074 261.634 139.829 261.284 139.424 261.046Z" fill="#E5C185"/>
<path fill-rule="evenodd" clip-rule="evenodd" d="M172.385 11.0455C171.989 10.7935 171.461 10.6396 170.801 10.5836C170.126 10.5136 169.363 10.5136 168.513 10.5836C167.647 10.6396 166.716 10.7306 165.719 10.8565C164.721 10.9825 163.687 11.1155 162.617 11.2555C161.546 11.3815 160.475 11.4935 159.404 11.5915C158.334 11.6895 157.292 11.7315 156.28 11.7175C155.268 11.7035 154.315 11.6195 153.42 11.4655C152.526 11.2975 151.704 11.0455 150.956 10.7096C150.223 10.3736 149.548 9.96759 148.932 9.4916C148.331 9.02962 147.781 8.51865 147.282 7.95867C146.769 7.41269 146.3 6.84572 145.874 6.25774C145.449 5.66977 145.053 5.08879 144.686 4.51481C144.305 3.95483 143.938 3.41586 143.586 2.89788C143.234 2.3939 142.882 1.93892 142.53 1.53294C142.178 1.14095 141.812 0.82597 141.43 0.587978C141.049 0.335987 140.653 0.167995 140.242 0.0839996C139.817 3.8147e-06 139.377 -0.0209999 138.922 0.0209999C138.453 0.048996 137.962 0.125996 137.448 0.251991C136.935 0.377987 136.4 0.524982 135.842 0.692974C135.285 0.860966 134.706 1.04296 134.104 1.23895C133.488 1.42094 132.85 1.59594 132.19 1.76393C131.53 1.94592 130.834 2.09291 130.1 2.20491C129.382 2.3169 128.634 2.3869 127.856 2.4149C127.094 2.4569 126.302 2.4639 125.48 2.4359C124.674 2.4079 123.852 2.3659 123.016 2.3099C122.195 2.2679 121.381 2.22591 120.574 2.18391C119.753 2.14191 118.954 2.12791 118.176 2.14191C117.399 2.14191 116.651 2.18391 115.932 2.26791C115.214 2.3659 114.539 2.5129 113.908 2.70889C113.263 2.91888 112.684 3.19887 112.17 3.54885C111.642 3.89884 111.173 4.33982 110.762 4.8718C110.366 5.38978 110.036 5.97775 109.772 6.63572C109.508 7.2937 109.31 8.00067 109.178 8.75664C109.046 9.5266 108.988 10.3246 109.002 11.1505C109.017 11.9765 109.105 12.8235 109.266 13.6914C109.428 14.5594 109.662 15.4274 109.97 16.2953C110.293 17.1633 110.689 18.0103 111.158 18.8362C111.628 19.6762 112.178 20.4811 112.808 21.2511C113.424 22.0211 114.114 22.7561 114.876 23.456C115.639 24.142 116.438 24.814 117.274 25.4719C118.125 26.1159 118.976 26.7459 119.826 27.3619C120.677 27.9778 121.513 28.5868 122.334 29.1888C123.156 29.8048 123.926 30.4207 124.644 31.0367C125.378 31.6527 126.03 32.2897 126.602 32.9476C127.174 33.5916 127.636 34.2706 127.988 34.9845C128.355 35.6845 128.59 36.4195 128.692 37.1895C128.81 37.9734 128.802 38.7784 128.67 39.6044C128.553 40.4443 128.355 41.2983 128.076 42.1662C127.798 43.0342 127.46 43.9092 127.064 44.7911C126.683 45.6871 126.272 46.5761 125.832 47.458C125.392 48.34 124.96 49.2079 124.534 50.0619C124.109 50.9159 123.72 51.7488 123.368 52.5608C123.002 53.3728 122.708 54.1427 122.488 54.8707C122.268 55.6127 122.129 56.3127 122.07 56.9706C122.012 57.6286 122.034 58.2306 122.136 58.7766C122.224 59.3365 122.386 59.8475 122.62 60.3095C122.84 60.7575 123.119 61.1565 123.456 61.5064C123.779 61.8564 124.153 62.1434 124.578 62.3674C124.989 62.5914 125.429 62.7594 125.898 62.8714C126.368 62.9694 126.852 63.0114 127.35 62.9974C127.864 62.9694 128.377 62.8714 128.89 62.7034C129.404 62.5494 129.917 62.3324 130.43 62.0524C130.958 61.7584 131.479 61.4294 131.992 61.0655C132.506 60.7015 133.026 60.3165 133.554 59.9105C134.068 59.5045 134.596 59.0985 135.138 58.6926C135.666 58.2866 136.202 57.8946 136.744 57.5166C137.272 57.1526 137.815 56.8236 138.372 56.5296C138.93 56.2357 139.494 56.0047 140.066 55.8367C140.638 55.6687 141.218 55.5777 141.804 55.5637C142.391 55.5497 142.992 55.6127 143.608 55.7527C144.224 55.8787 144.855 56.0677 145.5 56.3197C146.146 56.5576 146.813 56.8376 147.502 57.1596C148.192 57.4816 148.896 57.8246 149.614 58.1886C150.348 58.5526 151.103 58.9235 151.88 59.3015C152.658 59.6795 153.472 60.0505 154.322 60.4145C155.158 60.7645 156.024 61.0935 156.918 61.4014C157.828 61.7094 158.766 61.9684 159.734 62.1784C160.688 62.4024 161.656 62.5774 162.639 62.7034C163.621 62.8294 164.597 62.8994 165.565 62.9134C166.518 62.9414 167.435 62.9064 168.315 62.8084C169.195 62.7104 170.009 62.5494 170.757 62.3254C171.519 62.1154 172.194 61.8284 172.781 61.4644C173.367 61.1145 173.844 60.6875 174.211 60.1835C174.592 59.6935 174.834 59.1195 174.937 58.4616C175.039 57.8176 175.017 57.0896 174.871 56.2777C174.709 55.4797 174.46 54.6117 174.123 53.6738C173.771 52.7498 173.36 51.7628 172.891 50.7129C172.436 49.6769 171.952 48.592 171.439 47.458C170.925 46.3381 170.419 45.1761 169.921 43.9722C169.437 42.7822 169.004 41.5643 168.623 40.3183C168.241 39.0864 167.941 37.8334 167.721 36.5595C167.501 35.2995 167.405 34.0396 167.435 32.7796C167.464 31.5057 167.596 30.2527 167.831 29.0208C168.065 27.7748 168.373 26.5569 168.755 25.3669C169.121 24.177 169.525 23.036 169.965 21.9441C170.405 20.8381 170.83 19.7952 171.241 18.8152C171.651 17.8213 172.018 16.9043 172.341 16.0643C172.663 15.2244 172.905 14.4684 173.067 13.7964C173.213 13.1245 173.235 12.5575 173.133 12.0955C173.045 11.6335 172.795 11.2835 172.385 11.0455Z" fill="#74A892"/>
<path fill-rule="evenodd" clip-rule="evenodd" d="M44.6376 347.477C44.3534 347.017 44.1387 346.502 43.9935 345.932C43.8483 345.363 43.7684 344.759 43.7539 344.121C43.7421 343.469 43.7718 342.778 43.8431 342.047C43.9274 341.333 44.0519 340.585 44.2164 339.805C44.3782 339.038 44.5549 338.24 44.7465 337.41C44.9512 336.597 45.168 335.765 45.3969 334.916C45.6258 334.066 45.8468 333.215 46.0598 332.362C46.2915 331.5 46.498 330.638 46.6793 329.779C46.8737 328.936 47.035 328.093 47.1631 327.25C47.2912 326.406 47.3819 325.583 47.4354 324.779C47.4888 323.976 47.5063 323.185 47.4879 322.408C47.4854 321.634 47.4549 320.875 47.3964 320.13C47.3378 319.386 47.2579 318.664 47.1564 317.966C47.0737 317.258 46.9881 316.563 46.8998 315.882C46.8087 315.213 46.7147 314.558 46.618 313.916C46.5372 313.277 46.468 312.662 46.4106 312.07C46.3559 311.464 46.3223 310.877 46.3097 310.308C46.3129 309.743 46.3451 309.197 46.4063 308.671C46.4702 308.132 46.5711 307.615 46.7088 307.119C46.8624 306.626 47.0608 306.157 47.3041 305.711C47.5502 305.252 47.8424 304.809 48.1809 304.384C48.5167 303.971 48.8972 303.582 49.3226 303.216C49.7507 302.836 50.2158 302.478 50.7178 302.142C51.2169 301.819 51.7464 301.51 52.3063 301.214C52.8634 300.93 53.4415 300.666 54.0406 300.419C54.6528 300.189 55.286 299.977 55.9402 299.784C56.5786 299.587 57.2352 299.422 57.91 299.288C58.5849 299.154 59.2714 299.043 59.9696 298.955C60.6678 298.868 61.3684 298.808 62.0713 298.777C62.7742 298.746 63.4716 298.741 64.1633 298.763C64.871 298.788 65.5744 298.832 66.2737 298.897C66.973 298.962 67.676 299.048 68.3828 299.155C69.0924 299.25 69.8071 299.359 70.5269 299.483C71.244 299.621 71.9704 299.753 72.7061 299.881C73.4391 300.021 74.18 300.164 74.9288 300.308C75.6804 300.439 76.4479 300.573 77.2312 300.711C78.0174 300.835 78.8143 300.948 79.6218 301.049C80.4425 301.167 81.2767 301.26 82.1244 301.328C82.9721 301.397 83.8399 301.449 84.7277 301.484C85.6155 301.519 86.5262 301.525 87.4597 301.501C88.3932 301.477 89.3468 301.436 90.3204 301.379C91.2754 301.332 92.2504 301.268 93.2455 301.188C94.2247 301.104 95.2039 301.021 96.1831 300.937C97.181 300.844 98.1681 300.762 99.1445 300.692C100.121 300.621 101.087 300.563 102.042 300.515C102.997 300.468 103.93 300.444 104.842 300.443C105.754 300.442 106.643 300.471 107.51 300.529C108.373 300.601 109.205 300.707 110.004 300.848C110.79 300.972 111.548 301.153 112.277 301.39C112.991 301.623 113.66 301.909 114.285 302.248C114.894 302.584 115.466 302.974 116.002 303.418C116.525 303.847 116.999 304.312 117.423 304.816C117.845 305.333 118.22 305.875 118.548 306.442C118.857 307.018 119.122 307.612 119.341 308.225C119.56 308.837 119.725 309.466 119.838 310.112C119.951 310.757 120.003 311.41 119.996 312.072C119.992 312.72 119.938 313.372 119.833 314.026C119.712 314.678 119.536 315.317 119.304 315.945C119.072 316.573 118.786 317.183 118.446 317.774C118.108 318.352 117.699 318.915 117.219 319.463C116.757 320.001 116.251 320.516 115.7 321.007C115.132 321.495 114.535 321.97 113.907 322.431C113.279 322.893 112.621 323.341 111.932 323.776C111.244 324.211 110.547 324.644 109.843 325.076C109.138 325.507 108.435 325.932 107.734 326.351C107.013 326.779 106.309 327.21 105.62 327.645C104.948 328.083 104.289 328.532 103.646 328.99C103.002 329.448 102.397 329.921 101.829 330.409C101.262 330.897 100.741 331.402 100.267 331.924C99.789 332.458 99.3643 333.018 98.9923 333.602C98.6231 334.174 98.3067 334.77 98.043 335.391C97.7635 336.009 97.5316 336.637 97.3473 337.275C97.1472 337.909 96.9787 338.551 96.8421 339.199C96.6895 339.843 96.5622 340.486 96.4601 341.128C96.342 341.766 96.2348 342.393 96.1382 343.008C96.0416 343.623 95.9334 344.214 95.8135 344.783C95.7094 345.355 95.5857 345.902 95.4424 346.424C95.2991 346.947 95.1231 347.428 94.9143 347.867C94.7187 348.323 94.4838 348.729 94.2096 349.086C93.9355 349.442 93.6127 349.754 93.2414 350.021C92.8701 350.288 92.4502 350.51 91.9817 350.688C91.5319 350.855 91.0307 350.991 90.4782 351.096C89.9256 351.2 89.331 351.268 88.6943 351.3C88.0708 351.348 87.4038 351.366 86.6934 351.354C85.9801 351.356 85.23 351.336 84.443 351.294C83.6719 351.256 82.8611 351.209 82.0106 351.154C81.1601 351.099 80.2778 351.037 79.3638 350.968C78.4499 350.9 77.5093 350.84 76.5421 350.788C75.5749 350.736 74.5877 350.7 73.5804 350.681C72.56 350.645 71.5181 350.633 70.4548 350.643C69.3944 350.641 68.3217 350.656 67.237 350.69C66.1392 350.707 65.0479 350.732 63.9632 350.766C62.8784 350.8 61.803 350.828 60.7369 350.852C59.6736 350.863 58.6356 350.872 57.6227 350.879C56.5967 350.87 55.6067 350.847 54.6526 350.812C53.6985 350.776 52.7845 350.708 51.9106 350.606C51.0526 350.508 50.2427 350.379 49.4808 350.218C48.7189 350.058 48.033 349.851 47.4232 349.598C46.7975 349.342 46.2478 349.039 45.7742 348.691C45.3165 348.345 44.9376 347.941 44.6376 347.477Z" fill="#038585"/>
<path fill-rule="evenodd" clip-rule="evenodd" d="M295.457 61.9545C295.829 62.2065 296.325 62.3604 296.945 62.4164C297.579 62.4864 298.295 62.4864 299.094 62.4164C299.907 62.3604 300.782 62.2694 301.719 62.1435C302.656 62.0175 303.627 61.8845 304.633 61.7445C305.639 61.6185 306.645 61.5065 307.65 61.4085C308.656 61.3105 309.634 61.2685 310.585 61.2825C311.536 61.2965 312.431 61.3805 313.272 61.5345C314.112 61.7025 314.884 61.9545 315.586 62.2904C316.275 62.6264 316.909 63.0324 317.488 63.5084C318.053 63.9704 318.569 64.4813 319.038 65.0413C319.52 65.5873 319.961 66.1543 320.36 66.7423C320.76 67.3302 321.132 67.9112 321.476 68.4852C321.835 69.0452 322.179 69.5841 322.51 70.1021C322.84 70.6061 323.171 71.0611 323.502 71.4671C323.832 71.859 324.177 72.174 324.535 72.412C324.893 72.664 325.265 72.832 325.651 72.916C326.051 73 326.464 73.021 326.891 72.979C327.332 72.951 327.794 72.874 328.276 72.748C328.758 72.622 329.261 72.475 329.784 72.307C330.308 72.139 330.852 71.957 331.417 71.761C331.996 71.5791 332.595 71.4041 333.215 71.2361C333.835 71.0541 334.49 70.9071 335.178 70.7951C335.854 70.6831 336.556 70.6131 337.286 70.5851C338.003 70.5431 338.747 70.5361 339.519 70.5641C340.276 70.5921 341.048 70.6341 341.833 70.6901C342.605 70.7321 343.369 70.7741 344.127 70.8161C344.899 70.8581 345.65 70.8721 346.38 70.8581C347.11 70.8581 347.813 70.8161 348.488 70.7321C349.163 70.6341 349.797 70.4871 350.389 70.2911C350.995 70.0811 351.54 69.8011 352.022 69.4511C352.518 69.1012 352.959 68.6602 353.345 68.1282C353.717 67.6102 354.027 67.0223 354.275 66.3643C354.523 65.7063 354.709 64.9993 354.833 64.2434C354.957 63.4734 355.012 62.6754 354.998 61.8495C354.984 61.0235 354.901 60.1765 354.75 59.3086C354.598 58.4406 354.378 57.5726 354.089 56.7047C353.785 55.8367 353.413 54.9897 352.973 54.1638C352.532 53.3238 352.015 52.5189 351.423 51.7489C350.844 50.9789 350.196 50.2439 349.48 49.544C348.763 48.858 348.013 48.186 347.227 47.5281C346.428 46.8841 345.629 46.2541 344.83 45.6381C344.031 45.0222 343.245 44.4132 342.474 43.8112C341.702 43.1952 340.979 42.5793 340.304 41.9633C339.615 41.3473 339.002 40.7103 338.465 40.0524C337.927 39.4084 337.493 38.7294 337.162 38.0155C336.818 37.3155 336.598 36.5805 336.501 35.8105C336.391 35.0266 336.398 34.2216 336.522 33.3956C336.632 32.5557 336.818 31.7017 337.08 30.8338C337.342 29.9658 337.658 29.0908 338.031 28.2089C338.389 27.3129 338.775 26.4239 339.188 25.542C339.601 24.66 340.008 23.7921 340.407 22.9381C340.807 22.0841 341.172 21.2512 341.503 20.4392C341.847 19.6272 342.123 18.8573 342.329 18.1293C342.536 17.3873 342.667 16.6873 342.722 16.0294C342.777 15.3714 342.756 14.7694 342.66 14.2234C342.577 13.6635 342.426 13.1525 342.205 12.6905C341.999 12.2425 341.737 11.8435 341.42 11.4936C341.117 11.1436 340.765 10.8566 340.366 10.6326C339.98 10.4086 339.567 10.2406 339.126 10.1286C338.685 10.0306 338.23 9.98863 337.762 10.0026C337.28 10.0306 336.797 10.1286 336.315 10.2966C335.833 10.4506 335.351 10.6676 334.868 10.9476C334.372 11.2416 333.883 11.5706 333.401 11.9345C332.919 12.2985 332.43 12.6835 331.934 13.0895C331.452 13.4955 330.956 13.9015 330.446 14.3074C329.95 14.7134 329.447 15.1054 328.937 15.4834C328.441 15.8474 327.931 16.1764 327.408 16.4704C326.884 16.7643 326.354 16.9953 325.816 17.1633C325.279 17.3313 324.735 17.4223 324.184 17.4363C323.633 17.4503 323.068 17.3873 322.489 17.2473C321.91 17.1213 321.318 16.9323 320.712 16.6803C320.106 16.4424 319.479 16.1624 318.831 15.8404C318.183 15.5184 317.522 15.1754 316.847 14.8114C316.158 14.4474 315.449 14.0765 314.718 13.6985C313.988 13.3205 313.223 12.9495 312.424 12.5855C311.639 12.2355 310.826 11.9065 309.986 11.5986C309.131 11.2906 308.25 11.0316 307.34 10.8216C306.445 10.5976 305.535 10.4226 304.612 10.2966C303.689 10.1706 302.773 10.1006 301.864 10.0866C300.968 10.0586 300.107 10.0936 299.28 10.1916C298.454 10.2896 297.689 10.4506 296.986 10.6746C296.27 10.8846 295.636 11.1716 295.085 11.5356C294.534 11.8855 294.086 12.3125 293.742 12.8165C293.383 13.3065 293.156 13.8805 293.06 14.5384C292.963 15.1824 292.984 15.9104 293.122 16.7223C293.273 17.5203 293.507 18.3883 293.824 19.3262C294.155 20.2502 294.541 21.2372 294.982 22.2871C295.409 23.3231 295.863 24.408 296.346 25.542C296.828 26.6619 297.303 27.8239 297.772 29.0278C298.226 30.2178 298.633 31.4357 298.991 32.6817C299.349 33.9136 299.632 35.1666 299.838 36.4405C300.045 37.7005 300.135 38.9604 300.107 40.2204C300.079 41.4943 299.955 42.7473 299.735 43.9792C299.514 45.2252 299.225 46.4431 298.867 47.6331C298.522 48.823 298.144 49.964 297.73 51.0559C297.317 52.1619 296.917 53.2048 296.532 54.1848C296.146 55.1787 295.801 56.0957 295.498 56.9357C295.195 57.7756 294.968 58.5316 294.816 59.2036C294.678 59.8755 294.658 60.4425 294.754 60.9045C294.837 61.3665 295.071 61.7165 295.457 61.9545Z" fill="#FDF7DA"/>
<path fill-rule="evenodd" clip-rule="evenodd" d="M470.785 126.769C470.353 126.933 469.815 126.974 469.172 126.892C468.512 126.821 467.783 126.663 466.984 126.418C466.168 126.184 465.297 125.902 464.369 125.573C463.442 125.243 462.481 124.899 461.487 124.541C460.49 124.196 459.489 123.865 458.486 123.547C457.483 123.23 456.496 122.973 455.525 122.777C454.554 122.581 453.625 122.466 452.736 122.43C451.845 122.409 451.006 122.485 450.22 122.658C449.447 122.834 448.716 123.09 448.027 123.427C447.354 123.754 446.72 124.139 446.124 124.582C445.518 125.009 444.949 125.465 444.418 125.951C443.887 126.436 443.385 126.921 442.913 127.406C442.43 127.873 441.966 128.323 441.519 128.756C441.076 129.175 440.643 129.546 440.221 129.87C439.801 130.179 439.384 130.411 438.969 130.564C438.551 130.731 438.137 130.813 437.726 130.81C437.302 130.804 436.876 130.733 436.45 130.598C436.007 130.473 435.554 130.297 435.089 130.067C434.625 129.838 434.144 129.583 433.647 129.304C433.149 129.025 432.634 128.727 432.1 128.411C431.549 128.106 430.976 127.803 430.38 127.502C429.788 127.188 429.152 126.9 428.475 126.639C427.811 126.38 427.111 126.157 426.373 125.969C425.652 125.77 424.896 125.599 424.105 125.456C423.328 125.316 422.533 125.187 421.722 125.068C420.927 124.939 420.14 124.812 419.36 124.685C418.565 124.556 417.798 124.404 417.057 124.23C416.314 124.069 415.607 123.873 414.938 123.642C414.271 123.397 413.657 123.114 413.095 122.792C412.522 122.453 412.028 122.06 411.611 121.612C411.18 121.161 410.824 120.633 410.544 120.029C410.274 119.441 410.083 118.799 409.97 118.102C409.856 117.405 409.817 116.674 409.85 115.909C409.887 115.13 409.999 114.339 410.188 113.536C410.377 112.732 410.64 111.924 410.978 111.11C411.316 110.296 411.724 109.498 412.202 108.714C412.694 107.934 413.252 107.189 413.875 106.48C414.502 105.757 415.198 105.086 415.964 104.465C416.716 103.841 417.531 103.266 418.408 102.741C419.282 102.229 420.189 101.739 421.128 101.27C422.077 100.818 423.024 100.379 423.968 99.9538C424.912 99.5288 425.84 99.1076 426.753 98.6901C427.669 98.259 428.535 97.8173 429.353 97.3649C430.185 96.9156 430.944 96.4291 431.63 95.9053C432.313 95.3952 432.898 94.8282 433.386 94.2042C433.885 93.5969 434.265 92.9281 434.526 92.1978C434.804 91.4568 434.967 90.6696 435.015 89.836C435.081 88.9918 435.072 88.1172 434.989 87.2122C434.906 86.3072 434.768 85.3833 434.576 84.4403C434.401 83.4868 434.196 82.534 433.962 81.5819C433.727 80.6298 433.497 79.693 433.271 78.7713C433.044 77.8496 432.849 76.956 432.684 76.0905C432.505 75.2219 432.387 74.4096 432.331 73.6534C432.277 72.8836 432.292 72.1715 432.375 71.5171C432.458 70.8627 432.606 70.2796 432.82 69.7679C433.022 69.2396 433.285 68.7742 433.607 68.3719C433.912 67.9802 434.263 67.6485 434.66 67.3767C435.042 67.1019 435.461 66.8993 435.915 66.7688C436.355 66.6352 436.811 66.5624 437.284 66.5503C437.753 66.5519 438.225 66.6112 438.699 66.7281C439.184 66.8618 439.654 67.0638 440.11 67.3342C440.568 67.5908 441.013 67.909 441.445 68.2886C441.888 68.685 442.316 69.114 442.73 69.5756C443.144 70.0373 443.561 70.5209 443.98 71.0266C444.385 71.5293 444.804 72.0349 445.237 72.5437C445.656 73.0493 446.086 73.5429 446.525 74.0242C446.953 74.4889 447.402 74.9225 447.873 75.3249C448.344 75.7274 448.835 76.0698 449.347 76.3523C449.858 76.6348 450.393 76.8436 450.951 76.9788C451.509 77.1141 452.098 77.1771 452.716 77.1681C453.332 77.1728 453.975 77.1189 454.646 77.0067C455.313 76.908 456.011 76.773 456.738 76.6015C457.466 76.43 458.211 76.2411 458.976 76.0347C459.754 75.8313 460.555 75.6257 461.378 75.4178C462.202 75.2099 463.059 75.0164 463.949 74.8373C464.823 74.6689 465.72 74.5271 466.641 74.4118C467.575 74.2995 468.528 74.2412 469.498 74.2368C470.457 74.2156 471.42 74.2454 472.387 74.326C473.353 74.4066 474.301 74.5403 475.229 74.7272C476.147 74.8974 477.016 75.1215 477.837 75.3994C478.658 75.6774 479.403 76.0032 480.071 76.3768C480.756 76.7398 481.34 77.1597 481.824 77.6365C482.312 78.0997 482.677 78.6152 482.921 79.1832C483.182 79.7404 483.292 80.3508 483.251 81.0144C483.214 81.6642 483.039 82.3703 482.727 83.1325C482.404 83.8779 481.982 84.6735 481.461 85.5192C480.929 86.3482 480.327 87.2265 479.656 88.1541C479.002 89.0711 478.31 90.0299 477.579 91.0304C476.852 92.0173 476.122 93.0467 475.39 94.1185C474.676 95.1798 474.005 96.279 473.376 97.4162C472.751 98.5397 472.199 99.7005 471.719 100.898C471.242 102.083 470.885 103.293 470.646 104.529C470.405 105.778 470.266 107.029 470.23 108.28C470.191 109.545 470.228 110.797 470.341 112.038C470.44 113.275 470.585 114.473 470.775 115.63C470.962 116.8 471.148 117.907 471.333 118.948C471.516 120.004 471.673 120.975 471.804 121.861C471.935 122.748 472.006 123.536 472.019 124.225C472.017 124.912 471.918 125.47 471.722 125.899C471.54 126.332 471.228 126.622 470.785 126.769Z" fill="#E5C185"/>
<path fill-rule="evenodd" clip-rule="evenodd" d="M491.094 343.692C490.675 343.887 490.142 343.967 489.495 343.932C488.831 343.909 488.092 343.805 487.278 343.62C486.447 343.446 485.557 343.229 484.608 342.968C483.659 342.707 482.676 342.434 481.658 342.15C480.638 341.879 479.616 341.622 478.592 341.379C477.569 341.135 476.565 340.952 475.583 340.827C474.6 340.703 473.665 340.656 472.776 340.686C471.886 340.73 471.055 340.867 470.283 341.097C469.526 341.329 468.815 341.638 468.152 342.025C467.505 342.399 466.901 342.83 466.34 343.315C465.766 343.785 465.232 344.282 464.738 344.805C464.244 345.328 463.779 345.849 463.344 346.366C462.896 346.868 462.466 347.351 462.052 347.815C461.641 348.266 461.237 348.667 460.839 349.021C460.443 349.36 460.044 349.622 459.641 349.805C459.237 350.002 458.829 350.114 458.42 350.141C457.996 350.166 457.567 350.127 457.132 350.023C456.681 349.931 456.216 349.788 455.736 349.593C455.256 349.399 454.758 349.18 454.241 348.938C453.724 348.696 453.188 348.436 452.633 348.16C452.062 347.896 451.468 347.636 450.852 347.38C450.237 347.11 449.583 346.869 448.888 346.658C448.207 346.449 447.492 346.278 446.743 346.144C446.01 345.998 445.243 345.883 444.443 345.798C443.658 345.716 442.856 345.645 442.038 345.586C441.236 345.516 440.442 345.446 439.654 345.377C438.852 345.307 438.076 345.211 437.325 345.091C436.571 344.985 435.852 344.841 435.168 344.66C434.485 344.465 433.852 344.227 433.268 343.947C432.672 343.652 432.15 343.296 431.701 342.879C431.238 342.461 430.845 341.961 430.521 341.379C430.21 340.812 429.972 340.186 429.808 339.499C429.644 338.812 429.55 338.086 429.528 337.32C429.507 336.541 429.562 335.743 429.691 334.929C429.821 334.114 430.024 333.288 430.301 332.452C430.579 331.615 430.927 330.789 431.347 329.973C431.78 329.158 432.282 328.375 432.852 327.622C433.424 326.856 434.069 326.135 434.788 325.459C435.492 324.782 436.262 324.149 437.099 323.561C437.934 322.987 438.802 322.432 439.704 321.895C440.618 321.375 441.53 320.868 442.44 320.375C443.35 319.882 444.245 319.394 445.125 318.911C446.007 318.414 446.839 317.91 447.621 317.399C448.418 316.89 449.139 316.349 449.785 315.776C450.429 315.218 450.971 314.609 451.412 313.951C451.865 313.309 452.195 312.614 452.402 311.867C452.625 311.108 452.73 310.31 452.717 309.476C452.721 308.629 452.648 307.757 452.499 306.861C452.35 305.964 452.145 305.053 451.884 304.127C451.64 303.188 451.366 302.253 451.062 301.321C450.759 300.388 450.461 299.471 450.168 298.568C449.874 297.666 449.614 296.789 449.386 295.938C449.144 295.084 448.967 294.283 448.856 293.533C448.746 292.769 448.708 292.058 448.743 291.399C448.778 290.74 448.883 290.148 449.059 289.622C449.222 289.08 449.45 288.597 449.742 288.172C450.017 287.759 450.343 287.403 450.719 287.103C451.08 286.801 451.483 286.568 451.926 286.404C452.355 286.239 452.805 286.133 453.275 286.086C453.744 286.053 454.219 286.078 454.7 286.16C455.194 286.258 455.677 286.425 456.151 286.661C456.627 286.884 457.094 287.168 457.553 287.515C458.023 287.878 458.482 288.275 458.929 288.705C459.375 289.135 459.826 289.587 460.281 290.061C460.722 290.532 461.177 291.006 461.646 291.481C462.101 291.955 462.565 292.416 463.039 292.864C463.499 293.296 463.979 293.695 464.478 294.062C464.978 294.429 465.493 294.735 466.023 294.979C466.554 295.223 467.103 295.393 467.669 295.487C468.236 295.581 468.827 295.6 469.444 295.546C470.058 295.506 470.696 295.405 471.356 295.244C472.015 295.097 472.7 294.911 473.413 294.687C474.126 294.462 474.856 294.219 475.603 293.958C476.365 293.698 477.148 293.434 477.954 293.167C478.76 292.899 479.601 292.643 480.476 292.399C481.335 292.168 482.219 291.96 483.129 291.778C484.053 291.598 484.999 291.47 485.966 291.394C486.921 291.303 487.883 291.262 488.853 291.272C489.823 291.282 490.778 291.346 491.718 291.464C492.645 291.567 493.529 291.726 494.368 291.944C495.207 292.161 495.973 292.431 496.667 292.755C497.377 293.067 497.99 293.443 498.508 293.883C499.028 294.309 499.43 294.797 499.715 295.345C500.016 295.882 500.171 296.482 500.179 297.147C500.188 297.798 500.065 298.515 499.81 299.298C499.542 300.065 499.18 300.89 498.722 301.771C498.252 302.637 497.717 303.557 497.115 304.531C496.53 305.493 495.91 306.5 495.255 307.552C494.601 308.589 493.949 309.669 493.298 310.792C492.663 311.902 492.074 313.048 491.53 314.228C490.989 315.394 490.523 316.592 490.132 317.822C489.743 319.038 489.475 320.271 489.328 321.521C489.179 322.785 489.132 324.042 489.188 325.293C489.241 326.557 489.37 327.804 489.573 329.032C489.763 330.259 489.995 331.443 490.269 332.583C490.541 333.737 490.808 334.826 491.069 335.852C491.328 336.891 491.556 337.848 491.751 338.722C491.947 339.597 492.076 340.378 492.138 341.065C492.187 341.749 492.129 342.313 491.965 342.756C491.815 343.201 491.525 343.513 491.094 343.692Z" fill="#E5C185"/>
<path fill-rule="evenodd" clip-rule="evenodd" d="M459.435 263.46C459.341 263.774 459.298 264.103 459.305 264.445C459.313 264.788 459.366 265.135 459.465 265.486C459.567 265.844 459.701 266.214 459.866 266.597C460.037 266.968 460.237 267.348 460.468 267.737C460.694 268.119 460.935 268.515 461.189 268.925C461.449 269.323 461.72 269.729 462 270.141C462.281 270.554 462.557 270.969 462.829 271.387C463.113 271.806 463.382 272.23 463.636 272.659C463.895 273.075 464.133 273.499 464.352 273.931C464.571 274.362 464.764 274.791 464.931 275.217C465.098 275.644 465.241 276.071 465.36 276.499C465.489 276.921 465.597 277.342 465.687 277.761C465.777 278.18 465.849 278.591 465.905 278.994C465.974 279.398 466.039 279.796 466.1 280.187C466.157 280.572 466.21 280.95 466.259 281.322C466.318 281.688 466.379 282.038 466.444 282.374C466.512 282.716 466.59 283.044 466.678 283.357C466.775 283.665 466.886 283.955 467.011 284.228C467.14 284.508 467.288 284.768 467.454 285.008C467.629 285.242 467.828 285.454 468.05 285.644C468.275 285.839 468.526 286.016 468.801 286.173C469.073 286.324 469.368 286.452 469.687 286.558C470.009 286.67 470.349 286.762 470.709 286.834C471.064 286.9 471.436 286.951 471.823 286.989C472.207 287.02 472.601 287.037 473.004 287.038C473.412 287.028 473.829 287.004 474.257 286.965C474.675 286.931 475.099 286.876 475.529 286.799C475.959 286.723 476.392 286.631 476.828 286.525C477.264 286.418 477.697 286.295 478.127 286.157C478.556 286.018 478.978 285.867 479.392 285.702C479.815 285.532 480.232 285.352 480.643 285.162C481.055 284.972 481.465 284.769 481.873 284.554C482.286 284.346 482.699 284.128 483.113 283.901C483.522 283.667 483.939 283.434 484.361 283.202C484.78 282.963 485.204 282.721 485.632 282.477C486.063 282.239 486.504 281.996 486.954 281.748C487.408 281.506 487.87 281.268 488.34 281.035C488.816 280.789 489.304 280.553 489.804 280.329C490.304 280.104 490.819 279.883 491.349 279.668C491.879 279.452 492.428 279.248 492.996 279.054C493.563 278.861 494.146 278.672 494.743 278.488C495.328 278.302 495.927 278.121 496.541 277.945C497.146 277.773 497.751 277.602 498.356 277.431C498.974 277.261 499.584 277.087 500.185 276.91C500.786 276.732 501.379 276.55 501.964 276.365C502.548 276.179 503.115 275.986 503.666 275.785C504.217 275.583 504.749 275.371 505.262 275.147C505.771 274.917 506.255 274.675 506.714 274.422C507.168 274.18 507.595 273.914 507.996 273.623C508.387 273.338 508.743 273.034 509.063 272.711C509.375 272.393 509.655 272.054 509.904 271.693C510.148 271.344 510.356 270.985 510.528 270.616C510.695 270.241 510.831 269.863 510.934 269.481C511.024 269.098 511.084 268.716 511.113 268.333C511.143 267.951 511.137 267.571 511.097 267.195C511.057 266.818 510.979 266.45 510.864 266.091C510.753 265.738 510.611 265.395 510.437 265.061C510.255 264.733 510.041 264.423 509.796 264.132C509.551 263.841 509.276 263.572 508.971 263.325C508.671 263.084 508.33 262.868 507.948 262.675C507.579 262.484 507.187 262.316 506.772 262.17C506.347 262.029 505.907 261.902 505.451 261.789C504.994 261.677 504.522 261.578 504.033 261.493C503.544 261.408 503.051 261.326 502.554 261.247C502.056 261.168 501.56 261.091 501.067 261.019C500.56 260.944 500.062 260.865 499.574 260.78C499.094 260.69 498.622 260.591 498.156 260.484C497.691 260.377 497.246 260.253 496.822 260.112C496.398 259.971 495.998 259.811 495.624 259.632C495.247 259.446 494.896 259.235 494.574 258.999C494.255 258.769 493.964 258.514 493.701 258.233C493.428 257.958 493.183 257.667 492.965 257.36C492.738 257.058 492.528 256.746 492.337 256.423C492.137 256.105 491.952 255.783 491.783 255.456C491.605 255.134 491.435 254.816 491.273 254.502C491.112 254.188 490.947 253.889 490.78 253.606C490.621 253.317 490.454 253.046 490.28 252.793C490.106 252.54 489.919 252.317 489.72 252.123C489.525 251.918 489.315 251.748 489.09 251.614C488.865 251.481 488.617 251.382 488.349 251.319C488.08 251.255 487.789 251.227 487.476 251.234C487.177 251.242 486.851 251.279 486.5 251.344C486.149 251.409 485.779 251.504 485.389 251.628C485.005 251.739 484.599 251.877 484.172 252.041C483.741 252.198 483.292 252.375 482.824 252.572C482.365 252.763 481.883 252.968 481.379 253.186C480.875 253.404 480.353 253.633 479.812 253.873C479.272 254.112 478.714 254.353 478.139 254.596C477.564 254.838 476.974 255.076 476.369 255.309C475.759 255.554 475.133 255.792 474.489 256.021C473.849 256.257 473.199 256.486 472.539 256.708C471.873 256.942 471.21 257.169 470.55 257.391C469.889 257.613 469.235 257.835 468.588 258.058C467.944 258.287 467.316 258.512 466.703 258.732C466.085 258.964 465.492 259.196 464.922 259.426C464.352 259.656 463.811 259.896 463.301 260.145C462.799 260.388 462.332 260.638 461.899 260.894C461.466 261.15 461.087 261.415 460.761 261.688C460.426 261.966 460.145 262.252 459.918 262.547C459.699 262.837 459.539 263.141 459.435 263.46Z" fill="#FDF7DA"/>
<path fill-rule="evenodd" clip-rule="evenodd" d="M393.517 325.382C393.423 325.696 393.38 326.024 393.388 326.367C393.395 326.71 393.448 327.056 393.547 327.408C393.649 327.766 393.783 328.136 393.948 328.519C394.119 328.89 394.32 329.27 394.55 329.659C394.776 330.041 395.017 330.437 395.271 330.847C395.531 331.245 395.802 331.651 396.082 332.063C396.363 332.476 396.639 332.891 396.911 333.309C397.195 333.728 397.464 334.152 397.718 334.581C397.977 334.997 398.215 335.421 398.434 335.853C398.653 336.284 398.846 336.713 399.013 337.139C399.18 337.566 399.323 337.993 399.442 338.421C399.571 338.843 399.68 339.264 399.769 339.683C399.859 340.102 399.931 340.513 399.987 340.916C400.056 341.32 400.121 341.718 400.182 342.109C400.239 342.494 400.292 342.872 400.341 343.243C400.4 343.61 400.461 343.96 400.526 344.296C400.594 344.638 400.672 344.966 400.76 345.279C400.857 345.587 400.968 345.877 401.093 346.15C401.222 346.43 401.37 346.69 401.536 346.93C401.711 347.164 401.91 347.376 402.132 347.565C402.357 347.761 402.608 347.938 402.884 348.095C403.155 348.246 403.45 348.374 403.769 348.48C404.091 348.592 404.431 348.684 404.791 348.756C405.146 348.822 405.518 348.873 405.905 348.911C406.289 348.942 406.683 348.958 407.086 348.96C407.494 348.95 407.912 348.926 408.339 348.886C408.757 348.853 409.181 348.797 409.611 348.721C410.041 348.645 410.474 348.553 410.91 348.447C411.346 348.34 411.779 348.217 412.209 348.079C412.638 347.94 413.06 347.789 413.474 347.624C413.897 347.454 414.314 347.273 414.726 347.084C415.137 346.894 415.547 346.691 415.955 346.476C416.368 346.267 416.781 346.05 417.195 345.823C417.604 345.589 418.021 345.356 418.443 345.124C418.862 344.885 419.286 344.643 419.714 344.399C420.145 344.161 420.586 343.918 421.036 343.67C421.49 343.428 421.952 343.19 422.422 342.956C422.898 342.711 423.386 342.475 423.886 342.25C424.386 342.026 424.901 341.805 425.432 341.59C425.962 341.374 426.51 341.169 427.078 340.976C427.645 340.783 428.228 340.594 428.825 340.409C429.41 340.224 430.009 340.043 430.623 339.866C431.228 339.695 431.833 339.524 432.438 339.353C433.056 339.183 433.666 339.009 434.267 338.832C434.868 338.654 435.461 338.472 436.046 338.287C436.63 338.101 437.198 337.908 437.748 337.706C438.299 337.505 438.831 337.293 439.344 337.069C439.853 336.839 440.337 336.597 440.796 336.344C441.25 336.102 441.677 335.836 442.078 335.545C442.469 335.26 442.825 334.956 443.145 334.633C443.457 334.315 443.737 333.976 443.986 333.615C444.23 333.266 444.438 332.907 444.61 332.538C444.777 332.163 444.913 331.785 445.016 331.403C445.106 331.02 445.166 330.638 445.195 330.255C445.225 329.873 445.219 329.493 445.179 329.117C445.139 328.74 445.061 328.372 444.946 328.013C444.835 327.66 444.693 327.317 444.519 326.983C444.337 326.655 444.124 326.345 443.878 326.054C443.633 325.763 443.358 325.494 443.053 325.247C442.753 325.006 442.412 324.79 442.03 324.597C441.661 324.406 441.269 324.237 440.854 324.091C440.429 323.951 439.989 323.824 439.533 323.711C439.076 323.599 438.604 323.5 438.115 323.415C437.627 323.33 437.133 323.248 436.636 323.169C436.138 323.089 435.642 323.013 435.149 322.94C434.642 322.866 434.145 322.787 433.656 322.702C433.176 322.612 432.704 322.513 432.238 322.406C431.773 322.299 431.328 322.175 430.904 322.034C430.48 321.893 430.081 321.733 429.706 321.554C429.329 321.368 428.978 321.157 428.656 320.921C428.337 320.691 428.046 320.436 427.783 320.155C427.51 319.88 427.265 319.589 427.047 319.282C426.82 318.98 426.61 318.668 426.419 318.345C426.219 318.027 426.034 317.705 425.865 317.377C425.687 317.056 425.517 316.738 425.355 316.424C425.194 316.11 425.029 315.811 424.862 315.528C424.703 315.239 424.537 314.968 424.362 314.715C424.188 314.462 424.001 314.238 423.802 314.045C423.607 313.84 423.397 313.67 423.172 313.536C422.947 313.403 422.7 313.304 422.431 313.241C422.162 313.177 421.871 313.149 421.558 313.156C421.259 313.164 420.933 313.201 420.582 313.266C420.231 313.331 419.861 313.426 419.471 313.55C419.087 313.661 418.681 313.799 418.254 313.963C417.823 314.12 417.374 314.297 416.906 314.493C416.447 314.685 415.965 314.89 415.461 315.108C414.957 315.326 414.435 315.555 413.894 315.795C413.354 316.034 412.796 316.275 412.221 316.518C411.646 316.76 411.056 316.998 410.451 317.231C409.841 317.476 409.215 317.714 408.571 317.943C407.931 318.179 407.281 318.408 406.621 318.63C405.955 318.864 405.292 319.091 404.632 319.313C403.971 319.535 403.317 319.757 402.67 319.98C402.026 320.209 401.398 320.434 400.785 320.654C400.167 320.886 399.574 321.117 399.004 321.348C398.434 321.578 397.893 321.818 397.383 322.067C396.881 322.31 396.414 322.56 395.981 322.816C395.548 323.072 395.169 323.337 394.843 323.61C394.508 323.888 394.227 324.174 394 324.469C393.781 324.759 393.621 325.063 393.517 325.382Z" fill="#038585"/>
</svg>
