<?xml version="1.0" encoding="UTF-8"?>
<svg id="Layer_2" data-name="Layer 2" xmlns="http://www.w3.org/2000/svg" viewBox="0 0 200.7 168.08">
  <defs>
    <style>
      .cls-1, .cls-2 {
        fill: none;
      }

      .cls-1, .cls-2, .cls-3, .cls-4 {
        stroke-miterlimit: 10;
      }

      .cls-1, .cls-4 {
        stroke: #414042;
      }

      .cls-5 {
        fill: #221f20;
      }

      .cls-5, .cls-6, .cls-7, .cls-8, .cls-9, .cls-10, .cls-11, .cls-12, .cls-13, .cls-14, .cls-15, .cls-16 {
        stroke-width: 0px;
      }

      .cls-6 {
        fill: #c0b59e;
      }

      .cls-7, .cls-3 {
        fill: #f0b357;
      }

      .cls-2 {
        stroke: #45a59d;
      }

      .cls-8 {
        fill: #7ea692;
      }

      .cls-17 {
        fill: #3a8384;
        font-family: ArialRoundedMTBold, 'Arial Rounded MT Bold';
        font-size: 27px;
      }

      .cls-17, .cls-14 {
        opacity: .8;
      }

      .cls-9 {
        fill: #6d6e71;
      }

      .cls-10, .cls-15 {
        fill: #b95b36;
      }

      .cls-3 {
        stroke: #fff;
      }

      .cls-11 {
        fill: #45a59d;
      }

      .cls-12 {
        fill: #58595b;
      }

      .cls-18 {
        letter-spacing: 0em;
      }

      .cls-13 {
        fill: #7ea691;
      }

      .cls-13, .cls-15 {
        opacity: .5;
      }

      .cls-14 {
        fill: #d1d3d4;
      }

      .cls-19 {
        letter-spacing: -.02em;
      }

      .cls-16 {
        fill: #414042;
      }

      .cls-20 {
        letter-spacing: -.04em;
      }

      .cls-4 {
        fill: #818284;
      }
    </style>
  </defs>
  <g id="Layer_1-2" data-name="Layer 1">
    <g>
      <rect class="cls-4" x="64.08" y="32.64" width="35.72" height="1.73" transform="translate(113.96 116.04) rotate(-133.45)"/>
      <rect class="cls-1" x="63.92" y="27.79" width="35.72" height="11.1" rx="1.84" ry="1.84" transform="translate(113.81 115.63) rotate(-133.45)"/>
      <line class="cls-4" x1="86.95" y1="46.87" x2="94.95" y2="39.17"/>
      <line class="cls-4" x1="83.61" y1="43.34" x2="91.6" y2="35.64"/>
      <line class="cls-4" x1="80.16" y1="40.04" x2="88.15" y2="32.34"/>
      <line class="cls-4" x1="76.87" y1="36.25" x2="84.87" y2="28.54"/>
      <line class="cls-4" x1="73.48" y1="32.9" x2="81.47" y2="25.19"/>
      <line class="cls-4" x1="70.54" y1="29.55" x2="78.53" y2="21.84"/>
      <line class="cls-4" x1="67.67" y1="27.03" x2="75.66" y2="19.33"/>
    </g>
    <g>
      <rect class="cls-4" x="104.2" y="31.68" width="35.72" height="1.73" transform="translate(14.49 98.78) rotate(-46.55)"/>
      <rect class="cls-1" x="104.36" y="26.82" width="35.72" height="11.1" rx="1.84" ry="1.84" transform="translate(14.66 98.84) rotate(-46.55)"/>
      <line class="cls-4" x1="117.05" y1="45.91" x2="109.05" y2="38.21"/>
      <line class="cls-4" x1="120.39" y1="42.38" x2="112.39" y2="34.68"/>
      <line class="cls-4" x1="123.84" y1="39.08" x2="115.85" y2="31.38"/>
      <line class="cls-4" x1="127.13" y1="35.28" x2="119.13" y2="27.58"/>
      <line class="cls-4" x1="130.52" y1="31.93" x2="122.52" y2="24.23"/>
      <line class="cls-4" x1="133.46" y1="28.58" x2="125.46" y2="20.88"/>
      <line class="cls-4" x1="136.33" y1="26.07" x2="128.33" y2="18.37"/>
    </g>
    <path class="cls-9" d="M0,80.75s30.35-24.3,40.04-36.51h119.36s37.02,36.26,41.3,36.51H0Z"/>
    <path class="cls-11" d="M99.78,16.93c-2.01.27-3.84,1.69-4.62,3.55-.23.56-.34,1.06-.39,1.68-.02.2-.02.41-.03.61-.02.44.01.03.14-.21-.04.07.58-.7.58-.5,0,.02-.68.18-.3.1.32-.07-.27.02-.34.02-.22,0-.45,0-.68,0v5c5.41-.21,10.83-.22,16.24-.01v-5c-.22,0-.45,0-.67-.02.3.04.3.03.02-.03.35.08.57.32.66.73.73,1.1.43.41.35-.18-.05-.4-.16-.72-.32-1.09-.57-1.32-1.65-2.26-2.78-3.09-1.96-1.45-4.51-2.38-6.97-2.11-1.58.17-3.32.86-3.67,2.63-.32,1.64.63,3.07,2.08,3.79,1.09.54,2.33.99,3.52,1.22,1.56.3,3.4.48,4.6-.78s.77-3.72-1.1-4.18l-.73-.18c-1.27-.31-2.77.4-3.08,1.75s.39,2.75,1.75,3.08l.73.18-1.1-4.18c.24-.25,1.63-.43.6-.47-.46-.02.26.05-.19,0s-.94-.21-1.39-.35c-.41-.13-.82-.27-1.21-.44.26.11.02-.05-.07-.05-.27-.19-.26-.15.04.12.24.3.29.33.16.08l.34,1.26c-1.47,1.28-1.79,1.79-.96,1.51-.21.02-.22.02-.03,0,.32-.03.64-.02.96,0l.27.03c-.22-.02-.17,0,.14.05.26.08.52.14.79.23.69.22,1.71.87,2.31,1.44,0,0,.57.5.31.28.15.27.17.29.08.07v-.19c0,.16,0,.33,0,.49.02.26.06.53.11.78.14.53.38.98.75,1.38.95,1.02,2.35,1.29,3.69,1.28s2.56-1.14,2.5-2.5-1.1-2.45-2.5-2.5c-5.41-.2-10.83-.2-16.24.01-1.31.05-2.56,1.11-2.5,2.5s1.1,2.47,2.5,2.5c2.28.04,4.8-.64,5.44-3.15.13-.49.2-1.12.17-1.64-.02-.34-.07.35.03-.1-.1.44,0,.03.12-.15-.2.29-.03.08.11-.07.18-.17-.25.14.13-.08.54-.31-.35.04.26-.12.23-.06.46-.11.7-.14,1.34-.18,2.07-1.9,1.75-3.08-.4-1.44-1.73-1.93-3.08-1.75h0Z"/>
    <ellipse class="cls-2" cx="102.26" cy="9.54" rx=".08" ry="6.7"/>
    <polygon class="cls-12" points="99.2 51.14 105.72 51.14 110.79 46.56 110.79 41.34 94.14 41.34 94.14 46.24 99.2 51.14"/>
    <polyline class="cls-12" points="94.14 41.34 94.14 27.01 110.38 27.01 110.79 41.34"/>
    <path class="cls-6" d="M104.47,39.74h-4.25v-8.27c0-.39.1-.76.3-1.09.68-1.12,1.71-3.26,3.69-.04.15.24.26.67.26.96v8.45Z"/>
    <path class="cls-6" d="M98.44,39.08h-2.85v-4.99c0-.23.07-.46.2-.66.45-.68,1.14-1.97,2.47-.02.1.14.17.41.17.58v5.1Z"/>
    <path class="cls-6" d="M109.45,39.08h-2.85v-4.99c0-.23.07-.46.2-.66.45-.68,1.14-1.97,2.47-.02.1.14.17.41.17.58v5.1Z"/>
    <circle class="cls-6" cx="102.19" cy="1.84" r="1.84"/>
    <polygon class="cls-3" points="68.43 80.92 103.01 62.5 137.52 80.92 68.43 80.92"/>
    <rect class="cls-7" y="80.92" width="200.7" height="87.15"/>
    <rect class="cls-14" x="24.3" y="83.65" width="148.29" height="84.42"/>
    <rect class="cls-16" x="167.89" y="80.75" width="32.81" height="48.04"/>
    <rect class="cls-9" x="170.11" y="84" width="28.38" height="41.54"/>
    <circle class="cls-5" cx="184.29" cy="115.27" r="9.13"/>
    <circle class="cls-5" cx="184.29" cy="94.89" r="6.99"/>
    <circle class="cls-16" cx="184.29" cy="94.89" r="5.11"/>
    <circle class="cls-16" cx="184.29" cy="115.27" r="6.54"/>
    <rect class="cls-16" y="80.92" width="32.81" height="48.04"/>
    <rect class="cls-9" x="2.22" y="84.17" width="28.38" height="41.54"/>
    <circle class="cls-5" cx="16.41" cy="115.44" r="9.13"/>
    <circle class="cls-5" cx="16.41" cy="95.06" r="6.99"/>
    <circle class="cls-16" cx="16.41" cy="95.06" r="5.11"/>
    <circle class="cls-16" cx="16.41" cy="115.44" r="6.54"/>
    <rect class="cls-5" x="70.77" y="80.75" width="7.67" height="13.75" rx="3.84" ry="3.84"/>
    <rect class="cls-5" x="48.8" y="80.75" width="7.67" height="13.75" rx="3.84" ry="3.84" transform="translate(19.04 -8.91) rotate(11.81)"/>
    <rect class="cls-5" x="118.69" y="82.88" width="7.67" height="13.75" rx="3.84" ry="3.84" transform="translate(61.29 -49.24) rotate(30)"/>
    <rect class="cls-5" x="145.58" y="82.11" width="7.67" height="13.75" rx="3.84" ry="3.84" transform="translate(-9.78 18.98) rotate(-7.04)"/>
    <ellipse class="cls-10" cx="74.8" cy="92.51" rx="3.61" ry="2.38"/>
    <ellipse class="cls-10" cx="149.96" cy="93.45" rx="3.61" ry="2.38" transform="translate(-10.32 19.08) rotate(-7.04)"/>
    <ellipse class="cls-8" cx="51.73" cy="91.97" rx="2.48" ry="3.73" transform="translate(-51.15 115.44) rotate(-73.49)"/>
    <ellipse class="cls-8" cx="120.17" cy="93.72" rx="2.38" ry="3.61" transform="translate(-18.23 157.52) rotate(-62.7)"/>
    <rect class="cls-5" x="31.66" y="80.82" width="138.29" height="5.68"/>
    <rect class="cls-5" x="24.3" y="165.24" width="148.29" height="2.84"/>
    <text class="cls-17" transform="translate(41.7 139.13)"><tspan x="0" y="0">EN</tspan><tspan class="cls-20" x="38.52" y="0">G</tspan><tspan class="cls-19" x="58.88" y="0">A</tspan><tspan class="cls-18" x="77.62" y="0">GE</tspan></text>
    <path class="cls-15" d="M75.93,92.51l25.65,51.8s-10.6,14.76-25.61.88l-2.32-51.07,2.29-1.61Z"/>
    <path class="cls-15" d="M151.2,92.51l34.83,54.02s-12.19,20.64-31.57,8.55l-5.99-59.98,2.72-2.58Z"/>
    <path class="cls-13" d="M121.78,93.13l-7.79,41.47s-15.13,4.34-18.9-10.18l24.23-31.29h2.46Z"/>
    <path class="cls-13" d="M52.26,91.1l.55,62.39s-20.72,10.62-30.36-9.36l26.23-52.33,3.58-.7Z"/>
  </g>
</svg>