<?xml version="1.0" encoding="UTF-8"?>
<svg id="Layer_2" data-name="Layer 2" xmlns="http://www.w3.org/2000/svg" viewBox="0 0 201.15 168.32">
  <defs>
    <style>
      .cls-1, .cls-2 {
        fill: none;
      }

      .cls-1, .cls-2, .cls-3, .cls-4 {
        stroke-miterlimit: 10;
      }

      .cls-1, .cls-4 {
        stroke: #414042;
      }

      .cls-5, .cls-6 {
        fill: #b95c36;
      }

      .cls-5, .cls-6, .cls-7, .cls-8, .cls-9, .cls-10, .cls-11, .cls-12, .cls-13, .cls-14, .cls-15, .cls-16, .cls-17, .cls-18 {
        stroke-width: 0px;
      }

      .cls-6, .cls-16 {
        opacity: .5;
      }

      .cls-7 {
        fill: #221f20;
      }

      .cls-8 {
        fill: #c0b59e;
      }

      .cls-19 {
        letter-spacing: 0em;
      }

      .cls-9, .cls-3 {
        fill: #f0b357;
      }

      .cls-2 {
        stroke: #45a59d;
      }

      .cls-10 {
        fill: #b95b35;
      }

      .cls-11 {
        fill: #7ea692;
      }

      .cls-12 {
        fill: #6d6e71;
      }

      .cls-20 {
        letter-spacing: 0em;
      }

      .cls-13, .cls-16 {
        fill: #b95b36;
      }

      .cls-3 {
        stroke: #fff;
      }

      .cls-14 {
        fill: #45a59d;
      }

      .cls-15 {
        fill: #58595b;
      }

      .cls-21 {
        letter-spacing: 0em;
      }

      .cls-22 {
        font-family: AcuminConcept-ExtraCondUltraBlack, 'Acumin Variable Concept';
        font-size: 36px;
        font-variation-settings: 'wght' 900, 'wdth' 50, 'slnt' 0;
        font-weight: 800;
        opacity: .8;
      }

      .cls-22, .cls-18 {
        fill: #3a8384;
      }

      .cls-23 {
        letter-spacing: 0em;
      }

      .cls-17 {
        fill: #414042;
      }

      .cls-4 {
        fill: #818284;
      }
    </style>
  </defs>
  <g id="Layer_1-2" data-name="Layer 1">
    <g>
      <rect class="cls-4" x="64.08" y="32.64" width="35.72" height="1.73" transform="translate(113.96 116.04) rotate(-133.45)"/>
      <rect class="cls-1" x="63.92" y="27.79" width="35.72" height="11.1" rx="1.84" ry="1.84" transform="translate(113.81 115.63) rotate(-133.45)"/>
      <line class="cls-4" x1="86.95" y1="46.87" x2="94.95" y2="39.17"/>
      <line class="cls-4" x1="83.61" y1="43.34" x2="91.6" y2="35.64"/>
      <line class="cls-4" x1="80.16" y1="40.04" x2="88.15" y2="32.34"/>
      <line class="cls-4" x1="76.87" y1="36.25" x2="84.87" y2="28.54"/>
      <line class="cls-4" x1="73.48" y1="32.9" x2="81.47" y2="25.19"/>
      <line class="cls-4" x1="70.54" y1="29.55" x2="78.53" y2="21.84"/>
      <line class="cls-4" x1="67.67" y1="27.03" x2="75.66" y2="19.33"/>
    </g>
    <g>
      <rect class="cls-4" x="104.2" y="31.68" width="35.72" height="1.73" transform="translate(14.49 98.78) rotate(-46.55)"/>
      <rect class="cls-1" x="104.36" y="26.82" width="35.72" height="11.1" rx="1.84" ry="1.84" transform="translate(14.66 98.84) rotate(-46.55)"/>
      <line class="cls-4" x1="117.05" y1="45.91" x2="109.05" y2="38.21"/>
      <line class="cls-4" x1="120.39" y1="42.38" x2="112.39" y2="34.68"/>
      <line class="cls-4" x1="123.84" y1="39.08" x2="115.85" y2="31.38"/>
      <line class="cls-4" x1="127.13" y1="35.28" x2="119.13" y2="27.58"/>
      <line class="cls-4" x1="130.52" y1="31.93" x2="122.52" y2="24.23"/>
      <line class="cls-4" x1="133.46" y1="28.58" x2="125.46" y2="20.88"/>
      <line class="cls-4" x1="136.33" y1="26.07" x2="128.33" y2="18.37"/>
    </g>
    <path class="cls-15" d="M0,80.75s30.35-24.3,40.04-36.51h119.36s37.02,36.26,41.3,36.51H0Z"/>
    <path class="cls-14" d="M99.78,16.93c-2.01.27-3.84,1.69-4.62,3.55-.23.56-.34,1.06-.39,1.68-.02.2-.02.41-.03.61-.02.44.01.03.14-.21-.04.07.58-.7.58-.5,0,.02-.68.18-.3.1.32-.07-.27.02-.34.02-.22,0-.45,0-.68,0v5c5.41-.21,10.83-.22,16.24-.01v-5c-.22,0-.45,0-.67-.02.3.04.3.03.02-.03.35.08.57.32.66.73.73,1.1.43.41.35-.18-.05-.4-.16-.72-.32-1.09-.57-1.32-1.65-2.26-2.78-3.09-1.96-1.45-4.51-2.38-6.97-2.11-1.58.17-3.32.86-3.67,2.63-.32,1.64.63,3.07,2.08,3.79,1.09.54,2.33.99,3.52,1.22,1.56.3,3.4.48,4.6-.78s.77-3.72-1.1-4.18l-.73-.18c-1.27-.31-2.77.4-3.08,1.75s.39,2.75,1.75,3.08l.73.18-1.1-4.18c.24-.25,1.63-.43.6-.47-.46-.02.26.05-.19,0s-.94-.21-1.39-.35c-.41-.13-.82-.27-1.21-.44.26.11.02-.05-.07-.05-.27-.19-.26-.15.04.12.24.3.29.33.16.08l.34,1.26c-1.47,1.28-1.79,1.79-.96,1.51-.21.02-.22.02-.03,0,.32-.03.64-.02.96,0l.27.03c-.22-.02-.17,0,.14.05.26.08.52.14.79.23.69.22,1.71.87,2.31,1.44,0,0,.57.5.31.28.15.27.17.29.08.07v-.19c0,.16,0,.33,0,.49.02.26.06.53.11.78.14.53.38.98.75,1.38.95,1.02,2.35,1.29,3.69,1.28s2.56-1.14,2.5-2.5-1.1-2.45-2.5-2.5c-5.41-.2-10.83-.2-16.24.01-1.31.05-2.56,1.11-2.5,2.5s1.1,2.47,2.5,2.5c2.28.04,4.8-.64,5.44-3.15.13-.49.2-1.12.17-1.64-.02-.34-.07.35.03-.1-.1.44,0,.03.12-.15-.2.29-.03.08.11-.07.18-.17-.25.14.13-.08.54-.31-.35.04.26-.12.23-.06.46-.11.7-.14,1.34-.18,2.07-1.9,1.75-3.08-.4-1.44-1.73-1.93-3.08-1.75h0Z"/>
    <ellipse class="cls-2" cx="102.26" cy="9.54" rx=".08" ry="6.7"/>
    <polygon class="cls-15" points="99.2 51.14 105.72 51.14 110.79 46.56 110.79 41.34 94.14 41.34 94.14 46.24 99.2 51.14"/>
    <polyline class="cls-15" points="94.14 41.34 94.14 27.01 110.38 27.01 110.79 41.34"/>
    <path class="cls-8" d="M104.47,39.74h-4.25v-8.27c0-.39.1-.76.3-1.09.68-1.12,1.71-3.26,3.69-.04.15.24.26.67.26.96v8.45Z"/>
    <path class="cls-8" d="M98.44,39.08h-2.85v-4.99c0-.23.07-.46.2-.66.45-.68,1.14-1.97,2.47-.02.1.14.17.41.17.58v5.1Z"/>
    <path class="cls-8" d="M109.45,39.08h-2.85v-4.99c0-.23.07-.46.2-.66.45-.68,1.14-1.97,2.47-.02.1.14.17.41.17.58v5.1Z"/>
    <circle class="cls-8" cx="102.19" cy="1.84" r="1.84"/>
    <polygon class="cls-3" points="68.43 80.92 103.01 62.5 137.52 80.92 68.43 80.92"/>
    <rect class="cls-9" x=".45" y="81.16" width="200.7" height="87.15"/>
    <g>
      <rect class="cls-17" x=".45" y="80.99" width="50.41" height="73.8"/>
      <rect class="cls-12" x="3.86" y="85.97" width="43.59" height="63.82"/>
      <circle class="cls-7" cx="25.66" cy="134.01" r="14.03"/>
      <circle class="cls-7" cx="25.66" cy="102.7" r="10.75"/>
      <circle class="cls-17" cx="25.66" cy="102.7" r="7.85"/>
      <circle class="cls-17" cx="25.66" cy="134.01" r="10.04"/>
    </g>
    <rect class="cls-7" x="99.14" y="80.91" width="7.67" height="13.75" rx="3.84" ry="3.84"/>
    <rect class="cls-7" x="130.71" y="80.91" width="7.67" height="13.75" rx="3.84" ry="3.84" transform="translate(-9.74 17.15) rotate(-7.04)"/>
    <ellipse class="cls-13" cx="102.98" cy="92.36" rx="3.61" ry="2.38"/>
    <rect class="cls-7" x="50.86" y="80.82" width="119.09" height="5.68"/>
    <text class="cls-22" transform="translate(53.51 136.16) scale(1.12 1)"><tspan class="cls-23" x="0" y="0">E</tspan><tspan class="cls-19" x="12.56" y="0">N</tspan><tspan class="cls-21" x="28.12" y="0">G</tspan><tspan x="43.7" y="0">A</tspan><tspan class="cls-20" x="58.68" y="0">G</tspan><tspan x="74.16" y="0">E</tspan></text>
    <path class="cls-16" d="M101.65,93.26l-14.55,56.28s16.44,14.34,29.69-1.52l-12.05-53.31-3.09-1.45Z"/>
    <g>
      <rect class="cls-17" x="150.74" y="80.99" width="50.41" height="73.8"/>
      <rect class="cls-12" x="154.15" y="85.97" width="43.59" height="63.82"/>
      <circle class="cls-7" cx="175.95" cy="134.01" r="14.03"/>
      <circle class="cls-7" cx="175.95" cy="102.7" r="10.75"/>
      <circle class="cls-17" cx="175.95" cy="102.7" r="7.85"/>
      <circle class="cls-17" cx="175.95" cy="134.01" r="10.04"/>
    </g>
    <path class="cls-6" d="M136.45,92.36l29.28,36.62s-8.01,17.12-23.28,10.34l-7.9-44.68,1.9-2.29Z"/>
    <rect class="cls-7" x="66.7" y="80.91" width="7.67" height="13.75" rx="3.84" ry="3.84" transform="translate(26.09 -15.69) rotate(15.54)"/>
    <path class="cls-6" d="M70.46,91.83l.08,47.23s-17.06,8.46-24.83-6.46l21.82-40.16,2.94-.61Z"/>
    <path class="cls-11" d="M27.87,127.36c.12.05.22-2.24.23-2.32,0,0,0,0,0,0,0-.03-.02-.28.27-.36.31-.08,2.27-.5,2.27-.5,0,0,.32-.08.3.17l-.28,2.8c-.03.29-.21.54-.47.65-.19.08-.42.07-.63-.18-.17-.21-.16-.52.04-.7.14-.12.36-.19.73-.04.02,0,.04,0,.04-.03l.16-1.5s-.02-.04-.04-.03l-2.13.48s-.02.01-.03.03l-.2,1.95c-.02.21-.13.4-.32.5-.09.05-.2.08-.32.06-.17-.03-.32-.14-.43-.24-.17-.16-.22-.41-.1-.6,0,0,.24-.41.9-.13Z"/>
    <path class="cls-10" d="M32.73,131.23l1.84.48s0,0,.01,0c0-.05.02-.1.02-.14,0-.04,0-.07,0-.11,0,0,0-.05,0-.07,0-.01,0-.03,0-.03,0-.05-.02-.1-.03-.15,0-.04-.01-.09,0-.13-.03-.04-.06-.09-.09-.14,0,0,0,0-.01,0-.63.68-2.01-.53-2.19-.3-.31.37-.05.67-.02.71,0,0,0,0,0,0,.07.12,2.04,3.1,1.83,3.14-1.09.25-1.02.98-1.02.99,0,0,0,0,0,0,.03.35.32.63.68.67.23.03.51.03.76-.09.18-.09.28-.23.35-.39.13-.29.09-.63-.07-.9l-1.52-2.64s-.47-.76-.52-.88c0,0,0-.01.01-.01Z"/>
    <path class="cls-18" d="M15.98,140.11c.17.14,1.39-3.37,1.44-3.51,0,0,0,0,0,0,0-.04.1-.45.59-.43.53.02,3.75.28,3.75.28,0,0,.54.03.39.4l-1.73,4.23c-.18.43-.57.75-1.04.79-.34.03-.69-.08-.89-.57-.17-.4-.01-.88.38-1.07.27-.13.65-.13,1.15.27.03.02.07.01.08-.02l.94-2.26s0-.07-.04-.07l-3.54-.25s-.04.01-.05.03l-1.22,2.94c-.13.31-.39.55-.72.63-.16.04-.35.04-.52-.05-.25-.13-.43-.36-.55-.57-.19-.32-.14-.73.13-.98,0,0,.56-.53,1.46.22Z"/>
    <path class="cls-18" d="M181.55,130.55c.17.14,1.39-3.37,1.44-3.51,0,0,0,0,0,0,0-.04.1-.45.59-.43.53.02,3.75.28,3.75.28,0,0,.54.03.39.4l-1.73,4.23c-.18.43-.57.75-1.04.79-.34.03-.69-.08-.89-.57-.17-.4-.01-.88.38-1.07.27-.13.65-.13,1.15.27.03.02.07.01.08-.02l.94-2.26s0-.07-.04-.07l-3.54-.25s-.04.01-.05.03l-1.22,2.94c-.13.31-.39.55-.72.63-.16.04-.35.04-.52-.05-.25-.13-.43-.36-.55-.57-.19-.32-.14-.73.13-.98,0,0,.56-.53,1.46.22Z"/>
    <path class="cls-10" d="M172.49,139.71l1.84.48s0,0,.01,0c0-.05.02-.1.02-.14,0-.04,0-.07,0-.11,0,0,0-.05,0-.07,0-.01,0-.03,0-.03,0-.05-.02-.1-.03-.15,0-.04-.01-.09,0-.13-.03-.04-.06-.09-.09-.14,0,0,0,0-.01,0-.63.68-2.01-.53-2.19-.3-.31.37-.05.67-.02.71,0,0,0,0,0,0,.07.12,2.04,3.1,1.83,3.14-1.09.25-1.02.98-1.02.99,0,0,0,0,0,0,.03.35.32.63.68.67.23.03.51.03.76-.09.18-.09.28-.23.35-.39.13-.29.09-.63-.07-.9l-1.52-2.64s-.47-.76-.52-.88c0,0,0-.01.01-.01Z"/>
    <path class="cls-11" d="M168.9,132.65c.12.05.22-2.24.23-2.32,0,0,0,0,0,0,0-.03-.02-.28.27-.36.31-.08,2.27-.5,2.27-.5,0,0,.32-.08.3.17l-.28,2.8c-.03.29-.21.54-.47.65-.19.08-.42.07-.63-.18-.17-.21-.16-.52.04-.7.14-.12.36-.19.73-.04.02,0,.04,0,.04-.03l.16-1.5s-.02-.04-.04-.03l-2.13.48s-.02.01-.03.03l-.2,1.95c-.02.21-.13.4-.32.5-.09.05-.2.08-.32.06-.17-.03-.32-.14-.43-.24-.17-.16-.22-.41-.1-.6,0,0,.24-.41.9-.13Z"/>
    <path class="cls-18" d="M170.45,108.68c.12.09.92-2.23.95-2.32,0,0,0,0,0,0,0-.03.06-.3.4-.28.36.02,2.56.22,2.56.22,0,0,.37.02.27.27l-1.15,2.79c-.12.29-.38.49-.7.51-.23.02-.47-.06-.61-.38-.12-.27-.02-.58.25-.71.18-.08.44-.08.79.19.02.01.05,0,.06-.01l.62-1.49s0-.05-.03-.05l-2.42-.19s-.03,0-.04.02l-.81,1.94c-.09.21-.26.37-.49.41-.11.02-.24.02-.36-.04-.17-.09-.3-.24-.38-.38-.13-.21-.11-.49.08-.65,0,0,.38-.35,1,.16Z"/>
    <path class="cls-18" d="M28.92,110.02c.13.06.38-2.38.39-2.47,0,0,0,0,0,0,0-.03,0-.31.33-.37.35-.06,2.54-.38,2.54-.38,0,0,.36-.06.32.2l-.47,2.98c-.05.3-.26.57-.56.66-.22.07-.48.05-.69-.23-.18-.23-.15-.57.08-.75.16-.12.41-.18.81,0,.02.01.05,0,.05-.03l.26-1.6s-.02-.04-.04-.04l-2.4.37s-.03.01-.03.03l-.34,2.07c-.04.22-.17.42-.38.51-.1.05-.22.08-.35.04-.19-.04-.35-.17-.46-.28-.18-.18-.21-.45-.07-.65,0,0,.29-.42,1.01-.08Z"/>
    <ellipse class="cls-5" cx="69.26" cy="92.22" rx="2.38" ry="3.61" transform="translate(-34.86 141.82) rotate(-78.56)"/>
    <ellipse class="cls-5" cx="135.11" cy="92.36" rx="3.61" ry="2.38" transform="translate(-10.3 17.25) rotate(-7.04)"/>
    <path class="cls-10" d="M179.62,97.65l1.28.7s0,0,0,0c.02-.04.03-.07.04-.1,0-.03.01-.06.02-.08,0,0,0-.04,0-.05,0-.01,0-.02,0-.02,0-.04,0-.08,0-.12,0-.03,0-.07.02-.1-.01-.03-.03-.07-.04-.12,0,0,0,0,0,0-.59.39-1.39-.76-1.57-.63-.3.22-.16.49-.14.52,0,0,0,0,0,0,.03.1.94,2.67.78,2.67-.86-.01-.94.54-.94.54,0,0,0,0,0,0-.04.27.12.52.38.62.16.06.37.11.58.07.15-.03.25-.12.33-.22.15-.19.18-.45.12-.68l-.64-2.24s-.21-.65-.22-.75c0,0,0,0,0,0Z"/>
    <path class="cls-10" d="M29.75,97.05l1.28.7s0,0,0,0c.02-.04.03-.07.04-.1,0-.03.01-.06.02-.08,0,0,0-.04,0-.05,0-.01,0-.02,0-.02,0-.04,0-.08,0-.12,0-.03,0-.07.02-.1-.01-.03-.03-.07-.04-.12,0,0,0,0,0,0-.59.39-1.39-.76-1.57-.63-.3.22-.16.49-.14.52,0,0,0,0,0,0,.03.1.94,2.67.78,2.67-.86-.01-.94.54-.94.54,0,0,0,0,0,0-.04.27.12.52.38.62.16.06.37.11.58.07.15-.03.25-.12.33-.22.15-.19.18-.45.12-.68l-.64-2.24s-.21-.65-.22-.75c0,0,0,0,0,0Z"/>
    <path class="cls-11" d="M19.7,104.06c.09.04.16-1.65.17-1.71,0,0,0,0,0,0,0-.02-.02-.21.2-.27.23-.06,1.67-.37,1.67-.37,0,0,.24-.06.22.12l-.2,2.07c-.02.21-.15.4-.35.48-.14.06-.31.05-.46-.13-.13-.15-.12-.38.03-.52.1-.09.27-.14.54-.03.01,0,.03,0,.03-.02l.12-1.11s-.01-.03-.03-.03l-1.57.35s-.02.01-.02.02l-.15,1.44c-.02.15-.1.29-.23.37-.07.04-.15.06-.23.05-.13-.02-.24-.1-.32-.17-.12-.11-.16-.3-.07-.44,0,0,.18-.3.67-.1Z"/>
    <path class="cls-11" d="M171.62,101.78c.09.04.16-1.65.17-1.71,0,0,0,0,0,0,0-.02-.02-.21.2-.27.23-.06,1.67-.37,1.67-.37,0,0,.24-.06.22.12l-.2,2.07c-.02.21-.15.4-.35.48-.14.06-.31.05-.46-.13-.13-.15-.12-.38.03-.52.1-.09.27-.14.54-.03.01,0,.03,0,.03-.02l.12-1.11s-.01-.03-.03-.03l-1.57.35s-.02.01-.02.02l-.15,1.44c-.02.15-.1.29-.23.37-.07.04-.15.06-.23.05-.13-.02-.24-.1-.32-.17-.12-.11-.16-.3-.07-.44,0,0,.18-.3.67-.1Z"/>
  </g>
</svg>