<svg width="42px" height="42px" viewBox="0 0 89 81" fill="none" xmlns="http://www.w3.org/2000/svg">
<path d="M61.9999 67C63.9881 67 65.5999 65.3882 65.5999 63.4C65.5999 61.4119 63.9881 59.8 61.9999 59.8C60.0117 59.8 58.3999 61.4119 58.3999 63.4C58.3999 65.3882 60.0117 67 61.9999 67Z" fill="black" stroke="#FDF7DA" stroke-width="6.1794" stroke-linecap="round" stroke-linejoin="round"/>
<path d="M37.9999 67C39.9881 67 41.5999 65.3882 41.5999 63.4C41.5999 61.4119 39.9881 59.8 37.9999 59.8C36.0117 59.8 34.3999 61.4119 34.3999 63.4C34.3999 65.3882 36.0117 67 37.9999 67Z" fill="black" stroke="#FDF7DA" stroke-width="6.18" stroke-linecap="round" stroke-linejoin="round"/>
<path d="M27.2 23.8H68L63.2 50.2H32L27.2 23.8ZM27.2 23.8C26.8 22.2 24.8 19 20 19" stroke="#FDF7DA" stroke-width="6.1794" stroke-linecap="round" stroke-linejoin="round"/>
<path d="M63.2 50.2H32H27.7538C23.4715 50.2 21.2 52.0748 21.2 55C21.2 57.9251 23.4715 59.8 27.7538 59.8H62" stroke="#FDF7DA" stroke-width="6.1794" stroke-linecap="round" stroke-linejoin="round"/>
</svg>
