<?xml version="1.0" encoding="UTF-8"?>
<svg id="Layer_2" data-name="Layer 2" xmlns="http://www.w3.org/2000/svg" viewBox="0 0 291.49 75.01">
  <defs>
    <style>
      .cls-1 {
        fill: #54a7dc;
      }

      .cls-1, .cls-2, .cls-3 {
        stroke-width: 0px;
      }

      .cls-2 {
        fill: #cac0b5;
      }

      .cls-3 {
        fill: #bd9c72;
      }

      .cls-4 {
        fill: none;
        stroke: #b95b35;
        stroke-miterlimit: 10;
        stroke-width: 3px;
      }

      .cls-5 {
        fill: #b95c35;
        font-size: 12px;
      }

      .cls-5, .cls-6 {
        font-family: ArialRoundedMTBold, 'Arial Rounded MT Bold';
      }

      .cls-6 {
        fill: #7ea692;
        font-size: 53px;
      }
    </style>
  </defs>
  <g id="Layer_1-2" data-name="Layer 1">
    <path class="cls-2" d="M190.7,14.74h13.63c1.44,0,2.61,1.17,2.61,2.61v2.61h-18.85v-2.61c0-1.44,1.17-2.61,2.61-2.61Z"/>
    <rect class="cls-2" x="196.73" y="8.37" width="1.57" height="9.83" rx=".79" ry=".79"/>
    <path class="cls-2" d="M189.84,2.09v5.41c0,1.02.83,1.84,1.86,1.84h14.16c.83,0,1.55-.53,1.78-1.32.47-1.6,2.13-4.08,7.94-4.03,1.03,0,1.87-.82,1.87-1.84v-.31c0-1.02-.85-1.85-1.88-1.84l-23.89.25c-1.02.01-1.84.83-1.84,1.84Z"/>
    <g>
      <text class="cls-6" transform="translate(0 55.45)"><tspan x="0" y="0" xml:space="preserve">L  Y  S  T</tspan></text>
      <path class="cls-4" d="M35.1,52.41h29.65"/>
      <path class="cls-4" d="M85.41,52.41h29.65"/>
      <path class="cls-4" d="M156.31,52.41h29.65"/>
      <text class="cls-5" transform="translate(40.69 68.22)"><tspan x="0" y="0">1M</tspan></text>
      <text class="cls-5" transform="translate(92.11 68.22)"><tspan x="0" y="0">1M</tspan></text>
      <text class="cls-5" transform="translate(162.34 68.22)"><tspan x="0" y="0">1M</tspan></text>
    </g>
    <path class="cls-3" d="M269.14,29.8s19.94,4.07,22.35,11.24c0,0-13.01,35.78-48.72,33.9,0,0-13.3.51-20.56-3.65,0,0-9.06-1.79-13.35-.39,0,0-2.74.4-.89-1.55s8.23-1.07,8.23-1.07l-11.41-2.5s-3.94-1.11.26-2.3c4.2-1.18,7.41.73,7.41.73l-10.42-5.59s-1.98-1,1.6-1.38c3.51-.37,13.94,4.86,13.94,4.86l-9.78-12.95s-1.34-3.77,2.44-1.3,15.34,12.96,15.34,12.96c0,0,9.09,2.95,6.1-5.45l-9.73-8.8s-2.34-3.46,1.95-1.97,24.29,8.06,24.29,8.06c0,0,10.43,2.05,13.71-5.63,3.28-7.68,7.22-17.22,7.22-17.22Z"/>
    <path class="cls-1" d="M219.57,7.5s-8.26,10.17-2.58,13.71c1.5.93,3.4,1,5.02.29,2.76-1.21,5.86-4.62-2.44-14Z"/>
    <path class="cls-1" d="M219.71,28.51s-5.27,6.48-1.65,8.74c.96.6,2.17.64,3.2.19,1.76-.77,3.73-2.94-1.55-8.92Z"/>
  </g>
</svg>