<?xml version="1.0" encoding="UTF-8"?>
<svg id="Layer_2" data-name="Layer 2" xmlns="http://www.w3.org/2000/svg" viewBox="0 0 376.42 96.86">
  <defs>
    <style>
      .cls-1 {
        fill: #54a7dc;
      }

      .cls-1, .cls-2, .cls-3 {
        stroke-width: 0px;
      }

      .cls-2 {
        fill: #cac0b5;
      }

      .cls-3 {
        fill: #bd9c72;
      }

      .cls-4 {
        fill: none;
        stroke: #b95b35;
        stroke-miterlimit: 10;
        stroke-width: 3px;
      }

      .cls-5 {
        fill: #7ea692;
        font-size: 68.44px;
      }

      .cls-5, .cls-6 {
        font-family: ArialRoundedMTBold, 'Arial Rounded MT Bold';
      }

      .cls-6 {
        fill: #b95c35;
        font-size: 15.5px;
      }
    </style>
  </defs>
  <g id="Layer_1-2" data-name="Layer 1">
    <g>
      <path class="cls-2" d="M245.5,19.03h19.12c1.44,0,2.61,1.17,2.61,2.61v4.13h-24.35v-4.13c0-1.44,1.17-2.61,2.61-2.61Z"/>
      <rect class="cls-2" x="254.05" y="10.81" width="2.03" height="12.69" rx=".79" ry=".79"/>
      <path class="cls-2" d="M245.15,2.69v6.98c0,1.31,1.08,2.37,2.4,2.37h18.29c1.07,0,2.01-.69,2.3-1.7.6-2.07,2.75-5.27,10.25-5.2,1.33.01,2.41-1.06,2.41-2.37v-.4c0-1.32-1.09-2.39-2.43-2.37l-30.85.32c-1.32.01-2.38,1.07-2.38,2.37Z"/>
      <g>
        <text class="cls-5" transform="translate(0 71.6)"><tspan x="0" y="0" xml:space="preserve">L  Y  S  T</tspan></text>
        <path class="cls-4" d="M45.32,67.68h38.29"/>
        <path class="cls-4" d="M110.29,67.68h38.29"/>
        <path class="cls-4" d="M201.86,67.68h38.29"/>
        <text class="cls-6" transform="translate(52.55 88.1)"><tspan x="0" y="0">1M</tspan></text>
        <text class="cls-6" transform="translate(118.95 88.1)"><tspan x="0" y="0">1M</tspan></text>
        <text class="cls-6" transform="translate(209.64 88.1)"><tspan x="0" y="0">1M</tspan></text>
      </g>
      <path class="cls-3" d="M347.55,38.49s25.75,5.26,28.87,14.51c0,0-16.8,46.2-62.92,43.77,0,0-17.18.65-26.55-4.71,0,0-11.71-2.31-17.23-.5,0,0-3.54.52-1.15-2,2.39-2.53,10.63-1.38,10.63-1.38l-14.73-3.23s-5.09-1.44.34-2.97c5.42-1.53,9.57.94,9.57.94l-13.46-7.21s-2.55-1.29,2.07-1.78c4.53-.48,18,6.28,18,6.28l-12.62-16.72s-1.73-4.87,3.14-1.68,19.82,16.73,19.82,16.73c0,0,11.74,3.81,7.88-7.04l-12.57-11.36s-3.02-4.46,2.52-2.54,31.37,10.4,31.37,10.4c0,0,13.47,2.65,17.71-7.27,4.24-9.92,9.32-22.24,9.32-22.24Z"/>
      <path class="cls-1" d="M283.54,9.68s-10.67,13.13-3.33,17.71c1.94,1.21,4.4,1.29,6.48.38,3.56-1.56,7.57-5.96-3.15-18.09Z"/>
      <path class="cls-1" d="M283.73,36.82s-6.8,8.37-2.12,11.28c1.23.77,2.8.82,4.13.24,2.27-1,4.82-3.8-2.01-11.52Z"/>
    </g>
  </g>
</svg>