<svg width="549" height="194" viewBox="0 0 549 194" fill="none" xmlns="http://www.w3.org/2000/svg">
<path fill-rule="evenodd" clip-rule="evenodd" d="M1.53359 166.316C1.29815 165.881 1.13743 165.418 1.05141 164.928C0.965408 164.439 0.947909 163.937 0.998931 163.422C1.05409 162.898 1.15459 162.352 1.30044 161.784C1.45761 161.233 1.65806 160.664 1.9018 160.079C2.1414 159.503 2.39907 158.906 2.67477 158.288C2.96179 157.685 3.26273 157.071 3.57759 156.445C3.89245 155.82 4.19959 155.191 4.499 154.559C4.81799 153.923 5.11175 153.283 5.38027 152.638C5.66011 152.009 5.907 151.373 6.12092 150.728C6.33484 150.084 6.50962 149.447 6.64524 148.816C6.78085 148.186 6.87938 147.558 6.94083 146.931C7.01772 146.311 7.06524 145.697 7.08341 145.088C7.10156 144.478 7.09602 143.882 7.06676 143.3C7.05708 142.714 7.04327 142.138 7.02533 141.571C7.00326 141.015 6.97705 140.469 6.94672 139.932C6.93183 139.402 6.92619 138.894 6.9298 138.406C6.93754 137.909 6.96431 137.431 7.01012 136.973C7.07138 136.521 7.1594 136.092 7.27418 135.686C7.39308 135.27 7.54648 134.88 7.73436 134.516C7.93768 134.158 8.1832 133.829 8.47093 133.53C8.76279 133.221 9.09892 132.935 9.47932 132.675C9.85559 132.424 10.2741 132.202 10.7347 132.009C11.1996 131.807 11.6989 131.63 12.2326 131.48C12.7623 131.339 13.3207 131.216 13.908 131.111C14.4912 131.016 15.0934 130.94 15.7147 130.884C16.3472 130.845 16.9988 130.825 17.6694 130.824C18.3246 130.817 18.9947 130.839 19.6797 130.891C20.3647 130.943 21.0589 131.017 21.7624 131.111C22.4659 131.206 23.1688 131.323 23.8713 131.464C24.5737 131.605 25.2678 131.765 25.9537 131.946C26.655 132.133 27.3502 132.334 28.0391 132.551C28.7281 132.767 29.4185 133.002 30.1105 133.255C30.8066 133.498 31.5063 133.754 32.2096 134.023C32.9088 134.302 33.6178 134.579 34.3365 134.854C35.0512 135.14 35.7735 135.429 36.5036 135.72C37.2378 136.002 37.9874 136.291 38.7525 136.586C39.5217 136.87 40.3028 137.149 41.0957 137.42C41.8999 137.708 42.7202 137.979 43.5564 138.233C44.3926 138.488 45.2504 138.734 46.1299 138.972C47.0094 139.209 47.9147 139.428 48.8457 139.629C49.7768 139.83 50.7295 140.022 51.7038 140.206C52.6585 140.394 53.6349 140.572 54.633 140.743C55.6155 140.907 56.5981 141.071 57.5807 141.235C58.5829 141.396 59.5732 141.563 60.5516 141.737C61.5301 141.911 62.4967 142.091 63.4514 142.279C64.4062 142.466 65.3372 142.667 66.2446 142.881C67.1519 143.096 68.0335 143.328 68.8892 143.579C69.7409 143.84 70.557 144.121 71.3375 144.422C72.1067 144.707 72.8419 145.03 73.5431 145.392C74.2288 145.747 74.865 146.133 75.4517 146.552C76.023 146.964 76.5526 147.411 77.0403 147.893C77.5168 148.359 77.9402 148.843 78.3105 149.346C78.6767 149.86 78.994 150.381 79.2623 150.912C79.511 151.446 79.7128 151.984 79.8678 152.526C80.0228 153.067 80.1232 153.609 80.169 154.152C80.2147 154.695 80.2003 155.23 80.1255 155.758C80.0549 156.276 79.9339 156.784 79.7623 157.283C79.5753 157.776 79.3343 158.246 79.0392 158.694C78.7441 159.141 78.397 159.561 77.9979 159.954C77.603 160.337 77.1385 160.691 76.6046 161.016C76.0902 161.338 75.5336 161.63 74.9348 161.893C74.3205 162.15 73.6775 162.389 73.0056 162.61C72.3337 162.832 71.633 163.035 70.9034 163.221C70.1739 163.406 69.4366 163.589 68.6916 163.768C67.9467 163.947 67.2037 164.121 66.4629 164.29C65.7025 164.463 64.9575 164.642 64.2279 164.828C63.5138 165.02 62.8131 165.223 62.1258 165.438C61.4384 165.653 60.7876 165.889 60.1734 166.145C59.5592 166.402 58.9892 166.683 58.4635 166.988C57.9337 167.304 57.4538 167.651 57.0238 168.031C56.5979 168.401 56.222 168.804 55.896 169.238C55.5546 169.667 55.2595 170.114 55.0107 170.581C54.7465 171.042 54.5132 171.515 54.3108 172.001C54.0929 172.481 53.9003 172.966 53.7329 173.455C53.55 173.937 53.379 174.413 53.2199 174.883C53.0608 175.352 52.8924 175.8 52.7147 176.227C52.5525 176.66 52.3734 177.068 52.1772 177.452C51.9811 177.836 51.7567 178.18 51.504 178.482C51.2626 178.801 50.9872 179.07 50.678 179.291C50.3687 179.511 50.0157 179.685 49.6189 179.811C49.2222 179.937 48.7817 180.016 48.2975 180.047C47.8329 180.075 47.3204 180.066 46.76 180.019C46.1997 179.972 45.6013 179.887 44.9648 179.762C44.3396 179.653 43.6743 179.51 42.9688 179.334C42.2592 179.167 41.5151 178.974 40.7366 178.755C39.9735 178.542 39.1717 178.314 38.3314 178.069C37.491 177.825 36.6198 177.567 35.7177 177.297C34.8156 177.027 33.8861 176.757 32.9294 176.487C31.9727 176.217 30.9943 175.956 29.9943 175.703C28.983 175.434 27.948 175.178 26.8893 174.936C25.8347 174.684 24.7661 174.444 23.6837 174.215C22.5899 173.969 21.5018 173.732 20.4194 173.504C19.3369 173.275 18.2643 173.044 17.2014 172.812C16.1427 172.57 15.1092 172.332 14.1009 172.099C13.0813 171.85 12.0988 171.599 11.1534 171.345C10.208 171.092 9.30591 170.822 8.44707 170.534C7.60368 170.254 6.81129 169.959 6.06992 169.651C5.32854 169.343 4.66753 169.016 4.08689 168.669C3.49081 168.317 2.9751 167.945 2.53977 167.555C2.11988 167.171 1.78448 166.758 1.53359 166.316Z" fill="#038585"/>
<path fill-rule="evenodd" clip-rule="evenodd" d="M56.6003 10.9704C56.9793 11.1805 57.3342 11.5406 57.6648 12.0506C58.0133 12.5663 58.3418 13.1841 58.6503 13.9039C58.9767 14.6295 59.3025 15.4239 59.6279 16.2871C59.9532 17.1503 60.2885 18.0463 60.6338 18.9751C60.9908 19.8977 61.3593 20.8142 61.7393 21.7245C62.1194 22.6348 62.5332 23.4968 62.9807 24.3104C63.4282 25.124 63.9083 25.8593 64.421 26.5164C64.9454 27.1673 65.5076 27.7219 66.1078 28.1802C66.7016 28.6267 67.3281 28.9948 67.9872 29.2847C68.6285 29.5689 69.2881 29.79 69.9662 29.9479C70.639 30.1239 71.3103 30.255 71.9799 30.3413C72.6496 30.4275 73.3008 30.4931 73.9336 30.538C74.5612 30.6009 75.165 30.6612 75.7452 30.7188C76.3138 30.7825 76.8418 30.8678 77.3293 30.9746C77.8053 31.0875 78.2238 31.2462 78.585 31.4505C78.9577 31.6487 79.2672 31.8957 79.5136 32.1915C79.7663 32.4991 79.9732 32.8463 80.1343 33.233C80.3133 33.6255 80.4612 34.0573 80.5781 34.5285C80.6949 34.9997 80.8039 35.4979 80.905 36.0231C81.006 36.5484 81.105 37.0976 81.2018 37.6708C81.3166 38.2497 81.4466 38.8434 81.5919 39.4518C81.7256 40.0664 81.9041 40.6953 82.1273 41.3385C82.3441 41.9698 82.6084 42.6065 82.9201 43.2484C83.2138 43.8847 83.5492 44.5293 83.9261 45.1823C84.2967 45.8234 84.6852 46.4703 85.0916 47.1229C85.4801 47.7697 85.8655 48.4107 86.2477 49.0456C86.6362 49.6925 86.9921 50.3338 87.3153 50.9697C87.6501 51.5993 87.9376 52.2237 88.1776 52.8427C88.4061 53.4679 88.575 54.079 88.6845 54.6759C88.7888 55.2909 88.8066 55.8832 88.7382 56.4527C88.676 57.0342 88.5133 57.6081 88.2501 58.1744C87.9921 58.7227 87.6478 59.2483 87.2171 59.7512C86.7865 60.254 86.2868 60.725 85.7182 61.164C85.138 61.6091 84.5031 62.0072 83.8134 62.3581C83.1237 62.7091 82.3851 63.0098 81.5975 63.2604C80.8099 63.511 79.9907 63.7022 79.1399 63.8339C78.2828 63.9538 77.4115 64.0051 76.526 63.9878C75.6289 63.9766 74.726 63.8846 73.8173 63.712C72.915 63.5512 72.01 63.3157 71.1024 63.0054C70.2063 62.6889 69.3061 62.3366 68.4016 61.9485C67.5024 61.5423 66.6148 61.1299 65.7388 60.7114C64.8628 60.2929 63.9988 59.8833 63.147 59.4824C62.2836 59.0876 61.4423 58.7345 60.6232 58.4229C59.7977 58.0995 58.9896 57.8506 58.1988 57.6763C57.4196 57.4958 56.6589 57.4198 55.9166 57.4483C55.1795 57.4588 54.4704 57.5916 53.7891 57.8466C53.09 58.096 52.4271 58.4555 51.8006 58.9252C51.1562 59.3893 50.535 59.9248 49.9369 60.5318C49.3388 61.1388 48.7602 61.7963 48.201 62.5045C47.624 63.207 47.0654 63.9302 46.5252 64.674C45.9851 65.4178 45.4533 66.1496 44.93 66.8692C44.4066 67.5889 43.8849 68.2696 43.3647 68.9114C42.8509 69.5651 42.3402 70.1409 41.8326 70.6389C41.3135 71.143 40.7944 71.5634 40.2753 71.8999C39.7562 72.2365 39.2487 72.4831 38.7527 72.6397C38.2515 72.8144 37.7593 72.9082 37.276 72.9211C36.8106 72.9396 36.3605 72.8892 35.9256 72.7697C35.4971 72.662 35.0985 72.4851 34.73 72.239C34.3678 72.0047 34.0393 71.7221 33.7445 71.3911C33.4613 71.054 33.2181 70.6804 33.0148 70.2703C32.8169 69.8422 32.6769 69.3833 32.5948 68.8937C32.5011 68.4102 32.4595 67.8991 32.47 67.3603C32.4859 66.8035 32.5338 66.2372 32.6138 65.6615C32.6939 65.0858 32.7881 64.4949 32.8966 63.8889C33.0114 63.2947 33.1198 62.6887 33.222 62.0708C33.3305 61.4648 33.4242 60.8589 33.5032 60.2533C33.5769 59.6657 33.6154 59.0816 33.6185 58.501C33.6217 57.9204 33.5696 57.3616 33.4622 56.8244C33.3548 56.2873 33.1806 55.7781 32.9395 55.2967C32.6984 54.8153 32.3873 54.3559 32.0061 53.9184C31.6365 53.4748 31.2085 53.0469 30.7221 52.6349C30.2472 52.2167 29.7281 51.7991 29.1648 51.3822C28.6015 50.9652 28.0145 50.5456 27.4038 50.1234C26.7868 49.6892 26.1546 49.2403 25.507 48.7767C24.8595 48.3131 24.2019 47.8167 23.5344 47.2875C22.8847 46.764 22.2398 46.2076 21.5997 45.6182C20.9532 45.0169 20.3346 44.3703 19.7439 43.6784C19.148 43.0046 18.5863 42.2973 18.0588 41.5567C17.5313 40.816 17.0533 40.0567 16.6247 39.2788C16.191 38.5188 15.8251 37.7609 15.5271 37.0051C15.2292 36.2492 15.0118 35.5191 14.8749 34.8148C14.7201 34.1048 14.667 33.4322 14.7154 32.7971C14.7523 32.1681 14.9003 31.5945 15.1593 31.0761C15.4004 30.5519 15.7711 30.1038 16.2713 29.7316C16.7598 29.3655 17.3716 29.0636 18.1065 28.8257C18.8362 28.6059 19.6617 28.4266 20.5831 28.2878C21.4991 28.1671 22.4926 28.0662 23.5634 27.9852C24.6163 27.8984 25.7225 27.8139 26.8817 27.7316C28.0294 27.6554 29.2087 27.5549 30.4196 27.43C31.6126 27.2993 32.8066 27.1148 34.0017 26.8764C35.1852 26.6441 36.3514 26.3373 37.5001 25.9559C38.6373 25.5806 39.7208 25.1044 40.7506 24.5272C41.7919 23.9438 42.7717 23.2865 43.6899 22.5553C44.6197 21.8179 45.4947 21.0334 46.3149 20.2018C47.1415 19.3821 47.9118 18.5542 48.6257 17.7181C49.3512 16.8759 50.0309 16.0732 50.6648 15.3101C51.3102 14.5408 51.911 13.841 52.4669 13.2107C53.0229 12.5803 53.5441 12.0522 54.0306 11.6264C54.5234 11.2124 54.983 10.9455 55.4094 10.8257C55.8296 10.6941 56.2265 10.7423 56.6003 10.9704Z" fill="#74A892"/>
<path fill-rule="evenodd" clip-rule="evenodd" d="M139.628 98.1706C139.222 98.3243 138.718 98.3627 138.115 98.2857C137.496 98.2188 136.811 98.0707 136.062 97.8414C135.297 97.6221 134.479 97.358 133.61 97.049C132.74 96.7401 131.839 96.4176 130.906 96.0816C129.97 95.7584 129.032 95.448 128.091 95.1504C127.15 94.8528 126.224 94.6122 125.313 94.4285C124.402 94.2447 123.53 94.1365 122.697 94.1036C121.861 94.0836 121.074 94.1546 120.337 94.3168C119.612 94.4818 118.926 94.7222 118.279 95.0381C117.648 95.344 117.053 95.7048 116.495 96.1203C115.926 96.5201 115.392 96.9478 114.894 97.4031C114.396 97.8585 113.925 98.3132 113.483 98.7671C113.029 99.2055 112.594 99.6274 112.175 100.033C111.759 100.426 111.353 100.774 110.957 101.077C110.563 101.367 110.172 101.584 109.783 101.728C109.39 101.884 109.002 101.961 108.617 101.958C108.219 101.952 107.82 101.886 107.42 101.759C107.005 101.643 106.579 101.477 106.143 101.262C105.708 101.047 105.257 100.808 104.79 100.547C104.323 100.285 103.84 100.006 103.339 99.7094C102.823 99.4233 102.285 99.1393 101.726 98.8574C101.17 98.5627 100.574 98.2929 99.9385 98.0481C99.3159 97.806 98.6587 97.5967 97.9669 97.4202C97.291 97.2336 96.5818 97.0734 95.8394 96.9395C95.1101 96.8085 94.365 96.6874 93.6038 96.5763C92.8586 96.4552 92.12 96.3356 91.388 96.2174C90.6428 96.0963 89.9229 95.9539 89.2282 95.7901C88.5308 95.6391 87.8681 95.4555 87.24 95.239C86.6147 95.0098 86.0386 94.7443 85.5116 94.4425C84.9743 94.125 84.5101 93.7564 84.119 93.3364C83.7147 92.9137 83.3811 92.4191 83.1182 91.8526C82.8656 91.3017 82.6862 90.6997 82.5799 90.0464C82.4735 89.3931 82.4361 88.7078 82.4676 87.9905C82.5019 87.2604 82.6076 86.5189 82.7846 85.766C82.9615 85.0131 83.2085 84.2552 83.5254 83.4924C83.8423 82.7296 84.225 81.981 84.6735 81.2467C85.1351 80.5152 85.6584 79.8171 86.2433 79.1525C86.831 78.4752 87.4841 77.8454 88.2026 77.2634C88.908 76.6786 89.6722 76.14 90.4953 75.6476C91.3156 75.1681 92.166 74.7085 93.0465 74.2688C93.9374 73.8448 94.8256 73.4336 95.7109 73.0352C96.5963 72.6368 97.4671 72.242 98.3234 71.8507C99.1824 71.4466 99.9954 71.0325 100.762 70.6085C101.542 70.1873 102.254 69.7312 102.898 69.2403C103.539 68.7622 104.088 68.2307 104.545 67.6458C105.013 67.0765 105.37 66.4496 105.614 65.7651C105.875 65.0706 106.028 64.3326 106.074 63.5513C106.135 62.7599 106.127 61.9401 106.049 61.0919C105.971 60.2436 105.842 59.3775 105.662 58.4937C105.497 57.5998 105.305 56.7067 105.085 55.8143C104.866 54.9219 104.65 54.0437 104.437 53.1798C104.225 52.3158 104.042 51.4782 103.887 50.6669C103.719 49.8528 103.609 49.0914 103.556 48.3826C103.505 47.661 103.519 46.9935 103.597 46.38C103.675 45.7666 103.814 45.2201 104.014 44.7405C104.204 44.2452 104.451 43.809 104.753 43.4319C105.039 43.0648 105.368 42.7538 105.74 42.4991C106.099 42.2415 106.492 42.0516 106.918 41.9292C107.33 41.804 107.758 41.7358 108.202 41.7245C108.642 41.7259 109.085 41.7815 109.529 41.8912C109.984 42.0165 110.426 42.2058 110.853 42.4592C111.283 42.6998 111.7 42.998 112.105 43.3539C112.521 43.7254 112.923 44.1275 113.311 44.5603C113.699 44.993 114.09 45.4463 114.483 45.9203C114.863 46.3915 115.256 46.8655 115.663 47.3423C116.056 47.8163 116.458 48.2789 116.87 48.7301C117.272 49.1657 117.693 49.5721 118.135 49.9493C118.577 50.3266 119.038 50.6476 119.517 50.9123C119.997 51.1771 120.499 51.3729 121.023 51.4996C121.546 51.6264 122.098 51.6855 122.678 51.677C123.256 51.6814 123.859 51.6309 124.488 51.5257C125.115 51.4333 125.769 51.3067 126.451 51.1459C127.133 50.9852 127.833 50.8081 128.55 50.6146C129.28 50.424 130.031 50.2313 130.804 50.0364C131.576 49.8415 132.38 49.6601 133.215 49.4923C134.035 49.3344 134.876 49.2015 135.74 49.0934C136.617 48.9882 137.511 48.9335 138.421 48.9294C139.32 48.9096 140.224 48.9374 141.13 49.013C142.037 49.0885 142.926 49.2139 143.797 49.3891C144.658 49.5486 145.473 49.7586 146.243 50.0192C147.013 50.2797 147.712 50.5851 148.338 50.9353C148.981 51.2755 149.529 51.6692 149.983 52.1161C150.44 52.5503 150.783 53.0335 151.012 53.5658C151.257 54.0882 151.36 54.6604 151.322 55.2823C151.286 55.8915 151.122 56.5533 150.83 57.2677C150.527 57.9665 150.131 58.7122 149.642 59.5049C149.143 60.2819 148.579 61.1052 147.949 61.9747C147.336 62.8343 146.687 63.733 146.001 64.6709C145.319 65.5959 144.634 66.5608 143.948 67.5655C143.278 68.5603 142.648 69.5906 142.059 70.6566C141.472 71.7097 140.954 72.7977 140.504 73.9206C140.057 75.0307 139.721 76.165 139.498 77.3235C139.271 78.4948 139.141 79.6668 139.107 80.8396C139.071 82.0251 139.105 83.1993 139.211 84.3622C139.304 85.5221 139.44 86.6444 139.618 87.7289C139.794 88.8263 139.968 89.8631 140.142 90.8395C140.314 91.8287 140.461 92.7389 140.584 93.5701C140.706 94.4013 140.774 95.14 140.785 95.7861C140.783 96.4294 140.691 96.9525 140.507 97.3552C140.336 97.7608 140.043 98.0326 139.628 98.1706Z" fill="#E5C185"/>
<path fill-rule="evenodd" clip-rule="evenodd" d="M64.3629 70.1594C63.9576 70.0058 63.4534 69.9674 62.8501 70.0443C62.231 70.1113 61.5467 70.2594 60.7974 70.4887C60.0322 70.7079 59.2147 70.9721 58.3449 71.281C57.4751 71.59 56.5739 71.9125 55.6411 72.2485C54.7055 72.5717 53.7672 72.8821 52.826 73.1797C51.8849 73.4772 50.959 73.7179 50.0483 73.9016C49.1376 74.0853 48.2656 74.1936 47.4324 74.2265C46.5965 74.2465 45.8096 74.1754 45.0719 74.0133C44.3473 73.8483 43.6615 73.6078 43.0145 73.292C42.3833 72.986 41.7885 72.6253 41.2301 72.2098C40.6613 71.8099 40.1277 71.3823 39.6295 70.9269C39.1313 70.4716 38.6608 70.0169 38.218 69.5629C37.7648 69.1246 37.3289 68.7027 36.9104 68.2971C36.4946 67.9044 36.0886 67.5564 35.6922 67.2533C35.2987 66.963 34.9073 66.746 34.5179 66.6023C34.1258 66.4458 33.7372 66.369 33.3521 66.3719C32.9539 66.3777 32.555 66.4439 32.1554 66.5706C31.7399 66.6874 31.3143 66.8532 30.8788 67.0682C30.4432 67.2832 29.9921 67.5216 29.5254 67.7836C29.0587 68.0455 28.5751 68.3245 28.0745 68.6206C27.5579 68.9068 27.0202 69.1908 26.4614 69.4727C25.9054 69.7673 25.3095 70.0371 24.6738 70.282C24.0513 70.524 23.3941 70.7334 22.7023 70.9099C22.0263 71.0965 21.3172 71.2567 20.5748 71.3906C19.8455 71.5216 19.1003 71.6427 18.3392 71.7538C17.594 71.8748 16.8554 71.9945 16.1233 72.1127C15.3781 72.2338 14.6582 72.3762 13.9636 72.54C13.2662 72.6909 12.6035 72.8746 11.9754 73.091C11.35 73.3203 10.7739 73.5858 10.247 73.8876C9.70966 74.205 9.24544 74.5737 8.85432 74.9936C8.45004 75.4164 8.11644 75.911 7.85352 76.4775C7.60099 77.0283 7.42155 77.6304 7.31521 78.2837C7.20886 78.937 7.17145 79.6223 7.20297 80.3396C7.23727 81.0697 7.34291 81.8112 7.5199 82.5641C7.69689 83.317 7.94384 84.0748 8.26074 84.8377C8.57764 85.6005 8.96033 86.3491 9.40882 87.0834C9.87046 87.8149 10.3937 88.5129 10.9786 89.1775C11.5663 89.8549 12.2194 90.4846 12.9379 91.0666C13.6433 91.6515 14.4075 92.1901 15.2306 92.6825C16.0509 93.162 16.9013 93.6216 17.7819 94.0613C18.6728 94.4853 19.5609 94.8965 20.4463 95.2949C21.3316 95.6933 22.2025 96.0881 23.0587 96.4794C23.9178 96.8835 24.7308 97.2976 25.4977 97.7216C26.2778 98.1428 26.9897 98.5988 27.6334 99.0898C28.2743 99.5679 28.8234 100.099 29.2808 100.684C29.7486 101.254 30.105 101.88 30.3498 102.565C30.6106 103.26 30.7636 103.997 30.8091 104.779C30.8704 105.57 30.8621 106.39 30.7843 107.238C30.7064 108.086 30.5773 108.953 30.397 109.836C30.2326 110.73 30.0405 111.623 29.8207 112.516C29.6009 113.408 29.3849 114.286 29.1726 115.15C28.9604 116.014 28.777 116.852 28.6222 117.663C28.4543 118.477 28.3439 119.239 28.2909 119.948C28.2407 120.669 28.2545 121.337 28.3324 121.95C28.4103 122.563 28.5494 123.11 28.7498 123.59C28.9398 124.085 29.1859 124.521 29.4881 124.898C29.7743 125.265 30.1035 125.576 30.4755 125.831C30.8344 126.089 31.2269 126.278 31.6529 126.401C32.0658 126.526 32.4938 126.594 32.9371 126.606C33.3776 126.604 33.8202 126.549 34.2648 126.439C34.7198 126.314 35.1609 126.124 35.5881 125.871C36.0181 125.63 36.4356 125.332 36.8406 124.976C37.256 124.605 37.6579 124.203 38.0462 123.77C38.4346 123.337 38.8253 122.884 39.2185 122.41C39.5985 121.939 39.9917 121.465 40.398 120.988C40.7912 120.514 41.1937 120.051 41.6056 119.6C42.0071 119.164 42.4287 118.758 42.8704 118.381C43.3121 118.004 43.7729 117.683 44.2528 117.418C44.7326 117.153 45.2343 116.957 45.7579 116.83C46.2814 116.704 46.8334 116.645 47.4138 116.653C47.9915 116.649 48.5948 116.699 49.2237 116.804C49.8499 116.897 50.5041 117.023 51.1864 117.184C51.8688 117.345 52.5684 117.522 53.2853 117.715C54.0155 117.906 54.7667 118.099 55.5391 118.294C56.3114 118.489 57.1153 118.67 57.9507 118.838C58.7701 118.996 59.6117 119.129 60.4755 119.237C61.3524 119.342 62.2459 119.397 63.156 119.401C64.0557 119.421 64.9589 119.393 65.8655 119.317C66.7721 119.242 67.661 119.116 68.5322 118.941C69.3931 118.782 70.2085 118.571 70.9786 118.311C71.7486 118.05 72.447 117.745 73.0736 117.395C73.7162 117.055 74.2646 116.661 74.7187 116.214C75.1756 115.78 75.5186 115.297 75.7476 114.764C75.9925 114.242 76.0958 113.67 76.0574 113.048C76.0218 112.439 75.8576 111.777 75.565 111.062C75.262 110.364 74.8661 109.618 74.3774 108.825C73.8784 108.048 73.3142 107.225 72.6848 106.355C72.0715 105.496 71.422 104.597 70.7366 103.659C70.0539 102.734 69.3694 101.769 68.6833 100.765C68.013 99.7698 67.3833 98.7395 66.794 97.6735C66.2075 96.6204 65.6893 95.5324 65.2392 94.4095C64.7919 93.2994 64.4565 92.1651 64.2329 91.0066C64.0065 89.8353 63.8764 88.6633 63.8426 87.4905C63.806 86.3049 63.8407 85.1307 63.9468 83.9679C64.0398 82.808 64.1753 81.6857 64.3535 80.6012C64.5289 79.5038 64.7036 78.4669 64.8776 77.4906C65.0489 76.5014 65.196 75.5912 65.3189 74.76C65.4418 73.9288 65.5089 73.1901 65.5204 72.5439C65.5187 71.9006 65.426 71.3776 65.2422 70.9748C65.0716 70.5692 64.7785 70.2974 64.3629 70.1594Z" fill="#E5C185"/>
<path fill-rule="evenodd" clip-rule="evenodd" d="M84.1527 148.458C84.5113 148.682 85.0068 148.859 85.6393 148.986C86.2846 149.126 87.0217 149.229 87.8504 149.298C88.6921 149.378 89.6008 149.443 90.5767 149.493C91.5526 149.544 92.5645 149.595 93.6126 149.645C94.6594 149.706 95.7048 149.776 96.7489 149.855C97.7929 149.935 98.8033 150.048 99.78 150.195C100.757 150.342 101.67 150.529 102.52 150.755C103.368 150.991 104.138 151.273 104.829 151.603C105.505 151.93 106.119 152.297 106.668 152.703C107.205 153.098 107.688 153.519 108.116 153.966C108.56 154.406 108.96 154.854 109.315 155.31C109.669 155.767 109.997 156.214 110.296 156.653C110.611 157.084 110.914 157.499 111.205 157.898C111.497 158.287 111.793 158.643 112.095 158.966C112.397 159.28 112.722 159.543 113.067 159.756C113.412 159.979 113.779 160.146 114.167 160.259C114.57 160.374 114.994 160.448 115.437 160.481C115.893 160.526 116.375 160.541 116.884 160.526C117.392 160.51 117.923 160.484 118.478 160.446C119.032 160.408 119.61 160.363 120.21 160.312C120.822 160.273 121.456 160.241 122.11 160.217C122.765 160.184 123.452 160.179 124.171 160.203C124.877 160.225 125.606 160.28 126.36 160.367C127.101 160.442 127.867 160.545 128.658 160.676C129.435 160.805 130.225 160.945 131.028 161.097C131.817 161.237 132.6 161.376 133.375 161.515C134.165 161.655 134.936 161.773 135.689 161.869C136.44 161.975 137.167 162.049 137.87 162.09C138.573 162.121 139.24 162.113 139.868 162.067C140.511 162.012 141.098 161.901 141.628 161.734C142.171 161.569 142.667 161.334 143.115 161.03C143.547 160.733 143.922 160.38 144.24 159.97C144.558 159.56 144.817 159.108 145.017 158.614C145.218 158.11 145.351 157.578 145.416 157.016C145.481 156.455 145.476 155.869 145.404 155.259C145.331 154.649 145.187 154.03 144.972 153.4C144.743 152.768 144.441 152.14 144.067 151.517C143.694 150.884 143.239 150.264 142.703 149.656C142.181 149.051 141.585 148.459 140.915 147.881C140.244 147.313 139.535 146.749 138.79 146.189C138.03 145.637 137.268 145.095 136.505 144.562C135.742 144.029 134.992 143.502 134.256 142.983C133.521 142.454 132.836 141.931 132.2 141.416C131.55 140.899 130.98 140.379 130.49 139.855C129.999 139.341 129.617 138.819 129.345 138.287C129.058 137.763 128.901 137.233 128.876 136.698C128.837 136.151 128.921 135.606 129.128 135.065C129.322 134.512 129.595 133.96 129.947 133.41C130.299 132.86 130.709 132.314 131.176 131.77C131.63 131.215 132.112 130.669 132.621 130.131C133.131 129.594 133.632 129.065 134.125 128.544C134.617 128.024 135.072 127.512 135.49 127.01C135.922 126.51 136.279 126.029 136.561 125.566C136.845 125.093 137.046 124.638 137.166 124.2C137.286 123.762 137.322 123.352 137.275 122.968C137.243 122.576 137.136 122.208 136.954 121.864C136.784 121.53 136.553 121.222 136.26 120.939C135.982 120.658 135.648 120.413 135.258 120.203C134.883 119.995 134.473 119.822 134.031 119.682C133.586 119.552 133.123 119.457 132.639 119.399C132.141 119.348 131.635 119.344 131.123 119.388C130.612 119.423 130.095 119.5 129.573 119.62C129.034 119.747 128.5 119.899 127.969 120.075C127.438 120.252 126.898 120.442 126.349 120.645C125.814 120.85 125.265 121.053 124.702 121.254C124.153 121.457 123.598 121.65 123.037 121.832C122.492 122.007 121.936 122.156 121.369 122.279C120.803 122.402 120.235 122.482 119.666 122.518C119.097 122.554 118.529 122.537 117.96 122.466C117.392 122.396 116.817 122.271 116.235 122.093C115.652 121.923 115.06 121.709 114.461 121.451C113.86 121.202 113.242 120.921 112.606 120.609C111.971 120.297 111.323 119.969 110.664 119.625C109.99 119.278 109.295 118.924 108.58 118.562C107.865 118.2 107.114 117.838 106.327 117.476C105.552 117.125 104.747 116.784 103.912 116.454C103.063 116.122 102.18 115.818 101.265 115.544C100.365 115.263 99.4462 115.012 98.5086 114.793C97.571 114.574 96.6351 114.394 95.7009 114.253C94.7823 114.104 93.8931 114.003 93.0333 113.949C92.1735 113.896 91.3714 113.894 90.6271 113.944C89.87 113.982 89.1906 114.085 88.5888 114.252C87.9884 114.409 87.4869 114.633 87.0844 114.925C86.6691 115.205 86.3803 115.56 86.2182 115.992C86.0575 116.414 86.0091 116.91 86.0733 117.48C86.1529 118.043 86.3109 118.665 86.5473 119.346C86.7992 120.02 87.1017 120.744 87.4549 121.519C87.7953 122.283 88.1594 123.084 88.5471 123.922C88.9361 124.75 89.3141 125.606 89.6809 126.49C90.0349 127.362 90.3366 128.246 90.5861 129.141C90.8369 130.028 91.0077 130.918 91.0985 131.81C91.1907 132.694 91.1624 133.56 91.0137 134.41C90.8636 135.269 90.6162 136.099 90.2717 136.902C89.9258 137.714 89.5118 138.497 89.0295 139.251C88.5614 140.007 88.0626 140.725 87.533 141.405C87.0021 142.094 86.4914 142.743 86.0008 143.351C85.509 143.968 85.067 144.539 84.6749 145.064C84.2827 145.589 83.9766 146.068 83.7565 146.502C83.5505 146.937 83.4751 147.318 83.5301 147.645C83.571 147.97 83.7785 148.241 84.1527 148.458Z" fill="#74A892"/>
<path fill-rule="evenodd" clip-rule="evenodd" d="M542.368 162.85C542.604 162.424 542.764 161.972 542.85 161.494C542.936 161.015 542.954 160.525 542.903 160.022C542.848 159.51 542.747 158.977 542.601 158.422C542.444 157.883 542.244 157.327 542 156.755C541.76 156.193 541.503 155.609 541.227 155.005C540.94 154.416 540.639 153.816 540.324 153.205C540.009 152.594 539.702 151.979 539.403 151.361C539.084 150.74 538.79 150.115 538.522 149.484C538.242 148.87 537.995 148.248 537.781 147.618C537.567 146.989 537.392 146.366 537.257 145.75C537.121 145.134 537.022 144.52 536.961 143.908C536.884 143.302 536.837 142.702 536.818 142.106C536.8 141.511 536.806 140.929 536.835 140.359C536.845 139.787 536.859 139.224 536.877 138.671C536.899 138.127 536.925 137.593 536.955 137.069C536.97 136.551 536.976 136.054 536.972 135.578C536.964 135.092 536.938 134.625 536.892 134.177C536.83 133.736 536.742 133.317 536.628 132.92C536.509 132.513 536.355 132.132 536.168 131.776C535.964 131.426 535.719 131.105 535.431 130.813C535.139 130.51 534.803 130.232 534.423 129.977C534.046 129.732 533.628 129.515 533.167 129.327C532.702 129.129 532.203 128.956 531.669 128.809C531.14 128.672 530.581 128.552 529.994 128.449C529.411 128.356 528.808 128.282 528.187 128.228C527.555 128.189 526.903 128.169 526.232 128.169C525.577 128.162 524.907 128.184 524.222 128.235C523.537 128.285 522.843 128.357 522.139 128.449C521.436 128.542 520.733 128.657 520.031 128.794C519.328 128.932 518.634 129.089 517.948 129.265C517.247 129.447 516.552 129.644 515.863 129.856C515.174 130.068 514.483 130.297 513.791 130.544C513.095 130.781 512.396 131.031 511.692 131.294C510.993 131.567 510.284 131.838 509.565 132.107C508.851 132.386 508.128 132.668 507.398 132.953C506.664 133.229 505.914 133.511 505.149 133.799C504.38 134.077 503.599 134.349 502.806 134.614C502.002 134.895 501.182 135.16 500.345 135.409C499.509 135.658 498.651 135.898 497.772 136.13C496.892 136.362 495.987 136.576 495.056 136.773C494.125 136.969 493.172 137.157 492.198 137.337C491.243 137.52 490.267 137.695 489.269 137.861C488.286 138.021 487.304 138.182 486.321 138.342C485.319 138.499 484.329 138.662 483.35 138.832C482.372 139.002 481.405 139.179 480.45 139.362C479.496 139.545 478.565 139.741 477.657 139.951C476.75 140.16 475.868 140.387 475.013 140.633C474.161 140.887 473.345 141.162 472.564 141.456C471.795 141.735 471.06 142.051 470.359 142.404C469.673 142.75 469.037 143.128 468.45 143.537C467.879 143.94 467.349 144.377 466.862 144.848C466.385 145.303 465.962 145.776 465.591 146.268C465.225 146.769 464.908 147.279 464.64 147.798C464.391 148.32 464.189 148.845 464.034 149.375C463.879 149.904 463.779 150.434 463.733 150.964C463.687 151.495 463.702 152.018 463.776 152.533C463.847 153.039 463.968 153.536 464.14 154.023C464.327 154.505 464.568 154.964 464.863 155.402C465.158 155.839 465.505 156.25 465.904 156.634C466.299 157.008 466.763 157.354 467.297 157.671C467.812 157.985 468.368 158.271 468.967 158.528C469.581 158.779 470.224 159.013 470.896 159.229C471.568 159.445 472.269 159.644 472.998 159.825C473.728 160.007 474.465 160.185 475.21 160.36C475.955 160.535 476.698 160.705 477.439 160.871C478.199 161.039 478.944 161.214 479.674 161.396C480.388 161.583 481.089 161.782 481.776 161.992C482.463 162.202 483.114 162.432 483.728 162.683C484.343 162.934 484.913 163.209 485.438 163.507C485.968 163.815 486.448 164.155 486.878 164.526C487.304 164.887 487.68 165.281 488.006 165.706C488.347 166.124 488.642 166.562 488.891 167.018C489.155 167.468 489.389 167.93 489.591 168.406C489.809 168.874 490.002 169.348 490.169 169.826C490.352 170.297 490.523 170.763 490.682 171.221C490.841 171.68 491.009 172.117 491.187 172.534C491.349 172.957 491.528 173.357 491.725 173.732C491.921 174.107 492.145 174.443 492.398 174.738C492.639 175.049 492.915 175.313 493.224 175.529C493.533 175.744 493.886 175.913 494.283 176.037C494.68 176.16 495.12 176.237 495.604 176.268C496.069 176.295 496.581 176.286 497.142 176.24C497.702 176.195 498.301 176.111 498.937 175.989C499.562 175.882 500.228 175.743 500.933 175.57C501.643 175.407 502.387 175.219 503.165 175.005C503.928 174.797 504.73 174.574 505.57 174.335C506.411 174.096 507.282 173.844 508.184 173.58C509.086 173.316 510.016 173.052 510.972 172.789C511.929 172.525 512.908 172.27 513.908 172.023C514.919 171.76 515.954 171.51 517.013 171.273C518.067 171.027 519.136 170.792 520.218 170.568C521.312 170.329 522.4 170.097 523.482 169.873C524.565 169.65 525.638 169.425 526.7 169.198C527.759 168.961 528.793 168.729 529.801 168.501C530.821 168.257 531.803 168.012 532.748 167.764C533.694 167.517 534.596 167.253 535.455 166.972C536.298 166.698 537.091 166.41 537.832 166.109C538.573 165.808 539.234 165.488 539.815 165.15C540.411 164.805 540.927 164.442 541.362 164.061C541.782 163.685 542.117 163.282 542.368 162.85Z" fill="#038585"/>
<path fill-rule="evenodd" clip-rule="evenodd" d="M487.303 11.0541C486.923 11.2594 486.569 11.6112 486.238 12.1096C485.89 12.6136 485.561 13.2173 485.253 13.9206C484.926 14.6296 484.6 15.4059 484.275 16.2494C483.95 17.0929 483.614 17.9684 483.269 18.8759C482.912 19.7775 482.544 20.673 482.163 21.5626C481.783 22.4521 481.37 23.2944 480.922 24.0894C480.475 24.8844 479.995 25.6029 479.482 26.245C478.957 26.8811 478.395 27.423 477.795 27.8709C477.201 28.3071 476.575 28.6669 475.916 28.9501C475.274 29.2278 474.615 29.4438 473.937 29.5982C473.264 29.7701 472.593 29.8983 471.923 29.9825C471.253 30.0668 470.602 30.1309 469.969 30.1748C469.342 30.2362 468.738 30.2951 468.158 30.3514C467.589 30.4137 467.061 30.497 466.573 30.6014C466.098 30.7117 465.679 30.8668 465.318 31.0664C464.945 31.2601 464.636 31.5015 464.389 31.7905C464.137 32.0911 463.93 32.4303 463.769 32.8082C463.59 33.1917 463.442 33.6137 463.325 34.0741C463.208 34.5345 463.099 35.0213 462.998 35.5346C462.897 36.0478 462.798 36.5845 462.701 37.1446C462.586 37.7103 462.456 38.2904 462.311 38.885C462.177 39.4855 461.999 40.1 461.776 40.7285C461.559 41.3455 461.294 41.9676 460.983 42.5949C460.689 43.2166 460.354 43.8465 459.977 44.4846C459.606 45.111 459.218 45.7431 458.811 46.3808C458.423 47.0129 458.037 47.6392 457.655 48.2597C457.267 48.8917 456.911 49.5184 456.588 50.1397C456.253 50.755 455.965 51.3651 455.725 51.97C455.497 52.5809 455.328 53.178 455.218 53.7613C455.114 54.3623 455.096 54.941 455.165 55.4976C455.227 56.0657 455.389 56.6265 455.653 57.1799C455.911 57.7157 456.255 58.2293 456.686 58.7206C457.116 59.212 457.616 59.6722 458.185 60.1012C458.765 60.5362 459.4 60.9251 460.089 61.268C460.779 61.611 461.518 61.9049 462.305 62.1497C463.093 62.3946 463.912 62.5814 464.763 62.7102C465.62 62.8273 466.491 62.8774 467.377 62.8605C468.274 62.8495 469.177 62.7597 470.085 62.591C470.988 62.4339 471.893 62.2038 472.8 61.9005C473.697 61.5913 474.597 61.247 475.501 60.8677C476.4 60.4708 477.288 60.0679 478.164 59.659C479.04 59.25 479.904 58.8497 480.756 58.458C481.619 58.0723 482.46 57.7272 483.28 57.4228C484.105 57.1067 484.913 56.8635 485.704 56.6932C486.483 56.5168 487.244 56.4426 487.986 56.4704C488.723 56.4806 489.432 56.6104 490.114 56.8596C490.813 57.1032 491.476 57.4546 492.102 57.9136C492.747 58.367 493.368 58.8903 493.966 59.4834C494.564 60.0765 495.143 60.7191 495.702 61.4111C496.279 62.0975 496.837 62.8042 497.378 63.531C497.918 64.2579 498.45 64.9729 498.973 65.6761C499.496 66.3793 500.018 67.0445 500.538 67.6716C501.052 68.3104 501.563 68.8731 502.07 69.3597C502.589 69.8523 503.108 70.263 503.628 70.5919C504.147 70.9208 504.654 71.1617 505.15 71.3148C505.651 71.4855 506.144 71.5772 506.627 71.5897C507.092 71.6079 507.542 71.5585 507.977 71.4418C508.406 71.3366 508.804 71.1637 509.173 70.9232C509.535 70.6943 509.864 70.4181 510.158 70.0947C510.442 69.7653 510.685 69.4002 510.888 68.9995C511.086 68.5812 511.226 68.1328 511.308 67.6544C511.402 67.1819 511.443 66.6825 511.433 66.156C511.417 65.6119 511.369 65.0585 511.289 64.496C511.209 63.9334 511.115 63.356 511.006 62.7639C510.891 62.1833 510.783 61.5911 510.681 60.9873C510.572 60.3951 510.479 59.8031 510.4 59.2113C510.326 58.6372 510.287 58.0664 510.284 57.4991C510.281 56.9317 510.333 56.3856 510.441 55.8608C510.548 55.3359 510.722 54.8383 510.963 54.3679C511.204 53.8975 511.516 53.4486 511.897 53.0211C512.266 52.5876 512.694 52.1695 513.181 51.7669C513.656 51.3582 514.175 50.9502 514.738 50.5428C515.301 50.1354 515.888 49.7254 516.499 49.3127C517.116 48.8885 517.748 48.4499 518.396 47.9969C519.043 47.5438 519.701 47.0587 520.368 46.5417C521.018 46.0302 521.663 45.4864 522.303 44.9105C522.95 44.3229 523.568 43.6911 524.159 43.015C524.755 42.3566 525.317 41.6655 525.844 40.9418C526.372 40.218 526.85 39.4761 527.278 38.7159C527.712 37.9733 528.078 37.2327 528.376 36.4941C528.674 35.7555 528.891 35.0421 529.028 34.3539C529.183 33.6601 529.236 33.0028 529.187 32.3822C529.151 31.7677 529.003 31.2071 528.744 30.7005C528.502 30.1884 528.132 29.7505 527.632 29.3868C527.143 29.0291 526.531 28.734 525.796 28.5016C525.067 28.2868 524.241 28.1116 523.32 27.976C522.404 27.858 521.41 27.7594 520.339 27.6802C519.286 27.5954 518.18 27.5128 517.021 27.4324C515.873 27.358 514.694 27.2598 513.483 27.1377C512.29 27.0101 511.096 26.8297 509.901 26.5968C508.718 26.3698 507.551 26.07 506.403 25.6973C505.266 25.3306 504.182 24.8653 503.152 24.3013C502.111 23.7312 501.131 23.0889 500.213 22.3744C499.283 21.6538 498.408 20.8872 497.588 20.0746C496.761 19.2736 495.991 18.4647 495.277 17.6477C494.552 16.8247 493.872 16.0404 493.238 15.2947C492.593 14.543 491.992 13.8591 491.436 13.2432C490.88 12.6273 490.359 12.1112 489.872 11.6951C489.379 11.2906 488.92 11.0298 488.493 10.9127C488.073 10.7841 487.676 10.8312 487.303 11.0541Z" fill="#74A892"/>
<path fill-rule="evenodd" clip-rule="evenodd" d="M404.275 96.2617C404.681 96.4118 405.185 96.4493 405.788 96.3741C406.407 96.3087 407.091 96.164 407.841 95.94C408.606 95.7257 409.423 95.4676 410.293 95.1657C411.163 94.8638 412.064 94.5487 412.997 94.2203C413.933 93.9045 414.871 93.6012 415.812 93.3104C416.753 93.0196 417.679 92.7845 418.59 92.605C419.501 92.4254 420.373 92.3196 421.206 92.2876C422.042 92.268 422.829 92.3374 423.566 92.4959C424.291 92.6571 424.977 92.892 425.624 93.2007C426.255 93.4996 426.85 93.8521 427.408 94.2581C427.977 94.6489 428.51 95.0667 429.009 95.5117C429.507 95.9567 429.977 96.401 430.42 96.8446C430.873 97.2728 431.309 97.6851 431.728 98.0815C432.144 98.4652 432.55 98.8052 432.946 99.1014C433.339 99.3851 433.731 99.5971 434.12 99.7375C434.512 99.8905 434.901 99.9655 435.286 99.9627C435.684 99.9571 436.083 99.8923 436.483 99.7685C436.898 99.6544 437.324 99.4924 437.759 99.2823C438.195 99.0722 438.646 98.8392 439.113 98.5833C439.579 98.3273 440.063 98.0547 440.564 97.7653C441.08 97.4857 441.618 97.2082 442.177 96.9328C442.733 96.6448 443.329 96.3812 443.964 96.1419C444.587 95.9054 445.244 95.7009 445.936 95.5283C446.612 95.346 447.321 95.1895 448.063 95.0587C448.793 94.9306 449.538 94.8123 450.299 94.7038C451.044 94.5854 451.783 94.4685 452.515 94.353C453.26 94.2347 453.98 94.0955 454.675 93.9355C455.372 93.788 456.035 93.6085 456.663 93.397C457.288 93.173 457.864 92.9136 458.391 92.6187C458.929 92.3085 459.393 91.9482 459.784 91.5379C460.188 91.1248 460.522 90.6415 460.785 90.0879C461.037 89.5497 461.217 88.9614 461.323 88.323C461.429 87.6846 461.467 87.015 461.435 86.314C461.401 85.6006 461.295 84.876 461.118 84.1403C460.941 83.4047 460.694 82.6641 460.377 81.9187C460.061 81.1733 459.678 80.4418 459.229 79.7243C458.768 79.0095 458.244 78.3274 457.66 77.678C457.072 77.0161 456.419 76.4007 455.7 75.832C454.995 75.2605 454.231 74.7342 453.408 74.2531C452.587 73.7845 451.737 73.3354 450.856 72.9058C449.965 72.4915 449.077 72.0897 448.192 71.7004C447.307 71.3111 446.436 70.9252 445.579 70.5429C444.72 70.148 443.907 69.7434 443.14 69.3291C442.36 68.9175 441.649 68.4719 441.005 67.9922C440.364 67.5249 439.815 67.0056 439.357 66.434C438.89 65.8778 438.533 65.2652 438.288 64.5963C438.028 63.9176 437.875 63.1966 437.829 62.433C437.768 61.6598 437.776 60.8587 437.854 60.0298C437.932 59.2009 438.061 58.3547 438.241 57.491C438.406 56.6176 438.598 55.7448 438.818 54.8728C439.037 54.0008 439.253 53.1427 439.466 52.2985C439.678 51.4543 439.861 50.6358 440.016 49.843C440.184 49.0475 440.294 48.3034 440.347 47.6108C440.398 46.9057 440.384 46.2535 440.306 45.6541C440.228 45.0547 440.089 44.5206 439.888 44.052C439.698 43.568 439.452 43.1418 439.15 42.7733C438.864 42.4145 438.535 42.1107 438.163 41.8618C437.804 41.6101 437.411 41.4245 436.985 41.3049C436.572 41.1826 436.144 41.1159 435.701 41.1048C435.261 41.1063 434.818 41.1606 434.373 41.2677C433.918 41.3902 433.477 41.5752 433.05 41.8228C432.62 42.0579 432.203 42.3493 431.798 42.697C431.382 43.0601 430.98 43.453 430.592 43.8758C430.204 44.2987 429.813 44.7417 429.42 45.2048C429.04 45.6652 428.647 46.1284 428.24 46.5944C427.847 47.0575 427.444 47.5096 427.033 47.9505C426.631 48.3761 426.209 48.7732 425.768 49.1418C425.326 49.5104 424.865 49.8241 424.385 50.0828C423.906 50.3416 423.404 50.5329 422.88 50.6567C422.357 50.7806 421.805 50.8383 421.224 50.8301C420.647 50.8343 420.043 50.785 419.414 50.6822C418.788 50.5919 418.134 50.4682 417.452 50.3111C416.769 50.154 416.07 49.981 415.353 49.7919C414.623 49.6057 413.871 49.4173 413.099 49.2269C412.327 49.0364 411.523 48.8592 410.688 48.6952C409.868 48.541 409.026 48.411 408.163 48.3054C407.286 48.2026 406.392 48.1492 405.482 48.1451C404.582 48.1258 403.679 48.153 402.773 48.2269C401.866 48.3007 400.977 48.4232 400.106 48.5943C399.245 48.7502 398.43 48.9555 397.66 49.2101C396.89 49.4647 396.191 49.7631 395.565 50.1053C394.922 50.4377 394.374 50.8224 393.919 51.2591C393.463 51.6833 393.12 52.1555 392.891 52.6757C392.646 53.1862 392.542 53.7452 392.581 54.353C392.616 54.9482 392.781 55.5949 393.073 56.293C393.376 56.9758 393.772 57.7045 394.261 58.4791C394.76 59.2384 395.324 60.0429 395.953 60.8926C396.567 61.7325 397.216 62.6107 397.902 63.5271C398.584 64.431 399.269 65.3738 399.955 66.3556C400.625 67.3276 401.255 68.3345 401.844 69.3761C402.431 70.4051 402.949 71.4683 403.399 72.5655C403.846 73.6503 404.182 74.7587 404.405 75.8907C404.632 77.0352 404.762 78.1805 404.796 79.3265C404.832 80.485 404.797 81.6323 404.691 82.7686C404.598 83.9021 404.463 84.9987 404.285 86.0585C404.109 87.1307 403.935 88.1439 403.761 89.098C403.589 90.0646 403.442 90.954 403.319 91.7662C403.196 92.5784 403.129 93.3002 403.118 93.9316C403.12 94.5602 403.212 95.0713 403.396 95.4649C403.567 95.8612 403.86 96.1268 404.275 96.2617Z" fill="#E5C185"/>
<path fill-rule="evenodd" clip-rule="evenodd" d="M479.539 68.8907C479.944 68.7405 480.448 68.703 481.052 68.7782C481.671 68.8436 482.355 68.9884 483.104 69.2124C483.87 69.4266 484.687 69.6847 485.557 69.9866C486.427 70.2885 487.328 70.6037 488.261 70.932C489.196 71.2478 490.135 71.5511 491.076 71.8419C492.017 72.1327 492.943 72.3678 493.854 72.5474C494.764 72.7269 495.636 72.8327 496.469 72.8648C497.305 72.8844 498.092 72.8149 498.83 72.6565C499.555 72.4952 500.24 72.2603 500.887 71.9516C501.519 71.6527 502.113 71.3002 502.672 70.8942C503.241 70.5035 503.774 70.0856 504.272 69.6406C504.771 69.1957 505.241 68.7514 505.684 68.3078C506.137 67.8795 506.573 67.4672 506.991 67.0709C507.407 66.6871 507.813 66.3471 508.21 66.0509C508.603 65.7673 508.995 65.5552 509.384 65.4148C509.776 65.2619 510.165 65.1868 510.55 65.1897C510.948 65.1953 511.347 65.26 511.746 65.3838C512.162 65.4979 512.588 65.66 513.023 65.87C513.459 66.0801 513.91 66.3131 514.376 66.5691C514.843 66.825 515.327 67.0977 515.827 67.387C516.344 67.6666 516.882 67.9441 517.44 68.2196C517.996 68.5075 518.592 68.7712 519.228 69.0104C519.851 69.2469 520.508 69.4515 521.2 69.624C521.876 69.8063 522.585 69.9628 523.327 70.0937C524.056 70.2217 524.802 70.34 525.563 70.4486C526.308 70.5669 527.047 70.6838 527.779 70.7993C528.524 70.9176 529.244 71.0568 529.938 71.2168C530.636 71.3643 531.298 71.5438 531.926 71.7553C532.552 71.9793 533.128 72.2387 533.655 72.5337C534.192 72.8439 534.656 73.2041 535.048 73.6144C535.452 74.0275 535.785 74.5109 536.048 75.0644C536.301 75.6027 536.48 76.191 536.587 76.8293C536.693 77.4677 536.73 78.1374 536.699 78.8383C536.665 79.5517 536.559 80.2763 536.382 81.012C536.205 81.7477 535.958 82.4882 535.641 83.2336C535.324 83.979 534.942 84.7105 534.493 85.4281C534.031 86.1429 533.508 86.825 532.923 87.4744C532.336 88.1363 531.682 88.7516 530.964 89.3203C530.259 89.8918 529.494 90.4181 528.671 90.8992C527.851 91.3678 527.001 91.8169 526.12 92.2465C525.229 92.6609 524.341 93.0627 523.456 93.452C522.57 93.8413 521.699 94.2271 520.843 94.6094C519.984 95.0043 519.171 95.4089 518.404 95.8233C517.624 96.2348 516.912 96.6805 516.268 97.1602C515.628 97.6274 515.078 98.1468 514.621 98.7183C514.153 99.2745 513.797 99.8871 513.552 100.556C513.291 101.235 513.138 101.956 513.093 102.719C513.031 103.493 513.04 104.294 513.118 105.123C513.195 105.951 513.325 106.798 513.505 107.661C513.669 108.535 513.861 109.407 514.081 110.28C514.301 111.152 514.517 112.01 514.729 112.854C514.941 113.698 515.125 114.517 515.28 115.309C515.448 116.105 515.558 116.849 515.611 117.541C515.661 118.247 515.647 118.899 515.569 119.498C515.492 120.098 515.352 120.632 515.152 121.1C514.962 121.584 514.716 122.011 514.414 122.379C514.128 122.738 513.798 123.042 513.426 123.291C513.067 123.542 512.675 123.728 512.249 123.847C511.836 123.97 511.408 124.036 510.965 124.048C510.524 124.046 510.082 123.992 509.637 123.885C509.182 123.762 508.741 123.577 508.314 123.33C507.884 123.094 507.466 122.803 507.061 122.455C506.646 122.092 506.244 121.699 505.856 121.277C505.467 120.854 505.077 120.411 504.683 119.947C504.303 119.487 503.91 119.024 503.504 118.558C503.111 118.095 502.708 117.643 502.296 117.202C501.895 116.776 501.473 116.379 501.031 116.011C500.59 115.642 500.129 115.328 499.649 115.07C499.169 114.811 498.668 114.619 498.144 114.496C497.62 114.372 497.068 114.314 496.488 114.322C495.91 114.318 495.307 114.367 494.678 114.47C494.052 114.56 493.398 114.684 492.715 114.841C492.033 114.998 491.333 115.171 490.617 115.36C489.886 115.547 489.135 115.735 488.363 115.925C487.59 116.116 486.787 116.293 485.951 116.457C485.132 116.611 484.29 116.741 483.426 116.847C482.549 116.95 481.656 117.003 480.746 117.007C479.846 117.027 478.943 116.999 478.036 116.925C477.13 116.852 476.241 116.729 475.37 116.558C474.509 116.402 473.693 116.197 472.923 115.942C472.153 115.688 471.455 115.389 470.828 115.047C470.186 114.715 469.637 114.33 469.183 113.893C468.726 113.469 468.383 112.997 468.154 112.477C467.909 111.966 467.806 111.407 467.844 110.799C467.88 110.204 468.044 109.557 468.337 108.859C468.64 108.176 469.036 107.448 469.524 106.673C470.023 105.914 470.588 105.109 471.217 104.26C471.83 103.42 472.48 102.542 473.165 101.625C473.848 100.721 474.532 99.7785 475.219 98.7967C475.889 97.8247 476.519 96.8179 477.108 95.7763C477.694 94.7472 478.213 93.684 478.663 92.5868C479.11 91.5021 479.445 90.3937 479.669 89.2616C479.895 88.1171 480.025 86.9718 480.059 85.8259C480.096 84.6674 480.061 83.52 479.955 82.3837C479.862 81.2503 479.727 80.1537 479.548 79.0939C479.373 78.0216 479.198 77.0084 479.024 76.0543C478.853 75.0877 478.706 74.1983 478.583 73.3861C478.46 72.5739 478.393 71.8521 478.381 71.2207C478.383 70.5921 478.476 70.081 478.66 69.6874C478.83 69.2911 479.123 69.0255 479.539 68.8907Z" fill="#E5C185"/>
<path fill-rule="evenodd" clip-rule="evenodd" d="M457.221 139.737C456.862 139.956 456.367 140.128 455.734 140.253C455.089 140.389 454.352 140.491 453.523 140.558C452.681 140.636 451.773 140.699 450.797 140.749C449.821 140.798 448.809 140.848 447.761 140.897C446.714 140.956 445.669 141.025 444.625 141.102C443.581 141.18 442.57 141.291 441.594 141.435C440.617 141.578 439.704 141.761 438.854 141.982C438.005 142.212 437.235 142.488 436.545 142.81C435.868 143.13 435.255 143.488 434.705 143.885C434.168 144.271 433.685 144.683 433.257 145.12C432.813 145.549 432.414 145.987 432.059 146.433C431.704 146.879 431.377 147.316 431.077 147.744C430.762 148.166 430.46 148.571 430.169 148.961C429.877 149.342 429.58 149.689 429.279 150.005C428.976 150.311 428.652 150.569 428.306 150.777C427.962 150.994 427.595 151.158 427.206 151.268C426.803 151.381 426.38 151.453 425.936 151.486C425.48 151.53 424.998 151.544 424.49 151.529C423.982 151.514 423.45 151.488 422.896 151.451C422.341 151.414 421.764 151.37 421.164 151.321C420.551 151.282 419.918 151.251 419.264 151.228C418.609 151.195 417.921 151.191 417.202 151.214C416.497 151.235 415.767 151.289 415.013 151.374C414.272 151.447 413.506 151.548 412.715 151.676C411.938 151.802 411.149 151.939 410.346 152.087C409.556 152.224 408.774 152.36 407.998 152.495C407.208 152.632 406.437 152.748 405.685 152.842C404.933 152.946 404.206 153.017 403.504 153.057C402.8 153.088 402.134 153.081 401.506 153.035C400.862 152.982 400.275 152.873 399.746 152.71C399.202 152.549 398.706 152.319 398.259 152.022C397.827 151.731 397.451 151.386 397.133 150.986C396.815 150.585 396.556 150.144 396.357 149.661C396.155 149.169 396.022 148.649 395.958 148.1C395.893 147.551 395.897 146.979 395.97 146.383C396.043 145.787 396.187 145.181 396.401 144.566C396.63 143.948 396.932 143.335 397.307 142.726C397.68 142.108 398.135 141.502 398.671 140.908C399.192 140.316 399.788 139.738 400.458 139.173C401.13 138.618 401.838 138.067 402.583 137.52C403.344 136.981 404.106 136.451 404.869 135.93C405.632 135.409 406.382 134.894 407.118 134.387C407.853 133.87 408.538 133.36 409.174 132.856C409.824 132.351 410.393 131.843 410.883 131.331C411.375 130.829 411.756 130.318 412.028 129.798C412.315 129.286 412.472 128.769 412.498 128.245C412.536 127.711 412.452 127.179 412.246 126.65C412.052 126.109 411.779 125.57 411.427 125.033C411.074 124.496 410.665 123.961 410.198 123.43C409.744 122.888 409.262 122.354 408.752 121.829C408.243 121.304 407.742 120.787 407.249 120.278C406.756 119.77 406.301 119.27 405.883 118.779C405.451 118.291 405.094 117.82 404.812 117.367C404.529 116.906 404.327 116.461 404.207 116.033C404.088 115.605 404.052 115.204 404.099 114.829C404.13 114.447 404.237 114.087 404.42 113.75C404.59 113.424 404.821 113.123 405.113 112.847C405.392 112.572 405.726 112.332 406.115 112.127C406.491 111.924 406.9 111.755 407.343 111.618C407.787 111.491 408.251 111.399 408.734 111.342C409.233 111.292 409.738 111.288 410.25 111.331C410.761 111.365 411.278 111.44 411.801 111.557C412.339 111.682 412.874 111.83 413.405 112.003C413.936 112.175 414.476 112.361 415.025 112.559C415.56 112.76 416.109 112.958 416.672 113.155C417.221 113.353 417.776 113.541 418.336 113.719C418.881 113.89 419.437 114.036 420.004 114.156C420.571 114.277 421.139 114.354 421.707 114.389C422.276 114.425 422.845 114.408 423.413 114.339C423.981 114.27 424.557 114.148 425.138 113.974C425.722 113.808 426.313 113.599 426.913 113.347C427.514 113.103 428.132 112.829 428.767 112.524C429.403 112.22 430.05 111.899 430.71 111.562C431.384 111.224 432.078 110.878 432.793 110.524C433.509 110.171 434.26 109.817 435.047 109.463C435.821 109.12 436.626 108.787 437.461 108.464C438.311 108.139 439.193 107.843 440.109 107.575C441.009 107.3 441.927 107.055 442.865 106.841C443.803 106.627 444.738 106.451 445.673 106.313C446.591 106.168 447.48 106.069 448.34 106.017C449.2 105.964 450.002 105.963 450.746 106.011C451.503 106.049 452.183 106.149 452.785 106.312C453.385 106.466 453.887 106.685 454.289 106.97C454.704 107.243 454.993 107.591 455.155 108.013C455.316 108.425 455.364 108.91 455.3 109.467C455.221 110.017 455.063 110.624 454.826 111.29C454.574 111.948 454.272 112.656 453.919 113.414C453.578 114.16 453.214 114.942 452.826 115.761C452.437 116.571 452.059 117.407 451.693 118.271C451.339 119.123 451.037 119.986 450.787 120.862C450.537 121.728 450.366 122.597 450.275 123.47C450.183 124.333 450.211 125.18 450.36 126.01C450.51 126.849 450.757 127.661 451.102 128.445C451.448 129.238 451.862 130.004 452.344 130.74C452.812 131.479 453.311 132.181 453.84 132.845C454.371 133.518 454.882 134.152 455.373 134.746C455.865 135.349 456.307 135.908 456.699 136.421C457.091 136.934 457.397 137.402 457.617 137.825C457.823 138.25 457.898 138.623 457.843 138.942C457.802 139.26 457.595 139.525 457.221 139.737Z" fill="#74A892"/>
</svg>
