<?xml version="1.0" encoding="UTF-8"?>
<svg id="Layer_2" data-name="Layer 2" xmlns="http://www.w3.org/2000/svg" viewBox="0 0 379.61 394.43">
  <defs>
    <style>
      .cls-1, .cls-2, .cls-3, .cls-4, .cls-5, .cls-6 {
        stroke-width: 0px;
      }

      .cls-1, .cls-4 {
        fill: #e4c083;
      }

      .cls-2, .cls-4, .cls-6 {
        fill-rule: evenodd;
      }

      .cls-2, .cls-5 {
        fill: #3a8384;
      }

      .cls-3 {
        fill: #7ea691;
      }

      .cls-6 {
        fill: #73a892;
      }
    </style>
  </defs>
  <g id="Layer_1-2" data-name="Layer 1">
    <path class="cls-5" d="M163.23,224.81l-.4,66.78c0,.96-.98,1.62-1.93,1.35-1.91-.54-3.73-.97-5.46-1.31,1.89,6.03,4.48,11.83,6.81,17.7,1.19-.69,2.72-.7,3.98.58,2.58,2.76,5.55,4.92,8.75,6.72.03-.03.06-.06.09-.09,1.7-4.14,2.6-8.62,2.6-13.18v-124.68c0-11.03-14.43-6.13-14.43-6.13,0,0-87.4,26.97-101.41,31.87-13.29,4.65-11.19,15.93-10.94,17.07.02.07.02.13.02.21.06,3.81,5.46,98.3.56,103.26,4.88,1.39,10.37,3.58,12.98,7.36l.34-77.1c0-.62.41-1.16,1.02-1.35l95.45-30.43c.97-.31,1.96.39,1.95,1.37Z"/>
    <path class="cls-3" d="M378.4,393.8c-.41.16-.83.31-1.25.45.01.06.03.11.04.17.8-.33,1.61-.65,2.41-.98-.4.12-.8.24-1.21.35Z"/>
    <path class="cls-3" d="M330.65,193.49c-.07-.19-.3-.27-.46-.15-27.07,19.86-68.19-32.85-76.45-26.1-13.53,11.06-6.29,23.86-5.52,25.14.05.08.08.15.11.24,1.67,4.54,47.15,114.71,44.51,124.58,6.25,1.99,12.86,2.73,18.76,5.6l-32.88-95.24c-.24-.69-11.53-30.59-12.6-35.14-.06-.25.2-.45.44-.34l62.58,30.07c.16.08.36-.02.42-.19.65-1.83,1.23-3.35,1.79-4.72.24-1.34.49-2.67.65-4.03,0,.04.14-1.79.2-2.44.02-.48.03-1.01.04-1.13.05-1.89.04-3.79.02-5.68-.02-1.63.23-3.17.6-4.65-.65-1.58-1.38-3.46-2.21-5.81Z"/>
    <path class="cls-6" d="M276.78,368.95c.52-.13,1.12-.43,1.79-.89.69-.47,1.44-1.05,2.23-1.74.81-.7,1.67-1.47,2.57-2.32.9-.85,1.84-1.72,2.8-2.64.97-.9,1.96-1.79,2.94-2.68.99-.88,1.98-1.71,2.97-2.47.99-.76,1.96-1.43,2.92-2.01.96-.57,1.89-1.02,2.8-1.36.89-.33,1.77-.57,2.62-.71.83-.14,1.64-.21,2.42-.21.79-.02,1.55.01,2.28.09.73.08,1.42.17,2.09.28.67.09,1.32.18,1.93.26.61.08,1.2.12,1.76.13.55,0,1.08-.07,1.58-.19.51-.12.98-.31,1.42-.56.46-.27.9-.59,1.32-.96.44-.38.88-.8,1.31-1.28.43-.48.87-.99,1.33-1.52.45-.54.92-1.11,1.4-1.7.5-.59,1.03-1.2,1.58-1.82.54-.63,1.14-1.26,1.8-1.89.64-.62,1.33-1.24,2.07-1.85.72-.61,1.49-1.22,2.3-1.83.8-.6,1.62-1.19,2.46-1.79.82-.6,1.64-1.19,2.44-1.78.82-.6,1.61-1.2,2.35-1.8.76-.59,1.46-1.19,2.12-1.8.65-.61,1.22-1.23,1.73-1.84.52-.63.93-1.27,1.24-1.9.33-.64.55-1.3.66-1.98.11-.66.11-1.31.02-1.96-.09-.65-.28-1.28-.56-1.9-.28-.63-.65-1.22-1.11-1.77-.46-.55-.99-1.06-1.61-1.53-.62-.47-1.31-.88-2.08-1.24-.78-.35-1.62-.62-2.51-.83-.91-.22-1.87-.35-2.9-.39-1.01-.06-2.07-.03-3.19.07-1.11.11-2.25.26-3.41.45-1.17.21-2.34.43-3.49.66-1.16.23-2.3.45-3.42.67-1.13.21-2.21.37-3.23.5-1.04.14-2.02.2-2.93.19-.9,0-1.71-.11-2.44-.33-.73-.2-1.35-.52-1.86-.97-.53-.45-.96-1-1.27-1.66-.33-.66-.6-1.4-.79-2.2-.19-.8-.33-1.66-.42-2.56-.11-.9-.18-1.82-.23-2.76-.04-.94-.09-1.86-.13-2.77-.04-.91-.11-1.77-.2-2.59-.08-.83-.2-1.58-.38-2.25-.18-.67-.42-1.26-.72-1.75-.29-.49-.64-.89-1.03-1.18-.38-.31-.82-.54-1.29-.68-.45-.14-.94-.2-1.45-.18-.5,0-1.02.1-1.55.27-.52.16-1.04.38-1.55.66-.51.29-1,.63-1.48,1.02-.48.41-.93.87-1.34,1.37-.42.5-.8,1.04-1.15,1.62-.36.6-.69,1.22-.99,1.86-.3.64-.61,1.3-.9,1.98-.28.67-.58,1.35-.89,2.04-.3.68-.61,1.35-.93,2.03-.32.65-.67,1.29-1.06,1.91-.39.63-.81,1.21-1.28,1.76-.47.55-.98,1.05-1.54,1.51-.56.46-1.18.87-1.86,1.25-.67.38-1.38.74-2.14,1.06-.75.33-1.55.65-2.4.95-.84.31-1.71.61-2.6.91-.91.31-1.84.63-2.8.97s-1.95.7-2.97,1.1c-1,.4-2.02.83-3.05,1.31-1.05.48-2.1,1.02-3.15,1.62-1.05.57-2.08,1.19-3.11,1.86-1.02.66-2.01,1.36-2.96,2.09-.94.71-1.82,1.43-2.62,2.17-.8.74-1.51,1.47-2.12,2.19-.63.72-1.13,1.43-1.51,2.13-.38.69-.62,1.34-.71,1.96-.11.62-.04,1.2.21,1.73.24.52.66,1,1.23,1.44.58.42,1.29.82,2.12,1.21.84.36,1.76.72,2.78,1.08,1,.36,2.05.73,3.15,1.11,1.1.37,2.21.78,3.34,1.22,1.11.44,2.18.94,3.22,1.5,1.03.55,1.99,1.18,2.89,1.88.89.69,1.65,1.48,2.3,2.36.65.89,1.19,1.85,1.62,2.87.44,1.03.79,2.09,1.05,3.2.28,1.09.5,2.18.65,3.26.16,1.09.31,2.13.43,3.11.13.99.27,1.9.4,2.72.14.82.3,1.52.51,2.1.22.57.5.97.85,1.21.33.25.76.3,1.29.15Z"/>
    <path class="cls-2" d="M70.17,378.52c-.5.19-1.12.24-1.86.14-.76-.08-1.6-.26-2.52-.55-.94-.27-1.94-.59-3.01-.97-1.07-.38-2.17-.78-3.32-1.19-1.15-.4-2.3-.78-3.45-1.14-1.15-.37-2.29-.66-3.41-.89-1.12-.23-2.19-.36-3.21-.4-1.03-.02-1.99.06-2.9.26-.89.2-1.73.5-2.53.89-.77.38-1.5.82-2.19,1.33-.7.49-1.35,1.02-1.96,1.58-.61.56-1.19,1.12-1.73,1.68-.56.54-1.09,1.06-1.6,1.55-.51.48-1.01.91-1.5,1.28-.48.36-.96.62-1.44.8-.48.19-.96.29-1.43.28-.49,0-.98-.09-1.47-.24-.51-.14-1.03-.35-1.57-.61-.53-.26-1.09-.56-1.66-.88-.57-.32-1.17-.66-1.78-1.03-.63-.35-1.29-.7-1.98-1.05-.68-.36-1.41-.69-2.19-.99-.76-.3-1.57-.55-2.42-.77-.83-.23-1.7-.43-2.61-.59-.9-.16-1.81-.31-2.74-.45-.91-.15-1.82-.3-2.72-.44-.91-.15-1.8-.32-2.65-.52-.86-.19-1.67-.41-2.44-.68-.77-.28-1.47-.61-2.12-.98-.66-.39-1.23-.84-1.71-1.36-.5-.52-.91-1.13-1.23-1.82-.31-.68-.53-1.42-.66-2.22-.13-.8-.18-1.64-.14-2.53.04-.9.17-1.81.39-2.73.22-.92.52-1.86.91-2.79.39-.94.86-1.86,1.41-2.76.57-.9,1.21-1.76,1.93-2.57.72-.83,1.52-1.61,2.4-2.32.87-.72,1.8-1.38,2.81-1.98,1.01-.59,2.05-1.15,3.13-1.69,1.09-.52,2.18-1.03,3.27-1.52,1.09-.49,2.16-.97,3.21-1.45,1.05-.5,2.05-1,2.99-1.53.96-.52,1.83-1.08,2.62-1.68.79-.59,1.46-1.24,2.02-1.96.57-.7,1.01-1.47,1.31-2.31.32-.85.51-1.76.56-2.72.08-.97.07-1.98-.03-3.02-.1-1.04-.25-2.11-.48-3.19-.2-1.1-.44-2.19-.71-3.29s-.53-2.17-.8-3.24c-.26-1.06-.49-2.09-.68-3.09-.21-1-.34-1.94-.41-2.81-.06-.89-.04-1.71.05-2.46.1-.75.27-1.42.51-2.01.23-.61.54-1.14.91-1.61.35-.45.76-.83,1.21-1.15.44-.32.92-.55,1.44-.7.51-.15,1.03-.24,1.58-.25.54,0,1.08.07,1.63.2.56.15,1.1.39,1.62.7.53.3,1.04.66,1.54,1.1.51.46,1,.95,1.48,1.48.48.53.96,1.09,1.44,1.67.47.58.95,1.16,1.45,1.75.48.58.98,1.15,1.48,1.7.49.53,1.01,1.03,1.55,1.5.54.46,1.11.86,1.7,1.18.59.33,1.2.57,1.85.72.64.16,1.32.23,2.03.22.71,0,1.45-.06,2.22-.19.77-.11,1.57-.27,2.41-.47.84-.2,1.7-.41,2.58-.65.9-.23,1.82-.47,2.77-.71.95-.24,1.93-.46,2.96-.67,1.01-.19,2.04-.36,3.1-.49,1.08-.13,2.17-.2,3.29-.2,1.1-.02,2.21,0,3.33.1s2.2.25,3.27.46c1.06.2,2.06.45,3,.77.95.32,1.8.7,2.57,1.13.79.42,1.46.9,2.02,1.45.56.53.98,1.13,1.26,1.78.3.64.43,1.34.38,2.11-.04.75-.25,1.56-.6,2.44-.37.86-.86,1.77-1.46,2.75-.61.95-1.31,1.97-2.08,3.03-.75,1.06-1.55,2.16-2.39,3.31-.84,1.14-1.68,2.32-2.52,3.56-.82,1.22-1.6,2.49-2.32,3.8-.72,1.29-1.36,2.63-1.91,4.01-.55,1.36-.96,2.76-1.23,4.18-.28,1.44-.44,2.88-.48,4.32-.04,1.46,0,2.9.13,4.33.11,1.42.28,2.8.5,4.14.22,1.35.43,2.62.64,3.82.21,1.21.39,2.33.54,3.35.15,1.02.23,1.93.25,2.72,0,.79-.12,1.43-.34,1.93-.21.5-.57.83-1.08,1Z"/>
    <path class="cls-2" d="M184.32,350.27c-.5.19-1.12.24-1.86.14-.76-.08-1.6-.26-2.52-.55-.94-.27-1.94-.59-3.01-.97-1.07-.38-2.17-.78-3.32-1.19-1.15-.4-2.3-.78-3.45-1.14-1.15-.37-2.29-.66-3.41-.89-1.12-.23-2.19-.36-3.21-.4-1.03-.02-1.99.06-2.9.26-.89.2-1.73.5-2.53.89-.77.38-1.5.82-2.19,1.33-.7.49-1.35,1.02-1.96,1.58-.61.56-1.19,1.12-1.73,1.68-.56.54-1.09,1.06-1.6,1.55-.51.48-1.01.91-1.5,1.28-.48.36-.96.62-1.44.8-.48.19-.96.29-1.43.28-.49,0-.98-.09-1.47-.24-.51-.14-1.03-.35-1.57-.61-.53-.26-1.09-.56-1.66-.88-.57-.32-1.17-.66-1.78-1.03-.63-.35-1.29-.7-1.98-1.05-.68-.36-1.41-.69-2.19-.99-.76-.3-1.57-.55-2.42-.77-.83-.23-1.7-.43-2.61-.59-.9-.16-1.81-.31-2.74-.45-.91-.15-1.82-.3-2.72-.44-.91-.15-1.8-.32-2.65-.52-.86-.19-1.67-.41-2.44-.68-.77-.28-1.47-.61-2.12-.98-.66-.39-1.23-.84-1.71-1.36-.5-.52-.91-1.13-1.23-1.82-.31-.68-.53-1.42-.66-2.22-.13-.8-.18-1.64-.14-2.53.04-.9.17-1.81.39-2.73.22-.92.52-1.86.91-2.79.39-.94.86-1.86,1.41-2.76.57-.9,1.21-1.76,1.93-2.57.72-.83,1.52-1.61,2.4-2.32.87-.72,1.8-1.38,2.81-1.98,1.01-.59,2.05-1.15,3.13-1.69,1.09-.52,2.18-1.03,3.27-1.52,1.09-.49,2.16-.97,3.21-1.45,1.05-.5,2.05-1,2.99-1.53.96-.52,1.83-1.08,2.62-1.68.79-.59,1.46-1.24,2.02-1.96.57-.7,1.01-1.47,1.31-2.31.32-.85.51-1.76.56-2.72.08-.97.07-1.98-.03-3.02-.1-1.04-.25-2.11-.48-3.19-.2-1.1-.44-2.19-.71-3.29s-.53-2.17-.8-3.24c-.26-1.06-.49-2.09-.68-3.09-.21-1-.34-1.94-.41-2.81-.06-.89-.04-1.71.05-2.46.1-.75.27-1.42.51-2.01.23-.61.54-1.14.91-1.61.35-.45.76-.83,1.21-1.15.44-.32.92-.55,1.44-.7.51-.15,1.03-.24,1.58-.25.54,0,1.08.07,1.63.2.56.15,1.1.39,1.62.7.53.3,1.04.66,1.54,1.1.51.46,1,.95,1.48,1.48.48.53.96,1.09,1.44,1.67.47.58.95,1.16,1.45,1.75.48.58.98,1.15,1.48,1.7.49.53,1.01,1.03,1.55,1.5.54.46,1.11.86,1.7,1.18.59.33,1.2.57,1.85.72.64.16,1.32.23,2.03.22.71,0,1.45-.06,2.22-.19.77-.11,1.57-.27,2.41-.47.84-.2,1.7-.41,2.58-.65.9-.23,1.82-.47,2.77-.71.95-.24,1.93-.46,2.96-.67,1.01-.19,2.04-.36,3.1-.49,1.08-.13,2.17-.2,3.29-.2,1.1-.02,2.21,0,3.33.1s2.2.25,3.27.46c1.06.2,2.06.45,3,.77.95.32,1.8.7,2.57,1.13.79.42,1.46.9,2.02,1.45.56.53.98,1.13,1.26,1.78.3.64.43,1.34.38,2.11-.04.75-.25,1.56-.6,2.44-.37.86-.86,1.77-1.46,2.75-.61.95-1.31,1.97-2.08,3.03-.75,1.06-1.55,2.16-2.39,3.31-.84,1.14-1.68,2.32-2.52,3.56-.82,1.22-1.6,2.49-2.32,3.8-.72,1.29-1.36,2.63-1.91,4.01-.55,1.36-.96,2.76-1.23,4.18-.28,1.44-.44,2.88-.48,4.32-.04,1.46,0,2.9.13,4.33.11,1.42.28,2.8.5,4.14.22,1.35.43,2.62.64,3.82.21,1.21.39,2.33.54,3.35.15,1.02.23,1.93.25,2.72,0,.79-.12,1.43-.34,1.93-.21.5-.57.83-1.08,1Z"/>
    <path class="cls-1" d="M243.68,82.18c.14-.15.1-.39-.09-.48-30.28-14.51-3.19-75.62-13.04-79.72-16.13-6.71-24.01,5.7-24.77,6.99-.05.08-.1.14-.16.21-3.22,3.61-78.92,95.68-88.87,98,1.19,6.45,3.66,12.63,3.91,19.19l68.48-73.91c.5-.54,21.53-24.59,25.05-27.68.2-.17.49-.03.5.23l3,69.36c0,.18.19.31.37.29,1.92-.3,3.53-.49,5.01-.65,1.29-.42,2.59-.82,3.86-1.32-.04.01,1.64-.72,2.25-.97.43-.21.91-.45,1.01-.5,1.69-.85,3.36-1.75,5.02-2.66,1.43-.79,2.9-1.29,4.38-1.67,1.08-1.32,2.4-2.85,4.08-4.69Z"/>
    <path class="cls-4" d="M64.73,117.85c.36.4.9.78,1.63,1.16.74.39,1.6.77,2.59,1.14,1,.39,2.08.78,3.25,1.18,1.17.4,2.39.81,3.65,1.23,1.25.43,2.5.88,3.75,1.33,1.24.46,2.44.94,3.58,1.46,1.14.52,2.19,1.06,3.15,1.62.95.58,1.79,1.19,2.52,1.83.71.63,1.33,1.29,1.86,1.97.52.67.96,1.35,1.33,2.04.39.69.72,1.37,1,2.05.28.68.52,1.34.73,1.97.24.63.46,1.24.68,1.83.22.58.46,1.11.72,1.61.26.49.57.92.91,1.3.34.39.73.72,1.17.99.45.28.94.51,1.47.71.54.21,1.12.4,1.75.55.62.16,1.28.31,1.97.45.69.14,1.41.29,2.16.43.76.16,1.54.34,2.35.54.81.18,1.65.42,2.52.69.85.27,1.72.59,2.61.95.88.35,1.78.74,2.69,1.17.9.42,1.82.87,2.74,1.33.91.44,1.82.88,2.72,1.32.91.44,1.81.85,2.7,1.23.88.39,1.74.73,2.58,1.02.85.28,1.66.5,2.44.66.8.16,1.56.22,2.26.2.72-.01,1.4-.13,2.05-.35.63-.21,1.21-.52,1.74-.91.53-.39,1-.85,1.41-1.39.42-.55.76-1.15,1.04-1.81.27-.66.47-1.38.59-2.15.12-.77.16-1.57.11-2.42-.06-.85-.21-1.72-.46-2.61-.24-.9-.58-1.81-1.02-2.74-.43-.92-.95-1.84-1.57-2.78-.62-.92-1.29-1.86-2.01-2.79-.74-.93-1.48-1.86-2.23-2.77-.75-.91-1.48-1.81-2.2-2.7-.71-.9-1.37-1.77-1.97-2.62-.61-.85-1.13-1.68-1.55-2.49-.42-.8-.71-1.56-.86-2.31-.17-.74-.18-1.44-.03-2.1.14-.68.43-1.32.87-1.9.43-.61.95-1.19,1.57-1.74.62-.55,1.31-1.08,2.06-1.58.74-.52,1.52-1.02,2.33-1.5.81-.48,1.6-.95,2.38-1.42.78-.47,1.51-.93,2.19-1.4.7-.46,1.3-.93,1.8-1.39.51-.48.91-.96,1.21-1.46.3-.49.48-.98.56-1.47.1-.49.09-.97-.01-1.46-.09-.46-.27-.92-.53-1.37-.24-.44-.57-.85-.97-1.24-.39-.38-.82-.73-1.32-1.06-.5-.31-1.03-.59-1.6-.82-.59-.23-1.21-.41-1.84-.53-.63-.13-1.29-.22-1.97-.25-.7-.03-1.4-.03-2.11,0-.71.03-1.43.08-2.17.14-.72.07-1.46.13-2.22.18-.74.06-1.48.1-2.23.13-.72.03-1.45.02-2.19-.03-.73-.04-1.45-.14-2.16-.29-.71-.15-1.39-.37-2.06-.65-.67-.28-1.33-.63-1.97-1.05-.65-.41-1.3-.87-1.94-1.39-.65-.51-1.3-1.06-1.97-1.66-.67-.6-1.34-1.22-2.03-1.87-.7-.65-1.43-1.32-2.17-2.01s-1.54-1.39-2.37-2.1c-.82-.69-1.69-1.39-2.59-2.08-.92-.7-1.89-1.37-2.91-2.02-1-.65-2.03-1.27-3.1-1.86-1.07-.59-2.15-1.13-3.24-1.62-1.07-.5-2.12-.93-3.15-1.29-1.03-.36-2.01-.64-2.93-.83-.94-.21-1.8-.32-2.59-.33-.79-.01-1.47.09-2.06.3-.6.2-1.08.53-1.42,1-.34.46-.57,1.05-.69,1.77-.1.71-.12,1.53-.06,2.44.08.91.19,1.9.36,2.96.15,1.05.32,2.15.5,3.31.19,1.14.36,2.32.5,3.52.13,1.19.2,2.37.19,3.54,0,1.17-.1,2.31-.29,3.43-.19,1.11-.52,2.16-1,3.14-.48,1-1.07,1.92-1.76,2.78-.7.87-1.47,1.68-2.32,2.44-.83.76-1.69,1.47-2.56,2.11-.88.66-1.73,1.27-2.54,1.85-.81.58-1.55,1.13-2.21,1.63-.66.51-1.2.98-1.61,1.44-.4.46-.62.9-.67,1.32-.06.41.1.81.48,1.21Z"/>
  </g>
</svg>