<?xml version="1.0" encoding="UTF-8"?>
<svg id="Layer_2" data-name="Layer 2" xmlns="http://www.w3.org/2000/svg" viewBox="0 0 202.57 158.5">
  <defs>
    <style>
      .cls-1 {
        fill: #f0b357;
      }

      .cls-1, .cls-2, .cls-3, .cls-4, .cls-5, .cls-6 {
        stroke-miterlimit: 10;
      }

      .cls-1, .cls-3 {
        stroke: #221f20;
        stroke-width: .25px;
      }

      .cls-2 {
        stroke-width: .5px;
      }

      .cls-2, .cls-3, .cls-4 {
        fill: #c0b59e;
      }

      .cls-2, .cls-4 {
        stroke: #97867a;
      }

      .cls-7 {
        fill: #7ea692;
      }

      .cls-7, .cls-8, .cls-9, .cls-10, .cls-11, .cls-12, .cls-13 {
        stroke-width: 0px;
      }

      .cls-4 {
        stroke-width: .75px;
      }

      .cls-8, .cls-11 {
        fill: #e4c083;
      }

      .cls-9, .cls-11, .cls-13 {
        fill-rule: evenodd;
      }

      .cls-9, .cls-12 {
        fill: #3a8384;
      }

      .cls-5 {
        fill: none;
        stroke: #e4c082;
        stroke-width: 2px;
      }

      .cls-10 {
        fill: #7ea691;
      }

      .cls-6 {
        fill: #97867a;
        stroke: #70665a;
      }

      .cls-13 {
        fill: #73a892;
      }
    </style>
  </defs>
  <g id="Layer_1-2" data-name="Layer 1">
    <path class="cls-4" d="M.38,52.13s24.07,1.27,29.57-10.56,13.68-26.78,28.17-21.62v101.03s.16,2.56-3.55,3.25-50.6,0-50.6,0c0,0-2.97-.11-2.97-2.86S.38,52.13.38,52.13Z"/>
    <path class="cls-6" d="M8.78,63.55s17.79.94,21.84-7.8c4.06-8.74,10.11-19.78,20.81-15.98v74.64s.12,1.89-2.63,2.4-37.38,0-37.38,0c0,0-2.19-.08-2.19-2.12s-.45-51.15-.45-51.15Z"/>
    <path class="cls-3" d="M15.69,78.02s13.19,2.76,28.82,0c0,0-15.33,7.36-28.82,0Z"/>
    <path class="cls-3" d="M15.69,88.66s13.19,2.76,28.82,0c0,0-15.33,7.36-28.82,0Z"/>
    <path class="cls-3" d="M14.84,99.3s13.19,2.76,28.82,0c0,0-15.33,7.36-28.82,0Z"/>
    <circle class="cls-1" cx="54.76" cy="86.65" r="4.35"/>
    <path class="cls-2" d="M202.32,51.51s-24.07,1.27-29.57-10.56-13.68-26.78-28.17-21.62v101.03s-.16,2.56,3.55,3.25,50.6,0,50.6,0c0,0,2.97-.11,2.97-2.86s.61-69.23.61-69.23Z"/>
    <path class="cls-6" d="M193.92,62.93s-17.79.94-21.84-7.8c-4.06-8.74-10.11-19.78-20.81-15.98v74.64s-.12,1.89,2.63,2.4,37.38,0,37.38,0c0,0,2.19-.08,2.19-2.12s.45-51.15.45-51.15Z"/>
    <path class="cls-3" d="M187,77.4s-13.19,2.76-28.82,0c0,0,15.33,7.36,28.82,0Z"/>
    <path class="cls-3" d="M187,88.04s-13.19,2.76-28.82,0c0,0,15.33,7.36,28.82,0Z"/>
    <path class="cls-3" d="M187.86,98.68s-13.19,2.76-28.82,0c0,0,15.33,7.36,28.82,0Z"/>
    <circle class="cls-1" cx="147.93" cy="86.03" r="4.35"/>
    <path class="cls-12" d="M98.9,83.03l-.1,16.83c0,.24-.25.41-.49.34-.48-.14-.94-.24-1.38-.33.48,1.52,1.13,2.98,1.72,4.46.3-.17.69-.18,1,.15.65.7,1.4,1.24,2.21,1.69,0,0,.01-.01.02-.02.43-1.04.66-2.17.66-3.32v-31.43c0-2.78-3.64-1.55-3.64-1.55,0,0-22.03,6.8-25.56,8.03-3.35,1.17-2.82,4.02-2.76,4.3,0,.02,0,.03,0,.05.01.96,1.38,24.78.14,26.03,1.23.35,2.61.9,3.27,1.86l.08-19.43c0-.16.1-.29.26-.34l24.06-7.67c.24-.08.49.1.49.34Z"/>
    <path class="cls-5" d="M55.57,10.58c1.58,1.64-.13,3.28,1.45,4.93s3.29,0,4.86,1.65-.13,3.29,1.45,4.93,3.29,0,4.87,1.65"/>
    <path class="cls-10" d="M143.24,125c-.1.04-.21.08-.31.11,0,.01,0,.03,0,.04.2-.08.41-.16.61-.25-.1.03-.2.06-.3.09Z"/>
    <path class="cls-10" d="M141.1,75.13s-.08-.07-.12-.04c-6.82,5-17.19-8.28-19.27-6.58-3.41,2.79-1.59,6.01-1.39,6.34.01.02.02.04.03.06.42,1.15,11.89,28.91,11.22,31.4,1.57.5,3.24.69,4.73,1.41l-8.29-24.01c-.06-.18-2.91-7.71-3.18-8.86-.01-.06.05-.11.11-.08l15.77,7.58s.09,0,.11-.05c.16-.46.31-.84.45-1.19.06-.34.12-.67.16-1.01,0,.01.03-.45.05-.62,0-.12,0-.25,0-.29.01-.48.01-.95,0-1.43,0-.41.06-.8.15-1.17-.16-.4-.35-.87-.56-1.47Z"/>
    <path class="cls-5" d="M96.84.18c.41,2.24-2.77,2.82-2.36,5.06s3.59,1.66,3.99,3.91-2.77,2.82-2.36,5.07,3.59,1.67,3.99,3.91"/>
    <path class="cls-5" d="M144.32,19c-2.22.5-2.93-2.62-5.15-2.11s-1.51,3.63-3.74,4.13-2.93-2.62-5.16-2.11-1.52,3.63-3.74,4.13"/>
    <path class="cls-5" d="M58.92,134.03c-1.74,1.47-3.36-.43-5.09,1.04s-.12,3.38-1.85,4.86-3.36-.43-5.1,1.04-.12,3.39-1.86,4.86"/>
    <path class="cls-5" d="M93.73,153.88c.14-2.27,3.41-2.08,3.54-4.35s-3.14-2.47-3-4.75,3.41-2.08,3.54-4.36-3.14-2.47-3-4.75"/>
    <path class="cls-5" d="M146.18,149.42c-1.77-1.43-.17-3.42-1.95-4.85s-3.38.57-5.15-.86-.17-3.42-1.95-4.85-3.38.56-5.16-.87"/>
    <path class="cls-7" d="M112.3,13.98c.4.14.16-7.59.16-7.9,0,0,0-.01,0-.02-.02-.09-.14-.95.79-1.29.98-.35,7.1-2.29,7.1-2.29,0,0,1.01-.35.99.49l-.19,9.52c-.02.97-.52,1.88-1.35,2.31-.6.31-1.33.36-2.04-.42-.59-.66-.65-1.7-.06-2.36.4-.45,1.1-.74,2.31-.34.07.02.13-.03.14-.1l.13-5.1c0-.07-.07-.13-.13-.11l-6.68,2.19s-.07.05-.07.1l-.16,6.62c-.02.7-.33,1.37-.88,1.77-.28.2-.61.33-.99.29-.55-.06-1.05-.37-1.42-.68-.57-.48-.79-1.32-.46-2.01,0,0,.66-1.45,2.85-.68Z"/>
    <path class="cls-7" d="M75.02,155.11c.41.13,0-7.6,0-7.9,0,0,0-.01,0-.02-.02-.09-.16-.95.76-1.3.97-.37,7.05-2.43,7.05-2.43,0,0,1-.37,1,.47v9.52c0,.97-.49,1.89-1.31,2.34-.59.32-1.33.39-2.05-.38-.61-.64-.68-1.69-.11-2.36.39-.46,1.08-.77,2.3-.39.07.02.13-.03.13-.1l.03-5.1c0-.07-.07-.13-.14-.1l-6.64,2.32s-.07.06-.07.1l-.03,6.62c0,.7-.3,1.38-.85,1.79-.27.2-.6.35-.99.31-.55-.04-1.06-.35-1.43-.65-.58-.47-.81-1.3-.5-2,0,0,.63-1.46,2.83-.74Z"/>
    <path class="cls-12" d="M114.88,139.52l2.64,3.36s.02,0,.02,0c.07-.1.12-.19.17-.27.04-.08.07-.16.1-.25,0,0,.04-.11.05-.15,0-.03.02-.06.02-.07.04-.12.07-.24.1-.37.03-.11.07-.2.11-.29,0-.12,0-.25,0-.43,0-.01-.01-.02-.02-.02-1.72.67-2.87-3.67-3.41-3.42-.88.41-.74,1.4-.73,1.5,0,0,0,.01,0,.02,0,.35.39,9.25,0,9.1-2.1-.83-2.7.84-2.7.85,0,0,0,0,0,0-.29.8-.07,1.76.48,2.3.36.35.84.7,1.37.75.38.04.71-.14.97-.39.5-.47.77-1.25.78-2.04l.03-7.62c0-.05-.04-2.24-.02-2.56,0-.02.02-.02.03-.01Z"/>
    <path class="cls-12" d="M83.74,13.07l2.21,3.41s.02,0,.02,0c.06-.1.11-.19.16-.26.03-.08.07-.16.09-.24,0,0,.04-.11.05-.15,0-.03.02-.06.02-.07.03-.12.06-.24.1-.37.03-.11.06-.2.1-.29,0-.12,0-.26,0-.43,0-.01,0-.02-.02-.02-1.5.64-2.4-3.72-2.87-3.48-.77.39-.67,1.39-.66,1.49,0,0,0,.01,0,.02,0,.35.15,9.26-.18,9.09-1.79-.87-2.34.79-2.34.8,0,0,0,0,0,0-.27.8-.1,1.76.37,2.31.3.36.71.72,1.16.78.33.04.61-.13.85-.37.44-.46.69-1.23.71-2.03l.17-7.61c0-.05,0-2.24.04-2.56,0-.02.02-.02.02-.01Z"/>
    <path class="cls-13" d="M127.52,119.36c.13-.03.28-.11.45-.22.17-.12.36-.26.56-.44.2-.18.42-.37.65-.58.23-.21.46-.43.71-.66.25-.23.49-.45.74-.67.25-.22.5-.43.75-.62.25-.19.5-.36.74-.51.24-.14.48-.26.71-.34.23-.08.45-.14.66-.18.21-.04.41-.05.61-.05.2,0,.39,0,.57.02.18.02.36.04.53.07.17.02.33.05.49.07.15.02.3.03.44.03.14,0,.27-.02.4-.05.13-.03.25-.08.36-.14.12-.07.23-.15.33-.24.11-.09.22-.2.33-.32.11-.12.22-.25.33-.38.11-.14.23-.28.35-.43.13-.15.26-.3.4-.46.14-.16.29-.32.45-.48.16-.16.34-.31.52-.47.18-.15.37-.31.58-.46.2-.15.41-.3.62-.45.21-.15.41-.3.62-.45.21-.15.4-.3.59-.45.19-.15.37-.3.53-.45.16-.15.31-.31.44-.46.13-.16.23-.32.31-.48.08-.16.14-.33.17-.5.03-.17.03-.33,0-.49-.02-.16-.07-.32-.14-.48-.07-.16-.16-.31-.28-.45-.11-.14-.25-.27-.41-.39-.16-.12-.33-.22-.52-.31-.2-.09-.41-.16-.63-.21-.23-.05-.47-.09-.73-.1-.25-.01-.52,0-.8.02-.28.03-.57.07-.86.11-.3.05-.59.11-.88.17-.29.06-.58.11-.86.17-.28.05-.56.09-.82.13-.26.03-.51.05-.74.05-.23,0-.43-.03-.61-.08-.18-.05-.34-.13-.47-.24-.13-.11-.24-.25-.32-.42-.08-.17-.15-.35-.2-.55-.05-.2-.08-.42-.11-.65-.03-.23-.05-.46-.06-.7-.01-.24-.02-.47-.03-.7-.01-.23-.03-.45-.05-.65-.02-.21-.05-.4-.1-.57-.05-.17-.11-.32-.18-.44-.07-.12-.16-.22-.26-.3-.1-.08-.21-.14-.33-.17-.11-.03-.24-.05-.37-.05-.13,0-.26.02-.39.07-.13.04-.26.1-.39.17-.13.07-.25.16-.37.26-.12.1-.23.22-.34.35-.11.13-.2.26-.29.41-.09.15-.17.31-.25.47-.08.16-.15.33-.23.5-.07.17-.15.34-.22.51-.07.17-.15.34-.24.51-.08.16-.17.32-.27.48-.1.16-.2.31-.32.44-.12.14-.25.27-.39.38-.14.12-.3.22-.47.31-.17.1-.35.19-.54.27-.19.08-.39.16-.6.24-.21.08-.43.15-.66.23-.23.08-.46.16-.71.24s-.49.18-.75.28c-.25.1-.51.21-.77.33-.26.12-.53.26-.8.41-.26.14-.52.3-.78.47-.26.17-.51.34-.75.53-.24.18-.46.36-.66.55-.2.19-.38.37-.53.55-.16.18-.29.36-.38.54-.1.17-.16.34-.18.5-.03.16,0,.3.05.44.06.13.17.25.31.36.15.11.33.21.53.3.21.09.44.18.7.27.25.09.52.18.79.28.28.09.56.2.84.31.28.11.55.24.81.38.26.14.5.3.73.47.22.17.42.37.58.6.16.22.3.47.41.72.11.26.2.53.27.81.07.28.13.55.16.82.04.27.08.54.11.78.03.25.07.48.1.68.03.21.08.38.13.53.05.14.13.25.21.31.08.06.19.07.32.04Z"/>
    <path class="cls-9" d="M75.44,121.77c-.13.05-.28.06-.47.04-.19-.02-.4-.07-.64-.14-.24-.07-.49-.15-.76-.25-.27-.1-.55-.2-.84-.3-.29-.1-.58-.2-.87-.29-.29-.09-.58-.17-.86-.22-.28-.06-.55-.09-.81-.1-.26,0-.5.02-.73.07-.22.05-.44.13-.64.22-.2.09-.38.21-.55.34-.18.12-.34.26-.5.4-.15.14-.3.28-.44.42-.14.14-.28.27-.4.39-.13.12-.25.23-.38.32-.12.09-.24.16-.36.2-.12.05-.24.07-.36.07-.12,0-.25-.02-.37-.06-.13-.04-.26-.09-.39-.15-.13-.07-.27-.14-.42-.22-.14-.08-.29-.17-.45-.26-.16-.09-.33-.18-.5-.26-.17-.09-.36-.17-.55-.25-.19-.07-.4-.14-.61-.19-.21-.06-.43-.11-.66-.15-.23-.04-.46-.08-.69-.11-.23-.04-.46-.07-.69-.11-.23-.04-.45-.08-.67-.13-.22-.05-.42-.1-.62-.17-.19-.07-.37-.15-.53-.25-.17-.1-.31-.21-.43-.34-.13-.13-.23-.28-.31-.46-.08-.17-.13-.36-.17-.56-.03-.2-.04-.41-.03-.64.01-.23.04-.46.1-.69.05-.23.13-.47.23-.7.1-.24.22-.47.36-.7.14-.23.3-.44.49-.65.18-.21.38-.4.61-.58.22-.18.45-.35.71-.5.25-.15.52-.29.79-.43.28-.13.55-.26.82-.38.27-.12.54-.25.81-.37.27-.13.52-.25.75-.38.24-.13.46-.27.66-.42.2-.15.37-.31.51-.49.14-.18.25-.37.33-.58.08-.22.13-.44.14-.69.02-.24.02-.5,0-.76-.02-.26-.06-.53-.12-.8-.05-.28-.11-.55-.18-.83s-.13-.55-.2-.82c-.07-.27-.12-.53-.17-.78-.05-.25-.09-.49-.1-.71-.02-.22-.01-.43.01-.62.02-.19.07-.36.13-.51.06-.15.13-.29.23-.41.09-.11.19-.21.31-.29.11-.08.23-.14.36-.18.13-.04.26-.06.4-.06.14,0,.27.02.41.05.14.04.28.1.41.18.13.07.26.17.39.28.13.12.25.24.37.37.12.13.24.27.36.42.12.15.24.29.36.44.12.15.25.29.37.43.12.13.25.26.39.38.14.12.28.22.43.3.15.08.3.14.47.18.16.04.33.06.51.05.18,0,.37-.01.56-.05.19-.03.4-.07.61-.12.21-.05.43-.1.65-.16.23-.06.46-.12.7-.18.24-.06.49-.12.75-.17.25-.05.51-.09.78-.12.27-.03.55-.05.83-.05.28,0,.56,0,.84.03s.56.06.82.12c.27.05.52.11.76.2.24.08.45.18.65.28.2.11.37.23.51.37.14.13.25.28.32.45.08.16.11.34.1.53-.01.19-.06.39-.15.61-.09.22-.22.45-.37.69-.15.24-.33.5-.52.76-.19.27-.39.54-.6.83-.21.29-.42.59-.64.9-.21.31-.4.63-.58.96-.18.33-.34.66-.48,1.01-.14.34-.24.69-.31,1.05-.07.36-.11.73-.12,1.09-.01.37,0,.73.03,1.09.03.36.07.71.13,1.04.05.34.11.66.16.96.05.31.1.59.14.85.04.26.06.49.06.69,0,.2-.03.36-.09.49-.05.13-.14.21-.27.25Z"/>
    <path class="cls-9" d="M104.21,114.65c-.13.05-.28.06-.47.04-.19-.02-.4-.07-.64-.14-.24-.07-.49-.15-.76-.25-.27-.1-.55-.2-.84-.3-.29-.1-.58-.2-.87-.29-.29-.09-.58-.17-.86-.22-.28-.06-.55-.09-.81-.1-.26,0-.5.02-.73.07-.22.05-.44.13-.64.22-.2.09-.38.21-.55.34-.18.12-.34.26-.5.4-.15.14-.3.28-.44.42-.14.14-.28.27-.4.39-.13.12-.25.23-.38.32-.12.09-.24.16-.36.2-.12.05-.24.07-.36.07-.12,0-.25-.02-.37-.06-.13-.04-.26-.09-.39-.15-.13-.07-.27-.14-.42-.22-.14-.08-.29-.17-.45-.26-.16-.09-.33-.18-.5-.26-.17-.09-.36-.17-.55-.25-.19-.07-.4-.14-.61-.19-.21-.06-.43-.11-.66-.15-.23-.04-.46-.08-.69-.11-.23-.04-.46-.07-.69-.11-.23-.04-.45-.08-.67-.13-.22-.05-.42-.1-.62-.17-.19-.07-.37-.15-.53-.25-.17-.1-.31-.21-.43-.34-.13-.13-.23-.28-.31-.46-.08-.17-.13-.36-.17-.56-.03-.2-.04-.41-.03-.64.01-.23.04-.46.1-.69.05-.23.13-.47.23-.7.1-.24.22-.47.36-.7.14-.23.3-.44.49-.65.18-.21.38-.4.61-.58.22-.18.45-.35.71-.5.25-.15.52-.29.79-.43.28-.13.55-.26.82-.38.27-.12.54-.25.81-.37.27-.13.52-.25.75-.38.24-.13.46-.27.66-.42.2-.15.37-.31.51-.49.14-.18.25-.37.33-.58.08-.22.13-.44.14-.69.02-.24.02-.5,0-.76-.02-.26-.06-.53-.12-.8-.05-.28-.11-.55-.18-.83s-.13-.55-.2-.82c-.07-.27-.12-.53-.17-.78-.05-.25-.09-.49-.1-.71-.02-.22-.01-.43.01-.62.02-.19.07-.36.13-.51.06-.15.13-.29.23-.41.09-.11.19-.21.31-.29.11-.08.23-.14.36-.18.13-.04.26-.06.4-.06.14,0,.27.02.41.05.14.04.28.1.41.18.13.07.26.17.39.28.13.12.25.24.37.37.12.13.24.27.36.42.12.15.24.29.36.44.12.15.25.29.37.43.12.13.25.26.39.38.14.12.28.22.43.3.15.08.3.14.47.18.16.04.33.06.51.05.18,0,.37-.01.56-.05.19-.03.4-.07.61-.12.21-.05.43-.1.65-.16.23-.06.46-.12.7-.18.24-.06.49-.12.75-.17.25-.05.51-.09.78-.12.27-.03.55-.05.83-.05.28,0,.56,0,.84.03s.56.06.82.12c.27.05.52.11.76.2.24.08.45.18.65.28.2.11.37.23.51.37.14.13.25.28.32.45.08.16.11.34.1.53-.01.19-.06.39-.15.61-.09.22-.22.45-.37.69-.15.24-.33.5-.52.76-.19.27-.39.54-.6.83-.21.29-.42.59-.64.9-.21.31-.4.63-.58.96-.18.33-.34.66-.48,1.01-.14.34-.24.69-.31,1.05-.07.36-.11.73-.12,1.09-.01.37,0,.73.03,1.09.03.36.07.71.13,1.04.05.34.11.66.16.96.05.31.1.59.14.85.04.26.06.49.06.69,0,.2-.03.36-.09.49-.05.13-.14.21-.27.25Z"/>
    <path class="cls-8" d="M119.17,47.07s.02-.1-.02-.12c-7.63-3.66-.8-19.06-3.29-20.09-4.07-1.69-6.05,1.44-6.24,1.76-.01.02-.02.04-.04.05-.81.91-19.89,24.12-22.4,24.7.3,1.63.92,3.18.99,4.84l17.26-18.63c.13-.14,5.43-6.2,6.31-6.98.05-.04.12,0,.13.06l.75,17.48s.05.08.09.07c.48-.07.89-.12,1.26-.16.33-.1.65-.21.97-.33,0,0,.41-.18.57-.24.11-.05.23-.11.26-.13.43-.21.85-.44,1.27-.67.36-.2.73-.33,1.1-.42.27-.33.6-.72,1.03-1.18Z"/>
    <path class="cls-11" d="M74.07,56.07c.09.1.23.2.41.29.19.1.4.19.65.29.25.1.53.2.82.3.3.1.6.2.92.31.32.11.63.22.95.34.31.11.61.24.9.37.29.13.55.27.79.41.24.15.45.3.64.46.18.16.34.33.47.5.13.17.24.34.34.51.1.17.18.35.25.52.07.17.13.34.19.5.06.16.12.31.17.46.06.15.12.28.18.41.07.12.14.23.23.33.09.1.18.18.29.25.11.07.24.13.37.18.14.05.28.1.44.14.16.04.32.08.5.11.17.04.35.07.54.11.19.04.39.09.59.14.2.05.42.1.63.17.21.07.43.15.66.24.22.09.45.19.68.29.23.11.46.22.69.33.23.11.46.22.68.33.23.11.46.21.68.31.22.1.44.18.65.26.21.07.42.13.62.17.2.04.39.06.57.05.18,0,.35-.03.52-.09.16-.05.3-.13.44-.23.13-.1.25-.21.36-.35.11-.14.19-.29.26-.46.07-.17.12-.35.15-.54.03-.19.04-.4.03-.61-.02-.21-.05-.43-.11-.66-.06-.23-.15-.46-.26-.69-.11-.23-.24-.46-.4-.7-.16-.23-.33-.47-.51-.7-.19-.24-.37-.47-.56-.7-.19-.23-.37-.46-.55-.68-.18-.23-.35-.45-.5-.66-.15-.22-.28-.42-.39-.63-.11-.2-.18-.39-.22-.58-.04-.19-.04-.36,0-.53.04-.17.11-.33.22-.48.11-.15.24-.3.39-.44.16-.14.33-.27.52-.4.19-.13.38-.26.59-.38.2-.12.4-.24.6-.36.2-.12.38-.24.55-.35.18-.12.33-.23.45-.35.13-.12.23-.24.3-.37.07-.12.12-.25.14-.37.02-.12.02-.25,0-.37-.02-.12-.07-.23-.13-.34-.06-.11-.14-.21-.24-.31-.1-.1-.21-.19-.33-.27-.13-.08-.26-.15-.4-.21-.15-.06-.3-.1-.46-.13-.16-.03-.33-.05-.5-.06-.18,0-.35,0-.53,0-.18,0-.36.02-.55.03-.18.02-.37.03-.56.04-.19.01-.37.03-.56.03-.18,0-.37,0-.55,0-.18-.01-.37-.04-.54-.07-.18-.04-.35-.09-.52-.16-.17-.07-.33-.16-.5-.26-.16-.1-.33-.22-.49-.35-.16-.13-.33-.27-.5-.42-.17-.15-.34-.31-.51-.47-.18-.16-.36-.33-.55-.51s-.39-.35-.6-.53c-.21-.17-.43-.35-.65-.52-.23-.18-.48-.35-.73-.51-.25-.16-.51-.32-.78-.47-.27-.15-.54-.29-.82-.41-.27-.13-.53-.23-.79-.32-.26-.09-.51-.16-.74-.21-.24-.05-.45-.08-.65-.08-.2,0-.37.02-.52.08-.15.05-.27.13-.36.25-.09.12-.14.26-.17.44-.02.18-.03.38-.02.61.02.23.05.48.09.75.04.26.08.54.13.83.05.29.09.58.13.89.03.3.05.6.05.89,0,.29-.02.58-.07.86-.05.28-.13.54-.25.79-.12.25-.27.48-.44.7-.18.22-.37.42-.59.61-.21.19-.42.37-.65.53-.22.17-.44.32-.64.47-.2.15-.39.28-.56.41-.17.13-.3.25-.41.36-.1.12-.16.23-.17.33-.02.1.02.2.12.3Z"/>
  </g>
</svg>