<?xml version="1.0" encoding="UTF-8"?>
<svg id="Layer_2" data-name="Layer 2" xmlns="http://www.w3.org/2000/svg" viewBox="0 0 504.14 324.65">
  <defs>
    <style>
      .cls-1, .cls-2, .cls-3, .cls-4 {
        stroke-width: 0px;
      }

      .cls-1, .cls-3 {
        fill: #3a8384;
      }

      .cls-1, .cls-4 {
        fill-rule: evenodd;
      }

      .cls-2 {
        fill: #7ea691;
      }

      .cls-4 {
        fill: #73a892;
      }
    </style>
  </defs>
  <g id="Layer_1-2" data-name="Layer 1">
    <path class="cls-3" d="M241.02,76.7l-.58,96.01c0,1.38-1.4,2.33-2.78,1.94-2.75-.78-5.36-1.4-7.85-1.88,2.72,8.67,6.44,17.01,9.79,25.45,1.7-.99,3.91-1.01,5.73.84,3.7,3.97,7.98,7.08,12.58,9.67.04-.04.08-.09.12-.13,2.44-5.95,3.74-12.39,3.74-18.95V10.37c0-15.86-20.74-8.81-20.74-8.81,0,0-125.67,38.78-145.8,45.83-19.11,6.69-16.08,22.91-15.72,24.54.02.1.03.19.03.3.09,5.48,7.85,141.34.81,148.47,7.02,2,14.91,5.15,18.66,10.58l.48-110.85c0-.89.59-1.67,1.47-1.95l137.25-43.76c1.39-.44,2.82.56,2.81,1.97Z"/>
    <path class="cls-2" d="M383.73,268.8c-.14-.12-.26-.24-.38-.36-1.02,2.33-3.72,3.86-6.9,2.32-1.89-.92-3.96-1.7-6.12-2.37-1.03-.12-2.08-.14-3.15-.08.43.14.85.29,1.28.41,3.15.9,4.36,4.86,3.02,7.45,3.65-.05,7.33.17,11.03.66,3.35.44,5.01,3.35,4.77,5.92h8.25c4.22,0,5.67,4.29,4.36,7.25,1.2,1.05,1.73,2.57,1.6,4.05.82.22,1.65.46,2.47.72,1.75.55,2.81,1.79,3.26,3.22,2.94.61,5.85,1.31,8.75,2.12.04-13.68-23.97-24.15-32.26-31.31Z"/>
    <path class="cls-2" d="M318.95,293.89c-.63.02-1.27.02-1.91.03-.01.08-.02.17-.03.25,1.25-.06,2.49-.12,3.74-.18-.6-.03-1.2-.06-1.8-.09Z"/>
    <path class="cls-2" d="M503.9,114.24c0-.29-.28-.51-.56-.42-46.17,14.09-76.95-76.96-91.35-71.73-23.61,8.59-19.87,29.39-19.43,31.49.03.13.04.24.04.38.1,6.96,9.52,178.08,1.25,190.21,7.53,5.67,16.16,9.81,22.81,16.51l.61-144.87c0-1.06-1.12-46.98-.41-53.68.04-.37.49-.51.75-.25l70.65,70.53c.19.19.5.15.66-.05,1.75-2.18,3.26-3.96,4.67-5.56.96-1.7,1.94-3.39,2.8-5.15-.03.05,1.04-2.36,1.44-3.22.25-.64.52-1.35.59-1.52.96-2.55,1.85-5.12,2.72-7.7.75-2.22,1.82-4.19,3.02-6.03-.14-2.45-.23-5.35-.24-8.94Z"/>
    <path class="cls-4" d="M338.96,324.63c.77.07,1.72-.05,2.85-.36,1.16-.3,2.45-.74,3.85-1.31,1.43-.56,2.96-1.2,4.59-1.92,1.63-.72,3.31-1.47,5.06-2.25,1.75-.76,3.51-1.51,5.27-2.24,1.76-.73,3.5-1.37,5.2-1.94,1.71-.56,3.34-1.01,4.91-1.34,1.57-.31,3.05-.49,4.45-.52,1.37-.02,2.67.07,3.89.28,1.2.2,2.33.49,3.39.86,1.08.35,2.1.75,3.05,1.2.95.45,1.85.91,2.7,1.38.87.44,1.7.87,2.5,1.28.79.39,1.57.73,2.32,1.01.75.26,1.49.42,2.23.49.74.08,1.48.05,2.2-.09.75-.14,1.5-.37,2.25-.68.78-.3,1.57-.67,2.39-1.12.81-.44,1.65-.92,2.52-1.44.87-.52,1.77-1.06,2.7-1.64.96-.57,1.97-1.14,3.01-1.71,1.04-.59,2.15-1.16,3.34-1.72,1.16-.54,2.39-1.05,3.69-1.53,1.27-.49,2.6-.95,3.99-1.39,1.37-.43,2.77-.85,4.2-1.26,1.4-.42,2.78-.84,4.16-1.25,1.4-.42,2.75-.86,4.05-1.32,1.31-.44,2.55-.92,3.72-1.43,1.17-.53,2.25-1.09,3.23-1.68,1-.62,1.86-1.28,2.59-1.99.75-.72,1.36-1.5,1.84-2.37.46-.84.78-1.72.96-2.65.18-.93.23-1.87.15-2.84-.09-.98-.31-1.96-.67-2.93-.36-.97-.84-1.91-1.46-2.85-.62-.93-1.36-1.82-2.23-2.67-.89-.84-1.9-1.61-3.02-2.32-1.13-.72-2.38-1.36-3.75-1.9-1.34-.56-2.8-1.03-4.36-1.42-1.56-.37-3.17-.71-4.84-1.01-1.69-.27-3.37-.53-5.05-.77-1.68-.24-3.33-.48-4.95-.72-1.63-.26-3.17-.54-4.63-.86-1.48-.31-2.83-.68-4.06-1.13-1.22-.43-2.27-.97-3.15-1.61-.9-.62-1.59-1.35-2.07-2.2-.51-.86-.82-1.81-.93-2.86-.14-1.06-.15-2.18-.03-3.36.12-1.18.34-2.41.65-3.68.28-1.28.62-2.56,1-3.85.39-1.29.77-2.56,1.14-3.82.37-1.25.69-2.46.96-3.62.29-1.17.48-2.24.55-3.23.07-1,.03-1.91-.14-2.72-.17-.81-.44-1.51-.84-2.09-.37-.61-.85-1.12-1.43-1.53-.55-.4-1.18-.71-1.89-.93-.68-.23-1.43-.35-2.23-.37-.78-.03-1.59.02-2.42.16-.83.15-1.66.38-2.49.68-.85.33-1.68.74-2.47,1.23-.8.48-1.58,1.03-2.33,1.65-.77.65-1.51,1.34-2.23,2.06-.72.72-1.44,1.48-2.16,2.26-.7.77-1.43,1.55-2.18,2.34-.72.78-1.47,1.55-2.23,2.31-.74.73-1.52,1.43-2.34,2.1-.82.67-1.68,1.26-2.57,1.79-.89.53-1.83.96-2.81,1.32-.98.35-2.02.62-3.11.81-1.09.2-2.22.34-3.41.41-1.18.09-2.42.14-3.7.16-1.29.01-2.61.01-3.97,0-1.38,0-2.8-.01-4.26-.02s-2.98.03-4.55.08c-1.55.07-3.13.17-4.76.32-1.65.16-3.34.39-5.05.7-1.69.28-3.39.63-5.1,1.04-1.7.41-3.37.89-5.01,1.43-1.61.51-3.14,1.08-4.58,1.7-1.44.62-2.75,1.28-3.91,1.97-1.2.68-2.22,1.41-3.06,2.17-.85.75-1.48,1.53-1.89,2.33-.44.8-.62,1.61-.53,2.45.09.82.42,1.66.99,2.54.59.85,1.36,1.73,2.3,2.64.96.89,2.05,1.82,3.26,2.79,1.18.96,2.43,1.96,3.75,3.01,1.31,1.03,2.63,2.11,3.95,3.24,1.29,1.13,2.51,2.32,3.65,3.57,1.14,1.24,2.14,2.54,3.03,3.92.88,1.36,1.54,2.79,2,4.3.46,1.52.74,3.07.84,4.66.11,1.6.08,3.22-.09,4.84-.14,1.61-.36,3.19-.66,4.73-.3,1.56-.59,3.03-.89,4.42-.29,1.41-.54,2.7-.75,3.88-.21,1.18-.31,2.21-.31,3.09.02.88.21,1.56.57,2.04.33.49.89.76,1.68.81Z"/>
    <path class="cls-1" d="M100.89,291.14c-.71.27-1.6.34-2.67.2-1.09-.12-2.3-.38-3.62-.78-1.35-.39-2.79-.85-4.33-1.4-1.53-.55-3.13-1.11-4.77-1.71-1.65-.57-3.31-1.12-4.97-1.64-1.66-.53-3.29-.95-4.9-1.28-1.61-.32-3.15-.52-4.62-.57-1.48-.04-2.86.09-4.17.38-1.28.29-2.49.72-3.63,1.27-1.11.54-2.16,1.18-3.15,1.91-1,.71-1.95,1.46-2.82,2.27-.88.8-1.71,1.61-2.49,2.41-.8.77-1.57,1.52-2.31,2.24-.73.69-1.45,1.31-2.15,1.84-.69.51-1.39.9-2.07,1.15-.69.28-1.38.41-2.06.41-.7,0-1.41-.13-2.11-.35-.73-.21-1.48-.5-2.25-.88-.77-.38-1.56-.8-2.39-1.26-.82-.46-1.68-.96-2.56-1.48-.91-.51-1.86-1.01-2.85-1.5-.98-.52-2.03-1-3.15-1.43-1.1-.43-2.26-.8-3.48-1.11-1.19-.33-2.44-.61-3.75-.85-1.29-.23-2.6-.45-3.95-.64-1.31-.21-2.62-.42-3.91-.63-1.32-.21-2.59-.47-3.81-.75-1.23-.27-2.4-.59-3.51-.97-1.1-.41-2.12-.87-3.05-1.41-.95-.56-1.77-1.21-2.46-1.95-.71-.75-1.3-1.62-1.77-2.62-.45-.97-.76-2.04-.95-3.19-.19-1.15-.25-2.36-.2-3.63.06-1.29.25-2.6.56-3.93.31-1.33.75-2.67,1.31-4.01.56-1.35,1.23-2.67,2.03-3.97.81-1.29,1.74-2.52,2.77-3.7,1.04-1.2,2.19-2.31,3.46-3.34,1.24-1.03,2.59-1.98,4.05-2.85,1.45-.85,2.95-1.66,4.5-2.43,1.57-.75,3.14-1.48,4.7-2.18,1.56-.7,3.1-1.4,4.61-2.09,1.52-.71,2.95-1.44,4.3-2.19,1.38-.74,2.63-1.55,3.77-2.42,1.13-.84,2.1-1.78,2.91-2.82.83-1.01,1.45-2.11,1.89-3.32.46-1.23.73-2.53.81-3.91.11-1.4.09-2.85-.04-4.34-.14-1.5-.37-3.03-.68-4.59-.29-1.58-.63-3.16-1.02-4.73s-.77-3.13-1.14-4.65c-.37-1.53-.7-3-.97-4.44-.3-1.44-.49-2.78-.58-4.03-.09-1.27-.06-2.45.07-3.54.14-1.08.38-2.05.74-2.9.34-.87.77-1.64,1.3-2.31.51-.65,1.09-1.2,1.74-1.65.63-.45,1.33-.79,2.08-1.01.73-.22,1.48-.34,2.27-.36.78,0,1.56.1,2.34.29.8.22,1.58.56,2.34,1,.76.42,1.5.95,2.21,1.58.73.66,1.44,1.37,2.13,2.13.69.76,1.37,1.56,2.07,2.4.67.83,1.36,1.67,2.08,2.51.69.84,1.4,1.65,2.13,2.45.71.77,1.45,1.49,2.23,2.15.78.67,1.59,1.23,2.44,1.7.85.47,1.73.81,2.66,1.04.92.22,1.9.33,2.92.31,1.02,0,2.08-.08,3.19-.27,1.1-.16,2.26-.39,3.46-.67,1.2-.28,2.44-.6,3.7-.94,1.29-.34,2.61-.68,3.98-1.02,1.36-.34,2.78-.66,4.26-.96,1.45-.28,2.93-.51,4.45-.7,1.55-.19,3.12-.28,4.73-.29,1.59-.03,3.18.01,4.78.15s3.17.35,4.71.66c1.52.28,2.96.65,4.32,1.11,1.36.46,2.59,1,3.7,1.62,1.13.6,2.1,1.3,2.9,2.09.81.77,1.41,1.62,1.82,2.56.43.92.61,1.93.55,3.03-.06,1.08-.35,2.24-.87,3.51-.53,1.23-1.23,2.55-2.1,3.95-.88,1.37-1.88,2.83-2.99,4.36-1.08,1.52-2.23,3.1-3.44,4.76-1.2,1.63-2.41,3.34-3.62,5.11-1.18,1.76-2.29,3.58-3.33,5.46-1.03,1.86-1.95,3.78-2.74,5.76-.79,1.96-1.38,3.96-1.78,6.01-.4,2.07-.63,4.14-.69,6.21-.06,2.09,0,4.17.18,6.22.16,2.05.4,4.03.72,5.95.31,1.94.62,3.77.93,5.49.3,1.75.56,3.35.78,4.82.22,1.47.34,2.77.36,3.91,0,1.14-.17,2.06-.49,2.77-.3.72-.82,1.2-1.55,1.44Z"/>
    <path class="cls-1" d="M260.04,250.65c-.71.27-1.6.34-2.67.2-1.09-.12-2.3-.38-3.62-.78-1.35-.39-2.79-.85-4.33-1.4-1.53-.55-3.13-1.11-4.77-1.71-1.65-.57-3.31-1.12-4.97-1.64-1.66-.53-3.29-.95-4.9-1.28-1.61-.32-3.15-.52-4.62-.57-1.48-.04-2.86.09-4.17.38-1.28.29-2.49.72-3.63,1.27-1.11.54-2.16,1.18-3.15,1.91-1,.71-1.95,1.46-2.82,2.27-.88.8-1.71,1.61-2.49,2.41-.8.77-1.57,1.52-2.31,2.24-.73.69-1.45,1.31-2.15,1.84-.69.51-1.39.9-2.07,1.15-.69.28-1.38.41-2.06.41-.7,0-1.41-.13-2.11-.35-.73-.21-1.48-.5-2.25-.88-.77-.38-1.56-.8-2.39-1.26-.82-.46-1.68-.96-2.56-1.48-.91-.51-1.86-1.01-2.85-1.5-.98-.52-2.03-1-3.15-1.43-1.1-.43-2.26-.8-3.48-1.11-1.19-.33-2.44-.61-3.75-.85-1.29-.23-2.6-.45-3.95-.64-1.31-.21-2.62-.42-3.91-.63-1.32-.21-2.59-.47-3.81-.75-1.23-.27-2.4-.59-3.51-.97-1.1-.41-2.12-.87-3.05-1.41-.95-.56-1.77-1.21-2.46-1.95-.71-.75-1.3-1.62-1.77-2.62-.45-.97-.76-2.04-.95-3.19-.19-1.15-.25-2.36-.2-3.63.06-1.29.25-2.6.56-3.93.31-1.33.75-2.67,1.31-4.01.56-1.35,1.23-2.67,2.03-3.97.81-1.29,1.74-2.52,2.77-3.7,1.04-1.2,2.19-2.31,3.46-3.34,1.24-1.03,2.59-1.98,4.05-2.85,1.45-.85,2.95-1.66,4.5-2.43,1.57-.75,3.14-1.48,4.7-2.18,1.56-.7,3.1-1.4,4.61-2.09,1.52-.71,2.95-1.44,4.3-2.19,1.38-.74,2.63-1.55,3.77-2.42,1.13-.84,2.1-1.78,2.91-2.82.83-1.01,1.45-2.11,1.89-3.32.46-1.23.73-2.53.81-3.91.11-1.4.09-2.85-.04-4.34-.14-1.5-.37-3.03-.68-4.59-.29-1.58-.63-3.16-1.02-4.73s-.77-3.13-1.14-4.65c-.37-1.53-.7-3-.97-4.44-.3-1.44-.49-2.78-.58-4.03-.09-1.27-.06-2.45.07-3.54.14-1.08.38-2.05.74-2.9.34-.87.77-1.64,1.3-2.31.51-.65,1.09-1.2,1.74-1.65.63-.45,1.33-.79,2.08-1.01.73-.22,1.48-.34,2.27-.36.78,0,1.56.1,2.34.29.8.22,1.58.56,2.34,1,.76.42,1.5.95,2.21,1.58.73.66,1.44,1.37,2.13,2.13.69.76,1.37,1.56,2.07,2.4.67.83,1.36,1.67,2.08,2.51.69.84,1.4,1.65,2.13,2.45.71.77,1.45,1.49,2.23,2.15.78.67,1.59,1.23,2.44,1.7.85.47,1.73.81,2.66,1.04.92.22,1.9.33,2.92.31,1.02,0,2.08-.08,3.19-.27,1.1-.16,2.26-.39,3.46-.67,1.2-.28,2.44-.6,3.7-.94,1.29-.34,2.61-.68,3.98-1.02,1.36-.34,2.78-.66,4.26-.96,1.45-.28,2.93-.51,4.45-.7,1.55-.19,3.12-.28,4.73-.29,1.59-.03,3.18.01,4.78.15s3.17.35,4.71.66c1.52.28,2.96.65,4.32,1.11,1.36.46,2.59,1,3.7,1.62,1.13.6,2.1,1.3,2.9,2.09.81.77,1.41,1.62,1.82,2.56.43.92.61,1.93.55,3.03-.06,1.08-.35,2.24-.87,3.51-.53,1.23-1.23,2.55-2.1,3.95-.88,1.37-1.88,2.83-2.99,4.36-1.08,1.52-2.23,3.1-3.44,4.76-1.2,1.63-2.41,3.34-3.62,5.11-1.18,1.76-2.29,3.58-3.33,5.46-1.03,1.86-1.95,3.78-2.74,5.76-.79,1.96-1.38,3.96-1.78,6.01-.4,2.07-.63,4.14-.69,6.21-.06,2.09,0,4.17.18,6.22.16,2.05.4,4.03.72,5.95.31,1.94.62,3.77.93,5.49.3,1.75.56,3.35.78,4.82.22,1.47.34,2.77.36,3.91,0,1.14-.17,2.06-.49,2.77-.3.72-.82,1.2-1.55,1.44Z"/>
  </g>
</svg>