<?xml version="1.0" encoding="UTF-8"?>
<svg id="Layer_2" data-name="Layer 2" xmlns="http://www.w3.org/2000/svg" viewBox="0 0 165.26 154.31">
  <defs>
    <style>
      .cls-1 {
        fill: #72a88f;
      }

      .cls-1, .cls-2, .cls-3, .cls-4, .cls-5 {
        stroke-width: 0px;
      }

      .cls-2 {
        fill: #018585;
      }

      .cls-3, .cls-6, .cls-7, .cls-8 {
        fill: none;
      }

      .cls-6, .cls-7 {
        stroke: #72a88f;
      }

      .cls-6, .cls-7, .cls-8 {
        stroke-miterlimit: 10;
      }

      .cls-6, .cls-8 {
        stroke-width: 2px;
      }

      .cls-4 {
        fill: #9b8579;
      }

      .cls-9 {
        fill: #c75329;
        font-family: MyriadPro-Regular, 'Myriad Pro';
        font-size: 13px;
      }

      .cls-10 {
        fill: #c8342a;
        font-family: ArialRoundedMTBold, 'Arial Rounded MT Bold';
        font-size: 23.07px;
        letter-spacing: .1em;
      }

      .cls-5 {
        fill: #ccc0b4;
      }

      .cls-8 {
        stroke: #c75428;
      }
    </style>
  </defs>
  <g id="Layer_1-2" data-name="Layer 1">
    <path class="cls-6" d="M4.28,32.07c1.6,1.6-.89,4.08.71,5.68s4.08-.89,5.68.71-.89,4.08.71,5.68,4.08-.89,5.68.71-.89,4.08.71,5.68"/>
    <path class="cls-7" d="M135.09,60.1C103.88,24.97,84.29,2.26,84.29,2.26"/>
    <path class="cls-7" d="M33.49,60.1C64.71,24.97,84.29,2.26,84.29,2.26"/>
    <rect class="cls-5" x="29.28" y="57.65" width="110.02" height="69.81" rx="4.53" ry="4.53"/>
    <text class="cls-9" transform="translate(66.3 79.63)"><tspan x="0" y="0">VI HAR</tspan></text>
    <text class="cls-10" transform="translate(49.67 108.14)"><tspan x="0" y="0">ÅBEN</tspan></text>
    <rect class="cls-6" x="36.83" y="63.63" width="96.84" height="57.85" rx="4.53" ry="4.53"/>
    <line class="cls-3" x1="33.81" y1="57.65" x2="82.44" y2="7.67"/>
    <circle class="cls-4" cx="84.29" cy="4.72" r="4.72"/>
    <path class="cls-8" d="M18.19,73.37c-2.22-.5-1.51-3.63-3.74-4.13s-2.93,2.62-5.15,2.12-1.52-3.63-3.74-4.13-2.93,2.62-5.16,2.11"/>
    <path class="cls-8" d="M35.34,23.42c.25,2.26-3,2.62-2.75,4.88s3.49,1.91,3.74,4.18-2.99,2.62-2.75,4.89,3.49,1.91,3.74,4.18"/>
    <path class="cls-6" d="M161.16,147.95c-1.6-1.6.89-4.08-.71-5.68s-4.08.89-5.68-.71.89-4.08-.71-5.68-4.08.89-5.68-.71.89-4.08-.71-5.68"/>
    <path class="cls-8" d="M147.25,106.65c2.22.5,1.51,3.63,3.74,4.13s2.93-2.62,5.15-2.12,1.52,3.63,3.74,4.13,2.93-2.62,5.16-2.11"/>
    <path class="cls-8" d="M133.19,136.07c0,2.28-3.28,2.28-3.28,4.56s3.28,2.28,3.28,4.56-3.28,2.28-3.28,4.56,3.28,2.28,3.28,4.56"/>
    <path class="cls-2" d="M5.34,109.56c.85.09-2.84-14.05-2.96-14.6,0-.01,0-.02,0-.03-.07-.15-.67-1.69,1-2.71,1.76-1.08,12.88-7.29,12.88-7.29,0,0,1.82-1.09,2.14.47l3.57,17.6c.36,1.8-.24,3.7-1.68,4.84-1.04.83-2.45,1.24-4.16.1-1.43-.95-1.96-2.85-1.09-4.32.6-1.01,1.83-1.85,4.35-1.63.14.01.25-.11.22-.24l-1.86-9.44c-.03-.14-.18-.21-.3-.14l-12.11,6.93c-.08.04-.12.13-.1.22l2.43,12.26c.26,1.3-.08,2.68-.98,3.64-.45.48-1.05.88-1.81.97-1.1.14-2.2-.23-3.05-.64-1.31-.64-2.08-2.08-1.73-3.49,0,0,.68-2.95,5.26-2.48Z"/>
    <path class="cls-1" d="M20.79,119.76l2.75,5.18s.03.02.04,0c.14-.09.25-.17.36-.23.08-.08.17-.16.25-.24,0,0,.1-.11.14-.16.03-.03.05-.07.06-.08.1-.13.19-.26.29-.39.08-.11.17-.2.27-.29.03-.14.08-.3.14-.51,0-.02,0-.03-.02-.03-2.84,0-2.99-5.65-3.89-5.61-1.47.07-1.62,1.31-1.63,1.43,0,0,0,.01,0,.02-.12.41-2.77,11.08-3.29,10.72-2.85-1.95-4.36-.26-4.37-.25,0,0,0,0,0,0-.73.81-.74,2.04-.11,2.93.41.58,1.01,1.21,1.79,1.52.56.22,1.12.16,1.6-.01.92-.33,1.61-1.11,1.91-2.05l2.8-8.96c.02-.06.75-2.66.9-3.02,0-.02.04-.02.05,0Z"/>
    <path class="cls-2" d="M152.53,71.04c.45.05-1.52-7.52-1.58-7.82,0,0,0-.01,0-.02-.04-.08-.36-.9.53-1.45.94-.58,6.89-3.9,6.89-3.9,0,0,.97-.58,1.14.25l1.91,9.42c.19.96-.13,1.98-.9,2.59-.56.44-1.31.67-2.22.06-.76-.51-1.05-1.52-.59-2.31.32-.54.98-.99,2.33-.87.07,0,.13-.06.12-.13l-.99-5.05c-.01-.07-.1-.11-.16-.07l-6.48,3.71s-.06.07-.05.12l1.3,6.56c.14.7-.04,1.43-.53,1.95-.24.26-.56.47-.97.52-.59.07-1.18-.12-1.63-.34-.7-.34-1.11-1.11-.93-1.87,0,0,.36-1.58,2.82-1.33Z"/>
    <path class="cls-1" d="M145.19,29.63l8.17,5.97s.05,0,.07-.02c.14-.25.27-.45.38-.63.07-.19.14-.37.2-.56,0,0,.07-.25.09-.34.01-.07.03-.14.04-.16.06-.27.11-.54.15-.81.04-.23.12-.45.21-.65-.05-.24-.11-.53-.16-.89,0-.03-.04-.05-.06-.03-4.41,2.13-8.9-6.52-10.26-5.77-2.23,1.23-1.54,3.25-1.46,3.46,0,.01,0,.02.01.04.12.73,4.05,19.28,2.96,19.12-5.9-.88-6.97,2.88-6.97,2.9,0,0,0,0,0,0-.53,1.81.38,3.73,2.04,4.63,1.08.59,2.48,1.12,3.92,1.01,1.03-.08,1.85-.59,2.48-1.23,1.19-1.2,1.67-2.94,1.42-4.61l-2.41-16.02c-.02-.11-.84-4.69-.87-5.37,0-.04.04-.06.07-.04Z"/>
  </g>
</svg>