<?xml version="1.0" encoding="UTF-8"?>
<svg id="Layer_2" data-name="Layer 2" xmlns="http://www.w3.org/2000/svg" viewBox="0 0 220.96 226.55">
  <defs>
    <style>
      .cls-1 {
        fill: #008585;
      }

      .cls-1, .cls-2, .cls-3, .cls-4 {
        stroke-width: 0px;
      }

      .cls-5 {
        fill: #231f20;
        font-size: 17.05px;
      }

      .cls-5, .cls-6 {
        font-family: ArialRoundedMTBold, 'Arial Rounded MT Bold';
      }

      .cls-6 {
        fill: #c75428;
        font-size: 26.53px;
      }

      .cls-2 {
        fill: #72a890;
      }

      .cls-3 {
        fill: #bbb7b4;
      }

      .cls-4 {
        fill: #ccc0b4;
      }

      .cls-7 {
        fill: none;
        stroke: #c75428;
        stroke-miterlimit: 10;
        stroke-width: 2px;
      }

      .cls-8 {
        letter-spacing: -.02em;
      }
    </style>
  </defs>
  <g id="Layer_1-2" data-name="Layer 1">
    <polygon class="cls-3" points="196.26 98.03 196.26 178.2 220.96 178.2 220.96 98.7 196.26 98.03"/>
    <polygon class="cls-4" points="24.7 76.13 110.48 46.08 196.26 76.59 196.26 178.23 24.7 180.48 24.7 98.72 24.7 76.13"/>
    <text class="cls-5" transform="translate(61.12 93.79)"><tspan class="cls-8" x="0" y="0">R</tspan><tspan x="11.84" y="0">efshaleøen</tspan></text>
    <text class="cls-6" transform="translate(39.34 130.68)"><tspan x="0" y="0">E N G A G E</tspan></text>
    <path class="cls-2" d="M155.06,215.75c.77.25,0-14.39,0-14.96,0-.01,0-.02,0-.03-.03-.16-.31-1.8,1.44-2.47,1.85-.71,13.36-4.61,13.36-4.61,0,0,1.9-.71,1.9.89v18.03c0,1.84-.92,3.59-2.47,4.43-1.13.61-2.51.73-3.89-.73-1.15-1.22-1.29-3.19-.2-4.47.74-.88,2.05-1.45,4.36-.73.13.04.25-.06.25-.2l.05-9.66c0-.14-.13-.24-.26-.2l-12.58,4.4c-.08.03-.13.11-.13.2l-.05,12.55c0,1.33-.58,2.62-1.6,3.39-.51.39-1.14.65-1.87.6-1.05-.09-2.01-.66-2.72-1.24-1.1-.89-1.54-2.46-.95-3.78,0,0,1.19-2.76,5.36-1.39Z"/>
    <path class="cls-1" d="M79.47,195.6l4.31,6.37s.03.01.04,0c.11-.2.2-.36.28-.5.06-.15.12-.31.17-.47,0,0,.06-.21.09-.29.02-.06.03-.12.04-.14.06-.23.11-.46.17-.7.05-.2.11-.38.18-.54,0-.22-.01-.48-.01-.81,0-.03-.02-.05-.03-.04-2.82,1.27-4.69-6.95-5.57-6.48-1.44.78-1.21,2.65-1.19,2.84,0,.01,0,.02,0,.03,0,.66.63,17.53,0,17.24-3.43-1.57-4.41,1.59-4.41,1.61,0,0,0,0,0,0-.48,1.52-.12,3.34.78,4.36.59.66,1.37,1.33,2.24,1.43.62.07,1.16-.27,1.59-.74.82-.9,1.26-2.36,1.27-3.87l.04-14.43c0-.1-.07-4.24-.03-4.85,0-.03.03-.05.05-.02Z"/>
    <path class="cls-7" d="M35.36,62.95c-3.05-3.05.06-6.16-2.99-9.21-3.05-3.05-6.16.06-9.22-3s.05-6.17-3-9.22-6.17.05-9.22-3"/>
    <path class="cls-7" d="M116.15,0c0,4.32-6.22,4.32-6.22,8.64s6.22,4.32,6.22,8.64-6.22,4.32-6.22,8.64,6.22,4.32,6.22,8.64"/>
    <path class="cls-7" d="M213.44,38.51c-3.05,3.05-6.16-.06-9.21,2.99-3.05,3.05.06,6.16-3,9.22s-6.17-.05-9.22,3,.05,6.17-3,9.22"/>
    <path class="cls-2" d="M62.34,50.74c.77.25,0-14.39,0-14.96,0-.01,0-.02,0-.03-.03-.16-.31-1.8,1.44-2.47,1.85-.71,13.36-4.61,13.36-4.61,0,0,1.9-.71,1.9.89v18.03c0,1.84-.92,3.59-2.47,4.43-1.13.61-2.51.73-3.89-.73-1.15-1.22-1.29-3.19-.2-4.47.74-.88,2.05-1.45,4.36-.73.13.04.25-.06.25-.2l.05-9.66c0-.14-.13-.24-.26-.2l-12.58,4.4c-.08.03-.13.11-.13.2l-.05,12.55c0,1.33-.58,2.62-1.6,3.39-.51.39-1.14.65-1.87.6-1.05-.09-2.01-.66-2.72-1.24-1.1-.89-1.54-2.46-.95-3.78,0,0,1.19-2.76,5.36-1.39Z"/>
    <path class="cls-1" d="M167.21,32.68l5,6.37s.04.01.05,0c.12-.2.23-.36.33-.5.07-.15.14-.31.2-.47,0,0,.07-.21.1-.29.02-.06.04-.12.04-.14.07-.23.13-.46.19-.7.05-.2.13-.38.21-.54,0-.22-.02-.48-.02-.81,0-.03-.02-.05-.04-.04-3.27,1.27-5.44-6.95-6.46-6.48-1.67.78-1.41,2.65-1.37,2.84,0,.01,0,.02,0,.03,0,.66.74,17.53,0,17.24-3.97-1.57-5.11,1.59-5.11,1.61,0,0,0,0,0,0-.56,1.52-.14,3.34.91,4.36.68.66,1.59,1.33,2.59,1.43.72.07,1.34-.27,1.84-.74.95-.9,1.46-2.36,1.47-3.87l.05-14.43c0-.1-.08-4.24-.03-4.85,0-.03.03-.05.05-.02Z"/>
    <path class="cls-7" d="M113.59,191.99c0,4.32-6.22,4.32-6.22,8.64s6.22,4.32,6.22,8.64-6.22,4.32-6.22,8.64,6.22,4.32,6.22,8.64"/>
    <path class="cls-7" d="M53.05,187.08c-2.16,3.74-6.83,1.05-8.99,4.79s2.51,6.43.35,10.17-6.83,1.05-8.99,4.79,2.51,6.44.34,10.18"/>
    <path class="cls-7" d="M210.82,214.09c-3.17-2.92-.07-6.29-3.25-9.21s-6.28.44-9.45-2.49-.08-6.29-3.26-9.22-6.28.43-9.46-2.49"/>
    <polygon class="cls-3" points="24.7 100.3 24.7 180.48 0 180.48 0 100.98 24.7 100.3"/>
  </g>
</svg>