<svg width="42px" height="42px" viewBox="0 0 58 52" fill="none" xmlns="http://www.w3.org/2000/svg">
<path d="M40.4047 43.0128C41.7003 43.0128 42.7507 41.9781 42.7507 40.7017C42.7507 39.4254 41.7003 38.3906 40.4047 38.3906C39.109 38.3906 38.0586 39.4254 38.0586 40.7017C38.0586 41.9781 39.109 43.0128 40.4047 43.0128Z" fill="#FDF7DA" stroke="#038585" stroke-width="4" stroke-linecap="round" stroke-linejoin="round"/>
<path d="M24.764 43.0128C26.0597 43.0128 27.1101 41.9781 27.1101 40.7017C27.1101 39.4254 26.0597 38.3906 24.764 38.3906C23.4683 38.3906 22.418 39.4254 22.418 40.7017C22.418 41.9781 23.4683 43.0128 24.764 43.0128Z" fill="#FDF7DA" stroke="#038585" stroke-width="4" stroke-linecap="round" stroke-linejoin="round"/>
<path d="M17.7253 15.2807H44.3141L41.186 32.2288H20.8534L17.7253 15.2807ZM17.7253 15.2807C17.4647 14.2535 16.1613 12.1992 13.0332 12.1992" stroke="#038585" stroke-width="4" stroke-linecap="round" stroke-linejoin="round"/>
<path d="M41.1852 32.2305H20.8527H18.0855C15.2948 32.2305 13.8145 33.4341 13.8145 35.312C13.8145 37.1898 15.2948 38.3934 18.0855 38.3934H40.4032" stroke="#038585" stroke-width="4" stroke-linecap="round" stroke-linejoin="round"/>
</svg>
