<?xml version="1.0" encoding="UTF-8"?>
<svg id="Layer_2" data-name="Layer 2" xmlns="http://www.w3.org/2000/svg" viewBox="0 0 124.4 132.64">
  <defs>
    <style>
      .cls-1 {
        letter-spacing: -.03em;
      }

      .cls-2 {
        fill: #bd9c72;
        stroke-width: 0px;
      }

      .cls-3 {
        letter-spacing: .01em;
      }

      .cls-4 {
        fill: none;
        stroke: #414042;
        stroke-miterlimit: 10;
        stroke-width: 2px;
      }

      .cls-5 {
        fill: #414042;
        font-family: SignPainter-HouseScriptSemibold, SignPainter;
        font-size: 12px;
        font-weight: 600;
      }
    </style>
  </defs>
  <g id="Layer_1-2" data-name="Layer 1">
    <g>
      <path class="cls-2" d="M117.66,74.57s-21.06-7.95-40.79,10c0,0-29.66-10.31-41.05,9.99,0,0-7.48-18.74-5.14-36.2-.1-.06-.19-.11-.28-.18-.11-.08-.21-.17-.32-.25-8.44-1.46-17.92-3.1-21.69-10.1C4.59,73.35.24,114.14.24,114.14c0,0-2.92,12.75,11.53,13.08,6.22.14,27.95,1.33,50.7,2.65,11.46-.28,22.51-4.73,34.15-3.61,9.55.92,18.92,2.87,27.78,6.37l-6.75-58.06Z"/>
      <path class="cls-2" d="M66.62,11.6s2.34,1.19,5.41,2.68c.9-1.32,2.06-2.52,3.34-3.61-.38-.86-.81-1.64-1.27-2.36l-.1-.07s.02,0,.06.01c-1.92-2.99-4.48-5.05-6.93-7.65,0,0-.01,0-.01,0-8.1-2.08-20.79,1.93-20.79,1.93C11.38,10.17,8.3,48.11,8.3,48.11c4.22,6.27,24.53,4.92,24.53,4.92,0,0,1.27-10.24,2.4-18.52,1.13-8.28,11.73-9.06,11.73-9.06,0,0,6.98.34,13.76.69,1.92-.41,3.83-.92,5.23-2.38.71-.74,1.32-1.58,1.92-2.42l-5.7-2.88c-5.1-7.31,4.44-6.87,4.44-6.87Z"/>
      <path class="cls-2" d="M32.83,53.03s-1.26,1-2.16,5.33-21.08-5.21-21.08-5.21l-1.3-5.04,24.53,4.92Z"/>
      <path class="cls-2" d="M32.83,53.03s-4.36,32.34,4.69,38.89-16.95,0-16.95,0l-2.77-25.85,15.04-13.03Z"/>
      <path class="cls-2" d="M72.96,13.87c3.22,0,3.22-5,0-5s-3.22,5,0,5h0Z"/>
      <path class="cls-2" d="M72.32,14.59c3.22,0,3.22-5,0-5s-3.22,5,0,5h0Z"/>
      <path class="cls-2" d="M70.52,15.17c3.22,0,3.22-5,0-5s-3.22,5,0,5h0Z"/>
      <path class="cls-2" d="M67.85,15.38c3.22,0,3.22-5,0-5s-3.22,5,0,5h0Z"/>
      <path class="cls-2" d="M65.98,14.95c3.22,0,3.22-5,0-5s-3.22,5,0,5h0Z"/>
      <path class="cls-2" d="M64.04,15.17c3.22,0,3.22-5,0-5s-3.22,5,0,5h0Z"/>
      <path class="cls-2" d="M62.6,15.53c3.22,0,3.22-5,0-5s-3.22,5,0,5h0Z"/>
      <path class="cls-2" d="M73.04,14.01c3.22,0,3.22-5,0-5s-3.22,5,0,5h0Z"/>
      <path class="cls-2" d="M66.25,21.86c3.22,0,3.22-5,0-5s-3.22,5,0,5h0Z"/>
      <path class="cls-2" d="M64.12,20.94c3.22,0,3.22-5,0-5s-3.22,5,0,5h0Z"/>
      <path class="cls-2" d="M62.84,19.94c3.22,0,3.22-5,0-5s-3.22,5,0,5h0Z"/>
      <path class="cls-2" d="M61.77,18.59c3.22,0,3.22-5,0-5s-3.22,5,0,5h0Z"/>
      <path class="cls-2" d="M61.72,19.61l1.25.66c.37.2.77.37,1.11.62l-.51-.39c.07.06.13.11.19.18l-.39-.51s.04.07.06.11l-.25-.6s.03.09.04.14l-.09-.66c0,.06,0,.12,0,.18l.09-.66c-.02.15-.07.29-.13.43l.25-.6c-.09.21-.21.41-.35.59l.39-.51c-.08.1-.16.19-.25.27-.46.44-.73,1.14-.73,1.77-.01.34.06.67.22.96.1.31.27.58.52.8.48.44,1.1.76,1.77.73s1.28-.26,1.77-.73c.29-.28.54-.62.76-.95s.37-.74.52-1.11c.04-.11.07-.22.09-.33.1-.56.13-.97,0-1.53-.03-.14-.1-.27-.16-.41s-.1-.27-.18-.39c-.12-.19-.33-.49-.54-.67-.29-.25-.59-.47-.92-.65-.22-.12-.44-.24-.66-.35l-1.33-.71c-.59-.31-1.28-.43-1.93-.25-.33.08-.61.23-.85.45-.27.18-.49.41-.64.7-.31.58-.46,1.28-.25,1.93.2.61.57,1.19,1.15,1.49h0Z"/>
      <path class="cls-2" d="M64.2,15.29l3.18-.17c.52-.03,1.05-.04,1.57-.08,1-.08,1.9-.47,2.44-1.36.5-.84.51-1.92,0-2.76-.33-.54-.88-.98-1.49-1.15s-1.4-.09-1.93.25-1,.86-1.15,1.49-.1,1.34.25,1.93l.03.05-.34-1.26v.06c.04-.22.07-.44.1-.66v.06c.07-.2.15-.4.24-.6l-.03.06.39-.51-.05.05.51-.39-.07.04.6-.25c-.05.02-.11.03-.16.03l.66-.09c-1.58.11-3.16.17-4.75.25-.66.04-1.29.25-1.77.73-.43.43-.76,1.15-.73,1.77s.24,1.32.73,1.77,1.1.77,1.77.73h0Z"/>
      <path class="cls-2" d="M72.03,9.58c-.34.14-.7.24-1.07.29l.66-.09c-.13.02-.27.03-.4.03-.34-.01-.67.06-.96.22-.31.1-.58.27-.8.52-.24.23-.42.49-.52.8-.16.3-.23.62-.22.96l.09.66c.12.42.33.79.64,1.1l.51.39c.39.23.81.34,1.26.34.13,0,.25-.01.38-.03.34-.04.69-.08,1.02-.15.25-.05.5-.13.73-.23.33-.08.61-.23.85-.45.27-.18.49-.41.64-.7.18-.29.28-.6.3-.93.07-.33.06-.66-.04-1l-.25-.6c-.22-.38-.52-.67-.9-.9l-.6-.25c-.44-.12-.89-.12-1.33,0h0Z"/>
      <path class="cls-2" d="M66.81,15.47c1-.11,2.01-.07,3.01-.11.68-.03,1.37-.1,2.04-.22s1.28-.37,1.91-.65c.54-.24,1-.96,1.15-1.49.16-.6.09-1.4-.25-1.93s-.86-1-1.49-1.15l-.66-.09c-.45,0-.87.12-1.26.34l-.09.04.6-.25c-.49.2-.99.33-1.51.4l.66-.09c-1.36.18-2.74.05-4.1.2-.68.08-1.26.23-1.77.73-.43.43-.76,1.15-.73,1.77s.24,1.32.73,1.77c.46.42,1.12.81,1.77.73h0Z"/>
      <path class="cls-2" d="M65.06,15.49c3.22,0,3.22-5,0-5s-3.22,5,0,5h0Z"/>
      <path class="cls-2" d="M68.06,18.31c3.22,0,3.22-5,0-5s-3.22,5,0,5h0Z"/>
      <path class="cls-2" d="M65.53,17.78c3.22,0,3.22-5,0-5s-3.22,5,0,5h0Z"/>
      <path class="cls-2" d="M69.41,16.01c3.22,0,3.22-5,0-5s-3.22,5,0,5h0Z"/>
      <path class="cls-2" d="M68.71,17.07c3.22,0,3.22-5,0-5s-3.22,5,0,5h0Z"/>
      <path class="cls-2" d="M68.64,18.28c3.22,0,3.22-5,0-5s-3.22,5,0,5h0Z"/>
      <path class="cls-2" d="M68.67,17.67c3.22,0,3.22-5,0-5s-3.22,5,0,5h0Z"/>
      <path class="cls-2" d="M68.78,17.83c3.22,0,3.22-5,0-5s-3.22,5,0,5h0Z"/>
    </g>
    <path class="cls-4" d="M94.49,89.78h5.1c.32,0,.61-.19.74-.48l.42-.96c.11-.25.34-.43.6-.47l4.62-.81c.47-.08.9.25.95.72l.46,4.91c.02.23-.05.45-.21.62l-.68.75c-.19.21-.26.5-.18.77l1.53,5.18c.1.34.42.58.78.58h.87c.3,0,.58.17.72.44l2.29,4.42c.21.4.05.89-.35,1.09l-4.15,2.12c-.25.13-.54.12-.78-.02l-.81-.47c-.27-.16-.62-.15-.87.04l-4.45,3.12c-.27.19-.4.53-.32.85l.2.83c.06.26,0,.54-.19.73l-3.09,3.37c-.32.35-.86.35-1.19,0l-3.2-3.4c-.2-.22-.27-.53-.18-.81l.23-.7c.11-.34-.01-.71-.3-.91l-4.49-3.2c-.26-.19-.61-.2-.88-.04l-.9.53c-.23.14-.52.15-.77.03l-4.19-2.03c-.41-.2-.58-.7-.36-1.1l2.15-4.12c.13-.25.37-.41.65-.43l.86-.07c.32-.03.59-.24.7-.54l1.84-5.29c.1-.28.03-.59-.16-.81l-.88-.98c-.15-.17-.23-.4-.21-.62l.48-4.83c.05-.47.49-.8.95-.72l4.6.86c.2.04.38.15.51.32l.88,1.2c.15.21.4.33.65.33Z"/>
    <text class="cls-5" transform="translate(39.43 108.61)"><tspan class="cls-1" x="0" y="0">E</tspan><tspan x="4.06" y="0">NGA</tspan><tspan class="cls-3" x="20.87" y="0">G</tspan><tspan x="26.99" y="0">E</tspan></text>
  </g>
</svg>