<svg width="75" height="63" viewBox="0 0 75 63" fill="none" xmlns="http://www.w3.org/2000/svg">
<path fill-rule="evenodd" clip-rule="evenodd" d="M42.6003 0.970421C42.9793 1.1805 43.3342 1.54055 43.6648 2.05058C44.0133 2.56633 44.3418 3.18412 44.6503 3.90393C44.9767 4.62948 45.3025 5.42387 45.6279 6.28709C45.9532 7.15031 46.2885 8.0463 46.6338 8.97507C46.9908 9.89769 47.3593 10.8142 47.7393 11.7245C48.1194 12.6348 48.5332 13.4968 48.9807 14.3104C49.4282 15.124 49.9083 15.8593 50.421 16.5164C50.9454 17.1673 51.5076 17.7219 52.1078 18.1802C52.7016 18.6267 53.3281 18.9948 53.9872 19.2847C54.6285 19.5689 55.2881 19.79 55.9662 19.9479C56.639 20.1239 57.3103 20.255 57.9799 20.3413C58.6496 20.4275 59.3008 20.4931 59.9336 20.538C60.5612 20.6009 61.165 20.6612 61.7452 20.7188C62.3138 20.7825 62.8418 20.8678 63.3293 20.9746C63.8053 21.0875 64.2238 21.2462 64.585 21.4505C64.9577 21.6487 65.2672 21.8957 65.5136 22.1915C65.7663 22.4991 65.9732 22.8463 66.1343 23.233C66.3133 23.6255 66.4612 24.0573 66.5781 24.5285C66.6949 24.9997 66.8039 25.4979 66.905 26.0231C67.006 26.5484 67.105 27.0976 67.2018 27.6708C67.3166 28.2497 67.4466 28.8434 67.5919 29.4518C67.7256 30.0664 67.9041 30.6953 68.1273 31.3385C68.3441 31.9698 68.6084 32.6065 68.9201 33.2484C69.2138 33.8847 69.5492 34.5293 69.9261 35.1823C70.2967 35.8234 70.6852 36.4703 71.0916 37.1229C71.4801 37.7697 71.8655 38.4107 72.2477 39.0456C72.6362 39.6925 72.9921 40.3338 73.3153 40.9697C73.6501 41.5993 73.9376 42.2237 74.1776 42.8427C74.4061 43.4679 74.575 44.079 74.6845 44.6759C74.7888 45.2909 74.8066 45.8832 74.7382 46.4527C74.676 47.0342 74.5133 47.6081 74.2501 48.1744C73.9921 48.7227 73.6478 49.2483 73.2171 49.7512C72.7865 50.254 72.2868 50.725 71.7182 51.164C71.138 51.6091 70.5031 52.0072 69.8134 52.3581C69.1237 52.7091 68.3851 53.0098 67.5975 53.2604C66.8099 53.511 65.9907 53.7022 65.1399 53.8339C64.2828 53.9538 63.4115 54.0051 62.526 53.9878C61.6289 53.9766 60.726 53.8846 59.8173 53.712C58.915 53.5512 58.01 53.3157 57.1024 53.0054C56.2063 52.6889 55.3061 52.3366 54.4016 51.9485C53.5024 51.5423 52.6148 51.1299 51.7388 50.7114C50.8628 50.2929 49.9988 49.8833 49.147 49.4824C48.2836 49.0876 47.4423 48.7345 46.6232 48.4229C45.7977 48.0995 44.9896 47.8506 44.1988 47.6763C43.4196 47.4958 42.6589 47.4198 41.9166 47.4483C41.1795 47.4588 40.4704 47.5916 39.7891 47.8466C39.09 48.096 38.4271 48.4555 37.8006 48.9252C37.1562 49.3893 36.535 49.9248 35.9369 50.5318C35.3388 51.1388 34.7602 51.7963 34.201 52.5045C33.624 53.207 33.0654 53.9302 32.5252 54.674C31.9851 55.4178 31.4533 56.1496 30.93 56.8692C30.4066 57.5889 29.8849 58.2696 29.3647 58.9114C28.8509 59.5651 28.3402 60.1409 27.8326 60.6389C27.3135 61.143 26.7944 61.5634 26.2753 61.8999C25.7562 62.2365 25.2487 62.4831 24.7527 62.6397C24.2515 62.8144 23.7593 62.9082 23.276 62.9211C22.8106 62.9396 22.3605 62.8892 21.9256 62.7697C21.4971 62.662 21.0985 62.4851 20.73 62.239C20.3678 62.0047 20.0393 61.7221 19.7445 61.3911C19.4613 61.054 19.2181 60.6804 19.0148 60.2703C18.8169 59.8422 18.6769 59.3833 18.5948 58.8937C18.5011 58.4102 18.4595 57.8991 18.47 57.3603C18.4859 56.8035 18.5338 56.2372 18.6138 55.6615C18.6939 55.0858 18.7881 54.4949 18.8966 53.8889C19.0114 53.2947 19.1198 52.6887 19.222 52.0708C19.3305 51.4648 19.4242 50.8589 19.5032 50.2533C19.5769 49.6657 19.6154 49.0816 19.6185 48.501C19.6217 47.9204 19.5696 47.3616 19.4622 46.8244C19.3548 46.2873 19.1806 45.7781 18.9395 45.2967C18.6984 44.8153 18.3873 44.3559 18.0061 43.9184C17.6365 43.4748 17.2085 43.0469 16.7221 42.6349C16.2472 42.2167 15.7281 41.7991 15.1648 41.3822C14.6015 40.9652 14.0145 40.5456 13.4038 40.1234C12.7868 39.6892 12.1546 39.2403 11.507 38.7767C10.8595 38.3131 10.2019 37.8167 9.53439 37.2875C8.88475 36.764 8.23984 36.2076 7.59967 35.6182C6.95319 35.0169 6.33461 34.3703 5.74393 33.6784C5.14799 33.0046 4.58627 32.2973 4.05878 31.5567C3.53128 30.816 3.05327 30.0567 2.62475 29.2788C2.19096 28.5188 1.82509 27.7609 1.52713 27.0051C1.22917 26.2492 1.01176 25.5191 0.874905 24.8148C0.720145 24.1048 0.666992 23.4322 0.715447 22.7971C0.752318 22.1681 0.900273 21.5945 1.15931 21.0761C1.40045 20.5519 1.7711 20.1038 2.27125 19.7316C2.75982 19.3655 3.37159 19.0636 4.10655 18.8257C4.83624 18.6059 5.66174 18.4266 6.58306 18.2878C7.49912 18.1671 8.49257 18.0662 9.56341 17.9852C10.6163 17.8984 11.7225 17.8139 12.8817 17.7316C14.0294 17.6554 15.2087 17.5549 16.4196 17.43C17.6126 17.2993 18.8066 17.1148 20.0017 16.8764C21.1852 16.6441 22.3514 16.3373 23.5001 15.9559C24.6373 15.5806 25.7208 15.1044 26.7506 14.5272C27.7919 13.9438 28.7717 13.2865 29.6899 12.5553C30.6197 11.8179 31.4947 11.0334 32.3149 10.2018C33.1415 9.38207 33.9118 8.55417 34.6257 7.71809C35.3512 6.87587 36.0309 6.07319 36.6648 5.31007C37.3102 4.5408 37.911 3.841 38.4669 3.21066C39.0229 2.58032 39.5441 2.05222 40.0306 1.62636C40.5234 1.21238 40.983 0.945494 41.4094 0.825724C41.8296 0.694073 42.2265 0.742309 42.6003 0.970421Z" fill="#74A892"/>
</svg>
