<svg width="63" height="50" viewBox="0 0 63 50" fill="none" xmlns="http://www.w3.org/2000/svg">
<path fill-rule="evenodd" clip-rule="evenodd" d="M1.15266 35.4577C1.51127 35.6824 2.00681 35.8586 2.63929 35.9863C3.28461 36.1256 4.02166 36.2295 4.85044 36.2979C5.69206 36.3778 6.60081 36.4429 7.57669 36.4934C8.55257 36.5438 9.56455 36.5945 10.6126 36.6455C11.6594 36.7059 12.7048 36.7758 13.7489 36.8552C14.7929 36.9346 15.8033 37.0479 16.78 37.1952C17.7566 37.3425 18.6699 37.5292 19.5198 37.7553C20.3684 37.9909 21.138 38.2734 21.8288 38.6029C22.5054 38.9303 23.1186 39.2972 23.6684 39.7034C24.2054 40.0983 24.6881 40.5193 25.1165 40.9665C25.5604 41.4062 25.9598 41.8541 26.3146 42.3103C26.6695 42.7665 26.9967 43.214 27.2961 43.6527C27.6111 44.0839 27.914 44.4989 28.2047 44.8977C28.4967 45.287 28.7934 45.6431 29.0947 45.9661C29.3974 46.2795 29.7217 46.5428 30.0675 46.7559C30.4119 46.9785 30.7786 47.1462 31.1674 47.2591C31.5704 47.3739 31.9936 47.448 32.437 47.4815C32.8933 47.5264 33.3755 47.5411 33.8836 47.5257C34.3917 47.5102 34.9231 47.4835 35.4778 47.4456C36.0325 47.4077 36.6098 47.3633 37.2096 47.3124C37.8223 47.273 38.4556 47.2414 39.1095 47.2174C39.7647 47.184 40.452 47.1793 41.1715 47.2033C41.8767 47.2253 42.6063 47.2797 43.3602 47.3666C44.1012 47.442 44.8673 47.5451 45.6584 47.6759C46.4353 47.8047 47.225 47.945 48.0276 48.0967C48.8173 48.237 49.5999 48.3763 50.3755 48.5145C51.1652 48.6548 51.9364 48.7731 52.6889 48.8695C53.4402 48.9753 54.167 49.0487 54.8696 49.0897C55.5735 49.1211 56.2396 49.1134 56.8678 49.0666C57.5115 49.0122 58.0981 48.9014 58.6277 48.7342C59.1714 48.569 59.6671 48.3342 60.1148 48.0298C60.547 47.7329 60.9221 47.3795 61.2402 46.9698C61.5582 46.56 61.8171 46.1081 62.0169 45.614C62.2181 45.1104 62.351 44.5779 62.4158 44.0164C62.4806 43.4549 62.4765 42.8692 62.4035 42.2594C62.3306 41.6495 62.1867 41.0296 61.972 40.3997C61.7432 39.7678 61.4414 39.1402 61.0668 38.5168C60.6935 37.884 60.2389 37.2638 59.703 36.6564C59.1813 36.051 58.5854 35.4593 57.9152 34.8813C57.2437 34.3128 56.5355 33.7488 55.7904 33.1893C55.0299 32.6372 54.268 32.0947 53.5048 31.5616C52.7416 31.0286 51.9919 30.5022 51.2556 29.9826C50.5208 29.4536 49.8355 28.9315 49.1998 28.4164C48.55 27.8993 47.9802 27.379 47.4903 26.8554C46.999 26.3413 46.6174 25.8185 46.3455 25.287C46.058 24.7629 45.9015 24.2331 45.8759 23.6976C45.8374 23.1506 45.9214 22.6063 46.1279 22.0648C46.3216 21.5118 46.5946 20.9603 46.9468 20.4103C47.2991 19.8603 47.7087 19.3136 48.1757 18.7701C48.6299 18.2151 49.1117 17.6689 49.6212 17.1314C50.1308 16.5939 50.6319 16.0648 51.1245 15.5443C51.6172 15.0238 52.0724 14.5125 52.4902 14.0104C52.9221 13.5103 53.2792 13.0287 53.5614 12.5655C53.8449 12.0929 54.0465 11.6377 54.1661 11.2C54.2857 10.7623 54.3219 10.3516 54.2749 9.96778C54.2434 9.57648 54.1363 9.2084 53.9537 8.86351C53.7839 8.53011 53.5527 8.22191 53.2601 7.93891C52.9818 7.65791 52.6478 7.41259 52.2581 7.20296C51.8827 6.99532 51.4735 6.82162 51.0306 6.68185C50.5864 6.55157 50.1227 6.45722 49.6394 6.39881C49.1407 6.34788 48.6352 6.34437 48.1231 6.38827C47.6122 6.42268 47.0954 6.49977 46.5726 6.61954C46.0342 6.74679 45.4996 6.89874 44.9687 7.0754C44.4378 7.25206 43.8978 7.44194 43.3488 7.64505C42.8139 7.85016 42.2648 8.05327 41.7016 8.25438C41.1525 8.45749 40.5977 8.65012 40.0371 8.83227C39.4921 9.00693 38.9362 9.15589 38.3695 9.27914C37.8028 9.4024 37.235 9.48198 36.6661 9.51789C36.0973 9.55381 35.5287 9.53656 34.9604 9.46617C34.3921 9.39577 33.817 9.27123 33.2351 9.09253C32.6518 8.92331 32.0604 8.70943 31.4608 8.45087C30.8599 8.2018 30.2417 7.92128 29.6063 7.60932C28.9709 7.29736 28.3234 6.96918 27.6636 6.62478C26.9897 6.27838 26.2952 5.92424 25.5801 5.56237C24.865 5.2005 24.1138 4.83837 23.3265 4.476C22.552 4.1251 21.7472 3.78444 20.912 3.454C20.0627 3.12157 19.1803 2.81834 18.2649 2.5443C17.365 2.26277 16.4462 2.01244 15.5086 1.7933C14.571 1.57416 13.6351 1.39395 12.7009 1.25267C11.7823 1.1039 10.8931 1.0028 10.0333 0.949361C9.17346 0.895923 8.37142 0.894145 7.62713 0.944024C6.87001 0.982425 6.19057 1.08496 5.58883 1.25164C4.98841 1.40883 4.48694 1.63315 4.08443 1.92461C3.66907 2.20458 3.38034 2.56043 3.21823 2.99214C3.05747 3.41437 3.00915 3.91047 3.07329 4.48044C3.15294 5.04292 3.31094 5.6648 3.54729 6.34608C3.79916 7.01987 4.1017 7.74432 4.45492 8.51943C4.7953 9.28306 5.15935 10.0839 5.54706 10.9219C5.93611 11.7504 6.31406 12.6063 6.68091 13.4898C7.03492 14.3617 7.33664 15.2456 7.58609 16.1415C7.83687 17.0279 8.00768 17.9175 8.09853 18.8104C8.19072 19.6938 8.16243 20.5603 8.01367 21.4097C7.86356 22.2687 7.61624 23.0994 7.27171 23.9019C6.92584 24.7139 6.51178 25.497 6.02952 26.2511C5.56144 27.0072 5.06261 27.7252 4.53302 28.4049C4.00209 29.0941 3.49136 29.7427 3.00083 30.3506C2.50895 30.9679 2.06696 31.5391 1.67485 32.0642C1.28274 32.5892 0.976619 33.0683 0.756482 33.5015C0.550514 33.9367 0.475062 34.3178 0.530124 34.6447C0.571014 34.9696 0.778527 35.2406 1.15266 35.4577Z" fill="#74A892"/>
</svg>
