<svg width="81" height="51" viewBox="0 0 81 51" fill="none" xmlns="http://www.w3.org/2000/svg">
<path fill-rule="evenodd" clip-rule="evenodd" d="M1.53359 36.316C1.29815 35.8805 1.13743 35.418 1.05141 34.9282C0.965408 34.4385 0.947909 33.9366 0.998931 33.4224C1.05409 32.8982 1.15459 32.3522 1.30044 31.7843C1.45761 31.2327 1.65806 30.6642 1.9018 30.0788C2.1414 29.5033 2.39907 28.9062 2.67477 28.2875C2.96179 27.6852 3.26273 27.0712 3.57759 26.4455C3.89245 25.8198 4.19959 25.1909 4.499 24.5588C4.81799 23.9231 5.11175 23.2829 5.38027 22.6379C5.66011 22.0093 5.907 21.3728 6.12092 20.7284C6.33484 20.0841 6.50962 19.4467 6.64524 18.8163C6.78085 18.186 6.87938 17.5576 6.94083 16.9313C7.01772 16.3115 7.06524 15.6969 7.08341 15.0875C7.10156 14.4782 7.09602 13.8822 7.06676 13.2997C7.05708 12.7137 7.04327 12.1376 7.02533 11.5714C7.00326 11.0152 6.97705 10.4689 6.94672 9.93247C6.93183 9.4025 6.92619 8.89382 6.9298 8.40645C6.93754 7.90916 6.96431 7.43142 7.01012 6.97323C7.07138 6.52147 7.1594 6.09247 7.27418 5.68623C7.39308 5.27007 7.54648 4.8799 7.73436 4.51569C7.93768 4.1579 8.1832 3.8293 8.47093 3.52988C8.76279 3.22054 9.09892 2.93542 9.47932 2.67453C9.85559 2.42356 10.2741 2.20178 10.7347 2.00918C11.1996 1.80666 11.6989 1.63011 12.2326 1.47954C12.7623 1.33889 13.3207 1.21604 13.908 1.111C14.4912 1.01588 15.0934 0.940313 15.7147 0.8843C16.3472 0.844628 16.9988 0.824512 17.6694 0.823949C18.3246 0.816968 18.9947 0.83946 19.6797 0.891427C20.3647 0.943397 21.0589 1.01667 21.7624 1.11125C22.4659 1.20583 23.1688 1.32346 23.8713 1.46415C24.5737 1.60483 25.2678 1.76537 25.9537 1.94574C26.655 2.13254 27.3502 2.33423 28.0391 2.55079C28.7281 2.76736 29.4185 3.00202 30.1105 3.25477C30.8066 3.4976 31.5063 3.75356 32.2096 4.02266C32.9088 4.30168 33.6178 4.57895 34.3365 4.85447C35.0512 5.13991 35.7735 5.42856 36.5036 5.72042C37.2378 6.00236 37.9874 6.29072 38.7525 6.5855C39.5217 6.87036 40.3028 7.14851 41.0957 7.41994C41.8999 7.70772 42.7202 7.97886 43.5564 8.23337C44.3926 8.48788 45.2504 8.73393 46.1299 8.97151C47.0094 9.20909 47.9147 9.42829 48.8457 9.62911C49.7768 9.82992 50.7295 10.0223 51.7038 10.2062C52.6585 10.3936 53.6349 10.5725 54.633 10.7429C55.6155 10.907 56.5981 11.071 57.5807 11.2351C58.5829 11.3956 59.5732 11.5629 60.5516 11.7368C61.5301 11.9108 62.4967 12.0915 63.4514 12.2789C64.4062 12.4663 65.3372 12.6671 66.2446 12.8813C67.1519 13.0956 68.0335 13.3282 68.8892 13.5792C69.7409 13.8401 70.557 14.1212 71.3375 14.4224C72.1067 14.7072 72.8419 15.0303 73.5431 15.3916C74.2288 15.7465 74.865 16.1333 75.4517 16.5518C76.023 16.9639 76.5526 17.411 77.0403 17.8931C77.5168 18.3589 77.9402 18.8434 78.3105 19.3465C78.6767 19.8596 78.994 20.3814 79.2623 20.912C79.511 21.446 79.7128 21.9839 79.8678 22.5255C80.0228 23.0672 80.1232 23.6094 80.169 24.1523C80.2147 24.6951 80.2003 25.2303 80.1255 25.758C80.0549 26.2757 79.9339 26.7841 79.7623 27.2831C79.5753 27.7757 79.3343 28.2459 79.0392 28.6935C78.7441 29.1412 78.397 29.5614 77.9979 29.9542C77.603 30.3371 77.1385 30.6911 76.6046 31.0162C76.0902 31.3378 75.5336 31.6302 74.9348 31.8934C74.3205 32.1502 73.6775 32.3892 73.0056 32.6104C72.3337 32.8316 71.633 33.035 70.9034 33.2206C70.1739 33.4061 69.4366 33.5885 68.6916 33.7677C67.9467 33.9468 67.2037 34.1211 66.4629 34.2903C65.7025 34.463 64.9575 34.6422 64.2279 34.8278C63.5138 35.0198 62.8131 35.2232 62.1258 35.438C61.4384 35.6527 60.7876 35.8885 60.1734 36.1453C59.5592 36.4021 58.9892 36.6831 58.4635 36.9884C57.9337 37.3036 57.4538 37.6511 57.0238 38.0311C56.5979 38.4011 56.222 38.8035 55.896 39.2384C55.5546 39.6668 55.2595 40.1145 55.0107 40.5814C54.7465 41.0419 54.5132 41.5153 54.3108 42.0015C54.0929 42.4812 53.9003 42.9657 53.7329 43.4548C53.55 43.9375 53.379 44.4135 53.2199 44.8827C53.0608 45.352 52.8924 45.8 52.7147 46.2266C52.5525 46.6597 52.3734 47.0683 52.1772 47.4523C51.9811 47.8364 51.7567 48.1796 51.504 48.4819C51.2626 48.8006 50.9872 49.0703 50.678 49.2909C50.3687 49.5115 50.0157 49.6848 49.6189 49.8109C49.2222 49.937 48.7817 50.0157 48.2975 50.0473C47.8329 50.0753 47.3204 50.0659 46.76 50.0192C46.1997 49.9725 45.6013 49.8867 44.9648 49.7617C44.3396 49.6531 43.6743 49.5104 42.9688 49.3335C42.2592 49.1666 41.5151 48.9737 40.7366 48.7548C39.9735 48.5423 39.1717 48.3137 38.3314 48.0691C37.491 47.8246 36.6198 47.5671 35.7177 47.2969C34.8156 47.0266 33.8861 46.7566 32.9294 46.4869C31.9727 46.2172 30.9943 45.956 29.9943 45.7032C28.983 45.4341 27.948 45.1785 26.8893 44.9362C25.8347 44.684 24.7661 44.4435 23.6837 44.2147C22.5899 43.9695 21.5018 43.7325 20.4194 43.5037C19.3369 43.2748 18.2643 43.0442 17.2014 42.8119C16.1427 42.5696 15.1092 42.332 14.1009 42.0991C13.0813 41.8499 12.0988 41.5986 11.1534 41.3452C10.208 41.0919 9.30591 40.8216 8.44707 40.5344C7.60368 40.2536 6.81129 39.9591 6.06992 39.6509C5.32854 39.3427 4.66753 39.0156 4.08689 38.6694C3.49081 38.3169 2.9751 37.9453 2.53977 37.5548C2.11988 37.1708 1.78448 36.7578 1.53359 36.316Z" fill="#038585"/>
</svg>
