<svg width="75" height="62" viewBox="0 0 75 62" fill="none" xmlns="http://www.w3.org/2000/svg">
<path fill-rule="evenodd" clip-rule="evenodd" d="M32.3025 1.05413C31.9235 1.25942 31.5687 1.61125 31.2381 2.10962C30.8896 2.6136 30.5611 3.21727 30.2526 3.92065C29.9262 4.62962 29.6003 5.40586 29.275 6.24936C28.9497 7.09286 28.6143 7.96839 28.269 8.87595C27.9121 9.77749 27.5436 10.673 27.1635 11.5626C26.7834 12.4521 26.3696 13.2944 25.9222 14.0894C25.4747 14.8844 24.9946 15.6029 24.4818 16.245C23.9575 16.8811 23.3952 17.423 22.7951 17.8709C22.2012 18.3071 21.5747 18.6669 20.9156 18.9501C20.2744 19.2278 19.6147 19.4438 18.9366 19.5982C18.2638 19.7701 17.5926 19.8983 16.9229 19.9825C16.2532 20.0668 15.602 20.1309 14.9692 20.1748C14.3416 20.2362 13.7378 20.2951 13.1576 20.3514C12.589 20.4137 12.061 20.497 11.5735 20.6014C11.0976 20.7117 10.679 20.8668 10.3179 21.0664C9.94515 21.2601 9.63559 21.5015 9.38921 21.7905C9.13652 22.0911 8.92962 22.4303 8.76854 22.8082C8.58955 23.1917 8.44163 23.6137 8.32477 24.0741C8.20791 24.5345 8.09894 25.0213 7.99788 25.5346C7.89681 26.0478 7.79785 26.5845 7.701 27.1446C7.58625 27.7103 7.45623 28.2904 7.31094 28.885C7.17724 29.4855 6.99878 30.1 6.77558 30.7285C6.55869 31.3455 6.29443 31.9676 5.98278 32.5949C5.68903 33.2166 5.35369 33.8465 4.97676 34.4846C4.60614 35.111 4.21763 35.7431 3.81122 36.3808C3.4227 37.0129 3.03735 37.6392 2.65516 38.2597C2.26664 38.8917 1.91077 39.5184 1.58753 40.1397C1.25272 40.755 0.965289 41.3651 0.725241 41.97C0.496773 42.5809 0.327795 43.178 0.218308 43.7613C0.114087 44.3623 0.0962035 44.941 0.164664 45.4976C0.226803 46.0657 0.389496 46.6265 0.652747 47.1799C0.910735 47.7157 1.25506 48.2293 1.68572 48.7206C2.11639 49.212 2.61602 49.6722 3.18462 50.1012C3.7648 50.5362 4.39973 50.9251 5.08942 51.268C5.7791 51.611 6.51774 51.9049 7.30535 52.1497C8.09295 52.3946 8.91214 52.5814 9.76291 52.7102C10.62 52.8273 11.4913 52.8774 12.3768 52.8605C13.2739 52.8495 14.1768 52.7597 15.0855 52.591C15.9879 52.4339 16.8928 52.2038 17.8005 51.9005C18.6965 51.5913 19.5968 51.247 20.5012 50.8677C21.4004 50.4708 22.288 50.0679 23.1641 49.659C24.0401 49.25 24.904 48.8497 25.7558 48.458C26.6192 48.0723 27.4605 47.7272 28.2797 47.4228C29.1052 47.1067 29.9133 46.8635 30.704 46.6932C31.4832 46.5168 32.2439 46.4426 32.9863 46.4704C33.7233 46.4806 34.4325 46.6104 35.1137 46.8596C35.8129 47.1032 36.4757 47.4546 37.1022 47.9136C37.7466 48.367 38.3679 48.8903 38.966 49.4834C39.5641 50.0765 40.1427 50.7191 40.7018 51.4111C41.2788 52.0975 41.8374 52.8042 42.3776 53.531C42.9178 54.2579 43.4495 54.9729 43.9729 55.6761C44.4962 56.3793 45.0179 57.0445 45.5381 57.6716C46.052 58.3104 46.5627 58.8731 47.0702 59.3597C47.5893 59.8523 48.1084 60.263 48.6275 60.5919C49.1466 60.9208 49.6541 61.1617 50.1501 61.3148C50.6513 61.4855 51.1435 61.5772 51.6268 61.5897C52.0922 61.6079 52.5424 61.5585 52.9772 61.4418C53.4058 61.3366 53.8043 61.1637 54.1728 60.9232C54.535 60.6943 54.8635 60.4181 55.1583 60.0947C55.4416 59.7653 55.6848 59.4002 55.888 58.9995C56.0859 58.5812 56.2259 58.1328 56.3081 57.6544C56.4018 57.1819 56.4433 56.6825 56.4328 56.156C56.417 55.6119 56.3691 55.0585 56.289 54.496C56.209 53.9334 56.1147 53.356 56.0062 52.7639C55.8915 52.1833 55.783 51.5911 55.6808 50.9873C55.5724 50.3951 55.4786 49.8031 55.3996 49.2113C55.3259 48.6372 55.2875 48.0664 55.2843 47.4991C55.2811 46.9317 55.3332 46.3856 55.4406 45.8608C55.548 45.3359 55.7222 44.8383 55.9633 44.3679C56.2044 43.8975 56.5156 43.4486 56.8967 43.0211C57.2663 42.5876 57.6943 42.1695 58.1807 41.7669C58.6556 41.3582 59.1747 40.9502 59.738 40.5428C60.3013 40.1354 60.8883 39.7254 61.499 39.3127C62.116 38.8885 62.7483 38.4499 63.3958 37.9969C64.0433 37.5438 64.7009 37.0587 65.3684 36.5417C66.0181 36.0302 66.663 35.4864 67.3032 34.9105C67.9496 34.3229 68.5682 33.6911 69.1589 33.015C69.7548 32.3566 70.3166 31.6655 70.844 30.9418C71.3715 30.218 71.8496 29.4761 72.2781 28.7159C72.7119 27.9733 73.0777 27.2327 73.3757 26.4941C73.6737 25.7555 73.8911 25.0421 74.0279 24.3539C74.1827 23.6601 74.2358 23.0028 74.1874 22.3822C74.1505 21.7677 74.0026 21.2071 73.7435 20.7005C73.5024 20.1884 73.1317 19.7505 72.6316 19.3868C72.143 19.0291 71.5312 18.734 70.7963 18.5016C70.0666 18.2868 69.2411 18.1116 68.3198 17.976C67.4037 17.858 66.4103 17.7594 65.3394 17.6802C64.2865 17.5954 63.1804 17.5128 62.0211 17.4324C60.8734 17.358 59.6941 17.2598 58.4832 17.1377C57.2902 17.0101 56.0962 16.8297 54.9011 16.5968C53.7176 16.3698 52.5515 16.07 51.4027 15.6973C50.2655 15.3306 49.182 14.8653 48.1523 14.3013C47.1109 13.7312 46.1311 13.0889 45.2129 12.3744C44.2832 11.6538 43.4082 10.8872 42.5879 10.0746C41.7613 9.27365 40.9911 8.46466 40.2771 7.64768C39.5516 6.82469 38.872 6.04035 38.2381 5.29466C37.5926 4.54297 36.9919 3.85915 36.4359 3.2432C35.8799 2.62726 35.3587 2.11122 34.8722 1.69509C34.3795 1.29056 33.9198 1.02978 33.4934 0.912745C33.0733 0.784101 32.6763 0.831235 32.3025 1.05413Z" fill="#74A892"/>
</svg>
