<svg width="70" height="61" viewBox="0 0 70 61" fill="none" xmlns="http://www.w3.org/2000/svg">
<path fill-rule="evenodd" clip-rule="evenodd" d="M57.6275 57.1706C57.2223 57.3243 56.718 57.3627 56.1148 57.2857C55.4956 57.2188 54.8114 57.0707 54.0621 56.8414C53.2969 56.6221 52.4793 56.358 51.6096 56.049C50.7398 55.7401 49.8385 55.4176 48.9057 55.0816C47.9701 54.7584 47.0318 54.448 46.0907 54.1504C45.1496 53.8528 44.2236 53.6122 43.3129 53.4285C42.4022 53.2447 41.5303 53.1365 40.6971 53.1036C39.8611 53.0836 39.0743 53.1546 38.3365 53.3168C37.612 53.4818 36.9262 53.7222 36.2791 54.0381C35.648 54.344 35.0532 54.7048 34.4947 55.1203C33.9259 55.5201 33.3924 55.9478 32.8942 56.4031C32.3959 56.8585 31.9254 57.3132 31.4826 57.7671C31.0294 58.2055 30.5936 58.6274 30.175 59.033C29.7593 59.4257 29.3532 59.7737 28.9569 60.0768C28.5633 60.3671 28.1719 60.5841 27.7826 60.7277C27.3905 60.8843 27.0019 60.9611 26.6168 60.9582C26.2185 60.9524 25.8196 60.8862 25.42 60.7595C25.0045 60.6427 24.579 60.4768 24.1434 60.2619C23.7079 60.0469 23.2568 59.8084 22.7901 59.5465C22.3234 59.2846 21.8397 59.0055 21.3391 58.7094C20.8226 58.4233 20.2849 58.1393 19.7261 57.8574C19.17 57.5627 18.5742 57.2929 17.9385 57.0481C17.3159 56.806 16.6587 56.5967 15.9669 56.4202C15.291 56.2336 14.5818 56.0734 13.8394 55.9395C13.1101 55.8085 12.365 55.6874 11.6038 55.5763C10.8586 55.4552 10.12 55.3356 9.38796 55.2174C8.64277 55.0963 7.92286 54.9539 7.22824 54.7901C6.53085 54.6391 5.86811 54.4555 5.24001 54.239C4.61469 54.0098 4.03856 53.7443 3.51162 53.4425C2.97431 53.125 2.51009 52.7564 2.11897 52.3364C1.71469 51.9137 1.38109 51.4191 1.11817 50.8526C0.865635 50.3017 0.686197 49.6997 0.579855 49.0464C0.473514 48.3931 0.436103 47.7078 0.467624 46.9905C0.501921 46.2604 0.607565 45.5189 0.784553 44.766C0.961541 44.0131 1.20849 43.2552 1.52539 42.4924C1.84229 41.7296 2.22498 40.981 2.67347 40.2467C3.13511 39.5152 3.65838 38.8171 4.24328 38.1525C4.83095 37.4752 5.48406 36.8454 6.20259 36.2634C6.90796 35.6786 7.67219 35.14 8.49526 34.6476C9.31555 34.1681 10.166 33.7085 11.0465 33.2688C11.9374 32.8448 12.8256 32.4336 13.7109 32.0352C14.5963 31.6368 15.4671 31.242 16.3234 30.8507C17.1824 30.4466 17.9954 30.0325 18.7623 29.6085C19.5424 29.1873 20.2543 28.7312 20.898 28.2403C21.5389 27.7622 22.0881 27.2307 22.5455 26.6458C23.0133 26.0765 23.3696 25.4496 23.6144 24.7651C23.8752 24.0706 24.0283 23.3326 24.0737 22.5513C24.135 21.7599 24.1268 20.9401 24.0489 20.0919C23.9711 19.2436 23.842 18.3775 23.6617 17.4937C23.4973 16.5998 23.3051 15.7067 23.0853 14.8143C22.8655 13.9219 22.6495 13.0437 22.4373 12.1798C22.2251 11.3158 22.0416 10.4782 21.8869 9.66693C21.719 8.85281 21.6085 8.09135 21.5555 7.38256C21.5053 6.66097 21.5192 5.99346 21.597 5.38005C21.6749 4.76663 21.814 4.22012 22.0144 3.74051C22.2045 3.24524 22.4506 2.80904 22.7527 2.43192C23.039 2.06476 23.3681 1.75382 23.7402 1.4991C24.0991 1.24154 24.4915 1.05159 24.9176 0.929242C25.3304 0.804049 25.7585 0.735789 26.2018 0.72446C26.6423 0.725941 27.0848 0.781506 27.5294 0.891154C27.9844 1.01646 28.4255 1.20581 28.8528 1.45921C29.2828 1.69979 29.7003 1.99802 30.1053 2.35389C30.5206 2.72541 30.9225 3.12753 31.3109 3.56025C31.6992 3.99297 32.09 4.44633 32.4831 4.92033C32.8632 5.39147 33.2563 5.86547 33.6627 6.34231C34.0558 6.81631 34.4584 7.27892 34.8703 7.73015C35.2718 8.16572 35.6934 8.57211 36.1351 8.94933C36.5768 9.32655 37.0376 9.64756 37.5174 9.91234C37.9973 10.1771 38.499 10.3729 39.0225 10.4996C39.5461 10.6264 40.0981 10.6855 40.6785 10.677C41.2561 10.6814 41.8594 10.6309 42.4884 10.5257C43.1145 10.4333 43.7688 10.3067 44.4511 10.1459C45.1334 9.98521 45.833 9.8081 46.55 9.61463C47.2801 9.42401 48.0313 9.23126 48.8037 9.03637C49.5761 8.84149 50.3799 8.66013 51.2153 8.49229C52.0348 8.33442 52.8764 8.20145 53.7401 8.0934C54.617 7.98819 55.5105 7.93351 56.4206 7.92936C57.3204 7.90955 58.2235 7.93742 59.1301 8.01297C60.0367 8.08852 60.9256 8.21388 61.7968 8.38906C62.6577 8.54858 63.4732 8.75861 64.2432 9.01917C65.0133 9.27972 65.7116 9.5851 66.3383 9.93531C66.9809 10.2755 67.5292 10.6692 67.9834 11.1161C68.4403 11.5503 68.7832 12.0335 69.0122 12.5658C69.2572 13.0882 69.3604 13.6604 69.322 14.2823C69.2864 14.8915 69.1223 15.5533 68.8296 16.2677C68.5266 16.9665 68.1308 17.7122 67.6421 18.5049C67.143 19.2819 66.5788 20.1052 65.9495 20.9747C65.3361 21.8343 64.6867 22.733 64.0012 23.6709C63.3185 24.5959 62.6341 25.5608 61.9479 26.5655C61.2777 27.5603 60.6479 28.5906 60.0587 29.6566C59.4722 30.7097 58.9539 31.7977 58.5038 32.9206C58.0566 34.0307 57.7211 35.165 57.4975 36.3235C57.2712 37.4948 57.1411 38.6668 57.1072 39.8396C57.0706 41.0251 57.1054 42.1993 57.2115 43.3622C57.3044 44.5221 57.44 45.6444 57.6181 46.7289C57.7935 47.8263 57.9682 48.8631 58.1423 49.8395C58.3136 50.8287 58.4606 51.7389 58.5835 52.5701C58.7064 53.4013 58.7736 54.14 58.785 54.7861C58.7833 55.4294 58.6906 55.9525 58.5069 56.3552C58.3363 56.7608 58.0432 57.0326 57.6275 57.1706Z" fill="#E5C185"/>
</svg>
