<svg width="80" height="49" viewBox="0 0 80 49" fill="none" xmlns="http://www.w3.org/2000/svg">
<path fill-rule="evenodd" clip-rule="evenodd" d="M79.3683 34.85C79.6037 34.4245 79.7644 33.9725 79.8505 33.4939C79.9365 33.0154 79.954 32.5249 79.9029 32.0224C79.8478 31.5103 79.7473 30.9767 79.6014 30.4218C79.4443 29.8828 79.2438 29.3273 79.0001 28.7553C78.7605 28.1929 78.5028 27.6094 78.2271 27.0049C77.9401 26.4163 77.6391 25.8163 77.3243 25.2049C77.0094 24.5935 76.7023 23.979 76.4029 23.3613C76.0839 22.7402 75.7901 22.1145 75.5216 21.4843C75.2418 20.8701 74.9949 20.2481 74.7809 19.6185C74.567 18.9888 74.3923 18.366 74.2566 17.75C74.121 17.1341 74.0225 16.5201 73.961 15.9081C73.8842 15.3024 73.8366 14.7018 73.8185 14.1064C73.8003 13.511 73.8058 12.9286 73.8351 12.3594C73.8448 11.7868 73.8586 11.2239 73.8765 10.6706C73.8986 10.1271 73.9248 9.59326 73.9551 9.06911C73.97 8.55124 73.9757 8.05419 73.9721 7.57795C73.9643 7.09201 73.9376 6.62519 73.8917 6.17747C73.8305 5.73602 73.7425 5.31682 73.6277 4.91987C73.5088 4.51321 73.3554 4.13195 73.1675 3.77606C72.9642 3.42644 72.7187 3.10534 72.4309 2.81277C72.1391 2.51049 71.8029 2.23189 71.4225 1.97696C71.0463 1.73172 70.6278 1.515 70.1671 1.3268C69.7023 1.12891 69.203 0.956393 68.6692 0.809261C68.1396 0.671823 67.5811 0.551782 66.9938 0.449139C66.4107 0.35619 65.8085 0.282347 65.1872 0.227614C64.5547 0.18885 63.9031 0.169194 63.2324 0.168645C62.5773 0.161821 61.9072 0.183799 61.2222 0.234582C60.5372 0.285361 59.8429 0.356962 59.1395 0.44938C58.436 0.541796 57.733 0.656744 57.0306 0.794218C56.3282 0.931693 55.634 1.08856 54.9482 1.26481C54.2468 1.44735 53.5517 1.64442 52.8628 1.85604C52.1738 2.06766 51.4833 2.29696 50.7914 2.54394C50.0952 2.78122 49.3955 3.03134 48.6922 3.29429C47.993 3.56694 47.2841 3.83788 46.5653 4.1071C45.8507 4.38602 45.1284 4.66808 44.3983 4.95327C43.6641 5.22877 42.9145 5.51054 42.1494 5.79859C41.3802 6.07694 40.5991 6.34874 39.8062 6.61397C39.0019 6.89518 38.1817 7.16012 37.3455 7.40882C36.5093 7.65752 35.6514 7.89794 34.7719 8.1301C33.8924 8.36226 32.9872 8.57645 32.0561 8.77268C31.1251 8.9689 30.1724 9.15686 29.1981 9.33655C28.2433 9.51966 27.2669 9.6945 26.2689 9.86107C25.2863 10.0214 24.3037 10.1817 23.3211 10.342C22.319 10.4988 21.3287 10.6623 20.3502 10.8323C19.3718 11.0023 18.4052 11.1788 17.4504 11.3619C16.4957 11.545 15.5646 11.7413 14.6573 11.9506C13.75 12.1599 12.8684 12.3873 12.0126 12.6325C11.161 12.8875 10.3449 13.1621 9.56433 13.4565C8.79511 13.7348 8.05993 14.0505 7.35878 14.4036C6.67308 14.7504 6.03686 15.1283 5.45012 15.5372C4.87882 15.9399 4.34929 16.3768 3.86151 16.8479C3.38505 17.3031 2.96165 17.7765 2.59134 18.2681C2.22515 18.7694 1.9079 19.2793 1.6396 19.7978C1.39087 20.3197 1.18901 20.8453 1.03404 21.3745C0.87906 21.9038 0.778682 22.4337 0.732902 22.9641C0.687121 23.4945 0.701597 24.0175 0.776328 24.5331C0.846928 25.039 0.967995 25.5358 1.13953 26.0234C1.32651 26.5048 1.56755 26.9642 1.86265 27.4016C2.15774 27.8391 2.50484 28.2497 2.90392 28.6335C3.29887 29.0077 3.76333 29.3536 4.29729 29.6712C4.81168 29.9855 5.36827 30.2712 5.96707 30.5284C6.58131 30.7793 7.22437 31.0129 7.89626 31.229C8.56816 31.4452 9.26887 31.6439 9.99842 31.8253C10.728 32.0066 11.4652 32.1848 12.2102 32.3599C12.9552 32.535 13.6981 32.7052 14.439 32.8706C15.1994 33.0394 15.9444 33.2144 16.6739 33.3958C17.388 33.5834 18.0887 33.7821 18.7761 33.992C19.4634 34.2019 20.1142 34.4323 20.7285 34.6832C21.3427 34.9341 21.9127 35.2087 22.4384 35.507C22.9682 35.815 23.4481 36.1546 23.8781 36.5259C24.3039 36.8875 24.6798 37.2807 25.0058 37.7056C25.3473 38.1242 25.6424 38.5617 25.8911 39.018C26.1553 39.4679 26.3886 39.9305 26.5911 40.4056C26.8089 40.8744 27.0016 41.3478 27.169 41.8257C27.3518 42.2974 27.5228 42.7625 27.682 43.2211C27.8411 43.6796 28.0095 44.1173 28.1871 44.5343C28.3493 44.9574 28.5285 45.3567 28.7246 45.732C28.9208 46.1072 29.1452 46.4426 29.3979 46.738C29.6393 47.0494 29.9146 47.3129 30.2239 47.5285C30.5332 47.7441 30.8862 47.9135 31.2829 48.0366C31.6797 48.1598 32.1201 48.2368 32.6043 48.2676C33.069 48.295 33.5815 48.2858 34.1418 48.2402C34.7022 48.1945 35.3006 48.1107 35.9371 47.9886C36.5623 47.8825 37.2276 47.743 37.9331 47.5702C38.6427 47.407 39.3867 47.2185 40.1653 47.0046C40.9284 46.797 41.7301 46.5737 42.5705 46.3347C43.4108 46.0957 44.282 45.8441 45.1842 45.58C46.0863 45.3159 47.0157 45.0521 47.9724 44.7886C48.9292 44.5251 49.9075 44.2698 50.9075 44.0228C51.9188 43.7599 52.9539 43.51 54.0126 43.2733C55.0672 43.0269 56.1357 42.7919 57.2182 42.5682C58.3119 42.3287 59.4 42.0971 60.4825 41.8735C61.5649 41.6499 62.6376 41.4245 63.7004 41.1975C64.7592 40.9608 65.7927 40.7286 66.8009 40.501C67.8205 40.2575 68.803 40.0119 69.7484 39.7643C70.6938 39.5168 71.596 39.2527 72.4548 38.972C73.2982 38.6977 74.0906 38.4099 74.8319 38.1088C75.5733 37.8076 76.2343 37.4879 76.815 37.1497C77.4111 36.8051 77.9268 36.4421 78.3621 36.0605C78.782 35.6852 79.1174 35.2817 79.3683 34.85Z" fill="#038585"/>
</svg>
