<svg width="70" height="59" viewBox="0 0 70 59" fill="none" xmlns="http://www.w3.org/2000/svg">
<path fill-rule="evenodd" clip-rule="evenodd" d="M12.2753 55.2617C12.6806 55.4118 13.1848 55.4493 13.788 55.3741C14.4072 55.3087 15.0914 55.164 15.8408 54.94C16.606 54.7257 17.4235 54.4676 18.2933 54.1657C19.163 53.8638 20.0643 53.5487 20.9971 53.2203C21.9327 52.9045 22.871 52.6012 23.8122 52.3104C24.7533 52.0196 25.6792 51.7845 26.5899 51.605C27.5006 51.4254 28.3725 51.3196 29.2058 51.2876C30.0417 51.268 30.8286 51.3374 31.5663 51.4959C32.2909 51.6571 32.9767 51.892 33.6237 52.2007C34.2549 52.4996 34.8496 52.8521 35.4081 53.2581C35.9769 53.6489 36.5105 54.0667 37.0087 54.5117C37.5069 54.9567 37.9774 55.401 38.4202 55.8446C38.8734 56.2728 39.3093 56.6851 39.7278 57.0815C40.1436 57.4652 40.5496 57.8052 40.9459 58.1014C41.3395 58.3851 41.7309 58.5971 42.1203 58.7375C42.5124 58.8905 42.901 58.9655 43.286 58.9627C43.6843 58.9571 44.0832 58.8923 44.4828 58.7685C44.8983 58.6544 45.3238 58.4924 45.7594 58.2823C46.1949 58.0722 46.6461 57.8392 47.1128 57.5833C47.5795 57.3273 48.0631 57.0547 48.5637 56.7653C49.0803 56.4857 49.618 56.2082 50.1768 55.9328C50.7328 55.6448 51.3287 55.3812 51.9644 55.1419C52.5869 54.9054 53.2441 54.7009 53.9359 54.5283C54.6118 54.346 55.321 54.1895 56.0634 54.0587C56.7927 53.9306 57.5379 53.8123 58.299 53.7038C59.0442 53.5854 59.7828 53.4685 60.5149 53.353C61.2601 53.2347 61.98 53.0955 62.6746 52.9355C63.372 52.788 64.0347 52.6085 64.6628 52.397C65.2881 52.173 65.8643 51.9136 66.3912 51.6187C66.9285 51.3085 67.3927 50.9482 67.7839 50.5379C68.1881 50.1248 68.5217 49.6415 68.7847 49.0879C69.0372 48.5497 69.2166 47.9614 69.323 47.323C69.4293 46.6846 69.4667 46.015 69.4352 45.314C69.4009 44.6006 69.2953 43.876 69.1183 43.1403C68.9413 42.4047 68.6943 41.6641 68.3774 40.9187C68.0605 40.1733 67.6778 39.4418 67.2294 38.7243C66.7677 38.0095 66.2444 37.3274 65.6595 36.678C65.0719 36.0161 64.4188 35.4007 63.7002 34.832C62.9949 34.2605 62.2306 33.7342 61.4076 33.2531C60.5873 32.7845 59.7369 32.3354 58.8563 31.9058C57.9654 31.4915 57.0773 31.0897 56.1919 30.7004C55.3065 30.3111 54.4357 29.9252 53.5795 29.5429C52.7204 29.148 51.9074 28.7434 51.1405 28.3291C50.3604 27.9175 49.6485 27.4719 49.0048 26.9922C48.3639 26.5249 47.8148 26.0056 47.3573 25.434C46.8895 24.8778 46.5332 24.2652 46.2884 23.5963C46.0276 22.9176 45.8745 22.1966 45.8291 21.433C45.7678 20.6598 45.7761 19.8587 45.8539 19.0298C45.9317 18.2009 46.0608 17.3547 46.2412 16.491C46.4056 15.6176 46.5977 14.7448 46.8175 13.8728C47.0373 13.0008 47.2533 12.1427 47.4655 11.2985C47.6777 10.4543 47.8612 9.63578 48.016 8.84303C48.1839 8.04751 48.2943 7.30344 48.3473 6.61084C48.3975 5.90573 48.3837 5.25347 48.3058 4.65407C48.2279 4.05466 48.0888 3.52064 47.8884 3.05198C47.6984 2.56802 47.4523 2.14179 47.1501 1.77328C46.8639 1.4145 46.5347 1.11067 46.1627 0.861772C45.8038 0.610092 45.4113 0.424477 44.9853 0.304927C44.5724 0.182594 44.1443 0.115893 43.7011 0.104823C43.2606 0.10627 42.818 0.160565 42.3734 0.26771C41.9184 0.390153 41.4773 0.575178 41.0501 0.822786C40.6201 1.05788 40.2026 1.34929 39.7976 1.69703C39.3822 2.06007 38.9803 2.453 38.592 2.87584C38.2036 3.29868 37.8129 3.74168 37.4197 4.20485C37.0397 4.66523 36.6465 5.1284 36.2402 5.59435C35.847 6.05752 35.4445 6.50957 35.0326 6.95049C34.6311 7.37611 34.2095 7.77322 33.7678 8.14182C33.3261 8.51043 32.8653 8.8241 32.3854 9.08284C31.9056 9.34158 31.4039 9.53287 30.8803 9.65671C30.3568 9.78056 29.8048 9.83834 29.2244 9.83007C28.6467 9.83432 28.0434 9.78502 27.4145 9.68219C26.7883 9.59187 26.1341 9.46817 25.4517 9.31111C24.7694 9.15404 24.0698 8.98098 23.3529 8.79193C22.6227 8.60566 21.8715 8.41731 21.0991 8.22688C20.3268 8.03644 19.5229 7.85923 18.6875 7.69522C17.8681 7.54095 17.0265 7.41103 16.1627 7.30544C15.2858 7.20264 14.3923 7.14921 13.4822 7.14515C12.5825 7.12579 11.6793 7.15303 10.7727 7.22685C9.86613 7.30068 8.97722 7.42318 8.10599 7.59435C7.24515 7.75022 6.42969 7.95546 5.65963 8.21006C4.88956 8.46467 4.19121 8.76307 3.56456 9.10528C2.92198 9.43775 2.37362 9.82236 1.91948 10.2591C1.46257 10.6833 1.11961 11.1555 0.890615 11.6757C0.645685 12.1862 0.542424 12.7452 0.580824 13.353C0.616447 13.9482 0.780575 14.5949 1.07321 15.293C1.37623 15.9758 1.77208 16.7045 2.26077 17.4791C2.75983 18.2384 3.32403 19.0429 3.95336 19.8926C4.56674 20.7325 5.21617 21.6107 5.90163 22.5271C6.58432 23.431 7.26875 24.3738 7.95494 25.3556C8.62519 26.3276 9.25494 27.3345 9.84419 28.3761C10.4307 29.4051 10.9489 30.4683 11.399 31.5655C11.8463 32.6503 12.1817 33.7587 12.4053 34.8907C12.6317 36.0352 12.7618 37.1805 12.7956 38.3265C12.8322 39.485 12.7975 40.6323 12.6914 41.7686C12.5984 42.9021 12.4629 43.9987 12.2847 45.0585C12.1093 46.1307 11.9346 47.1439 11.7606 48.098C11.5893 49.0646 11.4422 49.954 11.3193 50.7662C11.1964 51.5784 11.1293 52.3002 11.1178 52.9316C11.1195 53.5602 11.2122 54.0713 11.396 54.4649C11.5666 54.8612 11.8597 55.1268 12.2753 55.2617Z" fill="#E5C185"/>
</svg>
