<svg width="70" height="60" viewBox="0 0 70 60" fill="none" xmlns="http://www.w3.org/2000/svg">
<path fill-rule="evenodd" clip-rule="evenodd" d="M12.539 3.89066C12.9442 3.74051 13.4485 3.70302 14.0517 3.7782C14.6709 3.84365 15.3551 3.98837 16.1044 4.21238C16.8696 4.42665 17.6871 4.68474 18.5569 4.98664C19.4267 5.28854 20.328 5.60366 21.2608 5.93199C22.1963 6.24781 23.1347 6.55111 24.0758 6.8419C25.0169 7.13269 25.9428 7.36784 26.8536 7.54737C27.7643 7.72689 28.6362 7.83269 29.4694 7.86478C30.3054 7.88436 31.0922 7.81493 31.83 7.65648C32.5545 7.49524 33.2403 7.26029 33.8874 6.95163C34.5185 6.6527 35.1133 6.30022 35.6718 5.89419C36.2406 5.50346 36.7741 5.08561 37.2723 4.64064C37.7706 4.19566 38.2411 3.75137 38.6839 3.30778C39.1371 2.87949 39.5729 2.46719 39.9915 2.07088C40.4072 1.68709 40.8133 1.3471 41.2096 1.05092C41.6032 0.767262 41.9946 0.555221 42.3839 0.414808C42.776 0.261874 43.1646 0.186825 43.5497 0.189656C43.948 0.195266 44.3469 0.259984 44.7465 0.383813C45.162 0.497908 45.5875 0.659985 46.0231 0.87004C46.4586 1.0801 46.9097 1.31311 47.3764 1.56907C47.8431 1.82502 48.3268 2.09767 48.8274 2.38701C49.3439 2.66662 49.8816 2.94414 50.4404 3.21958C50.9965 3.50753 51.5923 3.77115 52.228 4.01044C52.8506 4.24695 53.5078 4.45147 54.1996 4.62401C54.8755 4.80628 55.5847 4.96283 56.3271 5.09366C57.0564 5.2217 57.8016 5.34001 58.5627 5.44858C59.3079 5.56689 60.0465 5.68381 60.7785 5.79934C61.5237 5.91765 62.2436 6.05681 62.9383 6.21683C63.6357 6.36434 64.2984 6.54383 64.9265 6.75531C65.5518 6.9793 66.1279 7.23875 66.6549 7.53365C67.1922 7.84386 67.6564 8.20412 68.0475 8.61444C68.4518 9.02754 68.7854 9.51087 69.0483 10.0644C69.3009 10.6027 69.4803 11.191 69.5867 11.8293C69.693 12.4677 69.7304 13.1374 69.6989 13.8383C69.6646 14.5517 69.5589 15.2763 69.382 16.012C69.205 16.7477 68.958 17.4882 68.6411 18.2336C68.3242 18.979 67.9415 19.7105 67.493 20.4281C67.0314 21.1429 66.5081 21.825 65.9232 22.4744C65.3356 23.1363 64.6824 23.7516 63.9639 24.3203C63.2585 24.8918 62.4943 25.4181 61.6712 25.8992C60.851 26.3678 60.0005 26.8169 59.12 27.2465C58.2291 27.6609 57.3409 28.0627 56.4556 28.452C55.5702 28.8413 54.6994 29.2271 53.8431 29.6094C52.9841 30.0043 52.1711 30.4089 51.4042 30.8233C50.6241 31.2348 49.9122 31.6805 49.2685 32.1602C48.6276 32.6274 48.0784 33.1468 47.621 33.7183C47.1532 34.2745 46.7969 34.8871 46.5521 35.556C46.2913 36.2347 46.1382 36.9558 46.0928 37.7193C46.0315 38.4925 46.0397 39.2936 46.1176 40.1225C46.1954 40.9514 46.3245 41.7977 46.5048 42.6614C46.6693 43.5348 46.8614 44.4075 47.0812 45.2795C47.301 46.1515 47.517 47.0097 47.7292 47.8539C47.9414 48.6981 48.1249 49.5166 48.2796 50.3093C48.4475 51.1048 48.558 51.8489 48.611 52.5415C48.6612 53.2466 48.6473 53.8989 48.5695 54.4983C48.4916 55.0977 48.3525 55.6317 48.1521 56.1004C47.962 56.5843 47.7159 57.0106 47.4138 57.3791C47.1275 57.7378 46.7984 58.0417 46.4263 58.2906C46.0674 58.5423 45.675 58.7279 45.2489 58.8474C44.8361 58.9697 44.408 59.0365 43.9647 59.0475C43.5242 59.0461 43.0817 58.9918 42.6371 58.8846C42.1821 58.7622 41.741 58.5772 41.3137 58.3296C40.8837 58.0945 40.4662 57.8031 40.0612 57.4553C39.6458 57.0923 39.244 56.6993 38.8556 56.2765C38.4673 55.8537 38.0765 55.4107 37.6834 54.9475C37.3033 54.4871 36.9102 54.0239 36.5038 53.558C36.1107 53.0948 35.7081 52.6428 35.2962 52.2019C34.8947 51.7762 34.4731 51.3791 34.0314 51.0105C33.5897 50.6419 33.1289 50.3282 32.6491 50.0695C32.1692 49.8108 31.6675 49.6195 31.144 49.4956C30.6204 49.3718 30.0684 49.314 29.488 49.3223C28.9104 49.318 28.3071 49.3673 27.6781 49.4702C27.052 49.5605 26.3977 49.6842 25.7154 49.8412C25.0331 49.9983 24.3335 50.1714 23.6165 50.3604C22.8864 50.5467 22.1352 50.735 21.3628 50.9255C20.5904 51.1159 19.7865 51.2931 18.9512 51.4571C18.1317 51.6114 17.2901 51.7413 16.4264 51.8469C15.5495 51.9497 14.656 52.0031 13.7459 52.0072C12.8461 52.0265 11.943 51.9993 11.0364 51.9255C10.1298 51.8517 9.24087 51.7292 8.36964 51.558C7.5088 51.4021 6.69334 51.1969 5.92328 50.9423C5.15321 50.6877 4.45486 50.3893 3.82821 50.0471C3.18562 49.7146 2.63726 49.33 2.18313 48.8932C1.72621 48.469 1.38326 47.9968 1.15426 47.4766C0.909332 46.9662 0.80607 46.4071 0.84447 45.7993C0.880093 45.2041 1.04422 44.5574 1.33686 43.8593C1.63987 43.1765 2.03573 42.4478 2.52441 41.6732C3.02348 40.9139 3.58768 40.1094 4.217 39.2598C4.8304 38.4198 5.47982 37.5417 6.16528 36.6253C6.84797 35.7214 7.5324 34.7785 8.21859 33.7967C8.88884 32.8247 9.51859 31.8179 10.1078 30.7763C10.6943 29.7472 11.2126 28.684 11.6626 27.5868C12.1099 26.5021 12.4454 25.3937 12.669 24.2616C12.8953 23.1171 13.0254 21.9718 13.0593 20.8259C13.0958 19.6674 13.0611 18.52 12.955 17.3837C12.8621 16.2503 12.7265 15.1537 12.5484 14.0939C12.373 13.0216 12.1983 12.0084 12.0242 11.0543C11.8529 10.0877 11.7058 9.19834 11.583 8.38613C11.4601 7.57392 11.3929 6.85211 11.3815 6.22071C11.3832 5.59209 11.4759 5.081 11.6596 4.68744C11.8302 4.29111 12.1233 4.02551 12.539 3.89066Z" fill="#E5C185"/>
</svg>
