<svg width="63" height="49" viewBox="0 0 63 49" fill="none" xmlns="http://www.w3.org/2000/svg">
<path fill-rule="evenodd" clip-rule="evenodd" d="M62.2208 34.7367C61.8622 34.9562 61.3667 35.1284 60.7342 35.2533C60.0889 35.3894 59.3518 35.4908 58.5231 35.5577C57.6814 35.6357 56.7727 35.6994 55.7968 35.7487C54.8209 35.798 53.809 35.8476 52.7609 35.8973C51.7141 35.9564 50.6687 36.0247 49.6246 36.1023C48.5806 36.1799 47.5702 36.2906 46.5935 36.4345C45.6169 36.5784 44.7036 36.7609 43.8537 36.9818C43.0051 37.2121 42.2355 37.4881 41.5447 37.81C40.8681 38.13 40.2549 38.4885 39.7051 38.8855C39.1681 39.2713 38.6854 39.6826 38.257 40.1196C37.8131 40.5493 37.4137 40.987 37.0589 41.4328C36.704 41.8786 36.3769 42.3158 36.0774 42.7445C35.7624 43.1659 35.4595 43.5714 35.1689 43.9611C34.8769 44.3415 34.5802 44.6895 34.2788 45.005C33.9761 45.3113 33.6518 45.5686 33.306 45.7768C32.9616 45.9944 32.595 46.1583 32.2061 46.2685C31.8031 46.3807 31.3799 46.4531 30.9365 46.4858C30.4802 46.5297 29.998 46.5441 29.4899 46.529C28.9818 46.5139 28.4504 46.4879 27.8957 46.4508C27.341 46.4138 26.7638 46.3704 26.1639 46.3207C25.5512 46.2822 24.9179 46.2512 24.264 46.2278C23.6088 46.1952 22.9215 46.1906 22.2021 46.214C21.4968 46.2355 20.7673 46.2887 20.0134 46.3736C19.2723 46.4472 18.5062 46.548 17.7152 46.6758C16.9383 46.8016 16.1485 46.9387 15.346 47.087C14.5562 47.2241 13.7736 47.3602 12.998 47.4953C12.2083 47.6324 11.4372 47.748 10.6846 47.8421C9.93337 47.9456 9.20648 48.0173 8.50393 48.0573C7.80003 48.0881 7.13398 48.0805 6.50576 48.0347C5.86203 47.9816 5.2754 47.8733 4.74586 47.71C4.20214 47.5486 3.70643 47.3191 3.25871 47.0216C2.8265 46.7315 2.45139 46.3862 2.13337 45.9858C1.81535 45.5854 1.55643 45.1438 1.35661 44.661C1.15546 44.1689 1.02249 43.6486 0.957723 43.0999C0.892954 42.5513 0.897048 41.979 0.970006 41.383C1.04296 40.787 1.18679 40.1813 1.40149 39.5658C1.63036 38.9484 1.93211 38.3351 2.30673 37.726C2.68002 37.1075 3.13461 36.5016 3.67051 35.908C4.19222 35.3164 4.78816 34.7382 5.45831 34.1735C6.12979 33.6179 6.83805 33.0668 7.58309 32.5201C8.34363 31.9807 9.10552 31.4505 9.86874 30.9296C10.632 30.4087 11.3817 29.8944 12.1179 29.3867C12.8528 28.8697 13.538 28.3596 14.1737 27.8562C14.8235 27.351 15.3934 26.8425 15.8833 26.3309C16.3745 25.8286 16.7561 25.3177 17.028 24.7983C17.3155 24.2862 17.472 23.7685 17.4977 23.2452C17.5361 22.7107 17.4521 22.1789 17.2456 21.6497C17.0519 21.1094 16.7789 20.5705 16.4267 20.033C16.0744 19.4956 15.6648 18.9614 15.1978 18.4303C14.7436 17.888 14.2618 17.3542 13.7523 16.829C13.2428 16.3038 12.7417 15.7868 12.249 15.2782C11.7563 14.7695 11.3011 14.2699 10.8833 13.7793C10.4514 13.2906 10.0943 12.82 9.81212 12.3675C9.5286 11.9056 9.32704 11.4608 9.20746 11.0331C9.08788 10.6054 9.0516 10.2041 9.09864 9.82903C9.13016 9.44667 9.23724 9.08699 9.41987 8.74999C9.58966 8.4242 9.82083 8.12304 10.1134 7.8465C10.3918 7.57192 10.7258 7.33221 11.1154 7.12736C11.4909 6.92446 11.9 6.75473 12.3429 6.61816C12.7871 6.49085 13.2508 6.39866 13.7341 6.34158C14.2329 6.29182 14.7383 6.28838 15.2505 6.33128C15.7613 6.36491 16.2781 6.44024 16.801 6.55727C17.3393 6.68161 17.8739 6.83009 18.4048 7.00271C18.9357 7.17534 19.4757 7.36089 20.0247 7.55936C20.5596 7.75978 21.1087 7.95825 21.6719 8.15477C22.221 8.35324 22.7758 8.54147 23.3364 8.71946C23.8815 8.89013 24.4373 9.03568 25.004 9.15612C25.5708 9.27656 26.1385 9.35433 26.7074 9.38942C27.2762 9.42451 27.8448 9.40766 28.4131 9.33888C28.9814 9.27009 29.5565 9.14839 30.1384 8.97377C30.7217 8.80842 31.3131 8.59942 31.9127 8.34677C32.5136 8.10338 33.1318 7.82928 33.7672 7.52444C34.4026 7.21961 35.0502 6.89892 35.7099 6.56239C36.3838 6.2239 37.0783 5.87785 37.7934 5.52425C38.5085 5.17064 39.2597 4.81679 40.047 4.46269C40.8215 4.11981 41.6263 3.78693 42.4615 3.46404C43.3108 3.1392 44.1932 2.84289 45.1086 2.57511C46.0085 2.30002 46.9273 2.0554 47.8649 1.84127C48.8025 1.62714 49.7384 1.45104 50.6726 1.31299C51.5912 1.16762 52.4804 1.06883 53.3402 1.01661C54.2 0.964392 55.0021 0.962654 55.7464 1.0114C56.5035 1.04892 57.1829 1.14911 57.7847 1.31198C58.3851 1.46558 58.8866 1.68478 59.2891 1.96958C59.7044 2.24316 59.9932 2.59088 60.1553 3.01273C60.316 3.42531 60.3643 3.91008 60.3002 4.46703C60.2206 5.01666 60.0626 5.62434 59.8262 6.29005C59.5743 6.94845 59.2718 7.65635 58.9186 8.41376C58.5782 9.15994 58.2142 9.94247 57.8264 10.7613C57.4374 11.5709 57.0594 12.4073 56.6926 13.2706C56.3386 14.1226 56.0369 14.9863 55.7874 15.8617C55.5366 16.7279 55.3658 17.5972 55.275 18.4697C55.1828 19.3329 55.2111 20.1796 55.3598 21.0096C55.5099 21.8489 55.7573 22.6607 56.1018 23.4449C56.4477 24.2383 56.8617 25.0035 57.344 25.7404C57.8121 26.4793 58.3109 27.1808 58.8405 27.845C59.3714 28.5185 59.8821 29.1522 60.3727 29.7462C60.8645 30.3495 61.3065 30.9076 61.6986 31.4207C62.0908 31.9337 62.3969 32.4019 62.617 32.8252C62.823 33.2505 62.8984 33.6228 62.8434 33.9423C62.8025 34.2598 62.595 34.5246 62.2208 34.7367Z" fill="#74A892"/>
</svg>
