<svg width="70" height="61" viewBox="0 0 70 61" fill="none" xmlns="http://www.w3.org/2000/svg">
<path fill-rule="evenodd" clip-rule="evenodd" d="M57.3629 4.15943C56.9576 4.00577 56.4534 3.96741 55.8501 4.04435C55.231 4.11132 54.5467 4.25943 53.7974 4.48867C53.0322 4.70795 52.2147 4.97207 51.3449 5.28103C50.4751 5.58999 49.5739 5.91247 48.6411 6.24848C47.7055 6.57168 46.7672 6.88208 45.826 7.17966C44.8849 7.47724 43.959 7.7179 43.0483 7.90162C42.1376 8.08533 41.2656 8.19361 40.4324 8.22645C39.5965 8.24649 38.8096 8.17543 38.0719 8.01327C37.3473 7.84827 36.6615 7.60783 36.0145 7.29195C35.3833 6.98603 34.7885 6.62532 34.2301 6.2098C33.6613 5.80994 33.1277 5.38232 32.6295 4.92694C32.1313 4.47156 31.6608 4.01689 31.218 3.56293C30.7648 3.12462 30.3289 2.70269 29.9104 2.29712C29.4946 1.90435 29.0886 1.55642 28.6922 1.25331C28.2987 0.963021 27.9073 0.746026 27.5179 0.602329C27.1258 0.445822 26.7372 0.369015 26.3521 0.371914C25.9539 0.377658 25.555 0.443886 25.1554 0.57061C24.7399 0.687369 24.3143 0.853239 23.8788 1.06821C23.4432 1.28317 22.9921 1.52163 22.5254 1.78357C22.0587 2.04551 21.5751 2.32453 21.0745 2.62063C20.5579 2.90677 20.0202 3.19078 19.4614 3.47266C18.9054 3.76735 18.3095 4.03713 17.6738 4.28201C17.0513 4.52405 16.3941 4.73335 15.7023 4.90993C15.0263 5.09646 14.3172 5.25667 13.5748 5.39055C12.8455 5.52159 12.1003 5.64266 11.3392 5.75377C10.594 5.87485 9.85535 5.9945 9.12331 6.11272C8.37812 6.2338 7.65821 6.37622 6.96359 6.53998C6.2662 6.69094 5.60346 6.87463 4.97536 7.09104C4.35004 7.32027 3.77391 7.58578 3.24697 7.88758C2.70966 8.20504 2.24544 8.57372 1.85432 8.99363C1.45004 9.41639 1.11644 9.91101 0.85352 10.4775C0.600985 11.0283 0.421547 11.6304 0.315205 12.2837C0.208864 12.937 0.171453 13.6223 0.202974 14.3396C0.237272 15.0697 0.342915 15.8112 0.519903 16.5641C0.696891 17.317 0.943836 18.0748 1.26074 18.8377C1.57764 19.6005 1.96033 20.3491 2.40882 21.0834C2.87046 21.8149 3.39373 22.5129 3.97863 23.1775C4.56631 23.8549 5.21941 24.4846 5.93794 25.0666C6.64331 25.6515 7.40754 26.1901 8.23061 26.6825C9.05091 27.162 9.90132 27.6216 10.7819 28.0613C11.6728 28.4853 12.5609 28.8965 13.4463 29.2949C14.3316 29.6933 15.2025 30.0881 16.0587 30.4794C16.9178 30.8835 17.7308 31.2976 18.4977 31.7216C19.2778 32.1428 19.9897 32.5988 20.6334 33.0898C21.2743 33.5679 21.8234 34.0994 22.2808 34.6843C22.7486 35.2536 23.105 35.8805 23.3498 36.565C23.6106 37.2595 23.7636 37.9975 23.8091 38.7788C23.8704 39.5701 23.8621 40.3899 23.7843 41.2382C23.7064 42.0865 23.5773 42.9526 23.397 43.8364C23.2326 44.7303 23.0405 45.6234 22.8207 46.5158C22.6009 47.4082 22.3849 48.2864 22.1726 49.1503C21.9604 50.0143 21.777 50.8519 21.6222 51.6631C21.4543 52.4773 21.3439 53.2387 21.2909 53.9475C21.2407 54.6691 21.2545 55.3366 21.3324 55.95C21.4103 56.5634 21.5494 57.11 21.7498 57.5896C21.9398 58.0848 22.1859 58.521 22.4881 58.8982C22.7743 59.2653 23.1035 59.5763 23.4755 59.831C23.8344 60.0885 24.2269 60.2785 24.6529 60.4008C25.0658 60.526 25.4938 60.5943 25.9371 60.6056C26.3776 60.6041 26.8202 60.5486 27.2648 60.4389C27.7198 60.3136 28.1609 60.1243 28.5881 59.8709C29.0181 59.6303 29.4356 59.3321 29.8406 58.9762C30.256 58.6047 30.6579 58.2025 31.0462 57.7698C31.4346 57.3371 31.8253 56.8837 32.2185 56.4098C32.5985 55.9386 32.9917 55.4646 33.398 54.9878C33.7912 54.5138 34.1937 54.0512 34.6056 53.5999C35.0071 53.1644 35.4287 52.758 35.8704 52.3807C36.3121 52.0035 36.7729 51.6825 37.2528 51.4177C37.7326 51.1529 38.2343 50.9572 38.7579 50.8304C39.2814 50.7037 39.8334 50.6446 40.4138 50.653C40.9915 50.6487 41.5948 50.6991 42.2237 50.8044C42.8499 50.8968 43.5041 51.0234 44.1864 51.1841C44.8688 51.3449 45.5684 51.522 46.2853 51.7154C47.0155 51.9061 47.7667 52.0988 48.5391 52.2937C49.3114 52.4886 50.1153 52.67 50.9507 52.8378C51.7701 52.9957 52.6117 53.1286 53.4755 53.2367C54.3524 53.3419 55.2459 53.3966 56.156 53.4007C57.0557 53.4205 57.9589 53.3927 58.8655 53.3171C59.7721 53.2416 60.661 53.1162 61.5322 52.941C62.3931 52.7815 63.2085 52.5715 63.9786 52.3109C64.7486 52.0504 65.447 51.745 66.0736 51.3948C66.7162 51.0545 67.2646 50.6609 67.7187 50.214C68.1756 49.7798 68.5186 49.2966 68.7476 48.7642C68.9925 48.2419 69.0958 47.6697 69.0574 47.0478C69.0218 46.4386 68.8576 45.7768 68.565 45.0624C68.262 44.3636 67.8661 43.6179 67.3774 42.8252C66.8784 42.0481 66.3142 41.2249 65.6848 40.3553C65.0715 39.4958 64.422 38.5971 63.7366 37.6592C63.0539 36.7342 62.3694 35.7693 61.6833 34.7646C61.013 33.7698 60.3833 32.7395 59.794 31.6735C59.2075 30.6204 58.6893 29.5324 58.2392 28.4095C57.7919 27.2994 57.4565 26.1651 57.2329 25.0066C57.0065 23.8353 56.8764 22.6633 56.8426 21.4905C56.806 20.3049 56.8407 19.1307 56.9468 17.9679C57.0398 16.808 57.1753 15.6857 57.3535 14.6012C57.5289 13.5038 57.7036 12.4669 57.8776 11.4906C58.0489 10.5014 58.196 9.59119 58.3189 8.75999C58.4418 7.92879 58.5089 7.19011 58.5204 6.54395C58.5187 5.90064 58.426 5.3776 58.2422 4.97484C58.0716 4.56924 57.7785 4.29743 57.3629 4.15943Z" fill="#E5C185"/>
</svg>
